<svg width="81" height="100" viewBox="20 -20 81 75" fill="none" xmlns="http://www.w3.org/2000/svg">
<path d="M22.827 17.5916C22.827 18.5884 22.9348 19.3966 23.1233 19.9892C23.3389 20.5819 23.6083 21.2285 23.9854 21.9289C24.1201 22.1444 24.174 22.3599 24.174 22.5485C24.174 22.8179 24.0123 23.0873 23.6621 23.3567L21.9649 24.4882C21.7225 24.6498 21.48 24.7306 21.2645 24.7306C20.9951 24.7306 20.7257 24.5959 20.4563 24.3535C20.0792 23.9494 19.7559 23.5183 19.4865 23.0873C19.2171 22.6293 18.9477 22.1175 18.6514 21.4979C16.5501 23.9763 13.91 25.2155 10.7311 25.2155C8.46815 25.2155 6.66319 24.569 5.34315 23.2759C4.0231 21.9828 3.34961 20.2586 3.34961 18.1035C3.34961 15.8136 4.1578 13.9548 5.80112 12.5539C7.44444 11.153 9.62656 10.4526 12.4013 10.4526C13.3173 10.4526 14.2602 10.5334 15.2569 10.6681C16.2537 10.8028 17.2774 11.0183 18.355 11.2608V9.29419C18.355 7.24678 17.924 5.81897 17.0888 4.98384C16.2268 4.14871 14.772 3.74462 12.6977 3.74462C11.7548 3.74462 10.785 3.85238 9.78819 4.09483C8.79143 4.33729 7.8216 4.63363 6.87871 5.01078C6.44767 5.19936 6.1244 5.30712 5.93582 5.361C5.74724 5.41488 5.61254 5.44182 5.50478 5.44182C5.12763 5.44182 4.93905 5.17242 4.93905 4.60669V3.28664C4.93905 2.85561 4.99293 2.53233 5.12763 2.34375C5.26233 2.15517 5.50478 1.9666 5.88194 1.77802C6.82483 1.29311 7.9563 0.88901 9.27634 0.565733C10.5964 0.215517 11.9972 0.0538794 13.4789 0.0538794C16.6848 0.0538794 19.0285 0.781251 20.5371 2.23599C22.0188 3.69074 22.7731 5.89979 22.7731 8.86316V17.5916H22.827ZM11.8895 21.6864C12.7785 21.6864 13.6944 21.5248 14.6643 21.2015C15.6341 20.8783 16.4962 20.2856 17.2235 19.4774C17.6546 18.9655 17.9779 18.3998 18.1395 17.7533C18.3011 17.1067 18.4089 16.3255 18.4089 15.4095V14.278C17.6276 14.0895 16.7925 13.9278 15.9304 13.8201C15.0684 13.7123 14.2332 13.6584 13.3981 13.6584C11.5932 13.6584 10.2731 14.0086 9.3841 14.736C8.49509 15.4634 8.06405 16.4871 8.06405 17.8341C8.06405 19.1002 8.38733 20.0431 9.06082 20.6897C9.70737 21.3632 10.6503 21.6864 11.8895 21.6864ZM33.5221 24.5959C33.0371 24.5959 32.7139 24.5151 32.4983 24.3265C32.2828 24.1649 32.0943 23.7877 31.9326 23.2759L25.6018 2.45151C25.4401 1.91272 25.3593 1.5625 25.3593 1.37392C25.3593 0.942889 25.5748 0.700432 26.0059 0.700432H28.646C29.1578 0.700432 29.508 0.781251 29.6966 0.969829C29.9121 1.13147 30.0738 1.50862 30.2354 2.02048L34.7613 19.8546L38.9639 2.02048C39.0986 1.48168 39.2602 1.13147 39.4757 0.969829C39.6912 0.808191 40.0684 0.700432 40.5533 0.700432H42.7085C43.2203 0.700432 43.5706 0.781251 43.7861 0.969829C44.0016 1.13147 44.1902 1.50862 44.2979 2.02048L48.5544 20.0701L53.215 2.02048C53.3766 1.48168 53.5652 1.13147 53.7538 0.969829C53.9693 0.808191 54.3195 0.700432 54.8044 0.700432H57.3098C57.7408 0.700432 57.9833 0.915949 57.9833 1.37392C57.9833 1.50862 57.9563 1.64332 57.9294 1.80496C57.9025 1.9666 57.8486 2.18211 57.7408 2.47845L51.2484 23.3028C51.0867 23.8416 50.8982 24.1918 50.6826 24.3535C50.4671 24.5151 50.1169 24.6229 49.6589 24.6229H47.3421C46.8303 24.6229 46.48 24.5421 46.2645 24.3535C46.049 24.1649 45.8604 23.8147 45.7527 23.2759L41.577 5.89979L37.4283 23.249C37.2936 23.7877 37.132 24.138 36.9165 24.3265C36.7009 24.5151 36.3238 24.5959 35.8389 24.5959H33.5221ZM68.1395 25.3233C66.7387 25.3233 65.3378 25.1617 63.9908 24.8384C62.6439 24.5151 61.5932 24.1649 60.8928 23.7608C60.4617 23.5183 60.1654 23.249 60.0576 23.0065C59.9499 22.764 59.896 22.4946 59.896 22.2522V20.8783C59.896 20.3125 60.1115 20.0431 60.5156 20.0431C60.6773 20.0431 60.8389 20.0701 61.0005 20.1239C61.1622 20.1778 61.4046 20.2856 61.674 20.3933C62.59 20.7974 63.5867 21.1207 64.6374 21.3362C65.715 21.5518 66.7656 21.6595 67.8432 21.6595C69.5404 21.6595 70.8605 21.3632 71.7764 20.7705C72.6924 20.1778 73.1773 19.3158 73.1773 18.2112C73.1773 17.4569 72.9348 16.8373 72.4499 16.3255C71.965 15.8136 71.049 15.3556 69.729 14.9246L65.8227 13.7123C63.8561 13.0927 62.4014 12.1767 61.5124 10.9645C60.6234 9.77911 60.1654 8.45906 60.1654 7.0582C60.1654 5.92673 60.4079 4.92996 60.8928 4.06789C61.3777 3.20582 62.0242 2.45151 62.8324 1.85884C63.6406 1.23923 64.5566 0.781251 65.6342 0.457975C66.7117 0.134698 67.8432 0 69.0286 0C69.6212 0 70.2408 0.0269397 70.8335 0.107759C71.4531 0.188578 72.0189 0.296337 72.5846 0.404095C73.1234 0.538794 73.6352 0.673492 74.1202 0.83513C74.6051 0.996768 74.9822 1.15841 75.2516 1.32004C75.6288 1.53556 75.8982 1.75108 76.0598 1.99354C76.2215 2.20905 76.3023 2.50539 76.3023 2.88255V4.14871C76.3023 4.71445 76.0868 5.01078 75.6827 5.01078C75.4671 5.01078 75.1169 4.90302 74.659 4.68751C73.1234 3.98707 71.3993 3.63686 69.4865 3.63686C67.951 3.63686 66.7387 3.87931 65.9036 4.39117C65.0684 4.90302 64.6374 5.68427 64.6374 6.7888C64.6374 7.54311 64.9068 8.18967 65.4456 8.70152C65.9844 9.21337 66.9811 9.72523 68.4089 10.1832L72.2344 11.3955C74.174 12.0151 75.5749 12.8772 76.41 13.9817C77.2452 15.0862 77.6493 16.3524 77.6493 17.7533C77.6493 18.9117 77.4068 19.9623 76.9488 20.8783C76.4639 21.7942 75.8174 22.6024 74.9822 23.249C74.1471 23.9224 73.1503 24.4074 71.9919 24.7576C70.7796 25.1347 69.5135 25.3233 68.1395 25.3233Z" fill="white"/>
<path fill-rule="evenodd" clip-rule="evenodd" d="M73.2307 38.4159C64.3675 44.9622 51.4904 48.4374 40.4182 48.4374C24.9009 48.4374 10.9192 42.6993 0.358841 33.1626C-0.476289 32.4083 0.278022 31.3846 1.27479 31.9773C12.6972 38.6045 26.7867 42.6185 41.361 42.6185C51.194 42.6185 61.9968 40.5711 71.9376 36.3685C73.4193 35.695 74.6854 37.3383 73.2307 38.4159Z" fill="#FF8E26"/>
<path fill-rule="evenodd" clip-rule="evenodd" d="M76.9211 34.2134C75.7896 32.7586 69.4319 33.5129 66.5493 33.8632C65.6873 33.9709 65.5526 33.2166 66.3338 32.6509C71.3985 29.0948 79.7228 30.1185 80.6927 31.3039C81.6625 32.5162 80.4233 40.8405 75.6819 44.8276C74.9545 45.4472 74.2541 45.1239 74.5774 44.3158C75.6549 41.6487 78.0526 35.6412 76.9211 34.2134Z" fill="#FF8E26"/>
</svg>
