<svg width="197" height="118" viewBox="0 0 197 118" fill="none" xmlns="http://www.w3.org/2000/svg">
<path d="M55.516 42.7846C55.516 45.2088 55.7781 47.1744 56.2367 48.6159C56.7609 50.0573 57.4161 51.6298 58.3334 53.3333C58.661 53.8575 58.792 54.3816 58.792 54.8403C58.792 55.4955 58.3989 56.1507 57.5471 56.8059L53.4194 59.5577C52.8297 59.9508 52.24 60.1474 51.7158 60.1474C51.0606 60.1474 50.4054 59.8198 49.7502 59.2301C48.833 58.2473 48.0467 57.199 47.3915 56.1507C46.7363 55.0368 46.0811 53.792 45.3604 52.285C40.2498 58.3128 33.8289 61.3268 26.0975 61.3268C20.5938 61.3268 16.204 59.7543 12.9935 56.6093C9.78302 53.4644 8.14502 49.2711 8.14502 44.0295C8.14502 38.4603 10.1106 33.9394 14.1073 30.5323C18.1041 27.1253 23.4112 25.4218 30.1597 25.4218C32.3874 25.4218 34.6806 25.6183 37.1049 25.9459C39.5291 26.2735 42.0189 26.7977 44.6397 27.3874V22.6044C44.6397 17.6249 43.5914 14.1523 41.5602 12.1212C39.4636 10.0901 35.9255 9.10728 30.8805 9.10728C28.5873 9.10728 26.2285 9.36936 23.8043 9.95904C21.3801 10.5487 19.0213 11.2694 16.7281 12.1867C15.6798 12.6454 14.8936 12.9074 14.4349 13.0385C13.9763 13.1695 13.6487 13.235 13.3866 13.235C12.4693 13.235 12.0107 12.5798 12.0107 11.2039V7.99344C12.0107 6.94512 12.1417 6.15888 12.4693 5.70024C12.7969 5.2416 13.3866 4.78296 14.3039 4.32432C16.5971 3.14496 19.3489 2.16216 22.5594 1.37592C25.7699 0.52416 29.177 0.13104 32.7806 0.13104C40.5774 0.13104 46.2777 1.90008 49.9468 5.43816C53.5504 8.97624 55.385 14.3489 55.385 21.5561V42.7846H55.516ZM28.9149 52.7436C31.077 52.7436 33.3047 52.3505 35.6634 51.5643C38.0222 50.778 40.1188 49.3366 41.8878 47.371C42.9362 46.1261 43.7224 44.7502 44.1155 43.1777C44.5086 41.6052 44.7707 39.7051 44.7707 37.4775V34.7256C42.8706 34.267 40.8395 33.8739 38.7429 33.6118C36.6462 33.3497 34.6151 33.2187 32.584 33.2187C28.1942 33.2187 24.9837 34.0704 22.8215 35.8395C20.6593 37.6085 19.611 40.0983 19.611 43.3743C19.611 46.4537 20.3973 48.7469 22.0353 50.3194C23.6077 51.9574 25.9009 52.7436 28.9149 52.7436ZM81.5275 59.8198C80.3481 59.8198 79.5619 59.6232 79.0377 59.1646C78.5135 58.7715 78.0549 57.8542 77.6618 56.6093L62.2646 5.96232C61.8714 4.65192 61.6749 3.80016 61.6749 3.34152C61.6749 2.2932 62.199 1.70352 63.2474 1.70352H69.6683C70.9132 1.70352 71.765 1.90008 72.2236 2.35872C72.7478 2.75184 73.1409 3.66912 73.534 4.914L84.5414 48.2883L94.7625 4.914C95.0901 3.6036 95.4832 2.75184 96.0074 2.35872C96.5315 1.9656 97.4488 1.70352 98.6282 1.70352H103.87C105.115 1.70352 105.966 1.90008 106.491 2.35872C107.015 2.75184 107.473 3.66912 107.735 4.914L118.088 48.8124L129.423 4.914C129.816 3.6036 130.274 2.75184 130.733 2.35872C131.257 1.9656 132.109 1.70352 133.288 1.70352H139.382C140.43 1.70352 141.02 2.22768 141.02 3.34152C141.02 3.66912 140.954 3.99672 140.889 4.38984C140.823 4.78296 140.692 5.30712 140.43 6.02784L124.64 56.6748C124.247 57.9852 123.788 58.837 123.264 59.2301C122.74 59.6232 121.888 59.8853 120.774 59.8853H115.139C113.894 59.8853 113.043 59.6888 112.518 59.2301C111.994 58.7715 111.536 57.9197 111.274 56.6093L101.118 14.3489L91.0279 56.5438C90.7003 57.8542 90.3071 58.706 89.783 59.1646C89.2588 59.6232 88.3415 59.8198 87.1622 59.8198H81.5275ZM165.721 61.5888C162.314 61.5888 158.907 61.1957 155.631 60.4095C152.355 59.6232 149.799 58.7715 148.096 57.7887C147.047 57.199 146.327 56.5438 146.065 55.9541C145.803 55.3644 145.672 54.7092 145.672 54.1195V50.778C145.672 49.4021 146.196 48.7469 147.179 48.7469C147.572 48.7469 147.965 48.8124 148.358 48.9435C148.751 49.0745 149.341 49.3366 149.996 49.5987C152.224 50.5815 154.648 51.3677 157.203 51.8919C159.824 52.416 162.379 52.6781 165 52.6781C169.128 52.6781 172.338 51.9574 174.566 50.5159C176.794 49.0745 177.973 46.9779 177.973 44.2915C177.973 42.457 177.383 40.95 176.204 39.7051C175.025 38.4603 172.797 37.3464 169.586 36.2981L160.086 33.3497C155.303 31.8427 151.765 29.6151 149.603 26.6667C147.441 23.7838 146.327 20.5733 146.327 17.1662C146.327 14.4144 146.916 11.9902 148.096 9.89353C149.275 7.79688 150.848 5.96232 152.813 4.52088C154.779 3.01392 157.007 1.90008 159.627 1.11384C162.248 0.3276 165 0 167.883 0C169.324 0 170.831 0.06552 172.273 0.26208C173.78 0.45864 175.156 0.72072 176.532 0.9828C177.842 1.3104 179.087 1.638 180.266 2.03112C181.446 2.42424 182.363 2.81736 183.018 3.21048C183.935 3.73464 184.59 4.2588 184.984 4.84848C185.377 5.37264 185.573 6.09336 185.573 7.01064V10.0901C185.573 11.466 185.049 12.1867 184.066 12.1867C183.542 12.1867 182.69 11.9246 181.577 11.4005C177.842 9.69697 173.649 8.84521 168.997 8.84521C165.262 8.84521 162.314 9.43489 160.283 10.6798C158.251 11.9246 157.203 13.8247 157.203 16.511C157.203 18.3456 157.858 19.9181 159.169 21.163C160.479 22.4079 162.903 23.6527 166.376 24.7666L175.68 27.715C180.397 29.2219 183.804 31.3186 185.835 34.0049C187.866 36.6912 188.849 39.7707 188.849 43.1777C188.849 45.9951 188.26 48.5503 187.146 50.778C185.966 53.0057 184.394 54.9713 182.363 56.5438C180.332 58.1818 177.907 59.3612 175.09 60.2129C172.142 61.1302 169.062 61.5888 165.721 61.5888Z" fill="#C0C9D8"/>
<path fill-rule="evenodd" clip-rule="evenodd" d="M178.104 93.4314C156.548 109.353 125.23 117.805 98.301 117.805C60.5615 117.805 26.5566 103.849 0.872738 80.655C-1.15838 78.8204 0.676178 76.3307 3.10042 77.7721C30.8809 93.89 65.1479 103.653 100.594 103.653C124.509 103.653 150.783 98.673 174.959 88.4519C178.563 86.8139 181.643 90.8106 178.104 93.4314Z" fill="#C0C9D8"/>
<path fill-rule="evenodd" clip-rule="evenodd" d="M187.081 83.2104C184.329 79.6723 168.866 81.5069 161.856 82.3586C159.759 82.6207 159.431 80.7861 161.332 79.4102C173.649 70.7616 193.895 73.2513 196.254 76.1342C198.612 79.0826 195.599 99.3283 184.067 109.025C182.298 110.532 180.594 109.746 181.381 107.78C184.001 101.294 189.833 86.6829 187.081 83.2104Z" fill="#C0C9D8"/>
</svg>
