<svg xmlns="http://www.w3.org/2000/svg" viewBox="0 0 1920 1080"><title>Chaos Native logo - long</title><path d="M243.35,479a72.76,72.76,0,0,0-17.3-2.82,74,74,0,0,0-18.75,1.63A76.2,76.2,0,0,0,181,489.29c-22.24,15.27-29.05,38.26-30.06,41.85a76.49,76.49,0,0,0,1.32,44.74,74.41,74.41,0,0,0,8.39,16.9L109,599.9a6.33,6.33,0,0,1-1.23.05,6.77,6.77,0,0,1-3.3-12.5L142,564,99.05,552.78a6.77,6.77,0,0,1,.58-13.23l43.76-7.38L108.07,505.5a6.77,6.77,0,0,1-2-8.27,6.69,6.69,0,0,1,7.66-3.73l43.26,9.91-22.46-38.22a6.77,6.77,0,0,1,9.78-8.94L180.41,482l-6.08-43.91a6.78,6.78,0,0,1,12.46-4.53L210.28,471l11.22-42.88a6.78,6.78,0,0,1,13.25.58l7.51,43.56C242.62,474.53,243,476.78,243.35,479Z" style="fill:#ee2767"/><path d="M160.49,525.14a69.14,69.14,0,0,1,36.87-36.76,67.92,67.92,0,0,1,27.21-5.49,62,62,0,0,1,20.19,3.3,73.57,73.57,0,0,1,33.25,23,77.52,77.52,0,0,1,11.08,18L270,540a65.15,65.15,0,0,0-8.12-13.39,62.55,62.55,0,0,0-10.75-10.76,48.2,48.2,0,0,0-12.62-7.13,38.69,38.69,0,0,0-13.72-2.52,44.28,44.28,0,0,0-18.11,3.73A47.12,47.12,0,0,0,192,520a50,50,0,0,0-10,14.71,43.18,43.18,0,0,0,0,35.11,48.32,48.32,0,0,0,10,14.6,46.36,46.36,0,0,0,14.7,9.87,44.85,44.85,0,0,0,17.89,3.63,37.73,37.73,0,0,0,12.62-2.2,52.26,52.26,0,0,0,12.07-6.14,58.35,58.35,0,0,0,10.65-9.33,68.22,68.22,0,0,0,8.55-12l17.12,17.12a82.38,82.38,0,0,1-26.11,26.11,64.92,64.92,0,0,1-34.9,9.66,67.92,67.92,0,0,1-27.21-5.49,69.14,69.14,0,0,1-36.87-36.76,68.57,68.57,0,0,1,0-53.77Z" style="fill:#fff"/><path d="M313.89,483.55h23.49v137H313.89Zm102.72,83.18h-70V544.34h70V483.55h23.92v137H416.61Z" style="fill:#fff"/><path d="M534.68,470.16,609.52,620.5H500.66L516,597.9h55.09l-36.43-75.06-48.5,97.66h-27Z" style="fill:#fff"/><path d="M636.18,565.52a51.59,51.59,0,0,0,6.48,12.4,55.65,55.65,0,0,0,10,10.76,57.88,57.88,0,0,0,13.06,8.12l-14.92,18.87A78.38,78.38,0,0,1,634.1,604a74.82,74.82,0,0,1-12.73-15,70.91,70.91,0,0,1-8.12-17.56,65.36,65.36,0,0,1-2.85-19.2,67.42,67.42,0,0,1,5.37-26.67,69,69,0,0,1,14.71-22,70.15,70.15,0,0,1,22-14.81,70.75,70.75,0,0,1,54.65,0,69.14,69.14,0,0,1,36.87,36.76,66.15,66.15,0,0,1,5.49,26.67,61.91,61.91,0,0,1-3.07,19.42,70.22,70.22,0,0,1-8.67,17.56,79.24,79.24,0,0,1-30.62,26.44l-12.73-19.31a67.64,67.64,0,0,0,12.73-8,57.46,57.46,0,0,0,10.21-10.43,48.39,48.39,0,0,0,6.69-12.18,37.68,37.68,0,0,0,2.42-13.28,42.47,42.47,0,0,0-3.74-17.55,47.5,47.5,0,0,0-10.09-14.6,49.44,49.44,0,0,0-14.82-10,44.48,44.48,0,0,0-35.66,0,49.77,49.77,0,0,0-14.7,10,45.72,45.72,0,0,0-10,14.6,43.67,43.67,0,0,0-3.62,17.55A38.83,38.83,0,0,0,636.18,565.52Z" style="fill:#fff"/><path d="M810.55,505.94q-8.77,0-12.95,5.05a19,19,0,0,0-4.17,12.51,16.8,16.8,0,0,0,3.84,11.3q3.84,4.5,12.4,6.25v22.39a38.32,38.32,0,0,1-15.58-3.18,41.32,41.32,0,0,1-21.4-21.4,37.8,37.8,0,0,1-3.18-15.36,45,45,0,0,1,2.85-16.36A39.75,39.75,0,0,1,780,494.52a33.65,33.65,0,0,1,11.31-8.12,34.17,34.17,0,0,1,13.93-2.85H887.8v22.39Zm38,92.18q9,0,13.17-4.94c2.77-3.3,4.17-7.5,4.17-12.62A16.55,16.55,0,0,0,862,569.47q-3.85-4.49-12.4-6.25V540.61a38.6,38.6,0,0,1,15.47,3.19,41.12,41.12,0,0,1,12.84,8.66,43.38,43.38,0,0,1,8.78,12.73A36.82,36.82,0,0,1,890,580.56a45.1,45.1,0,0,1-2.85,16.35,38.69,38.69,0,0,1-7.8,12.62,34.59,34.59,0,0,1-25.34,11H771.7V598.12Z" style="fill:#fff"/><path d="M1019,515.37V620.5H995.56V483.55h31l72.86,104.69V483.55h23.92v137h-29.85Z" style="fill:#fff"/><path d="M1217.44,470.16l74.84,150.34H1183.42l15.37-22.6h55.08l-36.43-75.06-48.5,97.66h-27Z" style="fill:#fff"/><path d="M1397,483.55v22.39h-47.19V620.5h-23.7V505.94h-46.53V483.55Z" style="fill:#fff"/><path d="M1421.54,483.55H1445v137h-23.49Z" style="fill:#fff"/><path d="M1537.86,633.45l-74.62-150.34h27.22l47.4,97.67,48.07-97.67h27.65Z" style="fill:#fff"/><path d="M1631.79,620.5V483.55H1736v22.39h-80.76v92.18H1736V620.5Zm102.93-76.16v22.39h-69.35V544.34Z" style="fill:#fff"/></svg>