<svg width="307" height="105" viewBox="0 0 307 105" fill="none" xmlns="http://www.w3.org/2000/svg">
<g clip-path="url(#clip0)">
<path d="M41.5287 45.2379L64.6597 55.7524L87.9694 35.3472C88.3139 33.6614 88.4786 31.9439 88.4606 30.2236C88.4645 24.6697 86.6856 19.2606 83.3845 14.7887C80.0835 10.3168 75.4337 7.01729 70.1166 5.37348C64.7995 3.72967 59.0945 3.82803 53.8375 5.65414C48.5804 7.48025 44.0478 10.9381 40.9035 15.5211L37.0186 35.6145L41.5287 45.2379Z" fill="#C0C9D8"/>
<path d="M17.5938 69.6528C17.2493 71.3687 17.0847 73.1157 17.1026 74.8655C17.1095 80.4424 18.9066 85.8704 22.2305 90.3541C25.5545 94.8377 30.2306 98.1411 35.5733 99.7801C40.916 101.419 46.6445 101.308 51.9191 99.4618C57.1936 97.616 61.7369 94.133 64.883 89.5234L68.7233 69.5192L63.588 59.7175L40.3677 49.1585L17.5938 69.6528Z" fill="#C0C9D8"/>
<path d="M17.46 29.7335L33.3123 33.4759L36.7954 15.5211C34.645 13.8784 32.0181 12.9767 29.3099 12.9517C26.6017 12.9267 23.9585 13.7797 21.7781 15.3824C19.5976 16.9852 17.9976 19.251 17.2189 21.8391C16.4402 24.4272 16.5248 27.1975 17.46 29.7335Z" fill="#C0C9D8"/>
<path d="M16.0755 33.5205C12.6458 34.6434 9.64919 36.7994 7.49817 39.6916C5.34715 42.5838 4.14746 46.07 4.06422 49.6706C3.98097 53.2711 5.01828 56.8088 7.03335 59.7969C9.04843 62.785 11.9422 65.0765 15.3164 66.356L37.5544 46.3072L33.4908 37.6194L16.0755 33.5205Z" fill="#C0C9D8"/>
<path d="M68.9019 89.5234C71.0537 91.1462 73.6739 92.0312 76.3712 92.0462C79.0686 92.0613 81.6985 91.2056 83.8684 89.6069C86.0383 88.0083 87.6319 85.7523 88.4112 83.1758C89.1905 80.5993 89.1139 77.8405 88.1926 75.311L72.3849 71.6132L68.9019 89.5234Z" fill="#C0C9D8"/>
<path d="M72.117 67.4698L89.5323 71.5241C92.962 70.4012 95.9586 68.2453 98.1096 65.3531C100.261 62.4609 101.46 58.9746 101.544 55.3741C101.627 51.7736 100.59 48.2358 98.5745 45.2477C96.5594 42.2597 93.6656 39.9682 90.2914 38.6887L67.5176 58.6038L72.117 67.4698Z" fill="#C0C9D8"/>
<path d="M147.717 73.7517L149.816 73.5289L149.95 77.806C145.248 78.5052 140.504 78.8922 135.75 78.9644C130.525 78.9644 126.819 77.4496 124.631 74.42C122.443 71.3904 121.371 66.6678 121.371 60.2967C121.371 47.5546 126.447 41.1836 136.598 41.1836C141.51 41.1836 145.172 42.5647 147.583 45.2824C149.995 48.0002 151.2 52.3218 151.2 58.1582L150.888 62.3016H126.864C126.864 66.3114 127.578 69.2964 129.052 71.2122C130.525 73.128 133.026 74.1081 136.643 74.1081C140.338 74.1882 144.035 74.0692 147.717 73.7517ZM145.752 58.0245C145.752 53.5693 145.038 50.406 143.609 48.5793C142.18 46.7527 139.858 45.8171 136.643 45.8171C133.428 45.8171 130.972 46.7972 129.364 48.713C127.757 50.6288 126.908 53.7475 126.864 58.0245H145.752ZM158.792 78.2961V26.1693H164.239V78.2961H158.792ZM198.668 52.9455V70.8112C198.668 72.6379 203.178 72.9943 203.178 72.9943L202.91 77.806C199.07 77.806 195.9 78.1179 193.979 76.2912C189.858 78.1056 185.4 79.0317 180.896 79.009C177.547 79.009 175.001 78.0733 173.26 76.1576C171.518 74.2418 170.625 71.5686 170.625 68.0044C170.625 64.4402 171.518 61.8561 173.304 60.2076C175.091 58.5592 177.904 57.4899 181.744 57.1335L193.176 56.0642V52.9455C193.176 50.4951 192.64 48.713 191.568 47.6437C190.496 46.5745 189.023 46.0398 187.192 46.0398H172.858V41.2281H186.835C190.943 41.2281 193.935 42.1637 195.81 44.0795C197.686 45.9953 198.668 48.9358 198.668 52.9455ZM176.252 67.7371C176.252 72.1924 178.082 74.42 181.789 74.42C185.104 74.4269 188.396 73.8694 191.523 72.7715L193.176 72.1924V60.2076L182.414 61.2324C180.226 61.4106 178.663 62.0343 177.68 63.1036C176.698 64.1728 176.252 65.7322 176.252 67.7371ZM219.968 46.0844C214.699 46.0844 212.02 47.9111 212.02 51.6089C212.02 53.3019 212.645 54.5049 213.851 55.2177C215.056 55.9306 217.825 56.6434 222.156 57.4008C226.488 58.1582 229.524 59.1829 231.311 60.5641C233.097 61.9452 233.99 64.4402 233.99 68.1826C233.99 71.925 232.784 74.6428 230.373 76.3803C227.962 78.1179 224.478 79.009 219.834 79.009C216.843 79.009 206.795 77.8951 206.795 77.8951L207.108 73.1725C212.868 73.7072 217.066 74.1527 219.879 74.1527C222.692 74.1527 224.836 73.7072 226.309 72.8161C227.783 71.925 228.542 70.4102 228.542 68.3163C228.542 66.2223 227.917 64.7966 226.667 64.0392C225.416 63.2818 222.648 62.5689 218.361 61.9006C214.074 61.2324 211.037 60.2522 209.251 58.9156C207.465 57.579 206.572 55.1732 206.572 51.6535C206.572 48.1338 207.822 45.5052 210.323 43.8122C212.824 42.1192 215.949 41.2727 219.656 41.2727C222.603 41.2727 232.873 42.0301 232.873 42.0301V46.7972C227.47 46.4854 223.049 46.0844 219.968 46.0844ZM260.336 46.7081H248.771V64.0837C248.771 68.2272 249.083 70.9894 249.664 72.2815C250.244 73.5735 251.718 74.2418 253.995 74.2418L260.47 73.7963L260.827 78.2961C258.38 78.7486 255.902 79.0166 253.415 79.0981C249.619 79.0981 247.029 78.1624 245.555 76.3358C244.082 74.5091 243.367 70.9894 243.367 65.8213V46.7081H238.187V41.9855H243.367V30.8473H248.771V41.941H260.336V46.7081ZM267.927 33.7432V27.4613H273.375V33.7878L267.927 33.7432ZM267.927 78.2961V41.9855H273.375V78.2961H267.927ZM297.042 41.2281C298.65 41.2281 301.374 41.54 305.214 42.1192L306.955 42.3419L306.732 46.7527C303.888 46.3834 301.026 46.1603 298.158 46.0844C294.05 46.0844 291.237 47.0645 289.763 49.0249C288.29 50.9852 287.531 54.6385 287.531 59.9403C287.531 65.2421 288.2 68.94 289.585 71.034C290.969 73.128 293.827 74.1527 298.203 74.1527L306.777 73.4844L307 77.9842C302.49 78.6525 299.096 79.009 296.863 79.009C291.192 79.009 287.263 77.5387 285.119 74.6428C282.976 71.7468 281.86 66.846 281.86 59.9403C281.86 53.0346 283.021 48.1784 285.343 45.4161C287.665 42.6538 291.594 41.2281 297.042 41.2281Z" fill="#C0C9D8"/>
</g>
<defs>
<clipPath id="clip0">
<rect width="307" height="105" fill="white"/>
</clipPath>
</defs>
</svg>
