<svg width="300" height="88" viewBox="0 0 300 88" fill="none" xmlns="http://www.w3.org/2000/svg">
<path d="M201.486 86.1081H193.54C191.919 86.1081 190.703 85.2162 190.54 83.6757L190.378 80.5946C184.703 85.2162 177.892 87.6487 170.676 87.6487C156.811 87.6487 151.135 78.8919 151.135 65.5135V28.8649C151.135 26.7568 152.351 26.027 154.378 26.027H163.054C165 26.027 166.135 26.6757 166.135 28.8649V62.8378C166.135 69.6487 167.838 74.3514 175.297 74.3514C180 74.3514 185.919 71.7568 189.649 68.4324V28.8649C189.649 26.7568 190.784 26.027 192.73 26.027H201.486C203.432 26.027 204.567 26.6757 204.567 28.8649V82.7027C204.649 85.2162 203.919 86.1081 201.486 86.1081Z" fill="#C0C9D8"/>
<path d="M0 28.4595C0 27 0.729727 26.027 2.18919 26.027H12.6486C14.1081 26.027 15 26.9189 15 28.4595V83.027C15 85.2162 14.027 86.1081 11.9189 86.1081H3.24324C1.05405 86.1081 0 85.2162 0 83.027V28.4595Z" fill="#C0C9D8"/>
<path d="M220.135 28.4595C220.135 27 220.865 26.027 222.324 26.027H232.784C234.243 26.027 235.135 26.9189 235.135 28.4595V83.027C235.135 85.2162 234.162 86.1081 232.054 86.1081H223.297C221.108 86.1081 220.054 85.2162 220.054 83.027V28.4595H220.135Z" fill="#C0C9D8"/>
<path d="M81.4055 86.1081H72.4866C70.2974 86.1081 69.4866 84.973 69.4866 82.8649V49.2163C69.4866 42.4054 67.6217 37.6216 60.0812 37.6216C55.2163 37.6216 49.2974 40.2162 45.4866 43.5406V83.0271C45.4866 85.1352 44.5947 86.1081 42.4866 86.1081H33.4866C31.6217 86.1081 30.4866 85.1352 30.4866 83.1081V29.0271C30.4866 27.0811 31.3785 25.946 33.5677 25.946H41.5947C43.2974 25.946 44.4325 26.4325 44.5947 28.2973L44.7568 31.6216C50.4325 27.0811 57.6487 24.4865 64.7839 24.4865C78.6487 24.4865 84.3244 33.1622 84.3244 46.6216V82.8649C84.4055 84.973 83.6758 86.1081 81.4055 86.1081Z" fill="#C0C9D8"/>
<path d="M125.514 9.08108C125.514 4.05405 121.46 0 116.433 0C111.406 0 107.352 4.05405 107.352 9.08108C107.352 14.1081 111.406 18.1622 116.433 18.1622C121.46 18.1622 125.514 14.1081 125.514 9.08108Z" fill="#C0C9D8"/>
<path d="M138.406 25.946C139.865 25.946 140.757 26.4324 140.757 28.0541V36.8108C140.757 38.2703 139.784 39.1622 138.243 39.1622H123.892V83.027C123.892 85.2162 122.919 86.1081 120.649 86.1081H112.054C109.865 86.1081 108.811 85.2162 108.811 83.027V39.1622H94.4596C93.0001 39.1622 91.946 38.2703 91.946 36.8108V28.0541C91.946 26.4324 92.8379 25.946 94.2974 25.946H138.406Z" fill="#C0C9D8"/>
<path d="M279.162 9.08108C279.162 4.05405 275.108 0 270.081 0C265.054 0 261 4.05405 261 9.08108C261 14.1081 265.054 18.1622 270.081 18.1622C275.108 18.1622 279.162 14.1081 279.162 9.08108Z" fill="#C0C9D8"/>
<path d="M292.054 25.946C293.513 25.946 294.405 26.4324 294.405 28.0541V36.8108C294.405 38.2703 293.432 39.1622 291.892 39.1622H277.54V83.027C277.54 85.2162 276.567 86.1081 274.297 86.1081H265.703C263.513 86.1081 262.459 85.2162 262.459 83.027V39.1622H248.108C246.649 39.1622 245.594 38.2703 245.594 36.8108V28.0541C245.594 26.4324 246.486 25.946 247.946 25.946H292.054Z" fill="#C0C9D8"/>
<path d="M295.946 78.4865C298.135 78.4865 300 80.1892 300 82.4595C300 84.7297 298.135 86.5135 295.946 86.5135C293.757 86.5135 291.892 84.8108 291.892 82.4595C291.973 80.1892 293.757 78.4865 295.946 78.4865ZM295.946 85.8649C297.811 85.8649 299.27 84.4054 299.27 82.4595C299.27 80.5135 297.811 79.0541 295.946 79.0541C294.081 79.0541 292.622 80.5135 292.622 82.4595C292.703 84.4054 294.081 85.8649 295.946 85.8649ZM294.405 80.1081H296.189C297.324 80.1081 297.811 80.5135 297.811 81.4865C297.811 82.2973 297.243 82.7027 296.595 82.7838L297.973 84.8919H297.162L295.865 82.8649H295.054V84.8919H294.324L294.405 80.1081ZM295.135 82.2162H295.865C296.513 82.2162 297.081 82.2162 297.081 81.4865C297.081 80.8378 296.513 80.7568 296.027 80.7568H295.135V82.2162Z" fill="#C0C9D8"/>
</svg>
