<svg width="297" height="91" viewBox="0 0 297 91" fill="none" xmlns="http://www.w3.org/2000/svg">
<path d="M124.755 70.314V76.6885H99.217V19.3178H106.655V70.314H124.755Z" fill="#C0C9D8"/>
<path d="M140.292 76.6885H133.184V33.2259H140.292V76.6885ZM136.738 25.5268C135.471 25.5268 134.369 25.1128 133.432 24.285C132.551 23.4019 132.11 22.2429 132.11 20.808C132.11 19.373 132.551 18.2416 133.432 17.4137C134.369 16.5307 135.471 16.0892 136.738 16.0892C138.005 16.0892 139.08 16.5307 139.961 17.4137C140.898 18.2416 141.366 19.373 141.366 20.808C141.366 22.2429 140.898 23.4019 139.961 24.285C139.08 25.1128 138.005 25.5268 136.738 25.5268Z" fill="#C0C9D8"/>
<path d="M159.812 33.2259H170.721V39.352H159.812V63.2772C159.812 66.2575 160.335 68.3547 161.382 69.5689C162.484 70.7279 163.944 71.3074 165.762 71.3074C166.699 71.3074 167.581 71.1694 168.407 70.8935C169.289 70.6175 170.033 70.2864 170.639 69.9L172.044 75.6123C169.785 76.9368 167.388 77.5991 164.853 77.5991C160.776 77.5991 157.718 76.4677 155.68 74.2049C153.696 71.8869 152.704 68.0787 152.704 62.7804V21.553L159.812 20.3113V33.2259Z" fill="#C0C9D8"/>
<path d="M179.754 34.4676C181.682 33.8606 183.776 33.3638 186.035 32.9775C188.294 32.536 190.36 32.3152 192.233 32.3152C194.162 32.3152 195.897 32.5636 197.44 33.0603C199.038 33.557 200.443 34.3849 201.655 35.5439C203.088 34.6056 204.63 33.833 206.283 33.2259C207.936 32.6188 209.754 32.3152 211.738 32.3152C213.721 32.3152 215.512 32.6188 217.11 33.2259C218.763 33.7778 220.168 34.7436 221.325 36.1234C222.482 37.5031 223.391 39.3796 224.052 41.7528C224.713 44.0708 225.044 46.9683 225.044 50.4453V76.6885H217.936V51.0248C217.936 46.72 217.441 43.5741 216.449 41.5872C215.457 39.6004 213.584 38.6069 210.829 38.6069C209.782 38.6069 208.708 38.8001 207.606 39.1865C206.559 39.5728 205.567 40.0971 204.63 40.7594C205.071 42.0288 205.402 43.4637 205.622 45.0642C205.842 46.6648 205.953 48.4585 205.953 50.4453V76.6885H198.845V51.0248C198.845 46.72 198.349 43.5741 197.357 41.5872C196.366 39.6004 194.492 38.6069 191.737 38.6069C190.305 38.6069 188.679 38.8829 186.861 39.4348V76.6885H179.754V34.4676Z" fill="#C0C9D8"/>
<path d="M264.321 75.4467C263.605 75.7226 262.723 75.9986 261.677 76.2746C260.685 76.4953 259.61 76.6885 258.453 76.854C257.351 77.0748 256.222 77.2404 255.065 77.3508C253.963 77.5163 252.944 77.5991 252.007 77.5991C249.748 77.5991 247.682 77.3232 245.808 76.7713C243.935 76.2745 242.337 75.3639 241.015 74.0393C239.692 72.7147 238.673 70.9211 237.957 68.6582C237.241 66.3402 236.883 63.4427 236.883 59.9657V33.2259H243.99V59.7174C243.99 63.967 244.624 66.9749 245.891 68.741C247.213 70.4519 249.197 71.3074 251.842 71.3074C252.723 71.3074 253.605 71.2798 254.486 71.2246C255.368 71.1142 256.277 70.9211 257.214 70.6451V33.2259H264.321V75.4467Z" fill="#C0C9D8"/>
<path d="M283.203 71.6385C285.297 71.6385 286.867 71.059 287.914 69.9C289.016 68.6858 289.567 67.1129 289.567 65.1812C289.567 63.967 289.347 62.946 288.906 62.1182C288.465 61.2351 287.887 60.4624 287.17 59.8001C286.454 59.1379 285.628 58.5584 284.691 58.0616C283.754 57.5097 282.818 56.9302 281.881 56.3231C280.944 55.7712 280.035 55.1365 279.154 54.4191C278.272 53.6464 277.473 52.7909 276.757 51.8527C276.096 50.8593 275.545 49.7555 275.104 48.5413C274.718 47.2719 274.525 45.8093 274.525 44.1536C274.525 40.5662 275.627 37.6687 277.831 35.4611C280.09 33.2535 283.121 32.1496 286.922 32.1496C288.52 32.1496 290.036 32.3704 291.468 32.8119C292.901 33.1983 294.085 33.6398 295.022 34.1365L293.452 39.8487C292.46 39.2968 291.468 38.8829 290.476 38.6069C289.485 38.331 288.41 38.193 287.253 38.193C285.49 38.193 284.085 38.7173 283.038 39.766C281.991 40.7594 281.468 42.2219 281.468 44.1536C281.468 45.2574 281.661 46.2233 282.046 47.0511C282.432 47.8238 282.928 48.5413 283.534 49.2035C284.195 49.8106 284.911 50.3901 285.683 50.9421C286.509 51.494 287.363 52.0183 288.245 52.515C289.292 53.1221 290.311 53.7844 291.303 54.5018C292.35 55.2193 293.259 56.0748 294.03 57.0682C294.857 58.0065 295.518 59.1379 296.014 60.4624C296.51 61.7318 296.757 63.2772 296.757 65.0984C296.757 68.9066 295.628 71.9697 293.369 74.2877C291.165 76.6057 287.914 77.7647 283.617 77.7647C281.413 77.7647 279.429 77.4611 277.666 76.854C275.903 76.247 274.581 75.695 273.699 75.1983L275.187 69.3205C276.013 69.7621 277.115 70.2588 278.493 70.8107C279.925 71.3626 281.495 71.6385 283.203 71.6385Z" fill="#C0C9D8"/>
<path d="M0 0H72.2229V83.5078C72.2229 87.2472 69.1915 90.2787 65.452 90.2787H6.7709C3.03143 90.2787 0 87.2472 0 83.5078V0Z" fill="#C0C9D8"/>
<path d="M11.2844 4.5116H22.5693V36.1091H11.2844V4.5116Z" fill="#EDEDED"/>
<path d="M11.2844 36.1105H22.5693V81.2499H11.2844V36.1105Z" fill="#0B1229"/>
<path d="M29.3401 81.2517L29.3401 69.9669L63.1946 69.9669L63.1946 81.2517L29.3401 81.2517Z" fill="#0B1229"/>
</svg>
