<svg width="8883" height="2025" viewBox="0 0 8883 2025" fill="none" xmlns="http://www.w3.org/2000/svg">
<path d="M6605.53 623.751C6558.4 578.647 6501.8 544.966 6437.32 523.601C6373.02 502.305 6274.65 491.949 6136.59 491.949H5912.04V1490.11H6238.38C6367.31 1490.11 6467.54 1468.61 6536.3 1426.23C6605.13 1383.77 6658.92 1324.08 6696.18 1248.91C6733.06 1174.53 6751.76 1094.26 6751.76 1010.42C6751.76 927.367 6739.17 852.848 6714.32 788.89C6689.25 724.417 6652.65 668.855 6605.53 623.751ZM6590.26 1000.06C6590.26 1056.52 6581.31 1106.72 6563.67 1149.31C6546.24 1191.35 6520.57 1227.37 6487.34 1256.41C6454.3 1285.27 6414.86 1305.05 6370.1 1315.24C6323.09 1325.94 6245.81 1331.37 6140.4 1331.37H6069.73V653.27H6099.68C6201.97 653.27 6281.25 658.533 6335.33 668.958C6387.01 678.901 6432.55 698.924 6470.69 728.546C6508.55 757.927 6538.19 796.631 6558.8 843.558C6579.68 891.139 6590.26 943.812 6590.26 1000.06Z" fill="#001959"/>
<path d="M7968.42 490.508H7817.18V742.809H7702.45V884.332H7817.18V1345.81C7817.18 1394.61 7829.02 1431.61 7852.38 1455.83C7875.87 1480.22 7911.03 1492.56 7956.88 1492.56C7978.8 1492.56 8009.29 1489.19 8050.08 1482.33L8070.95 1478.8V1343.99H7987.39C7978.24 1343.99 7972.32 1343.53 7968.93 1343.26C7968.66 1340.72 7968.42 1337.16 7968.42 1332.18V884.332H8100.24V742.809H7968.42V490.508Z" fill="#001959"/>
<path d="M3148.53 491.538L2799.73 1210.69L2448.49 491.538H2382.83L2242.7 1492.58H2401.5L2479.91 905.092L2767.03 1492.58H2832.63L3115.99 910.405L3194.32 1492.58H3355.69L3214.21 491.538H3148.53Z" fill="#001959"/>
<path d="M4015 822.65C3953.93 768.461 3881.65 741.043 3799.45 741.043C3697.68 741.043 3610.23 778.108 3539.54 851.169C3468.94 924.1 3433.14 1012.96 3433.14 1115.25C3433.14 1217.48 3468.69 1306.66 3538.78 1380.37C3609.12 1454.37 3695 1491.89 3794.07 1491.89C3875.3 1491.89 3949.4 1463.27 4015 1406.69V1492.55L4160.97 1491.89V742.803H4015V822.65V822.65ZM3956.12 953.979C3998.97 998.586 4019.8 1052.52 4019.8 1118.88C4019.8 1185.14 3998.65 1238.81 3955.13 1282.96C3911.63 1327.15 3861.29 1348.61 3801.24 1348.61C3740.6 1348.61 3689.98 1326.28 3646.52 1280.28C3602.77 1234.05 3581.51 1181.06 3581.51 1118.29C3581.51 1055.43 3602.43 1002.37 3645.46 956.115C3688.11 910.278 3738.87 887.974 3800.65 887.974C3862.58 887.974 3913.44 909.566 3956.12 953.979Z" fill="#001959"/>
<path d="M5633.47 822.65C5572.39 768.461 5500.11 741.043 5417.91 741.043C5316.14 741.043 5228.7 778.108 5158 851.169C5087.4 924.1 5051.6 1012.96 5051.6 1115.25C5051.6 1217.48 5087.15 1306.66 5157.24 1380.37C5227.58 1454.37 5313.47 1491.89 5412.53 1491.89C5493.76 1491.89 5567.86 1463.27 5633.47 1406.69V1492.55L5779.43 1491.89V742.803H5633.47V822.65V822.65ZM5574.58 953.979C5617.43 998.586 5638.26 1052.52 5638.26 1118.88C5638.26 1185.14 5617.11 1238.81 5573.59 1282.96C5530.09 1327.15 5479.75 1348.61 5419.71 1348.61C5359.06 1348.61 5308.44 1326.28 5264.98 1280.28C5221.23 1234.05 5199.97 1181.06 5199.97 1118.29C5199.97 1055.43 5220.89 1002.37 5263.92 956.115C5306.58 910.278 5357.34 887.974 5419.11 887.974C5481.04 887.974 5531.9 909.566 5574.58 953.979Z" fill="#001959"/>
<path d="M7430.9 822.65C7369.82 768.461 7297.55 741.043 7215.35 741.043C7113.58 741.043 7026.13 778.108 6955.43 851.169C6884.84 924.1 6849.03 1012.96 6849.03 1115.25C6849.03 1217.48 6884.58 1306.66 6954.68 1380.37C7025.01 1454.37 7110.9 1491.89 7209.96 1491.89C7291.19 1491.89 7365.29 1463.27 7430.9 1406.69V1492.55L7576.87 1491.89V742.803H7430.9V822.65V822.65ZM7372.01 953.979C7414.86 998.586 7435.69 1052.52 7435.69 1118.88C7435.69 1185.14 7414.55 1238.81 7371.02 1282.96C7327.52 1327.15 7277.18 1348.61 7217.14 1348.61C7156.49 1348.61 7105.87 1326.28 7062.41 1280.28C7018.67 1234.05 6997.4 1181.06 6997.4 1118.29C6997.4 1055.43 7018.32 1002.37 7061.36 956.115C7104.01 910.278 7154.77 887.974 7216.54 887.974C7278.47 887.974 7329.33 909.566 7372.01 953.979Z" fill="#001959"/>
<path d="M8737.03 822.65C8675.96 768.461 8603.68 741.043 8521.48 741.043C8419.71 741.043 8332.27 778.108 8261.57 851.169C8190.97 924.1 8155.17 1012.96 8155.17 1115.25C8155.17 1217.48 8190.72 1306.66 8260.81 1380.37C8331.15 1454.37 8417.03 1491.89 8516.1 1491.89C8597.33 1491.89 8671.43 1463.27 8737.03 1406.69V1492.55L8883 1491.89V742.803H8737.03V822.65V822.65ZM8678.15 953.979C8721 998.586 8741.83 1052.52 8741.83 1118.88C8741.83 1185.14 8720.68 1238.81 8677.16 1282.96C8633.66 1327.15 8583.32 1348.61 8523.27 1348.61C8462.63 1348.61 8412.01 1326.28 8368.55 1280.28C8324.8 1234.05 8303.54 1181.06 8303.54 1118.29C8303.54 1055.43 8324.46 1002.37 8367.49 956.115C8410.14 910.278 8460.91 887.974 8522.68 887.974C8584.61 887.974 8635.47 909.566 8678.15 953.979Z" fill="#001959"/>
<path d="M4653.79 1215.68L4444.78 742.806H4282.05L4571.56 1404.93L4429.69 1734.05H4592.4L5019.85 742.806H4855.8L4653.79 1215.68Z" fill="#001959"/>
<path d="M341.649 727.427V1684.36C341.649 1708.74 354.486 1727.52 375.308 1739.67L835.691 2013.82C856.406 2025.9 881.89 2028.2 902.604 2016.11L1362.9 1740.5C1383.77 1728.32 1396.65 1708.81 1396.65 1684.36V726.582L869.148 1045.27L341.649 727.427Z" fill="#001959"/>
<path d="M185.717 1584.27V660.516C185.717 646.397 189.228 628.558 216.429 614.894L849.975 232.197C861.856 225.327 876.425 225.327 888.306 232.197L1533.69 621.977C1545.77 628.966 1552.8 633.543 1552.56 649.618L1552.55 1584.27C1552.55 1603.65 1573.64 1612.78 1590.35 1603.38L1720.07 1525.19C1732.38 1518.27 1738.27 1507.83 1738.27 1493.55V537.393C1738.27 520.546 1732.72 514.779 1720.79 507.747L888.527 5.31541C876.536 -1.75362 861.734 -1.77298 849.724 5.26465L19.0398 507.244C7.06152 514.263 0 526.237 0 540.275V1493.55C0 1507.33 5.72158 1517.6 17.3475 1524.71L148.348 1603.65C165.064 1613.87 185.717 1604.07 185.717 1584.27Z" fill="#001959"/>
<path d="M1245.07 637.742L869.131 411.223L493.192 637.742L869.131 864.26L1245.07 637.742Z" fill="#0063FF"/>
</svg>
