<svg width="410" height="99" viewBox="0 0 410 99" fill="none" xmlns="http://www.w3.org/2000/svg">
<path d="M304.882 30.3747C302.707 28.1783 300.094 26.538 297.118 25.4976C294.151 24.4605 289.61 23.9562 283.238 23.9562H272.874V72.5649H287.936C293.887 72.5649 298.513 71.5178 301.686 69.4537C304.864 67.3862 307.346 64.4794 309.066 60.8186C310.768 57.1964 311.631 53.2877 311.631 49.2047C311.631 45.1602 311.05 41.5313 309.903 38.4167C308.746 35.277 307.057 32.5712 304.882 30.3747ZM304.177 48.7004C304.177 51.4497 303.764 53.8942 302.95 55.9683C302.146 58.0157 300.96 59.7698 299.427 61.1839C297.902 62.5895 296.081 63.5529 294.016 64.0488C291.846 64.5699 288.279 64.8346 283.414 64.8346H280.152V31.8122H281.534C286.255 31.8122 289.915 32.0686 292.411 32.5762C294.796 33.0604 296.898 34.0355 298.659 35.478C300.406 36.9088 301.774 38.7937 302.725 41.0789C303.689 43.396 304.177 45.9611 304.177 48.7004Z" fill="#C0C9D8"/>
<path d="M367.787 23.8838H360.806V36.1704H355.511V43.0623H360.806V65.5352C360.806 67.912 361.353 69.7135 362.431 70.8931C363.515 72.0807 365.138 72.6817 367.254 72.6817C368.266 72.6817 369.673 72.5178 371.556 72.1835L372.519 72.0116V65.4468H368.662C368.24 65.4468 367.967 65.4243 367.811 65.4114C367.798 65.2877 367.787 65.1141 367.787 64.8715V43.0623H373.871V36.1704H367.787V23.8838Z" fill="#C0C9D8"/>
<path d="M145.322 23.9348L129.223 58.9559L113.012 23.9348H109.981L103.513 72.6834H110.843L114.462 44.074L127.714 72.6834H130.742L143.82 44.3328L147.435 72.6834H154.884L148.354 23.9348H145.322Z" fill="#C0C9D8"/>
<path d="M185.316 40.0606C182.497 37.4217 179.161 36.0865 175.367 36.0865C170.67 36.0865 166.633 37.8915 163.37 41.4494C160.112 45.0011 158.459 49.3283 158.459 54.3097C158.459 59.288 160.1 63.6309 163.336 67.2204C166.582 70.8241 170.546 72.6511 175.118 72.6511C178.868 72.6511 182.288 71.2576 185.316 68.502V72.6835L192.053 72.6511V36.1722H185.316V40.0606ZM182.598 46.4561C184.576 48.6284 185.537 51.2546 185.537 54.4863C185.537 57.7131 184.561 60.3268 182.552 62.477C180.544 64.6288 178.221 65.674 175.45 65.674C172.65 65.674 170.314 64.5862 168.308 62.3462C166.289 60.0951 165.307 57.5145 165.307 54.4579C165.307 51.3965 166.273 48.8128 168.259 46.5601C170.228 44.3279 172.571 43.2418 175.422 43.2418C178.281 43.2418 180.628 44.2933 182.598 46.4561Z" fill="#C0C9D8"/>
<path d="M260.016 40.0606C257.196 37.4217 253.861 36.0865 250.067 36.0865C245.369 36.0865 241.333 37.8915 238.07 41.4494C234.812 45.0011 233.159 49.3283 233.159 54.3097C233.159 59.288 234.8 63.6309 238.035 67.2204C241.282 70.8241 245.246 72.6511 249.818 72.6511C253.567 72.6511 256.987 71.2576 260.016 68.502V72.6835L266.753 72.6511V36.1722H260.016V40.0606ZM257.298 46.4561C259.275 48.6284 260.237 51.2546 260.237 54.4863C260.237 57.7131 259.261 60.3268 257.252 62.477C255.244 64.6288 252.921 65.674 250.149 65.674C247.35 65.674 245.014 64.5862 243.008 62.3462C240.989 60.0951 240.007 57.5145 240.007 54.4579C240.007 51.3965 240.973 48.8128 242.959 46.5601C244.928 44.3279 247.271 43.2418 250.122 43.2418C252.98 43.2418 255.328 44.2933 257.298 46.4561Z" fill="#C0C9D8"/>
<path d="M342.978 40.0606C340.159 37.4217 336.823 36.0865 333.029 36.0865C328.331 36.0865 324.295 37.8915 321.032 41.4494C317.774 45.0011 316.121 49.3283 316.121 54.3097C316.121 59.288 317.762 63.6309 320.997 67.2204C324.244 70.8241 328.208 72.6511 332.78 72.6511C336.529 72.6511 339.95 71.2576 342.978 68.502V72.6835L349.715 72.6511V36.1722H342.978V40.0606ZM340.26 46.4561C342.238 48.6284 343.199 51.2546 343.199 54.4863C343.199 57.7131 342.223 60.3268 340.214 62.477C338.206 64.6288 335.883 65.674 333.112 65.674C330.312 65.674 327.976 64.5862 325.97 62.3462C323.951 60.0951 322.969 57.5145 322.969 54.4579C322.969 51.3965 323.935 48.8128 325.921 46.5601C327.89 44.3279 330.233 43.2418 333.084 43.2418C335.942 43.2418 338.29 44.2933 340.26 46.4561Z" fill="#C0C9D8"/>
<path d="M403.263 40.0606C400.444 37.4217 397.108 36.0865 393.314 36.0865C388.617 36.0865 384.58 37.8915 381.317 41.4494C378.059 45.0011 376.406 49.3283 376.406 54.3097C376.406 59.288 378.047 63.6309 381.283 67.2204C384.529 70.8241 388.493 72.6511 393.065 72.6511C396.815 72.6511 400.235 71.2576 403.263 68.502V72.6835L410 72.6511V36.1722H403.263V40.0606ZM400.545 46.4561C402.523 48.6284 403.484 51.2546 403.484 54.4863C403.484 57.7131 402.508 60.3268 400.499 62.477C398.491 64.6288 396.168 65.674 393.397 65.674C390.597 65.674 388.261 64.5862 386.255 62.3462C384.236 60.0951 383.254 57.5145 383.254 54.4579C383.254 51.3965 384.22 48.8128 386.206 46.5601C388.175 44.3279 390.518 43.2418 393.369 43.2418C396.228 43.2418 398.575 44.2933 400.545 46.4561Z" fill="#C0C9D8"/>
<path d="M214.799 59.1953L205.151 36.1673H197.641L211.003 68.4117L204.455 84.4391H211.965L231.694 36.1673H224.122L214.799 59.1953Z" fill="#C0C9D8"/>
<path d="M15.7688 35.4254V82.0263C15.7688 83.2135 16.3613 84.128 17.3223 84.7197L38.5716 98.0701C39.5277 98.6587 40.7039 98.7706 41.66 98.1819L62.905 84.7603C63.8687 84.167 64.4628 83.2167 64.4628 82.0263V35.3843L40.1158 50.9038L15.7688 35.4254Z" fill="#C0C9D8"/>
<path d="M8.57185 77.1506V32.1658C8.57185 31.4783 8.73391 30.6096 9.98938 29.9442L39.2311 11.3075C39.7794 10.973 40.4519 10.973 41.0003 11.3075L70.7881 30.2891C71.346 30.6294 71.6702 30.8523 71.6591 31.6351L71.659 77.1506C71.659 78.0947 72.6323 78.5394 73.4034 78.0817L79.391 74.2739C79.9591 73.9367 80.231 73.4286 80.231 72.733V26.17C80.231 25.3496 79.9748 25.0688 79.4242 24.7263L41.0105 0.25885C40.457 -0.0853978 39.7738 -0.0863407 39.2195 0.256378L0.878793 24.7018C0.325928 25.0436 0 25.6267 0 26.3103V72.733C0 73.4038 0.264083 73.9044 0.800684 74.2506L6.84707 78.0946C7.61864 78.5924 8.57185 78.1153 8.57185 77.1506Z" fill="#C0C9D8"/>
<path d="M57.4672 31.057L40.1156 20.026L22.7639 31.057L40.1156 42.088L57.4672 31.057Z" fill="#C0C9D8"/>
</svg>
