<svg width="393" height="90" viewBox="0 0 393 90" fill="none" xmlns="http://www.w3.org/2000/svg">
<path d="M292.201 27.5921C290.116 25.5969 287.613 24.1069 284.76 23.1618C281.916 22.2198 277.565 21.7617 271.457 21.7617H261.524V65.9164H275.96C281.664 65.9164 286.097 64.9652 289.139 63.0902C292.184 61.2122 294.563 58.5717 296.211 55.2464C297.843 51.9561 298.67 48.4055 298.67 44.6966C298.67 41.0228 298.113 37.7264 297.014 34.8972C295.905 32.0451 294.286 29.5873 292.201 27.5921ZM291.526 44.2385C291.526 46.736 291.13 48.9564 290.35 50.8405C289.579 52.7003 288.443 54.2937 286.973 55.5782C285.511 56.855 283.767 57.7301 281.787 58.1806C279.708 58.6539 276.289 58.8944 271.626 58.8944H268.5V28.8978H269.825C274.349 28.8978 277.857 29.1307 280.249 29.5918C282.535 30.0317 284.549 30.9174 286.237 32.2278C287.911 33.5274 289.223 35.2396 290.134 37.3154C291.058 39.4202 291.526 41.7502 291.526 44.2385Z" fill="#001959"/>
<path d="M352.49 21.6984H345.8V32.8591H340.725V39.1195H345.8V59.5332C345.8 61.6922 346.324 63.3287 347.357 64.4002C348.396 65.4789 349.951 66.0249 351.98 66.0249C352.949 66.0249 354.298 65.876 356.102 65.5724L357.025 65.4162V59.4529H353.329C352.924 59.4529 352.663 59.4325 352.513 59.4208C352.501 59.3084 352.49 59.1508 352.49 58.9303V39.1195H358.321V32.8591H352.49V21.6984Z" fill="#001959"/>
<path d="M139.278 21.7406L123.849 53.5527L108.311 21.7406H105.407L99.208 66.0223H106.233L109.701 40.0345L122.402 66.0223H125.304L137.839 40.2695L141.304 66.0223H148.442L142.184 21.7406H139.278Z" fill="#001959"/>
<path d="M177.608 36.3913C174.907 33.9942 171.71 32.7813 168.073 32.7813C163.571 32.7813 159.703 34.4209 156.576 37.6529C153.453 40.879 151.869 44.8098 151.869 49.3347C151.869 53.8569 153.442 57.8019 156.542 61.0624C159.654 64.3359 163.453 65.9955 167.835 65.9955C171.428 65.9955 174.706 64.7297 177.608 62.2266V66.025L184.065 65.9955V32.8592H177.608V36.3913ZM175.004 42.2007C176.899 44.174 177.82 46.5596 177.82 49.4951C177.82 52.4263 176.885 54.8005 174.96 56.7537C173.035 58.7083 170.809 59.6577 168.153 59.6577C165.47 59.6577 163.231 58.6697 161.308 56.6348C159.373 54.59 158.432 52.2459 158.432 49.4693C158.432 46.6885 159.358 44.3415 161.261 42.2952C163.148 40.2676 165.394 39.281 168.126 39.281C170.866 39.281 173.115 40.2361 175.004 42.2007Z" fill="#001959"/>
<path d="M249.201 36.3913C246.499 33.9942 243.302 32.7813 239.666 32.7813C235.164 32.7813 231.296 34.4209 228.169 37.6529C225.046 40.879 223.462 44.8098 223.462 49.3347C223.462 53.8569 225.034 57.8019 228.135 61.0624C231.247 64.3359 235.046 65.9955 239.428 65.9955C243.021 65.9955 246.299 64.7297 249.201 62.2266V66.025L255.658 65.9955V32.8592H249.201V36.3913ZM246.596 42.2007C248.492 44.174 249.413 46.5596 249.413 49.4951C249.413 52.4263 248.478 54.8005 246.553 56.7537C244.628 58.7083 242.401 59.6577 239.745 59.6577C237.063 59.6577 234.824 58.6697 232.901 56.6348C230.966 54.59 230.025 52.2459 230.025 49.4693C230.025 46.6885 230.951 44.3415 232.854 42.2952C234.741 40.2676 236.986 39.281 239.719 39.281C242.459 39.281 244.708 40.2361 246.596 42.2007Z" fill="#001959"/>
<path d="M328.712 36.3913C326.01 33.9942 322.813 32.7813 319.177 32.7813C314.675 32.7813 310.807 34.4209 307.679 37.6529C304.556 40.879 302.973 44.8098 302.973 49.3347C302.973 53.8569 304.545 57.8019 307.646 61.0624C310.757 64.3359 314.556 65.9955 318.939 65.9955C322.532 65.9955 325.81 64.7297 328.712 62.2266V66.025L335.169 65.9955V32.8592H328.712V36.3913ZM326.107 42.2007C328.003 44.174 328.924 46.5596 328.924 49.4951C328.924 52.4263 327.989 54.8005 326.063 56.7537C324.139 58.7083 321.912 59.6577 319.256 59.6577C316.573 59.6577 314.334 58.6697 312.412 56.6348C310.477 54.59 309.536 52.2459 309.536 49.4693C309.536 46.6885 310.461 44.3415 312.365 42.2952C314.252 40.2676 316.497 39.281 319.23 39.281C321.969 39.281 324.219 40.2361 326.107 42.2007Z" fill="#001959"/>
<path d="M386.49 36.3913C383.788 33.9942 380.591 32.7813 376.955 32.7813C372.453 32.7813 368.585 34.4209 365.458 37.6529C362.335 40.879 360.751 44.8098 360.751 49.3347C360.751 53.8569 362.323 57.8019 365.424 61.0624C368.536 64.3359 372.335 65.9955 376.717 65.9955C380.31 65.9955 383.588 64.7297 386.49 62.2266V66.025L392.947 65.9955V32.8592H386.49V36.3913ZM383.885 42.2007C385.781 44.174 386.702 46.5596 386.702 49.4951C386.702 52.4263 385.767 54.8005 383.842 56.7537C381.917 58.7083 379.69 59.6577 377.034 59.6577C374.352 59.6577 372.113 58.6697 370.19 56.6348C368.255 54.59 367.314 52.2459 367.314 49.4693C367.314 46.6885 368.24 44.3415 370.143 42.2952C372.03 40.2676 374.275 39.281 377.008 39.281C379.748 39.281 381.997 40.2361 383.885 42.2007Z" fill="#001959"/>
<path d="M205.865 53.7766L196.619 32.8587H189.421L202.228 62.1485L195.952 76.7074H203.15L222.058 32.8587H214.801L205.865 53.7766Z" fill="#001959"/>
<path d="M15.1133 32.1786V74.5095C15.1133 75.5878 15.6811 76.4186 16.6022 76.9561L36.9676 89.0831C37.884 89.6178 39.0113 89.7194 39.9276 89.1847L60.2891 76.9929C61.2126 76.454 61.782 75.5907 61.782 74.5095V32.1412L38.4476 46.2387L15.1133 32.1786Z" fill="#001959"/>
<path d="M8.21533 70.0814V29.2185C8.21533 28.5939 8.37066 27.8048 9.57391 27.2004L37.5994 10.2714C38.1249 9.96754 38.7694 9.96754 39.295 10.2714L67.8439 27.5137C68.3786 27.8229 68.6893 28.0254 68.6787 28.7364L68.6786 70.0814C68.6786 70.9389 69.6114 71.3429 70.3504 70.9271L76.089 67.4682C76.6335 67.1619 76.894 66.7003 76.894 66.0685V23.7721C76.894 23.0268 76.6485 22.7717 76.1208 22.4606L39.3048 0.235132C38.7743 -0.0775728 38.1196 -0.0784294 37.5883 0.232886L0.842243 22.4384C0.312372 22.7489 0 23.2785 0 23.8995V66.0685C0 66.6779 0.253099 67.1326 0.767383 67.4471L6.56229 70.9388C7.30176 71.391 8.21533 70.9576 8.21533 70.0814Z" fill="#001959"/>
<path d="M55.0773 28.211L38.4474 18.1908L21.8174 28.211L38.4474 38.2312L55.0773 28.211Z" fill="#0063FF"/>
</svg>
