<svg width="154" height="35" viewBox="0 0 154 35" fill="none" xmlns="http://www.w3.org/2000/svg">
<path d="M114.218 10.7855C113.403 10.0056 112.424 9.42321 111.309 9.05378C110.198 8.68553 108.497 8.50647 106.109 8.50647H102.227V25.7663H107.869C110.099 25.7663 111.832 25.3945 113.021 24.6615C114.211 23.9274 115.141 22.8953 115.785 21.5954C116.423 20.3093 116.747 18.9214 116.747 17.4716C116.747 16.0355 116.529 14.747 116.099 13.641C115.666 12.5262 115.033 11.5654 114.218 10.7855ZM113.954 17.2925C113.954 18.2688 113.799 19.1367 113.494 19.8732C113.193 20.6002 112.749 21.223 112.174 21.7251C111.603 22.2242 110.921 22.5663 110.147 22.7424C109.334 22.9274 107.998 23.0214 106.175 23.0214H104.953V11.296H105.471C107.24 11.296 108.611 11.387 109.546 11.5672C110.439 11.7391 111.227 12.0854 111.886 12.5976C112.541 13.1056 113.054 13.7749 113.41 14.5863C113.771 15.4091 113.954 16.3199 113.954 17.2925Z" fill="white"/>
<path d="M137.787 8.48157H135.171V12.8442H133.188V15.2914H135.171V23.271C135.171 24.1149 135.376 24.7546 135.78 25.1734C136.186 25.5951 136.794 25.8085 137.587 25.8085C137.966 25.8085 138.493 25.7503 139.199 25.6316L139.559 25.5706V23.2396H138.114C137.956 23.2396 137.854 23.2316 137.795 23.227C137.791 23.1831 137.787 23.1215 137.787 23.0353V15.2914H140.066V12.8442H137.787V8.48157Z" fill="white"/>
<path d="M54.4425 8.49976L48.4111 20.9349L42.3378 8.49976H41.2024L38.7793 25.8092H41.5252L42.8809 15.6507L47.8458 25.8092H48.98L53.8798 15.7426L55.2342 25.8092H58.0246L55.5782 8.49976H54.4425Z" fill="white"/>
<path d="M69.4246 14.225C68.3685 13.2879 67.1188 12.8138 65.6974 12.8138C63.9376 12.8138 62.4255 13.4547 61.2031 14.7181C59.9824 15.9792 59.3633 17.5157 59.3633 19.2845C59.3633 21.0521 59.9779 22.5942 61.19 23.8687C62.4062 25.1483 63.8913 25.7971 65.6043 25.7971C67.0089 25.7971 68.2902 25.3022 69.4246 24.3238V25.8086L71.9486 25.7971V12.8443H69.4246V14.225ZM68.4064 16.4958C69.1474 17.2672 69.5075 18.1997 69.5075 19.3472C69.5075 20.4929 69.1418 21.421 68.3893 22.1845C67.637 22.9485 66.7666 23.3196 65.7284 23.3196C64.6797 23.3196 63.8045 22.9334 63.0529 22.138C62.2965 21.3387 61.9288 20.4224 61.9288 19.3371C61.9288 18.2501 62.2906 17.3326 63.0347 16.5328C63.7722 15.7402 64.6499 15.3545 65.7181 15.3545C66.789 15.3545 67.6683 15.7279 68.4064 16.4958Z" fill="white"/>
<path d="M97.411 14.225C96.3548 13.2879 95.1051 12.8138 93.6837 12.8138C91.924 12.8138 90.4119 13.4547 89.1894 14.7181C87.9687 15.9792 87.3496 17.5157 87.3496 19.2845C87.3496 21.0521 87.9643 22.5942 89.1764 23.8687C90.3926 25.1483 91.8776 25.7971 93.5906 25.7971C94.9952 25.7971 96.2765 25.3022 97.411 24.3238V25.8086L99.9349 25.7971V12.8443H97.411V14.225ZM96.3927 16.4958C97.1337 17.2672 97.4938 18.1997 97.4938 19.3472C97.4938 20.4929 97.1282 21.421 96.3756 22.1845C95.6234 22.9485 94.753 23.3196 93.7147 23.3196C92.666 23.3196 91.7908 22.9334 91.0392 22.138C90.2828 21.3387 89.9151 20.4224 89.9151 19.3371C89.9151 18.2501 90.2769 17.3326 91.021 16.5328C91.7585 15.7402 92.6363 15.3545 93.7044 15.3545C94.7753 15.3545 95.6547 15.7279 96.3927 16.4958Z" fill="white"/>
<path d="M128.491 14.225C127.435 13.2879 126.185 12.8138 124.764 12.8138C123.004 12.8138 121.492 13.4547 120.27 14.7181C119.049 15.9792 118.43 17.5157 118.43 19.2845C118.43 21.0521 119.044 22.5942 120.256 23.8687C121.473 25.1483 122.958 25.7971 124.671 25.7971C126.075 25.7971 127.357 25.3022 128.491 24.3238V25.8086L131.015 25.7971V12.8443H128.491V14.225ZM127.473 16.4958C128.214 17.2672 128.574 18.1997 128.574 19.3472C128.574 20.4929 128.208 21.421 127.456 22.1845C126.703 22.9485 125.833 23.3196 124.795 23.3196C123.746 23.3196 122.871 22.9334 122.119 22.138C121.363 21.3387 120.995 20.4224 120.995 19.3371C120.995 18.2501 121.357 17.3326 122.101 16.5328C122.839 15.7402 123.716 15.3545 124.784 15.3545C125.855 15.3545 126.735 15.7279 127.473 16.4958Z" fill="white"/>
<path d="M151.077 14.225C150.021 13.2879 148.771 12.8138 147.35 12.8138C145.59 12.8138 144.078 13.4547 142.855 14.7181C141.635 15.9792 141.016 17.5157 141.016 19.2845C141.016 21.0521 141.63 22.5942 142.842 23.8687C144.059 25.1483 145.544 25.7971 147.257 25.7971C148.661 25.7971 149.943 25.3022 151.077 24.3238V25.8086L153.601 25.7971V12.8443H151.077V14.225ZM150.059 16.4958C150.8 17.2672 151.16 18.1997 151.16 19.3472C151.16 20.4929 150.794 21.421 150.042 22.1845C149.289 22.9485 148.419 23.3196 147.381 23.3196C146.332 23.3196 145.457 22.9334 144.705 22.138C143.949 21.3387 143.581 20.4224 143.581 19.3371C143.581 18.2501 143.943 17.3326 144.687 16.5328C145.425 15.7402 146.302 15.3545 147.37 15.3545C148.441 15.3545 149.321 15.7279 150.059 16.4958Z" fill="white"/>
<path d="M80.469 21.0209L76.8548 12.8442H74.041L79.0471 24.2934L76.5939 29.9844H79.4075L86.7987 12.8442H83.9621L80.469 21.0209Z" fill="white"/>
<path d="M5.90625 12.5783V29.1252C5.90625 29.5467 6.12821 29.8715 6.48826 30.0816L14.449 34.822C14.8072 35.031 15.2478 35.0707 15.606 34.8617L23.5652 30.096C23.9262 29.8853 24.1488 29.5479 24.1488 29.1252V12.5637L15.0275 18.0743L5.90625 12.5783Z" fill="white"/>
<path d="M3.21132 27.3944V11.4213C3.21132 11.1772 3.27204 10.8687 3.74238 10.6325L14.6974 4.01504C14.9028 3.89625 15.1547 3.89625 15.3602 4.01504L26.5198 10.7549C26.7288 10.8758 26.8502 10.9549 26.8461 11.2329L26.846 27.3944C26.846 27.7296 27.2107 27.8875 27.4995 27.725L29.7427 26.3729C29.9556 26.2532 30.0574 26.0727 30.0574 25.8258V9.29235C30.0574 9.00103 29.9614 8.90132 29.7551 8.77972L15.364 0.0919115C15.1566 -0.0303227 14.9007 -0.0306576 14.693 0.0910339L0.329228 8.77102C0.122104 8.8924 0 9.09944 0 9.34217V25.8258C0 26.064 0.0989349 26.2417 0.299965 26.3646L2.56516 27.7295C2.85421 27.9063 3.21132 27.7369 3.21132 27.3944Z" fill="white"/>
<path d="M21.5284 11.0276L15.0279 7.11072L8.52734 11.0276L15.0279 14.9444L21.5284 11.0276Z" fill="white"/>
</svg>
