<svg width="319" height="88" viewBox="0 0 319 88" fill="none" xmlns="http://www.w3.org/2000/svg">
<path d="M17.9044 8.60016C37.287 -5.87623 64.5438 -1.606 79.3836 17.8675C82.2608 21.6229 81.655 27.2256 77.6271 29.7393C75.7523 30.9719 73.4834 31.4567 71.2686 31.0978C69.0538 30.739 67.0541 29.5626 65.6644 27.8011C62.2269 23.2441 57.4497 19.877 52.0023 18.1717C46.555 16.4663 40.7106 16.5082 35.2882 18.2915C29.9006 20.0685 25.2264 23.5295 21.9548 28.1643C18.6832 32.7991 16.9873 38.3624 17.117 44.034C17.1661 49.7267 19.0063 55.2594 22.3766 59.8474C25.747 64.4355 30.4763 67.8458 35.8939 69.5948C41.2575 71.3691 47.0478 71.3828 52.4198 69.6339C57.7917 67.885 62.4642 64.4651 65.7552 59.8732C68.7838 55.6333 73.2357 54.8459 77.4757 57.299C81.7156 59.7218 82.079 65.8697 79.4442 69.716C75.5171 75.2996 70.3069 79.8589 64.2515 83.0104C58.1962 86.1619 51.4727 87.8136 44.6464 87.8266C30.5637 87.8872 17.3896 81.4667 8.81882 70.2308C-6.05128 50.7573 -1.50848 23.0463 17.8741 8.60016H17.9044ZM75.3557 35.433C76.734 34.7906 78.2554 34.5171 79.7711 34.6392C81.2869 34.7613 82.7449 35.2748 84.0026 36.1296C85.2602 36.9843 86.2745 38.1509 86.9459 39.5153C87.6174 40.8796 87.9232 42.3949 87.8333 43.9129C87.7426 45.4258 87.2481 46.8869 86.4012 48.1439C85.5543 49.4009 84.386 50.4079 83.0179 51.0602C81.6396 51.7026 80.1182 51.9761 78.6024 51.854C77.0867 51.7319 75.6287 51.2183 74.371 50.3636C73.1133 49.5089 72.0991 48.3422 71.4277 46.9779C70.7562 45.6136 70.4504 44.0983 70.5403 42.5803C70.631 41.0673 71.1255 39.6063 71.9724 38.3493C72.8192 37.0923 73.9876 36.0852 75.3557 35.433Z" fill="#C0C9D8"/>
<path d="M182.233 65.3548H172.844L159.155 47.1836L159.034 53.0287V65.3548H151.645V9.08466H159.034V43.7614L171.572 26.8621H181.052V27.165L167.514 45.2151L182.233 65.052V65.3548ZM201.615 65.9908C198.675 66.0879 195.811 65.0464 193.62 63.0834C192.541 62.0397 191.695 60.7799 191.136 59.3864C190.578 57.993 190.32 56.4972 190.38 54.9972V33.4644H183.414V26.8621H190.38V16.3531H197.769V26.8319H207.461V33.4341H197.769V52.6047C197.769 55.1789 198.284 56.9052 199.283 57.844C200.313 58.7526 201.464 59.2069 202.766 59.2069C203.905 59.2239 205.033 58.9859 206.067 58.5103L208.399 64.9308C206.461 65.6274 204.22 65.9605 201.646 65.9605L201.615 65.9908ZM269.061 65.9908C266.11 66.0958 263.234 65.0537 261.035 63.0834C259.956 62.0397 259.11 60.7799 258.551 59.3864C257.993 57.993 257.735 56.4972 257.795 54.9972V33.4644H250.859V26.8621H257.795V16.3531H265.184V26.8319H274.876V33.4341H265.184V52.6047C265.184 55.1789 265.699 56.9052 266.699 57.844C267.728 58.7526 268.909 59.2069 270.181 59.2069C271.33 59.2284 272.469 58.9903 273.513 58.5103L275.815 64.9308C273.876 65.6274 271.635 65.9605 269.061 65.9605V65.9908ZM297.075 66.3845C294.358 66.4165 291.662 65.9131 289.14 64.9031C286.619 63.893 284.32 62.3961 282.377 60.4978C280.434 58.5995 278.883 56.337 277.815 53.8395C276.746 51.3419 276.179 48.6583 276.148 45.9419C276.148 34.6758 285.536 25.5296 297.075 25.5296C302.556 25.4649 307.838 27.5783 311.762 31.4056C315.686 35.2329 317.93 40.4611 318.002 45.9419C318.002 57.2383 308.614 66.3845 297.075 66.3845ZM297.075 59.116C298.827 59.14 300.567 58.8181 302.195 58.1686C303.823 57.5192 305.307 56.555 306.562 55.3312C307.816 54.1075 308.817 52.6482 309.507 51.0371C310.197 49.4259 310.562 47.6945 310.582 45.9419C310.582 38.6734 304.525 32.7678 297.075 32.7678C295.322 32.7438 293.582 33.0657 291.954 33.7152C290.327 34.3646 288.843 35.3288 287.588 36.5526C286.333 37.7763 285.332 39.2356 284.643 40.8468C283.953 42.4579 283.587 44.1894 283.568 45.9419C283.568 53.2104 289.625 59.116 297.075 59.116ZM126.932 66.3845C124.215 66.4165 121.519 65.9131 118.997 64.9031C116.476 63.893 114.177 62.3961 112.234 60.4978C110.291 58.5995 108.74 56.337 107.672 53.8395C106.603 51.3419 106.036 48.6583 106.005 45.9419C106.005 34.6758 115.393 25.5296 126.932 25.5296C132.413 25.4649 137.695 27.5783 141.619 31.4056C145.543 35.2329 147.787 40.4611 147.859 45.9419C147.859 57.2383 138.471 66.3845 126.932 66.3845ZM126.932 59.116C128.684 59.14 130.424 58.8181 132.052 58.1686C133.68 57.5192 135.164 56.555 136.419 55.3312C137.673 54.1075 138.674 52.6482 139.364 51.0371C140.054 49.4259 140.419 47.6945 140.439 45.9419C140.439 38.6734 134.382 32.7678 126.932 32.7678C125.179 32.7438 123.439 33.0657 121.811 33.7152C120.184 34.3646 118.7 35.3288 117.445 36.5526C116.19 37.7763 115.189 39.2356 114.499 40.8468C113.81 42.4579 113.444 44.1894 113.425 45.9419C113.425 53.2104 119.482 59.116 126.932 59.116ZM230.023 66.6268C227.287 66.7187 224.56 66.2533 222.009 65.2589C219.458 64.2645 217.136 62.7619 215.183 60.8423C213.245 58.8616 211.726 56.5106 210.716 53.9297C209.707 51.3488 209.228 48.5909 209.308 45.8208C209.308 39.9757 211.186 35.13 214.971 31.2232C216.853 29.3002 219.115 27.79 221.613 26.7889C224.11 25.7878 226.789 25.3177 229.478 25.4085C235.535 25.4085 239.836 27.3467 243.954 30.9204C248.073 34.4941 250.738 41.2174 250.223 48.0316H217.152C217.146 49.6174 217.506 51.1832 218.205 52.6068C218.904 54.0304 219.922 55.2734 221.18 56.2389C223.685 58.5194 226.969 59.7547 230.356 59.6915C235.232 59.6915 239.321 57.2686 241.38 52.7864H249.436C248.087 57.3726 245.13 61.3189 241.108 63.9011C237.837 65.8091 234.142 66.6268 230.053 66.6268H230.023ZM217.485 41.3991H242.501C241.895 38.7946 240.381 36.402 238.018 34.5849C235.626 32.7678 233.536 31.8592 230.023 31.8592C227.085 31.8592 224.208 32.8889 222.119 34.5849C219.999 36.2809 218.182 38.522 217.485 41.3991Z" fill="#C0C9D8"/>
</svg>
