<svg width="321" height="74" viewBox="0 0 321 74" fill="none" xmlns="http://www.w3.org/2000/svg">
<g clip-path="url(#clip0)">
<path d="M37.674 74C51.241 74 63.1521 67.0933 69.9042 56.6921C73.4273 51.0302 75.4589 44.3667 75.4589 37.2351C75.4589 16.6707 58.5667 0 37.7294 0C16.892 0 0 16.6707 0 37.2351C0 45.9375 3.02503 53.9428 8.09397 60.2824C10.4686 63.1269 13.2671 65.6225 16.3955 67.6777V36.8971C16.3954 36.8742 16.3937 36.8515 16.3921 36.8291C16.3904 36.8054 16.3887 36.7819 16.3887 36.758C16.3887 36.7341 16.3904 36.7104 16.3921 36.687C16.3937 36.6643 16.3954 36.6418 16.3955 36.6189V36.3577H16.4083C16.617 24.4076 26.0348 14.7829 37.6419 14.7829C49.3797 14.7829 58.8946 24.6214 58.8946 36.758C58.8946 48.8945 49.3797 58.7333 37.6419 58.7333C33.0702 58.7333 28.8465 57.2264 25.38 54.6875V72.0136C29.3448 73.331 33.4961 74.0017 37.674 74Z" fill="#C0C9D8"/>
<path d="M38.3133 49.1895C45.2269 49.1895 50.8313 43.6346 50.8313 36.7824C50.8313 29.93 45.2269 24.3752 38.3133 24.3752C31.3997 24.3752 25.7948 29.93 25.7948 36.7824C25.7948 43.6346 31.3997 49.1895 38.3133 49.1895Z" fill="#C0C9D8"/>
<path d="M99.25 49.6919V24.7749H109.811C115.572 24.7749 119.271 28.1091 119.271 33.2679C119.271 38.3566 115.359 41.9012 109.811 41.9012H104.868V49.6919H99.25ZM109.491 37.1985C112.123 37.1985 113.652 35.7595 113.652 33.2679C113.652 30.8113 112.158 29.4776 109.491 29.4776H104.868V37.2335H109.491V37.1985Z" fill="#C0C9D8"/>
<path d="M131.467 49.6919V24.7749H149.354V29.5129H137.086V34.7067H148.287V39.4797H137.086V44.9895H149.389V49.6919H131.467Z" fill="#C0C9D8"/>
<path d="M176.665 49.6919L172.185 41.9713H167.597V49.6919H161.979V24.7749H173.429C179.048 24.7749 182.639 28.1441 182.639 33.3732C182.639 36.7772 180.897 39.5848 177.945 40.9886L183.173 49.6919H176.665ZM172.825 37.3389C175.456 37.3389 177.021 35.8298 177.021 33.3379C177.021 30.8464 175.492 29.4426 172.825 29.4426H167.597V37.3739H172.825V37.3389Z" fill="#C0C9D8"/>
<path d="M240.032 50.1824C233.169 50.1824 228.724 45.7954 228.724 38.9872V35.4426C228.724 28.6343 233.169 24.2476 240.032 24.2476C247.002 24.2476 251.341 28.529 251.341 35.4426V38.9872C251.341 45.9007 247.002 50.1824 240.032 50.1824ZM240.032 29.0204C236.441 29.0204 234.343 31.3015 234.343 35.2322V39.2329C234.343 43.1985 236.405 45.4447 240.032 45.4447C243.624 45.4447 245.722 43.1635 245.722 39.2329V35.2322C245.722 31.2665 243.659 29.0204 240.032 29.0204Z" fill="#C0C9D8"/>
<path d="M279.754 49.6919L269.62 34.391V49.6919H264.106V24.7749H269.299L279.47 40.0761V24.7749H284.981V49.6919H279.754Z" fill="#C0C9D8"/>
<path d="M315.17 49.6919L313.536 44.6034H304.503L302.868 49.6919H297.248L306.315 24.7749H311.792L320.862 49.6919H315.17ZM312.042 40.0761L309.019 30.6357L305.96 40.0761H312.042Z" fill="#C0C9D8"/>
<path d="M211.656 40.9196C211.229 43.7972 209.273 45.5169 206.322 45.5169C201.521 45.5169 200.81 41.5863 200.81 39.2348V35.3044C200.81 32.953 201.521 29.0226 206.322 29.0226C209.238 29.0226 211.229 30.7421 211.656 33.5847L216.883 32.8126C216.172 27.7591 211.976 24.3198 206.358 24.3198C199.423 24.3198 195.263 28.4959 195.263 35.5501V39.0244C195.263 46.0433 199.423 50.2547 206.358 50.2547C212.012 50.2547 216.208 46.8154 216.883 41.7617L211.656 40.9196Z" fill="#C0C9D8"/>
</g>
<defs>
<clipPath id="clip0">
<rect width="321" height="74" fill="white"/>
</clipPath>
</defs>
</svg>
