<svg width="31" height="31" viewBox="0 0 31 31" fill="none" xmlns="http://www.w3.org/2000/svg">
<g clip-path="url(#clip0)">
<path fill-rule="evenodd" clip-rule="evenodd" d="M1.9375 7.64584V26.3958C1.9375 26.8931 2.14163 27.37 2.50498 27.7217C2.86833 28.0733 3.36114 28.2708 3.875 28.2708H27.125C27.6389 28.2708 28.1317 28.0733 28.495 27.7217C28.8584 27.37 29.0625 26.8931 29.0625 26.3958V7.64584H1.9375ZM3.875 2.02084C2.84729 2.02084 1.86166 2.41593 1.13496 3.11919C0.408258 3.82245 0 4.77628 0 5.77084L0 26.3958C0 27.3904 0.408258 28.3442 1.13496 29.0475C1.86166 29.7508 2.84729 30.1458 3.875 30.1458H27.125C28.1527 30.1458 29.1383 29.7508 29.865 29.0475C30.5917 28.3442 31 27.3904 31 26.3958V5.77084C31 4.77628 30.5917 3.82245 29.865 3.11919C29.1383 2.41593 28.1527 2.02084 27.125 2.02084H3.875Z" fill="url(#paint0_linear)"/>
<path fill-rule="evenodd" clip-rule="evenodd" d="M6.78125 0.145844C7.03818 0.145844 7.28458 0.244616 7.46626 0.420431C7.64794 0.596246 7.75 0.834703 7.75 1.08334V2.02084C7.75 2.26948 7.64794 2.50794 7.46626 2.68376C7.28458 2.85957 7.03818 2.95834 6.78125 2.95834C6.52432 2.95834 6.27792 2.85957 6.09624 2.68376C5.91456 2.50794 5.8125 2.26948 5.8125 2.02084V1.08334C5.8125 0.834703 5.91456 0.596246 6.09624 0.420431C6.27792 0.244616 6.52432 0.145844 6.78125 0.145844V0.145844ZM24.2188 0.145844C24.4757 0.145844 24.7221 0.244616 24.9038 0.420431C25.0854 0.596246 25.1875 0.834703 25.1875 1.08334V2.02084C25.1875 2.26948 25.0854 2.50794 24.9038 2.68376C24.7221 2.85957 24.4757 2.95834 24.2188 2.95834C23.9618 2.95834 23.7154 2.85957 23.5337 2.68376C23.3521 2.50794 23.25 2.26948 23.25 2.02084V1.08334C23.25 0.834703 23.3521 0.596246 23.5337 0.420431C23.7154 0.244616 23.9618 0.145844 24.2188 0.145844V0.145844Z" fill="url(#paint1_linear)"/>
<path d="M24.2188 11.3958H22.2812C21.7462 11.3958 21.3125 11.8156 21.3125 12.3333V14.2083C21.3125 14.7261 21.7462 15.1458 22.2812 15.1458H24.2188C24.7538 15.1458 25.1875 14.7261 25.1875 14.2083V12.3333C25.1875 11.8156 24.7538 11.3958 24.2188 11.3958Z" fill="url(#paint2_linear)"/>
</g>
<defs>
<linearGradient id="paint0_linear" x1="29.8706" y1="28.8917" x2="-0.745582" y2="28.3733" gradientUnits="userSpaceOnUse">
<stop stop-color="#FFDC7E"/>
<stop offset="1" stop-color="#FF7C71"/>
</linearGradient>
<linearGradient id="paint1_linear" x1="24.4816" y1="2.83293" x2="5.55304" y2="0.82964" gradientUnits="userSpaceOnUse">
<stop stop-color="#FFDC7E"/>
<stop offset="1" stop-color="#FF7C71"/>
</linearGradient>
<linearGradient id="paint2_linear" x1="25.0463" y1="14.9786" x2="21.2192" y2="14.9179" gradientUnits="userSpaceOnUse">
<stop stop-color="#FFDC7E"/>
<stop offset="1" stop-color="#FF7C71"/>
</linearGradient>
<clipPath id="clip0">
<rect width="31" height="30" fill="white" transform="translate(0 0.145844)"/>
</clipPath>
</defs>
</svg>
