<svg width="80" height="80" viewBox="0 0 80 80" fill="none" xmlns="http://www.w3.org/2000/svg">
<path fill-rule="evenodd" clip-rule="evenodd" d="M5 20V70C5 71.3261 5.52678 72.5979 6.46447 73.5355C7.40215 74.4732 8.67392 75 10 75H70C71.3261 75 72.5979 74.4732 73.5355 73.5355C74.4732 72.5979 75 71.3261 75 70V20H5ZM10 5C7.34784 5 4.8043 6.05357 2.92893 7.92893C1.05357 9.8043 0 12.3478 0 15L0 70C0 72.6522 1.05357 75.1957 2.92893 77.0711C4.8043 78.9464 7.34784 80 10 80H70C72.6522 80 75.1957 78.9464 77.0711 77.0711C78.9464 75.1957 80 72.6522 80 70V15C80 12.3478 78.9464 9.8043 77.0711 7.92893C75.1957 6.05357 72.6522 5 70 5H10Z" fill="url(#paint0_linear)"/>
<path fill-rule="evenodd" clip-rule="evenodd" d="M17.5 0C18.163 0 18.7989 0.263392 19.2678 0.732233C19.7366 1.20107 20 1.83696 20 2.5V5C20 5.66304 19.7366 6.29893 19.2678 6.76777C18.7989 7.23661 18.163 7.5 17.5 7.5C16.837 7.5 16.2011 7.23661 15.7322 6.76777C15.2634 6.29893 15 5.66304 15 5V2.5C15 1.83696 15.2634 1.20107 15.7322 0.732233C16.2011 0.263392 16.837 0 17.5 0V0ZM62.5 0C63.163 0 63.7989 0.263392 64.2678 0.732233C64.7366 1.20107 65 1.83696 65 2.5V5C65 5.66304 64.7366 6.29893 64.2678 6.76777C63.7989 7.23661 63.163 7.5 62.5 7.5C61.837 7.5 61.2011 7.23661 60.7322 6.76777C60.2634 6.29893 60 5.66304 60 5V2.5C60 1.83696 60.2634 1.20107 60.7322 0.732233C61.2011 0.263392 61.837 0 62.5 0V0Z" fill="url(#paint1_linear)"/>
<path d="M62.5 30H57.5C56.1193 30 55 31.1193 55 32.5V37.5C55 38.8807 56.1193 40 57.5 40H62.5C63.8807 40 65 38.8807 65 37.5V32.5C65 31.1193 63.8807 30 62.5 30Z" fill="url(#paint2_linear)"/>
<defs>
<linearGradient id="paint0_linear" x1="77.0855" y1="76.6557" x2="-1.92552" y2="75.3609" gradientUnits="userSpaceOnUse">
<stop stop-color="#FFDC7E"/>
<stop offset="1" stop-color="#FF7C71"/>
</linearGradient>
<linearGradient id="paint1_linear" x1="63.1784" y1="7.16557" x2="14.2961" y2="2.15903" gradientUnits="userSpaceOnUse">
<stop stop-color="#FFDC7E"/>
<stop offset="1" stop-color="#FF7C71"/>
</linearGradient>
<linearGradient id="paint2_linear" x1="64.6357" y1="39.5541" x2="54.759" y2="39.4024" gradientUnits="userSpaceOnUse">
<stop stop-color="#FFDC7E"/>
<stop offset="1" stop-color="#FF7C71"/>
</linearGradient>
</defs>
</svg>
