<svg width="41" height="41" viewBox="0 0 41 41" fill="none" xmlns="http://www.w3.org/2000/svg">
<path d="M17.3325 22.2921L15.6659 30.6255H18.9992V37.2921L25.6242 27.2921H22.3325L23.9992 22.2921H17.3325Z" fill="url(#paint0_linear)"/>
<path d="M32.2392 17.4788C31.5109 11.7421 26.5992 7.29214 20.6659 7.29214C16.0725 7.29214 12.0825 9.97714 10.2609 14.2088C6.68087 15.2788 3.99921 18.6571 3.99921 22.2921C3.99921 26.8871 7.73754 30.6255 12.3325 30.6255V27.2921C9.57587 27.2921 7.33254 25.0488 7.33254 22.2921C7.33254 19.9538 9.33087 17.6988 11.7875 17.2671L12.7559 17.0955L13.0759 16.1638C14.2475 12.7471 17.1575 10.6255 20.6659 10.6255C25.2609 10.6255 28.9992 14.3638 28.9992 18.9588V20.6255H30.6659C32.5042 20.6255 33.9992 22.1205 33.9992 23.9588C33.9992 25.7971 32.5042 27.2921 30.6659 27.2921H28.9992V30.6255H30.6659C34.3425 30.6255 37.3325 27.6355 37.3325 23.9588C37.3306 22.4647 36.8277 21.0143 35.9044 19.8396C34.9811 18.6649 33.6906 17.8337 32.2392 17.4788Z" fill="url(#paint1_linear)"/>
<defs>
<linearGradient id="paint0_linear" x1="25.2614" y1="36.6233" x2="15.4246" y2="36.523" gradientUnits="userSpaceOnUse">
<stop stop-color="#FFDC7E"/>
<stop offset="1" stop-color="#FF7C71"/>
</linearGradient>
<linearGradient id="paint1_linear" x1="36.1182" y1="29.585" x2="3.20392" y2="28.8626" gradientUnits="userSpaceOnUse">
<stop stop-color="#FFDC7E"/>
<stop offset="1" stop-color="#FF7C71"/>
</linearGradient>
</defs>
</svg>
