<svg width="410" height="137" viewBox="0 0 410 137" fill="none" xmlns="http://www.w3.org/2000/svg">
<path d="M0 0H370C392.091 0 410 17.9086 410 40V137H40C17.9086 137 0 119.091 0 97V0Z" fill="white"/>
<path d="M113.302 65.0517C116.128 65.0517 118.355 63.9318 120.154 61.6919L123.752 65.4825C120.839 68.7561 117.499 70.393 113.559 70.393C109.619 70.393 106.449 69.1869 103.88 66.6886C101.31 64.1902 100.111 61.0889 100.111 57.2984C100.111 53.5078 101.396 50.3203 103.965 47.822C106.535 45.3237 109.704 44.0315 113.473 44.0315C117.67 44.0315 121.182 45.6683 123.923 48.8558L120.411 52.9048C118.612 50.6649 116.385 49.545 113.73 49.545C111.589 49.545 109.79 50.2342 108.248 51.6125C106.706 52.9909 105.935 54.8862 105.935 57.2984C105.935 59.7105 106.621 61.6058 108.077 63.0703C109.533 64.2764 111.246 65.0517 113.302 65.0517ZM128.291 70.0484V44.4622H133.944V64.9656H144.823V70.0484H128.291ZM169.662 66.5163C167.093 69.0146 163.923 70.3068 160.155 70.3068C156.386 70.3068 153.217 69.0146 150.647 66.5163C148.077 64.018 146.793 60.8304 146.793 57.1261C146.793 53.4217 148.077 50.2342 150.647 47.7359C153.217 45.2375 156.386 43.9453 160.155 43.9453C163.923 43.9453 167.093 45.2375 169.662 47.7359C172.232 50.2342 173.517 53.4217 173.517 57.1261C173.517 60.8304 172.232 64.018 169.662 66.5163ZM167.692 57.1261C167.692 54.8862 166.921 52.9048 165.551 51.2679C164.095 49.6311 162.296 48.8558 160.155 48.8558C158.013 48.8558 156.215 49.6311 154.758 51.2679C153.302 52.9048 152.531 54.8 152.531 57.1261C152.531 59.4521 153.302 61.3473 154.758 62.9842C156.215 64.621 158.013 65.3963 160.155 65.3963C162.296 65.3963 164.095 64.621 165.551 62.9842C167.007 61.3473 167.692 59.4521 167.692 57.1261ZM185.08 63.5011C186.022 64.7071 187.307 65.3102 188.934 65.3102C190.562 65.3102 191.847 64.7071 192.703 63.5011C193.645 62.295 194.074 60.6582 194.074 58.6767V44.4622H199.727V58.7629C199.727 62.4673 198.699 65.3102 196.643 67.2916C194.588 69.273 192.018 70.3068 188.849 70.3068C185.68 70.3068 183.024 69.273 180.969 67.2916C178.913 65.3102 177.885 62.4673 177.885 58.7629V44.4622H183.538V58.5906C183.624 60.6582 184.138 62.295 185.08 63.5011ZM225.08 47.822C227.479 50.0619 228.764 53.1632 228.764 57.1261C228.764 61.0889 227.564 64.2764 225.252 66.6024C222.853 68.9284 219.256 70.0484 214.459 70.0484H205.637V44.4622H214.631C219.17 44.4622 222.682 45.5821 225.08 47.822ZM220.969 63.0703C222.34 61.7781 223.025 59.7967 223.025 57.2984C223.025 54.8 222.34 52.8186 220.969 51.5264C219.599 50.148 217.457 49.4588 214.545 49.4588H211.376V65.0517H214.973C217.543 65.0517 219.513 64.3625 220.969 63.0703ZM261.055 44.4622H266.794V70.0484H261.055L248.978 54.0247V70.0484H243.239V44.4622H248.635L261.055 61.0027V44.4622ZM291.12 70.0484L288.722 64.5348H278.015L275.616 70.0484H269.535L280.499 44.4622H285.981L296.944 70.0484H291.12ZM283.497 52.1294L280.327 59.5382H286.666L283.497 52.1294ZM309.107 49.4588V70.0484H303.368V49.4588H296.174V44.4622H316.302V49.4588H309.107ZM320.414 44.4622H326.067V70.0484H320.414V44.4622ZM341.742 60.7443L348.251 44.4622H354.418L344.14 70.0484H339.343L329.15 44.4622H335.317L341.742 60.7443ZM375.746 44.4622V49.545H363.069V54.8862H374.461V59.7105H363.069V65.0517H376.175V70.0484H357.416V44.4622H375.746ZM106.792 91.844C108.334 91.844 109.619 91.2409 110.646 89.9487L112.702 92.1024C111.075 93.9115 109.19 94.8592 106.963 94.8592C104.736 94.8592 102.938 94.17 101.567 92.7916C100.111 91.4132 99.4258 89.6041 99.4258 87.5365C99.4258 85.3828 100.111 83.6598 101.567 82.1953C103.023 80.7308 104.822 80.0416 106.878 80.0416C109.19 80.0416 111.16 80.9031 112.788 82.7122L110.818 84.9521C109.79 83.6598 108.591 83.0568 107.049 83.0568C105.85 83.0568 104.822 83.4875 103.965 84.2629C103.109 85.0382 102.681 86.072 102.681 87.4504C102.681 88.8288 103.109 89.8625 103.88 90.6379C104.651 91.4994 105.679 91.844 106.792 91.844ZM126.835 92.7055C125.379 94.0838 123.58 94.8592 121.525 94.8592C119.469 94.8592 117.67 94.17 116.214 92.7055C114.758 91.3271 114.073 89.518 114.073 87.4504C114.073 85.3828 114.758 83.5737 116.214 82.1953C117.67 80.8169 119.469 80.0416 121.525 80.0416C123.58 80.0416 125.379 80.7308 126.835 82.1953C128.291 83.5737 128.976 85.3828 128.976 87.4504C128.976 89.518 128.291 91.3271 126.835 92.7055ZM125.807 87.4504C125.807 86.1582 125.379 85.0382 124.608 84.1767C123.752 83.3153 122.809 82.7984 121.61 82.7984C120.411 82.7984 119.383 83.2291 118.612 84.1767C117.756 85.0382 117.413 86.1582 117.413 87.4504C117.413 88.7426 117.841 89.7764 118.612 90.724C119.469 91.5855 120.411 92.1024 121.61 92.1024C122.809 92.1024 123.837 91.6717 124.608 90.724C125.379 89.8625 125.807 88.7426 125.807 87.4504ZM144.48 85.6413L140.625 93.5669H138.741L134.887 85.6413V94.6869H131.717V80.3862H136L139.683 88.2257L143.366 80.3862H147.649V94.6869H144.48V85.6413ZM161.011 81.6784C162.039 82.5399 162.553 83.8321 162.553 85.6413C162.553 87.4504 162.039 88.7426 161.011 89.518C159.983 90.3794 158.442 90.724 156.3 90.724H154.416V94.6869H151.247V80.3862H156.3C158.442 80.3862 159.983 80.8169 161.011 81.6784ZM158.698 87.2781C159.041 86.8473 159.298 86.2443 159.298 85.3828C159.298 84.5213 159.041 84.0044 158.527 83.6598C158.013 83.3152 157.242 83.143 156.215 83.143H154.416V87.9673H156.557C157.585 87.9673 158.27 87.7088 158.698 87.2781ZM168.806 90.9825C169.32 91.6717 170.09 92.0163 170.947 92.0163C171.804 92.0163 172.574 91.6717 173.088 90.9825C173.602 90.2933 173.859 89.4318 173.859 88.2257V80.3H177.028V88.3119C177.028 90.3794 176.429 92.0163 175.315 93.1362C174.202 94.2561 172.746 94.773 170.947 94.773C169.148 94.773 167.692 94.17 166.579 93.05C165.465 91.9301 164.866 90.2933 164.866 88.2257V80.2139H168.035V88.3119C168.035 89.4318 168.292 90.3794 168.806 90.9825ZM186.365 83.143V94.6869H183.196V83.143H179.17V80.3862H190.391V83.143H186.365ZM192.789 80.3862H195.958V94.773H192.789V80.3862ZM209.406 80.3862H212.575V94.6869H209.406L202.639 85.7274V94.6869H199.47V80.3862H202.382L209.406 89.6041V80.3862ZM225.423 87.4504H228.592V92.5332C227.136 94.0838 225.252 94.9453 222.682 94.9453C220.626 94.9453 218.828 94.2561 217.372 92.8778C215.915 91.4994 215.23 89.6903 215.23 87.6227C215.23 85.469 215.915 83.746 217.372 82.2815C218.828 80.8169 220.541 80.1277 222.597 80.1277C224.652 80.1277 226.451 80.8169 227.907 82.1953L226.28 84.6075C225.68 84.0044 225.08 83.6598 224.481 83.4875C223.967 83.3153 223.367 83.143 222.768 83.143C221.569 83.143 220.541 83.5737 219.684 84.349C218.828 85.2105 218.399 86.2443 218.399 87.6227C218.399 89.0011 218.828 90.0348 219.599 90.8963C220.37 91.6717 221.312 92.1024 222.425 92.1024C223.539 92.1024 224.481 91.9301 225.166 91.4994L225.423 87.4504ZM246.58 80.3862V83.143H239.984V86.2443H246.323V89.0872H239.984V94.6869H236.815V80.3862H246.58ZM261.312 92.7055C259.856 94.0838 258.057 94.8592 256.002 94.8592C253.86 94.8592 252.147 94.17 250.691 92.7055C249.235 91.3271 248.55 89.518 248.55 87.4504C248.55 85.3828 249.235 83.5737 250.691 82.1953C252.147 80.8169 253.946 80.0416 256.002 80.0416C258.143 80.0416 259.856 80.7308 261.312 82.1953C262.768 83.5737 263.454 85.3828 263.454 87.4504C263.454 89.518 262.768 91.3271 261.312 92.7055ZM260.199 87.4504C260.199 86.1582 259.77 85.0382 259 84.1767C258.143 83.3153 257.201 82.7984 256.002 82.7984C254.803 82.7984 253.775 83.2291 253.004 84.1767C252.147 85.0382 251.805 86.1582 251.805 87.4504C251.805 88.7426 252.233 89.7764 253.004 90.724C253.86 91.5855 254.803 92.1024 256.002 92.1024C257.201 92.1024 258.229 91.6717 259 90.724C259.856 89.8625 260.199 88.7426 260.199 87.4504ZM269.963 90.9825C270.477 91.6717 271.248 92.0163 272.105 92.0163C272.961 92.0163 273.732 91.6717 274.246 90.9825C274.76 90.2933 275.017 89.4318 275.017 88.2257V80.3H278.186V88.3119C278.186 90.3794 277.587 92.0163 276.473 93.1362C275.36 94.2561 273.903 94.773 272.105 94.773C270.306 94.773 268.85 94.17 267.736 93.05C266.623 91.9301 266.023 90.2933 266.023 88.2257V80.2139H269.192V88.3119C269.107 89.4318 269.449 90.3794 269.963 90.9825ZM291.463 80.3862H294.632V94.6869H291.463L284.696 85.7274V94.6869H281.527V80.3862H284.439L291.463 89.6041V80.3862ZM309.022 82.2815C310.392 83.5737 311.077 85.2967 311.077 87.5365C311.077 89.7764 310.392 91.4994 309.107 92.7916C307.822 94.0838 305.767 94.773 303.026 94.773H298.144V80.3862H303.197C305.767 80.3862 307.737 80.9892 309.022 82.2815ZM306.709 90.8102C307.48 90.0348 307.908 89.0011 307.908 87.6227C307.908 86.2443 307.48 85.1244 306.709 84.349C305.938 83.5737 304.739 83.2291 303.111 83.2291H301.313V91.9301H303.368C304.825 91.844 305.938 91.4994 306.709 90.8102ZM323.583 94.6869L322.298 91.5855H316.302L315.017 94.6869H311.591L317.758 80.3H320.842L327.009 94.6869H323.583ZM319.3 84.6075L317.501 88.7426H321.099L319.3 84.6075ZM333.69 83.143V94.6869H330.435V83.143H326.409V80.3862H337.716V83.143H333.69ZM340.028 80.3862H343.198V94.773H340.028V80.3862ZM358.701 92.7055C357.245 94.0838 355.446 94.8592 353.391 94.8592C351.249 94.8592 349.536 94.17 348.08 92.7055C346.624 91.3271 345.939 89.518 345.939 87.4504C345.939 85.3828 346.624 83.5737 348.08 82.1953C349.536 80.8169 351.335 80.0416 353.391 80.0416C355.532 80.0416 357.245 80.7308 358.701 82.1953C360.157 83.5737 360.842 85.3828 360.842 87.4504C360.842 89.518 360.157 91.3271 358.701 92.7055ZM357.673 87.4504C357.673 86.1582 357.245 85.0382 356.474 84.1767C355.618 83.3153 354.675 82.7984 353.476 82.7984C352.277 82.7984 351.249 83.2291 350.478 84.1767C349.622 85.0382 349.279 86.1582 349.279 87.4504C349.279 88.7426 349.707 89.7764 350.478 90.724C351.335 91.5855 352.277 92.1024 353.476 92.1024C354.675 92.1024 355.703 91.6717 356.474 90.724C357.245 89.8625 357.673 88.7426 357.673 87.4504ZM373.519 80.3862H376.774V94.6869H373.519L366.753 85.7274V94.6869H363.583V80.3862H366.581L373.519 89.6041V80.3862Z" fill="black"/>
<path d="M46.4638 77.9188H39.2578V94.9453H56.1245V87.6255H46.4638V77.9188ZM82.7311 77.9984V87.6255H73.0704V87.5459V94.9453H89.9371V77.9188H82.6519L82.7311 77.9984ZM39.2578 60.9718H46.543L46.4638 60.8923V51.2651H56.1245V43.9453H39.2578V60.9718ZM73.0704 43.9453V51.2651H82.7311V60.9718H89.9371V43.9453H73.0704Z" fill="#446CA9"/>
<path d="M72.1202 60.9718L62.4594 51.2651H73.0704V43.9453H56.1245V51.2651L65.7852 60.9718H72.1202ZM63.4097 77.9188H57.0747L65.0726 85.9547L66.6563 87.6255H56.1245V94.9453H73.0704V87.5459L68.24 82.7721L63.4097 77.9188ZM82.7311 60.9718V71.5537L81.0682 69.8829L73.0704 61.847V68.2916L77.8216 73.0654L82.6519 77.9188H89.9371V60.9718H82.7311ZM56.1245 70.599L46.543 60.9718H39.2578V77.9188H46.4638V67.3369L56.1245 77.0436V70.599Z" fill="#76C4D5"/>
</svg>
