<?xml version="1.0" encoding="UTF-8"?>
<svg xmlns="http://www.w3.org/2000/svg" xmlns:xlink="http://www.w3.org/1999/xlink" width="500pt" height="364pt" viewBox="0 0 500 364" version="1.1">
<g id="surface1">
<path style=" stroke:none;fill-rule:nonzero;fill:rgb(13.72549%,12.156863%,12.54902%);fill-opacity:1;" d="M 33.882812 303.214844 C 38.722656 303.214844 42.679688 301.296875 45.75 297.460938 L 52.0625 303.972656 C 47.054688 309.617188 41.152344 312.441406 34.355469 312.441406 C 27.5625 312.441406 21.964844 310.292969 17.566406 305.992188 C 13.167969 301.695312 10.96875 296.269531 10.96875 289.71875 C 10.96875 283.164062 13.210938 277.699219 17.691406 273.316406 C 22.175781 268.933594 27.65625 266.742188 34.136719 266.742188 C 41.375 266.742188 47.433594 269.5 52.316406 275.023438 L 46.191406 281.976562 C 43.078125 278.097656 39.207031 276.160156 34.578125 276.160156 C 30.875 276.160156 27.707031 277.371094 25.078125 279.792969 C 22.445312 282.21875 21.132812 285.484375 21.132812 289.59375 C 21.132812 293.703125 22.375 296.996094 24.859375 299.484375 C 27.339844 301.972656 30.351562 303.214844 33.882812 303.214844 Z M 33.882812 303.214844 "/>
<path style=" stroke:none;fill-rule:nonzero;fill:rgb(13.72549%,12.156863%,12.54902%);fill-opacity:1;" d="M 59.828125 311.933594 L 59.828125 267.753906 L 69.675781 267.753906 L 69.675781 303.148438 L 88.484375 303.148438 L 88.484375 311.933594 Z M 59.828125 311.933594 "/>
<path style=" stroke:none;fill-rule:nonzero;fill:rgb(13.72549%,12.156863%,12.54902%);fill-opacity:1;" d="M 131.601562 305.835938 C 127.140625 310.199219 121.648438 312.378906 115.125 312.378906 C 108.601562 312.378906 103.109375 310.199219 98.648438 305.835938 C 94.1875 301.472656 91.957031 296.050781 91.957031 289.5625 C 91.957031 283.070312 94.1875 277.644531 98.648438 273.285156 C 103.109375 268.921875 108.601562 266.742188 115.125 266.742188 C 121.648438 266.742188 127.140625 268.921875 131.601562 273.285156 C 136.058594 277.644531 138.289062 283.070312 138.289062 289.558594 C 138.289062 296.050781 136.058594 301.472656 131.601562 305.835938 Z M 128.253906 289.589844 C 128.253906 285.652344 126.992188 282.289062 124.464844 279.507812 C 121.941406 276.730469 118.835938 275.335938 115.15625 275.335938 C 111.472656 275.335938 108.371094 276.730469 105.84375 279.511719 C 103.320312 282.289062 102.054688 285.652344 102.054688 289.589844 C 102.054688 293.53125 103.320312 296.882812 105.84375 299.640625 C 108.371094 302.402344 111.472656 303.78125 115.15625 303.78125 C 118.835938 303.78125 121.941406 302.402344 124.46875 299.640625 C 126.988281 296.882812 128.253906 293.53125 128.253906 289.59375 Z M 128.253906 289.589844 "/>
<path style=" stroke:none;fill-rule:nonzero;fill:rgb(13.72549%,12.156863%,12.54902%);fill-opacity:1;" d="M 158.300781 300.527344 C 159.941406 302.570312 162.152344 303.59375 164.925781 303.59375 C 167.707031 303.59375 169.902344 302.570312 171.523438 300.527344 C 173.144531 298.484375 173.957031 295.691406 173.957031 292.152344 L 173.957031 267.753906 L 183.800781 267.753906 L 183.800781 292.46875 C 183.800781 298.875 182.03125 303.792969 178.5 307.226562 C 174.964844 310.660156 170.441406 312.375 164.925781 312.375 C 159.414062 312.375 154.878906 310.652344 151.324219 307.195312 C 147.765625 303.742188 145.988281 298.832031 145.988281 292.46875 L 145.988281 267.753906 L 155.835938 267.753906 L 155.835938 292.152344 C 155.835938 295.691406 156.660156 298.484375 158.300781 300.527344 Z M 158.300781 300.527344 "/>
<path style=" stroke:none;fill-rule:nonzero;fill:rgb(13.72549%,12.156863%,12.54902%);fill-opacity:1;" d="M 227.734375 273.535156 C 231.941406 277.390625 234.046875 282.753906 234.046875 289.621094 C 234.046875 296.492188 231.996094 301.929688 227.894531 305.929688 C 223.789062 309.933594 217.53125 311.933594 209.113281 311.933594 L 194.027344 311.933594 L 194.027344 267.753906 L 209.621094 267.753906 C 217.488281 267.753906 223.527344 269.679688 227.734375 273.535156 Z M 220.507812 299.800781 C 222.925781 297.523438 224.136719 294.214844 224.136719 289.875 C 224.136719 285.535156 222.925781 282.195312 220.507812 279.859375 C 218.085938 277.519531 214.375 276.347656 209.367188 276.347656 L 203.875 276.347656 L 203.875 303.214844 L 210.125 303.214844 C 214.625 303.214844 218.085938 302.074219 220.507812 299.800781 Z M 220.507812 299.800781 "/>
<path style=" stroke:none;fill-rule:nonzero;fill:rgb(13.72549%,12.156863%,12.54902%);fill-opacity:1;" d="M 290.101562 267.753906 L 299.949219 267.753906 L 299.949219 311.933594 L 290.101562 311.933594 L 269.082031 284.25 L 269.082031 311.933594 L 259.234375 311.933594 L 259.234375 267.753906 L 268.449219 267.753906 L 290.101562 296.195312 Z M 290.101562 267.753906 "/>
<path style=" stroke:none;fill-rule:nonzero;fill:rgb(13.72549%,12.156863%,12.54902%);fill-opacity:1;" d="M 342.242188 311.933594 L 338.136719 302.390625 L 319.640625 302.390625 L 315.539062 311.933594 L 305.0625 311.933594 L 324.125 267.753906 L 333.65625 267.753906 L 352.71875 311.933594 Z M 328.921875 280.902344 L 323.367188 293.730469 L 334.414062 293.730469 Z M 328.921875 280.902344 "/>
<path style=" stroke:none;fill-rule:nonzero;fill:rgb(13.72549%,12.156863%,12.54902%);fill-opacity:1;" d="M 373.296875 276.285156 L 373.296875 311.933594 L 363.449219 311.933594 L 363.449219 276.285156 L 350.953125 276.285156 L 350.953125 267.753906 L 385.796875 267.753906 L 385.796875 276.285156 Z M 373.296875 276.285156 "/>
<path style=" stroke:none;fill-rule:nonzero;fill:rgb(13.72549%,12.156863%,12.54902%);fill-opacity:1;" d="M 392.992188 267.753906 L 402.839844 267.753906 L 402.839844 311.933594 L 392.992188 311.933594 Z M 392.992188 267.753906 "/>
<path style=" stroke:none;fill-rule:nonzero;fill:rgb(13.72549%,12.156863%,12.54902%);fill-opacity:1;" d="M 429.980469 295.882812 L 441.214844 267.753906 L 451.886719 267.753906 L 434.148438 311.933594 L 425.816406 311.933594 L 408.078125 267.753906 L 418.746094 267.753906 Z M 429.980469 295.882812 "/>
<path style=" stroke:none;fill-rule:nonzero;fill:rgb(13.72549%,12.156863%,12.54902%);fill-opacity:1;" d="M 488.9375 267.753906 L 488.9375 276.539062 L 466.972656 276.539062 L 466.972656 285.640625 L 486.730469 285.640625 L 486.730469 294.046875 L 466.972656 294.046875 L 466.972656 303.214844 L 489.632812 303.214844 L 489.632812 311.9375 L 457.125 311.9375 L 457.125 267.753906 Z M 488.9375 267.753906 "/>
<path style=" stroke:none;fill-rule:nonzero;fill:rgb(13.72549%,12.156863%,12.54902%);fill-opacity:1;" d="M 22.59375 349.566406 C 25.308594 349.566406 27.523438 348.492188 29.246094 346.339844 L 32.785156 349.988281 C 29.976562 353.15625 26.667969 354.738281 22.859375 354.738281 C 19.050781 354.738281 15.910156 353.53125 13.449219 351.121094 C 10.980469 348.714844 9.75 345.671875 9.75 342 C 9.75 338.328125 11.003906 335.261719 13.515625 332.804688 C 16.03125 330.347656 19.101562 329.121094 22.734375 329.121094 C 26.792969 329.121094 30.1875 330.667969 32.925781 333.761719 L 29.492188 337.660156 C 27.746094 335.484375 25.578125 334.398438 22.984375 334.398438 C 20.90625 334.398438 19.132812 335.078125 17.660156 336.4375 C 16.183594 337.796875 15.445312 339.625 15.445312 341.929688 C 15.445312 344.230469 16.140625 346.082031 17.535156 347.472656 C 18.925781 348.867188 20.613281 349.566406 22.59375 349.566406 Z M 22.59375 349.566406 "/>
<path style=" stroke:none;fill-rule:nonzero;fill:rgb(13.72549%,12.156863%,12.54902%);fill-opacity:1;" d="M 57.410156 351.035156 C 54.910156 353.480469 51.832031 354.703125 48.175781 354.703125 C 44.519531 354.703125 41.441406 353.480469 38.941406 351.035156 C 36.441406 348.589844 35.191406 345.546875 35.191406 341.914062 C 35.191406 338.273438 36.441406 335.230469 38.941406 332.789062 C 41.441406 330.34375 44.519531 329.121094 48.175781 329.121094 C 51.832031 329.121094 54.910156 330.34375 57.410156 332.789062 C 59.910156 335.230469 61.160156 338.273438 61.160156 341.914062 C 61.160156 345.550781 59.910156 348.589844 57.410156 351.035156 Z M 55.535156 341.929688 C 55.535156 339.722656 54.828125 337.835938 53.414062 336.277344 C 51.996094 334.71875 50.257812 333.941406 48.191406 333.941406 C 46.128906 333.941406 44.390625 334.71875 42.972656 336.277344 C 41.558594 337.835938 40.851562 339.722656 40.851562 341.929688 C 40.851562 344.136719 41.558594 346.015625 42.972656 347.5625 C 44.390625 349.109375 46.128906 349.882812 48.191406 349.882812 C 50.257812 349.882812 52 349.109375 53.414062 347.5625 C 54.828125 346.015625 55.535156 344.136719 55.535156 341.929688 Z M 55.535156 341.929688 "/>
<path style=" stroke:none;fill-rule:nonzero;fill:rgb(13.72549%,12.156863%,12.54902%);fill-opacity:1;" d="M 87.984375 338.863281 L 81.292969 352.398438 L 78.003906 352.398438 L 71.351562 338.863281 L 71.351562 354.453125 L 65.832031 354.453125 L 65.832031 329.6875 L 73.296875 329.6875 L 79.667969 343.292969 L 86.074219 329.6875 L 93.503906 329.6875 L 93.503906 354.453125 L 87.984375 354.453125 Z M 87.984375 338.863281 "/>
<path style=" stroke:none;fill-rule:nonzero;fill:rgb(13.72549%,12.156863%,12.54902%);fill-opacity:1;" d="M 116.625 331.902344 C 118.359375 333.378906 119.226562 335.644531 119.226562 338.703125 C 119.226562 341.761719 118.335938 344 116.554688 345.417969 C 114.773438 346.835938 112.054688 347.542969 108.398438 347.542969 L 105.109375 347.542969 L 105.109375 354.453125 L 99.589844 354.453125 L 99.589844 329.6875 L 108.328125 329.6875 C 112.125 329.6875 114.894531 330.425781 116.625 331.902344 Z M 112.574219 341.644531 C 113.234375 340.898438 113.5625 339.8125 113.5625 338.386719 C 113.5625 336.957031 113.136719 335.941406 112.273438 335.339844 C 111.414062 334.738281 110.074219 334.433594 108.257812 334.433594 L 105.109375 334.433594 L 105.109375 342.761719 L 108.824219 342.761719 C 110.664062 342.761719 111.914062 342.390625 112.574219 341.644531 Z M 112.574219 341.644531 "/>
<path style=" stroke:none;fill-rule:nonzero;fill:rgb(13.72549%,12.156863%,12.54902%);fill-opacity:1;" d="M 130.089844 348.058594 C 131.007812 349.203125 132.246094 349.777344 133.804688 349.777344 C 135.363281 349.777344 136.59375 349.203125 137.503906 348.058594 C 138.410156 346.914062 138.863281 345.347656 138.863281 343.363281 L 138.863281 329.6875 L 144.382812 329.6875 L 144.382812 343.539062 C 144.382812 347.132812 143.394531 349.890625 141.414062 351.8125 C 139.429688 353.738281 136.894531 354.703125 133.804688 354.703125 C 130.714844 354.703125 128.171875 353.734375 126.179688 351.796875 C 124.1875 349.859375 123.1875 347.105469 123.1875 343.539062 L 123.1875 329.6875 L 128.707031 329.6875 L 128.707031 343.363281 C 128.707031 345.347656 129.167969 346.914062 130.089844 348.058594 Z M 130.089844 348.058594 "/>
<path style=" stroke:none;fill-rule:nonzero;fill:rgb(13.72549%,12.156863%,12.54902%);fill-opacity:1;" d="M 160.589844 334.46875 L 160.589844 354.453125 L 155.070312 354.453125 L 155.070312 334.46875 L 148.0625 334.46875 L 148.0625 329.6875 L 167.597656 329.6875 L 167.597656 334.46875 Z M 160.589844 334.46875 "/>
<path style=" stroke:none;fill-rule:nonzero;fill:rgb(13.72549%,12.156863%,12.54902%);fill-opacity:1;" d="M 171.628906 329.6875 L 177.148438 329.6875 L 177.148438 354.453125 L 171.628906 354.453125 Z M 171.628906 329.6875 "/>
<path style=" stroke:none;fill-rule:nonzero;fill:rgb(13.72549%,12.156863%,12.54902%);fill-opacity:1;" d="M 200.539062 329.6875 L 206.058594 329.6875 L 206.058594 354.453125 L 200.539062 354.453125 L 188.753906 338.933594 L 188.753906 354.453125 L 183.234375 354.453125 L 183.234375 329.6875 L 188.402344 329.6875 L 200.539062 345.632812 Z M 200.539062 329.6875 "/>
<path style=" stroke:none;fill-rule:nonzero;fill:rgb(13.72549%,12.156863%,12.54902%);fill-opacity:1;" d="M 228.207031 341.839844 L 233.761719 341.839844 L 233.761719 350.628906 C 231.308594 353.367188 227.914062 354.738281 223.570312 354.738281 C 219.9375 354.738281 216.890625 353.53125 214.425781 351.121094 C 211.960938 348.714844 210.726562 345.671875 210.726562 342 C 210.726562 338.328125 211.984375 335.261719 214.496094 332.804688 C 217.007812 330.347656 220.039062 329.121094 223.589844 329.121094 C 227.140625 329.121094 230.226562 330.289062 232.84375 332.628906 L 229.976562 336.773438 C 228.867188 335.804688 227.847656 335.140625 226.914062 334.769531 C 225.953125 334.398438 224.925781 334.214844 223.890625 334.222656 C 221.789062 334.222656 220.023438 334.9375 218.582031 336.367188 C 217.144531 337.796875 216.425781 339.675781 216.425781 342.019531 C 216.425781 344.355469 217.113281 346.230469 218.496094 347.632812 C 219.875 349.039062 221.519531 349.742188 223.429688 349.742188 C 225.339844 349.742188 226.933594 349.375 228.207031 348.644531 Z M 228.207031 341.839844 "/>
<path style=" stroke:none;fill-rule:nonzero;fill:rgb(13.72549%,12.156863%,12.54902%);fill-opacity:1;" d="M 265.007812 329.6875 L 265.007812 334.542969 L 253.542969 334.542969 L 253.542969 339.890625 L 264.441406 339.890625 L 264.441406 344.746094 L 253.542969 344.746094 L 253.542969 354.453125 L 248.023438 354.453125 L 248.023438 329.6875 Z M 265.007812 329.6875 "/>
<path style=" stroke:none;fill-rule:nonzero;fill:rgb(13.72549%,12.156863%,12.54902%);fill-opacity:1;" d="M 290.484375 351.035156 C 287.984375 353.480469 284.902344 354.703125 281.246094 354.703125 C 277.589844 354.703125 274.511719 353.480469 272.011719 351.035156 C 269.511719 348.589844 268.261719 345.546875 268.261719 341.914062 C 268.261719 338.273438 269.511719 335.230469 272.011719 332.789062 C 274.511719 330.34375 277.589844 329.121094 281.246094 329.121094 C 284.902344 329.121094 287.984375 330.34375 290.484375 332.789062 C 292.984375 335.230469 294.230469 338.273438 294.230469 341.914062 C 294.230469 345.550781 292.984375 348.589844 290.484375 351.035156 Z M 288.609375 341.929688 C 288.609375 339.722656 287.898438 337.835938 286.484375 336.277344 C 285.070312 334.71875 283.328125 333.941406 281.265625 333.941406 C 279.203125 333.941406 277.460938 334.71875 276.046875 336.277344 C 274.632812 337.835938 273.921875 339.722656 273.921875 341.929688 C 273.921875 344.136719 274.632812 346.015625 276.046875 347.5625 C 277.460938 349.109375 279.203125 349.882812 281.265625 349.882812 C 283.328125 349.882812 285.070312 349.109375 286.484375 347.5625 C 287.898438 346.015625 288.609375 344.136719 288.609375 341.929688 Z M 288.609375 341.929688 "/>
<path style=" stroke:none;fill-rule:nonzero;fill:rgb(13.72549%,12.156863%,12.54902%);fill-opacity:1;" d="M 305.449219 348.058594 C 306.371094 349.203125 307.609375 349.777344 309.164062 349.777344 C 310.722656 349.777344 311.953125 349.203125 312.863281 348.058594 C 313.769531 346.914062 314.226562 345.347656 314.226562 343.363281 L 314.226562 329.6875 L 319.746094 329.6875 L 319.746094 343.539062 C 319.746094 347.132812 318.757812 349.890625 316.773438 351.8125 C 314.792969 353.738281 312.257812 354.703125 309.164062 354.703125 C 306.074219 354.703125 303.535156 353.734375 301.542969 351.796875 C 299.546875 349.859375 298.550781 347.105469 298.550781 343.539062 L 298.550781 329.6875 L 304.070312 329.6875 L 304.070312 343.363281 C 304.070312 345.347656 304.53125 346.914062 305.453125 348.058594 Z M 305.449219 348.058594 "/>
<path style=" stroke:none;fill-rule:nonzero;fill:rgb(13.72549%,12.156863%,12.54902%);fill-opacity:1;" d="M 342.78125 329.6875 L 348.300781 329.6875 L 348.300781 354.453125 L 342.78125 354.453125 L 330.996094 338.933594 L 330.996094 354.453125 L 325.476562 354.453125 L 325.476562 329.6875 L 330.644531 329.6875 L 342.78125 345.632812 Z M 342.78125 329.6875 "/>
<path style=" stroke:none;fill-rule:nonzero;fill:rgb(13.72549%,12.156863%,12.54902%);fill-opacity:1;" d="M 373.28125 332.929688 C 375.640625 335.089844 376.820312 338.097656 376.820312 341.945312 C 376.820312 345.796875 375.667969 348.84375 373.371094 351.085938 C 371.070312 353.332031 367.558594 354.453125 362.84375 354.453125 L 354.386719 354.453125 L 354.386719 329.6875 L 363.125 329.6875 C 367.539062 329.6875 370.921875 330.765625 373.28125 332.929688 Z M 369.230469 347.648438 C 370.585938 346.375 371.265625 344.519531 371.265625 342.089844 C 371.265625 339.65625 370.585938 337.785156 369.230469 336.472656 C 367.871094 335.164062 365.789062 334.503906 362.984375 334.503906 L 359.90625 334.503906 L 359.90625 349.566406 L 363.410156 349.566406 C 365.933594 349.566406 367.871094 348.925781 369.230469 347.648438 Z M 369.230469 347.648438 "/>
<path style=" stroke:none;fill-rule:nonzero;fill:rgb(13.72549%,12.156863%,12.54902%);fill-opacity:1;" d="M 398.511719 354.453125 L 396.210938 349.105469 L 385.84375 349.105469 L 383.542969 354.453125 L 377.667969 354.453125 L 388.355469 329.6875 L 393.699219 329.6875 L 404.382812 354.453125 Z M 391.046875 337.054688 L 387.929688 344.25 L 394.121094 344.25 Z M 391.046875 337.054688 "/>
<path style=" stroke:none;fill-rule:nonzero;fill:rgb(13.72549%,12.156863%,12.54902%);fill-opacity:1;" d="M 415.921875 334.46875 L 415.921875 354.453125 L 410.402344 354.453125 L 410.402344 334.46875 L 403.394531 334.46875 L 403.394531 329.6875 L 422.925781 329.6875 L 422.925781 334.46875 Z M 415.921875 334.46875 "/>
<path style=" stroke:none;fill-rule:nonzero;fill:rgb(13.72549%,12.156863%,12.54902%);fill-opacity:1;" d="M 426.957031 329.6875 L 432.476562 329.6875 L 432.476562 354.453125 L 426.957031 354.453125 Z M 426.957031 329.6875 "/>
<path style=" stroke:none;fill-rule:nonzero;fill:rgb(13.72549%,12.156863%,12.54902%);fill-opacity:1;" d="M 459.371094 351.035156 C 456.871094 353.480469 453.789062 354.703125 450.132812 354.703125 C 446.476562 354.703125 443.402344 353.480469 440.898438 351.035156 C 438.398438 348.589844 437.148438 345.546875 437.148438 341.914062 C 437.148438 338.273438 438.398438 335.230469 440.898438 332.789062 C 443.402344 330.34375 446.476562 329.121094 450.132812 329.121094 C 453.789062 329.121094 456.871094 330.34375 459.371094 332.789062 C 461.871094 335.230469 463.121094 338.273438 463.121094 341.914062 C 463.121094 345.550781 461.871094 348.589844 459.371094 351.035156 Z M 457.496094 341.929688 C 457.496094 339.722656 456.789062 337.835938 455.371094 336.277344 C 453.957031 334.71875 452.214844 333.941406 450.152344 333.941406 C 448.089844 333.941406 446.347656 334.71875 444.933594 336.277344 C 443.519531 337.835938 442.808594 339.722656 442.808594 341.929688 C 442.808594 344.136719 443.519531 346.015625 444.933594 347.5625 C 446.347656 349.109375 448.089844 349.882812 450.152344 349.882812 C 452.214844 349.882812 453.957031 349.109375 455.371094 347.5625 C 456.789062 346.015625 457.496094 344.136719 457.496094 341.929688 Z M 457.496094 341.929688 "/>
<path style=" stroke:none;fill-rule:nonzero;fill:rgb(13.72549%,12.156863%,12.54902%);fill-opacity:1;" d="M 485.09375 329.6875 L 490.613281 329.6875 L 490.613281 354.453125 L 485.09375 354.453125 L 473.3125 338.933594 L 473.3125 354.453125 L 467.789062 354.453125 L 467.789062 329.6875 L 472.957031 329.6875 L 485.09375 345.632812 Z M 485.09375 329.6875 "/>
<path style=" stroke:none;fill-rule:nonzero;fill:rgb(26.666667%,42.352941%,66.27451%);fill-opacity:1;" d="M 172.660156 154.621094 L 141.648438 154.621094 L 141.648438 227.078125 L 214 227.078125 L 214 196.023438 L 172.660156 196.023438 Z M 172.660156 154.621094 "/>
<path style=" stroke:none;fill-rule:nonzero;fill:rgb(26.666667%,42.352941%,66.27451%);fill-opacity:1;" d="M 327.703125 154.855469 L 327.703125 196.023438 L 286.589844 196.023438 L 286.359375 195.792969 L 286.359375 227.078125 L 358.714844 227.078125 L 358.714844 154.621094 L 327.472656 154.621094 Z M 327.703125 154.855469 "/>
<path style=" stroke:none;fill-rule:nonzero;fill:rgb(26.666667%,42.352941%,66.27451%);fill-opacity:1;" d="M 141.648438 82.179688 L 172.894531 82.179688 L 172.660156 81.941406 L 172.660156 40.769531 L 213.773438 40.769531 L 214 41 L 214 9.71875 L 141.648438 9.71875 Z M 141.648438 82.179688 "/>
<path style=" stroke:none;fill-rule:nonzero;fill:rgb(26.666667%,42.352941%,66.27451%);fill-opacity:1;" d="M 286.359375 9.71875 L 286.359375 40.769531 L 327.703125 40.769531 L 327.703125 82.179688 L 358.714844 82.179688 L 358.714844 9.71875 Z M 286.359375 9.71875 "/>
<path style=" stroke:none;fill-rule:nonzero;fill:rgb(46.27451%,76.862745%,83.529412%);fill-opacity:1;" d="M 282.53125 82.179688 L 241.179688 40.769531 L 286.359375 40.769531 L 286.359375 9.71875 L 214 9.71875 L 214 41 L 255.121094 82.179688 Z M 282.53125 82.179688 "/>
<path style=" stroke:none;fill-rule:nonzero;fill:rgb(46.27451%,76.862745%,83.529412%);fill-opacity:1;" d="M 245.242188 154.621094 L 217.835938 154.621094 L 252.09375 188.929688 L 259.179688 196.023438 L 214 196.023438 L 214 227.078125 L 286.359375 227.078125 L 286.359375 195.792969 L 265.796875 175.207031 Z M 245.242188 154.621094 "/>
<path style=" stroke:none;fill-rule:nonzero;fill:rgb(46.27451%,76.862745%,83.529412%);fill-opacity:1;" d="M 327.703125 82.179688 L 327.703125 127.410156 L 320.621094 120.3125 L 286.359375 86.011719 L 286.359375 113.457031 L 306.914062 134.039062 L 327.472656 154.621094 L 358.714844 154.621094 L 358.714844 82.179688 Z M 327.703125 82.179688 "/>
<path style=" stroke:none;fill-rule:nonzero;fill:rgb(46.27451%,76.862745%,83.529412%);fill-opacity:1;" d="M 214 123.335938 L 172.894531 82.179688 L 141.648438 82.179688 L 141.648438 154.621094 L 172.660156 154.621094 L 172.660156 109.386719 L 214 150.78125 Z M 214 123.335938 "/>
</g>
</svg>
