<svg width="300" height="48" viewBox="0 0 300 48" fill="none" xmlns="http://www.w3.org/2000/svg">
<path d="M71.2449 20.9293C73.699 20.9293 75.6326 19.9576 77.1943 18.0141L80.3177 21.3031C77.7892 24.1435 74.8889 25.5637 71.468 25.5637C68.047 25.5637 65.2954 24.5173 63.0644 22.3495C60.8334 20.1818 59.7922 17.4909 59.7922 14.202C59.7922 10.913 60.9077 8.14735 63.1388 5.97965C65.3698 3.81194 68.1214 2.69072 71.3936 2.69072C75.0376 2.69072 78.0867 4.11093 80.4665 6.87663L77.4174 10.3898C75.8557 8.44634 73.9221 7.47461 71.6167 7.47461C69.7575 7.47461 68.1958 8.0726 66.8572 9.26857C65.5185 10.4645 64.8492 12.109 64.8492 14.202C64.8492 16.2949 65.4442 17.9394 66.7084 19.2101C67.9727 20.2566 69.46 20.9293 71.2449 20.9293ZM84.2592 25.2647V3.06446H89.1675V20.8546H98.6122V25.2647H84.2592ZM120.179 22.2001C117.948 24.3678 115.196 25.489 111.924 25.489C108.652 25.489 105.9 24.3678 103.669 22.2001C101.438 20.0323 100.323 17.2667 100.323 14.0525C100.323 10.8383 101.438 8.0726 103.669 5.9049C105.9 3.73719 108.652 2.61597 111.924 2.61597C115.196 2.61597 117.948 3.73719 120.179 5.9049C122.41 8.0726 123.525 10.8383 123.525 14.0525C123.525 17.2667 122.41 20.0323 120.179 22.2001ZM118.468 14.0525C118.468 12.109 117.799 10.3898 116.609 8.96958C115.345 7.54936 113.783 6.87663 111.924 6.87663C110.065 6.87663 108.503 7.54936 107.239 8.96958C105.975 10.3898 105.305 12.0343 105.305 14.0525C105.305 16.0707 105.975 17.7151 107.239 19.1354C108.503 20.5556 110.065 21.2283 111.924 21.2283C113.783 21.2283 115.345 20.5556 116.609 19.1354C117.874 17.7151 118.468 16.0707 118.468 14.0525ZM133.565 19.5839C134.383 20.6303 135.499 21.1536 136.912 21.1536C138.325 21.1536 139.44 20.6303 140.184 19.5839C141.002 18.5374 141.374 17.1172 141.374 15.3979V3.06446H146.282V15.4727C146.282 18.6869 145.39 21.1536 143.605 22.8728C141.82 24.592 139.589 25.489 136.837 25.489C134.086 25.489 131.78 24.592 129.995 22.8728C128.211 21.1536 127.318 18.6869 127.318 15.4727V3.06446H132.227V15.3232C132.301 17.1172 132.747 18.5374 133.565 19.5839ZM168.295 5.97965C170.377 7.9231 171.493 10.614 171.493 14.0525C171.493 17.4909 170.452 20.2566 168.444 22.2748C166.361 24.293 163.238 25.2647 159.073 25.2647H151.413V3.06446H159.222C163.164 3.06446 166.213 4.03619 168.295 5.97965ZM164.725 19.2101C165.915 18.0889 166.51 16.3697 166.51 14.202C166.51 12.0343 165.915 10.3151 164.725 9.19383C163.535 7.99785 161.676 7.39986 159.148 7.39986H156.396V20.9293H159.52C161.751 20.9293 163.461 20.3313 164.725 19.2101ZM199.529 3.06446H204.512V25.2647H199.529L189.044 11.3615V25.2647H184.061V3.06446H188.746L199.529 17.4162V3.06446ZM225.633 25.2647L223.55 20.4808H214.254L212.172 25.2647H206.892L216.411 3.06446H221.17L230.69 25.2647H225.633ZM219.014 9.71707L216.262 16.1454H221.765L219.014 9.71707ZM241.25 7.39986V25.2647H236.267V7.39986H230.02V3.06446H247.497V7.39986H241.25ZM251.066 3.06446H255.975V25.2647H251.066V3.06446ZM269.584 17.1919L275.236 3.06446H280.59L271.666 25.2647H267.502L258.652 3.06446H264.006L269.584 17.1919ZM299.108 3.06446V7.47461H288.102V12.109H297.992V16.2949H288.102V20.9293H299.48V25.2647H283.193V3.06446H299.108ZM65.5929 44.1761C66.9315 44.1761 68.047 43.6528 68.9395 42.5316L70.7243 44.4003C69.3113 45.97 67.6752 46.7923 65.7416 46.7923C63.8081 46.7923 62.2463 46.1943 61.0565 44.9983C59.7922 43.8023 59.1973 42.2326 59.1973 40.4387C59.1973 38.57 59.7922 37.075 61.0565 35.8043C62.3207 34.5335 63.8824 33.9356 65.6673 33.9356C67.6752 33.9356 69.3857 34.683 70.7987 36.2528L69.0882 38.1962C68.1958 37.075 67.1546 36.5517 65.816 36.5517C64.7749 36.5517 63.8824 36.9255 63.1388 37.5982C62.3951 38.271 62.0232 39.1679 62.0232 40.3639C62.0232 41.5599 62.3951 42.4569 63.0644 43.1296C63.7337 43.8771 64.6261 44.1761 65.5929 44.1761ZM82.995 44.9236C81.7307 46.1195 80.169 46.7923 78.3842 46.7923C76.5993 46.7923 75.0376 46.1943 73.7734 44.9236C72.5091 43.7276 71.9142 42.1579 71.9142 40.3639C71.9142 38.57 72.5091 37.0002 73.7734 35.8043C75.0376 34.6083 76.5993 33.9356 78.3842 33.9356C80.169 33.9356 81.7307 34.5335 82.995 35.8043C84.2592 37.0002 84.8542 38.57 84.8542 40.3639C84.8542 42.1579 84.2592 43.7276 82.995 44.9236ZM82.1026 40.3639C82.1026 39.2427 81.7307 38.271 81.0614 37.5235C80.3177 36.776 79.4997 36.3275 78.4585 36.3275C77.4174 36.3275 76.525 36.7012 75.8557 37.5235C75.112 38.271 74.8145 39.2427 74.8145 40.3639C74.8145 41.4851 75.1864 42.3821 75.8557 43.2044C76.5993 43.9518 77.4174 44.4003 78.4585 44.4003C79.4997 44.4003 80.3921 44.0266 81.0614 43.2044C81.7307 42.4569 82.1026 41.4851 82.1026 40.3639ZM98.3148 38.7942L94.9682 45.6711H93.3321L89.9856 38.7942V46.6428H87.2339V34.2345H90.9523L94.1502 41.0367L97.348 34.2345H101.066V46.6428H98.3148V38.7942ZM112.668 35.3558C113.56 36.1033 114.006 37.2245 114.006 38.7942C114.006 40.3639 113.56 41.4851 112.668 42.1579C111.775 42.9054 110.437 43.2044 108.578 43.2044H106.941V46.6428H104.19V34.2345H108.578C110.437 34.2345 111.775 34.6083 112.668 35.3558ZM110.66 40.2144C110.957 39.8407 111.18 39.3174 111.18 38.57C111.18 37.8225 110.957 37.374 110.511 37.075C110.065 36.776 109.396 36.6265 108.503 36.6265H106.941V40.8124H108.801C109.693 40.8124 110.288 40.5882 110.66 40.2144ZM119.435 43.4286C119.881 44.0266 120.551 44.3256 121.294 44.3256C122.038 44.3256 122.707 44.0266 123.154 43.4286C123.6 42.8306 123.823 42.0831 123.823 41.0367V34.1598H126.575V41.1114C126.575 42.9054 126.054 44.3256 125.087 45.2973C124.12 46.269 122.856 46.7175 121.294 46.7175C119.733 46.7175 118.468 46.1943 117.502 45.2226C116.535 44.2508 116.014 42.8306 116.014 41.0367V34.085H118.766V41.1114C118.766 42.0831 118.989 42.9054 119.435 43.4286ZM134.681 36.6265V46.6428H131.929V36.6265H128.434V34.2345H138.176V36.6265H134.681ZM140.258 34.2345H143.01V46.7175H140.258V34.2345ZM154.686 34.2345H157.437V46.6428H154.686L148.811 38.8689V46.6428H146.059V34.2345H148.587L154.686 42.2326V34.2345ZM168.592 40.3639H171.344V44.7741C170.08 46.1195 168.444 46.867 166.213 46.867C164.428 46.867 162.866 46.269 161.602 45.0731C160.338 43.8771 159.743 42.3074 159.743 40.5134C159.743 38.6447 160.338 37.1497 161.602 35.879C162.866 34.6083 164.353 34.0103 166.138 34.0103C167.923 34.0103 169.485 34.6083 170.749 35.8043L169.336 37.8972C168.815 37.374 168.295 37.075 167.774 36.9255C167.328 36.776 166.808 36.6265 166.287 36.6265C165.246 36.6265 164.353 37.0002 163.61 37.673C162.866 38.4205 162.494 39.3174 162.494 40.5134C162.494 41.7094 162.866 42.6064 163.535 43.3539C164.205 44.0266 165.023 44.4003 165.99 44.4003C166.956 44.4003 167.774 44.2508 168.369 43.8771L168.592 40.3639ZM186.961 34.2345V36.6265H181.235V39.3174H186.738V41.7841H181.235V46.6428H178.483V34.2345H186.961ZM199.753 44.9236C198.488 46.1195 196.927 46.7923 195.142 46.7923C193.283 46.7923 191.795 46.1943 190.531 44.9236C189.267 43.7276 188.672 42.1579 188.672 40.3639C188.672 38.57 189.267 37.0002 190.531 35.8043C191.795 34.6083 193.357 33.9356 195.142 33.9356C197.001 33.9356 198.488 34.5335 199.753 35.8043C201.017 37.0002 201.612 38.57 201.612 40.3639C201.612 42.1579 201.017 43.7276 199.753 44.9236ZM198.786 40.3639C198.786 39.2427 198.414 38.271 197.745 37.5235C197.001 36.776 196.183 36.3275 195.142 36.3275C194.101 36.3275 193.208 36.7012 192.539 37.5235C191.795 38.271 191.498 39.2427 191.498 40.3639C191.498 41.4851 191.87 42.3821 192.539 43.2044C193.283 43.9518 194.101 44.4003 195.142 44.4003C196.183 44.4003 197.075 44.0266 197.745 43.2044C198.488 42.4569 198.786 41.4851 198.786 40.3639ZM207.264 43.4286C207.71 44.0266 208.379 44.3256 209.123 44.3256C209.867 44.3256 210.536 44.0266 210.982 43.4286C211.428 42.8306 211.651 42.0831 211.651 41.0367V34.1598H214.403V41.1114C214.403 42.9054 213.882 44.3256 212.916 45.2973C211.949 46.269 210.685 46.7175 209.123 46.7175C207.561 46.7175 206.297 46.1943 205.33 45.2226C204.363 44.2508 203.843 42.8306 203.843 41.0367V34.085H206.594V41.1114C206.52 42.0831 206.817 42.9054 207.264 43.4286ZM225.93 34.2345H228.682V46.6428H225.93L220.055 38.8689V46.6428H217.303V34.2345H219.832L225.93 42.2326V34.2345ZM241.175 35.879C242.365 37.0002 242.96 38.4952 242.96 40.4387C242.96 42.3821 242.365 43.8771 241.25 44.9983C240.134 46.1195 238.349 46.7175 235.97 46.7175H231.731V34.2345H236.118C238.349 34.2345 240.06 34.7578 241.175 35.879ZM239.167 43.2791C239.837 42.6064 240.209 41.7094 240.209 40.5134C240.209 39.3174 239.837 38.3457 239.167 37.673C238.498 37.0002 237.457 36.7012 236.044 36.7012H234.482V44.2508H236.267C237.531 44.1761 238.498 43.8771 239.167 43.2791ZM253.818 46.6428L252.702 43.9518H247.497L246.381 46.6428H243.406L248.761 34.1598H251.438L256.793 46.6428H253.818ZM250.1 37.8972L248.538 41.4851H251.661L250.1 37.8972ZM262.593 36.6265V46.6428H259.767V36.6265H256.272V34.2345H266.089V36.6265H262.593ZM268.097 34.2345H270.848V46.7175H268.097V34.2345ZM284.309 44.9236C283.045 46.1195 281.483 46.7923 279.698 46.7923C277.839 46.7923 276.351 46.1943 275.087 44.9236C273.823 43.7276 273.228 42.1579 273.228 40.3639C273.228 38.57 273.823 37.0002 275.087 35.8043C276.351 34.6083 277.913 33.9356 279.698 33.9356C281.557 33.9356 283.045 34.5335 284.309 35.8043C285.573 37.0002 286.168 38.57 286.168 40.3639C286.168 42.1579 285.573 43.7276 284.309 44.9236ZM283.416 40.3639C283.416 39.2427 283.045 38.271 282.375 37.5235C281.632 36.776 280.814 36.3275 279.772 36.3275C278.731 36.3275 277.839 36.7012 277.169 37.5235C276.426 38.271 276.128 39.2427 276.128 40.3639C276.128 41.4851 276.5 42.3821 277.169 43.2044C277.913 43.9518 278.731 44.4003 279.772 44.4003C280.814 44.4003 281.706 44.0266 282.375 43.2044C283.045 42.4569 283.416 41.4851 283.416 40.3639ZM297.174 34.2345H300V46.6428H297.174L291.299 38.8689V46.6428H288.548V34.2345H291.151L297.174 42.2326V34.2345Z" fill="white"/>
<path d="M6.76747 31.9176H0V47.9137H15.8403V41.0369H6.76747V31.9176ZM40.8279 31.9923V41.0369H31.7551V40.9621V47.9137H47.5954V31.9176H40.7536L40.8279 31.9923ZM0 15.9962H6.84184L6.76747 15.9214V6.87685H15.8403V0H0V15.9962ZM31.7551 0V6.87685H40.8279V15.9962H47.5954V0H31.7551Z" fill="white"/>
<path d="M30.8626 15.9962L21.7898 6.87685H31.7551V0H15.8403V6.87685L24.9132 15.9962H30.8626ZM22.6822 31.9176H16.7328L24.2439 39.4672L25.7313 41.0369H15.8403V47.9137H31.7551V40.9621L27.2186 36.4772L22.6822 31.9176ZM40.8279 15.9962V25.9377L39.2662 24.368L31.7551 16.8184V22.873L36.2171 27.3579L40.7536 31.9176H47.5954V15.9962H40.8279ZM15.8403 25.0407L6.84184 15.9962H0V31.9176H6.76747V21.976L15.8403 31.0953V25.0407Z" fill="white"/>
</svg>
