<svg width="364" height="58" viewBox="0 0 364 58" fill="none" xmlns="http://www.w3.org/2000/svg">
<path d="M86.2419 25.3352C89.2127 25.3352 91.5533 24.159 93.4438 21.8064L97.2247 25.7877C94.1639 29.226 90.6531 30.9452 86.512 30.9452C82.3709 30.9452 79.0401 29.6785 76.3394 27.0544C73.6387 24.4304 72.3784 21.173 72.3784 17.1917C72.3784 13.2104 73.7287 9.86254 76.4294 7.23851C79.1301 4.61449 82.461 3.25723 86.422 3.25723C90.8331 3.25723 94.524 4.97642 97.4048 8.32431L93.7138 12.577C91.8233 10.2245 89.4827 9.04818 86.692 9.04818C84.4415 9.04818 82.551 9.77205 80.9306 11.2198C79.3102 12.6675 78.4999 14.6582 78.4999 17.1917C78.4999 19.7253 79.2201 21.7159 80.7505 23.2541C82.2809 24.5209 84.0814 25.3352 86.2419 25.3352V25.3352ZM101.996 30.5833V3.70965H107.937V25.2448H119.37V30.5833H101.996ZM145.477 26.8735C142.776 29.4975 139.445 30.8547 135.484 30.8547C131.523 30.8547 128.193 29.4975 125.492 26.8735C122.791 24.2494 121.441 20.9015 121.441 17.0107C121.441 13.1199 122.791 9.77205 125.492 7.14803C128.193 4.524 131.523 3.16675 135.484 3.16675C139.445 3.16675 142.776 4.524 145.477 7.14803C148.178 9.77205 149.528 13.1199 149.528 17.0107C149.528 20.9015 148.178 24.2494 145.477 26.8735ZM143.407 17.0107C143.407 14.6582 142.596 12.577 141.156 10.8579C139.626 9.13867 137.735 8.32431 135.484 8.32431C133.234 8.32431 131.343 9.13867 129.813 10.8579C128.283 12.577 127.472 14.5677 127.472 17.0107C127.472 19.4538 128.283 21.4444 129.813 23.1636C131.343 24.8828 133.234 25.6972 135.484 25.6972C137.735 25.6972 139.626 24.8828 141.156 23.1636C142.686 21.4444 143.407 19.4538 143.407 17.0107ZM161.681 23.7065C162.671 24.9733 164.022 25.6067 165.732 25.6067C167.443 25.6067 168.793 24.9733 169.693 23.7065C170.683 22.4398 171.134 20.7206 171.134 18.6394V3.70965H177.075V18.7299C177.075 22.6207 175.995 25.6067 173.834 27.6878C171.674 29.7689 168.973 30.8547 165.642 30.8547C162.311 30.8547 159.521 29.7689 157.36 27.6878C155.2 25.6067 154.119 22.6207 154.119 18.7299V3.70965H160.061V18.549C160.151 20.7206 160.691 22.4398 161.681 23.7065V23.7065ZM203.722 7.23851C206.243 9.59109 207.593 12.8485 207.593 17.0107C207.593 21.173 206.333 24.5209 203.902 26.9639C201.381 29.407 197.6 30.5833 192.559 30.5833H183.287V3.70965H192.739C197.51 3.70965 201.201 4.88594 203.722 7.23851ZM199.401 23.2541C200.841 21.8969 201.561 19.8157 201.561 17.1917C201.561 14.5677 200.841 12.4866 199.401 11.1293C197.96 9.68157 195.71 8.9577 192.649 8.9577H189.318V25.3352H193.099C195.8 25.3352 197.87 24.6114 199.401 23.2541ZM241.532 3.70965H247.563V30.5833H241.532L228.838 13.7533V30.5833H222.807V3.70965H228.478L241.532 21.0825V3.70965ZM273.13 30.5833L270.609 24.7923H259.356L256.835 30.5833H250.444L261.967 3.70965H267.728L279.251 30.5833H273.13V30.5833ZM265.118 11.7627L261.787 19.5443H268.448L265.118 11.7627ZM292.034 8.9577V30.5833H286.003V8.9577H278.441V3.70965H299.596V8.9577H292.034ZM303.917 3.70965H309.859V30.5833H303.917V3.70965ZM326.333 20.8111L333.175 3.70965H339.657L328.854 30.5833H323.813L313.1 3.70965H319.581L326.333 20.8111ZM362.072 3.70965V9.04818H348.749V14.6582H360.722V19.7253H348.749V25.3352H362.522V30.5833H342.807V3.70965H362.072ZM79.4002 53.4756C81.0206 53.4756 82.3709 52.8423 83.4512 51.485L85.6118 53.7471C83.9013 55.6473 81.9208 56.6426 79.5802 56.6426C77.2396 56.6426 75.3491 55.9187 73.9088 54.471C72.3784 53.0232 71.6582 51.1231 71.6582 48.9515C71.6582 46.6894 72.3784 44.8797 73.9088 43.3415C75.4392 41.8033 77.3296 41.0794 79.4902 41.0794C81.9208 41.0794 83.9913 41.9842 85.7018 43.8844L83.6313 46.237C82.551 44.8797 81.2907 44.2463 79.6702 44.2463C78.4099 44.2463 77.3297 44.6987 76.4294 45.5131C75.5292 46.3274 75.0791 47.4132 75.0791 48.861C75.0791 50.3087 75.5292 51.3945 76.3394 52.2089C77.1496 53.1137 78.2299 53.4756 79.4002 53.4756V53.4756ZM100.466 54.3805C98.9352 55.8282 97.0447 56.6426 94.8841 56.6426C92.7236 56.6426 90.8331 55.9187 89.3027 54.3805C87.7723 52.9327 87.0521 51.0326 87.0521 48.861C87.0521 46.6894 87.7723 44.7892 89.3027 43.3415C90.8331 41.8937 92.7236 41.0794 94.8841 41.0794C97.0447 41.0794 98.9352 41.8033 100.466 43.3415C101.996 44.7892 102.716 46.6894 102.716 48.861C102.716 51.0326 101.996 52.9327 100.466 54.3805ZM99.3853 48.861C99.3853 47.5037 98.9352 46.3274 98.125 45.4226C97.2247 44.5178 96.2345 43.9749 94.9742 43.9749C93.7138 43.9749 92.6336 44.4273 91.8234 45.4226C90.9231 46.3274 90.563 47.5037 90.563 48.861C90.563 50.2182 91.0131 51.304 91.8234 52.2994C92.7236 53.2042 93.7138 53.7471 94.9742 53.7471C96.2345 53.7471 97.3148 53.2947 98.125 52.2994C98.9352 51.3945 99.3853 50.2182 99.3853 48.861ZM119.01 46.9608L114.959 55.2853H112.979L108.928 46.9608V56.4616H105.597V41.4413H110.098L113.969 49.6753L117.84 41.4413H122.341V56.4616H119.01V46.9608ZM136.385 42.7986C137.465 43.7034 138.005 45.0607 138.005 46.9608C138.005 48.861 137.465 50.2182 136.385 51.0326C135.304 51.9374 133.684 52.2994 131.433 52.2994H129.453V56.4616H126.122V41.4413H131.433C133.684 41.4413 135.304 41.8937 136.385 42.7986V42.7986ZM133.954 48.68C134.314 48.2276 134.584 47.5942 134.584 46.6894C134.584 45.7845 134.314 45.2416 133.774 44.8797C133.234 44.5178 132.424 44.3368 131.343 44.3368H129.453V49.4039H131.704C132.784 49.4039 133.504 49.1324 133.954 48.68ZM144.577 52.5708C145.117 53.2947 145.927 53.6566 146.827 53.6566C147.728 53.6566 148.538 53.2947 149.078 52.5708C149.618 51.8469 149.888 50.9421 149.888 49.6753V41.3508H153.219V49.7658C153.219 51.9374 152.589 53.6566 151.419 54.8329C150.248 56.0092 148.718 56.5521 146.827 56.5521C144.937 56.5521 143.407 55.9187 142.236 54.7424C141.066 53.5661 140.436 51.8469 140.436 49.6753V41.2604H143.767V49.7658C143.767 50.9421 144.037 51.9374 144.577 52.5708V52.5708ZM163.032 44.3368V56.4616H159.701V44.3368H155.47V41.4413H167.263V44.3368H163.032ZM169.783 41.4413H173.114V56.5521H169.783V41.4413ZM187.248 41.4413H190.579V56.4616H187.248L180.136 47.0513V56.4616H176.805V41.4413H179.866L187.248 51.1231V41.4413ZM204.082 48.861H207.413V54.1995C205.882 55.8282 203.902 56.7331 201.201 56.7331C199.041 56.7331 197.15 56.0092 195.62 54.5615C194.089 53.1137 193.369 51.2136 193.369 49.0419C193.369 46.7799 194.089 44.9702 195.62 43.432C197.15 41.8937 198.951 41.1699 201.111 41.1699C203.272 41.1699 205.162 41.8937 206.693 43.3415L204.982 45.875C204.352 45.2416 203.722 44.8797 203.092 44.6987C202.552 44.5178 201.921 44.3368 201.291 44.3368C200.031 44.3368 198.951 44.7892 198.05 45.6036C197.15 46.5084 196.7 47.5942 196.7 49.0419C196.7 50.4897 197.15 51.5755 197.96 52.4803C198.771 53.2947 199.761 53.7471 200.931 53.7471C202.101 53.7471 203.092 53.5661 203.812 53.1137L204.082 48.861V48.861ZM226.318 41.4413V44.3368H219.386V47.5942H226.048V50.5802H219.386V56.4616H216.055V41.4413H226.318ZM241.802 54.3805C240.271 55.8282 238.381 56.6426 236.22 56.6426C233.97 56.6426 232.169 55.9187 230.639 54.3805C229.108 52.9327 228.388 51.0326 228.388 48.861C228.388 46.6894 229.108 44.7892 230.639 43.3415C232.169 41.8937 234.06 41.0794 236.22 41.0794C238.471 41.0794 240.271 41.8033 241.802 43.3415C243.332 44.7892 244.052 46.6894 244.052 48.861C244.052 51.0326 243.332 52.9327 241.802 54.3805ZM240.631 48.861C240.631 47.5037 240.181 46.3274 239.371 45.4226C238.471 44.5178 237.481 43.9749 236.22 43.9749C234.96 43.9749 233.88 44.4273 233.069 45.4226C232.169 46.3274 231.809 47.5037 231.809 48.861C231.809 50.2182 232.259 51.304 233.069 52.2994C233.97 53.2042 234.96 53.7471 236.22 53.7471C237.481 53.7471 238.561 53.2947 239.371 52.2994C240.271 51.3945 240.631 50.2182 240.631 48.861ZM250.894 52.5708C251.434 53.2947 252.244 53.6566 253.145 53.6566C254.045 53.6566 254.855 53.2947 255.395 52.5708C255.935 51.8469 256.205 50.9421 256.205 49.6753V41.3508H259.536V49.7658C259.536 51.9374 258.906 53.6566 257.736 54.8329C256.565 56.0092 255.035 56.5521 253.145 56.5521C251.254 56.5521 249.724 55.9187 248.553 54.7424C247.383 53.5661 246.753 51.8469 246.753 49.6753V41.2604H250.084V49.7658C249.994 50.9421 250.354 51.9374 250.894 52.5708V52.5708ZM273.49 41.4413H276.821V56.4616H273.49L266.378 47.0513V56.4616H263.047V41.4413H266.108L273.49 51.1231V41.4413ZM291.944 43.432C293.385 44.7892 294.105 46.5989 294.105 48.9515C294.105 51.304 293.385 53.1137 292.034 54.471C290.684 55.8282 288.524 56.5521 285.643 56.5521H280.512V41.4413H285.823C288.524 41.4413 290.594 42.0747 291.944 43.432ZM289.514 52.3898C290.324 51.5755 290.774 50.4897 290.774 49.0419C290.774 47.5942 290.324 46.4179 289.514 45.6036C288.704 44.7892 287.443 44.4273 285.733 44.4273H283.842V53.5661H286.003C287.533 53.4756 288.704 53.1137 289.514 52.3898V52.3898ZM307.248 56.4616L305.898 53.2042H299.596L298.246 56.4616H294.645L301.127 41.3508H304.368L310.849 56.4616H307.248ZM302.747 45.875L300.857 50.2182H304.638L302.747 45.875V45.875ZM317.871 44.3368V56.4616H314.45V44.3368H310.219V41.4413H322.102V44.3368H317.871ZM324.533 41.4413H327.864V56.5521H324.533V41.4413ZM344.158 54.3805C342.627 55.8282 340.737 56.6426 338.576 56.6426C336.326 56.6426 334.525 55.9187 332.995 54.3805C331.464 52.9327 330.744 51.0326 330.744 48.861C330.744 46.6894 331.464 44.7892 332.995 43.3415C334.525 41.8937 336.416 41.0794 338.576 41.0794C340.827 41.0794 342.627 41.8033 344.158 43.3415C345.688 44.7892 346.408 46.6894 346.408 48.861C346.408 51.0326 345.688 52.9327 344.158 54.3805ZM343.077 48.861C343.077 47.5037 342.627 46.3274 341.817 45.4226C340.917 44.5178 339.927 43.9749 338.666 43.9749C337.406 43.9749 336.326 44.4273 335.516 45.4226C334.615 46.3274 334.255 47.5037 334.255 48.861C334.255 50.2182 334.705 51.304 335.516 52.2994C336.416 53.2042 337.406 53.7471 338.666 53.7471C339.927 53.7471 341.007 53.2947 341.817 52.2994C342.627 51.3945 343.077 50.2182 343.077 48.861ZM359.732 41.4413H363.153V56.4616H359.732L352.62 47.0513V56.4616H349.289V41.4413H352.44L359.732 51.1231V41.4413Z" fill="black"/>
<path d="M8.19209 38.6365H0V58H19.1749V49.6755H8.19209V38.6365ZM49.4226 38.727V49.6755H38.4398V49.585V58H57.6147V38.6365H49.3326L49.4226 38.727ZM0 19.3635H8.28211L8.19209 19.273V8.32449H19.1749V0H0V19.3635ZM38.4398 0V8.32449H49.4226V19.3635H57.6147V0H38.4398Z" fill="#446CA9"/>
<path d="M37.3595 19.3635L26.3767 8.32449H38.4398V0H19.1749V8.32449L30.1577 19.3635H37.3595ZM27.457 38.6365H20.2552L29.3475 47.7754L31.1479 49.6755H19.1749V58H38.4398V49.585L32.9484 44.156L27.457 38.6365ZM49.4226 19.3635V31.3978L47.5321 29.4977L38.4398 20.3588V27.688L43.8412 33.117L49.3326 38.6365H57.6147V19.3635H49.4226ZM19.1749 30.312L8.28211 19.3635H0V38.6365H8.19209V26.6022L19.1749 37.6412V30.312Z" fill="#76C4D5"/>
</svg>
