<svg width="35" height="35" viewBox="0 0 35 35" fill="none" xmlns="http://www.w3.org/2000/svg">
<path d="M17.5 35C15.1302 35 12.863 34.5386 10.6982 33.6157C8.53353 32.6929 6.67074 31.451 5.10986 29.8901C3.54899 28.3293 2.30713 26.4665 1.38428 24.3018C0.461426 22.137 0 19.8698 0 17.5C0 15.1302 0.461426 12.863 1.38428 10.6982C2.30713 8.53353 3.54899 6.67074 5.10986 5.10986C6.67074 3.54899 8.53353 2.30713 10.6982 1.38428C12.863 0.461426 15.1302 0 17.5 0C19.8698 0 22.137 0.461426 24.3018 1.38428C26.4665 2.30713 28.3293 3.54899 29.8901 5.10986C31.451 6.67074 32.6929 8.53353 33.6157 10.6982C34.5386 12.863 35 15.1302 35 17.5C35 19.8698 34.5386 22.137 33.6157 24.3018C32.6929 26.4665 31.451 28.3293 29.8901 29.8901C28.3293 31.451 26.4665 32.6929 24.3018 33.6157C22.137 34.5386 19.8698 35 17.5 35ZM17.5 2.1875C15.4264 2.1875 13.444 2.59196 11.5527 3.40088C9.66146 4.2098 8.03223 5.29785 6.66504 6.66504C5.29785 8.03223 4.2098 9.66146 3.40088 11.5527C2.59196 13.444 2.1875 15.4264 2.1875 17.5C2.1875 19.5736 2.59196 21.556 3.40088 23.4473C4.2098 25.3385 5.29785 26.9678 6.66504 28.335C8.03223 29.7021 9.66146 30.7902 11.5527 31.5991C13.444 32.408 15.4264 32.8125 17.5 32.8125C19.5736 32.8125 21.556 32.408 23.4473 31.5991C25.3385 30.7902 26.9678 29.7021 28.335 28.335C29.7021 26.9678 30.7902 25.3385 31.5991 23.4473C32.408 21.556 32.8125 19.5736 32.8125 17.5C32.8125 15.4264 32.408 13.444 31.5991 11.5527C30.7902 9.66146 29.7021 8.03223 28.335 6.66504C26.9678 5.29785 25.3385 4.2098 23.4473 3.40088C21.556 2.59196 19.5736 2.1875 17.5 2.1875ZM24.0625 26.25C22.8548 26.25 21.8237 25.8228 20.9692 24.9683C20.1147 24.1138 19.6875 23.0827 19.6875 21.875C19.6875 20.6673 20.1147 19.6362 20.9692 18.7817C21.8237 17.9272 22.8548 17.5 24.0625 17.5C25.2702 17.5 26.3013 17.9272 27.1558 18.7817C28.0103 19.6362 28.4375 20.6673 28.4375 21.875C28.4375 23.0827 28.0103 24.1138 27.1558 24.9683C26.3013 25.8228 25.2702 26.25 24.0625 26.25ZM17.5 15.3125C16.2923 15.3125 15.2612 14.8853 14.4067 14.0308C13.5522 13.1763 13.125 12.1452 13.125 10.9375C13.125 9.72982 13.5522 8.69873 14.4067 7.84424C15.2612 6.98975 16.2923 6.5625 17.5 6.5625C18.7077 6.5625 19.7388 6.98975 20.5933 7.84424C21.4478 8.69873 21.875 9.72982 21.875 10.9375C21.875 12.1452 21.4478 13.1763 20.5933 14.0308C19.7388 14.8853 18.7077 15.3125 17.5 15.3125ZM15.3125 21.875C15.3125 23.0827 14.8853 24.1138 14.0308 24.9683C13.1763 25.8228 12.1452 26.25 10.9375 26.25C9.72982 26.25 8.69873 25.8228 7.84424 24.9683C6.98975 24.1138 6.5625 23.0827 6.5625 21.875C6.5625 20.6673 6.98975 19.6362 7.84424 18.7817C8.69873 17.9272 9.72982 17.5 10.9375 17.5C12.1452 17.5 13.1763 17.9272 14.0308 18.7817C14.8853 19.6362 15.3125 20.6673 15.3125 21.875Z" fill="url(#paint0_linear)"/>
<defs>
<linearGradient id="paint0_linear" x1="33.7249" y1="33.4393" x2="-0.843539" y2="32.9082" gradientUnits="userSpaceOnUse">
<stop stop-color="#FFDC7E"/>
<stop offset="1" stop-color="#FF7C71"/>
</linearGradient>
</defs>
</svg>
