<svg width="80" height="80" viewBox="0 0 80 80" fill="none" xmlns="http://www.w3.org/2000/svg">
<path d="M40 80C34.5833 80 29.401 78.9453 24.4531 76.8359C19.5052 74.7266 15.2474 71.888 11.6797 68.3203C8.11198 64.7526 5.27344 60.4948 3.16406 55.5469C1.05469 50.599 0 45.4167 0 40C0 34.5833 1.05469 29.401 3.16406 24.4531C5.27344 19.5052 8.11198 15.2474 11.6797 11.6797C15.2474 8.11198 19.5052 5.27344 24.4531 3.16406C29.401 1.05469 34.5833 0 40 0C45.4167 0 50.599 1.05469 55.5469 3.16406C60.4948 5.27344 64.7526 8.11198 68.3203 11.6797C71.888 15.2474 74.7266 19.5052 76.8359 24.4531C78.9453 29.401 80 34.5833 80 40C80 45.4167 78.9453 50.599 76.8359 55.5469C74.7266 60.4948 71.888 64.7526 68.3203 68.3203C64.7526 71.888 60.4948 74.7266 55.5469 76.8359C50.599 78.9453 45.4167 80 40 80ZM40 5C35.2604 5 30.7292 5.92448 26.4062 7.77344C22.0833 9.6224 18.3594 12.1094 15.2344 15.2344C12.1094 18.3594 9.6224 22.0833 7.77344 26.4062C5.92448 30.7292 5 35.2604 5 40C5 44.7396 5.92448 49.2708 7.77344 53.5938C9.6224 57.9167 12.1094 61.6406 15.2344 64.7656C18.3594 67.8906 22.0833 70.3776 26.4062 72.2266C30.7292 74.0755 35.2604 75 40 75C44.7396 75 49.2708 74.0755 53.5938 72.2266C57.9167 70.3776 61.6406 67.8906 64.7656 64.7656C67.8906 61.6406 70.3776 57.9167 72.2266 53.5938C74.0755 49.2708 75 44.7396 75 40C75 35.2604 74.0755 30.7292 72.2266 26.4062C70.3776 22.0833 67.8906 18.3594 64.7656 15.2344C61.6406 12.1094 57.9167 9.6224 53.5938 7.77344C49.2708 5.92448 44.7396 5 40 5ZM55 60C52.2396 60 49.8828 59.0234 47.9297 57.0703C45.9766 55.1172 45 52.7604 45 50C45 47.2396 45.9766 44.8828 47.9297 42.9297C49.8828 40.9766 52.2396 40 55 40C57.7604 40 60.1172 40.9766 62.0703 42.9297C64.0234 44.8828 65 47.2396 65 50C65 52.7604 64.0234 55.1172 62.0703 57.0703C60.1172 59.0234 57.7604 60 55 60ZM40 35C37.2396 35 34.8828 34.0234 32.9297 32.0703C30.9766 30.1172 30 27.7604 30 25C30 22.2396 30.9766 19.8828 32.9297 17.9297C34.8828 15.9766 37.2396 15 40 15C42.7604 15 45.1172 15.9766 47.0703 17.9297C49.0234 19.8828 50 22.2396 50 25C50 27.7604 49.0234 30.1172 47.0703 32.0703C45.1172 34.0234 42.7604 35 40 35ZM35 50C35 52.7604 34.0234 55.1172 32.0703 57.0703C30.1172 59.0234 27.7604 60 25 60C22.2396 60 19.8828 59.0234 17.9297 57.0703C15.9766 55.1172 15 52.7604 15 50C15 47.2396 15.9766 44.8828 17.9297 42.9297C19.8828 40.9766 22.2396 40 25 40C27.7604 40 30.1172 40.9766 32.0703 42.9297C34.0234 44.8828 35 47.2396 35 50Z" fill="url(#paint0_linear)"/>
<defs>
<linearGradient id="paint0_linear" x1="77.0855" y1="76.4327" x2="-1.92809" y2="75.2188" gradientUnits="userSpaceOnUse">
<stop stop-color="#FFDC7E"/>
<stop offset="1" stop-color="#FF7C71"/>
</linearGradient>
</defs>
</svg>
