<svg width="217" height="75" viewBox="0 0 217 75" fill="none" xmlns="http://www.w3.org/2000/svg">
<g clip-path="url(#clip0)">
<path d="M29.3539 32.3127L45.7039 39.823L62.1801 25.2478C62.4236 24.0437 62.54 22.817 62.5273 21.5881C62.5301 17.6211 61.2727 13.7575 58.9394 10.5633C56.606 7.36906 53.3194 5.01223 49.5611 3.83808C45.8027 2.66393 41.7702 2.73419 38.0543 4.03855C34.3384 5.34292 31.1345 7.81282 28.9121 11.0864L26.166 25.4388L29.3539 32.3127Z" fill="white"/>
<path d="M12.436 49.7521C12.1925 50.9777 12.0762 52.2255 12.0888 53.4754C12.0936 57.4589 13.3639 61.3361 15.7134 64.5387C18.0629 67.7413 21.3682 70.1009 25.1446 71.2716C28.9211 72.4423 32.9702 72.3626 36.6985 71.0442C40.4268 69.7258 43.6381 67.238 45.8619 63.9454L48.5764 49.6566L44.9466 42.6554L28.5335 35.1133L12.436 49.7521Z" fill="white"/>
<path d="M12.3405 21.2381L23.5456 23.9113L26.0075 11.0864C24.4875 9.91304 22.6308 9.26898 20.7165 9.25111C18.8022 9.23325 16.9339 9.84256 15.3927 10.9874C13.8514 12.1322 12.7205 13.7506 12.1701 15.5993C11.6196 17.4479 11.6794 19.4267 12.3405 21.2381Z" fill="white"/>
<path d="M11.3625 23.9431C8.93824 24.7452 6.82011 26.2852 5.29968 28.351C3.77925 30.4169 2.93126 32.9071 2.87242 35.4789C2.81359 38.0507 3.54679 40.5776 4.97113 42.712C6.39547 44.8463 8.44091 46.4831 10.8259 47.397L26.5446 33.0765L23.6723 26.8709L11.3625 23.9431Z" fill="white"/>
<path d="M48.7031 63.9454C50.2241 65.1045 52.0762 65.7366 53.9828 65.7474C55.8894 65.7581 57.7483 65.147 59.2821 64.005C60.8159 62.8631 61.9423 61.2517 62.4931 59.4114C63.044 57.571 62.9898 55.6004 62.3386 53.7937L51.1651 51.1523L48.7031 63.9454Z" fill="white"/>
<path d="M50.9757 48.1927L63.2855 51.0887C65.7098 50.2866 67.8279 48.7466 69.3483 46.6808C70.8688 44.6149 71.7167 42.1247 71.7756 39.5529C71.8344 36.9811 71.1012 34.4542 69.6769 32.3198C68.2525 30.1855 66.2071 28.5487 63.8221 27.6348L47.7246 41.8599L50.9757 48.1927Z" fill="white"/>
<path d="M104.412 52.6799L105.895 52.5208L105.99 55.5758C102.666 56.0752 99.3128 56.3516 95.9526 56.4032C92.2596 56.4032 89.6398 55.3212 88.0932 53.1572C86.5466 50.9932 85.7891 47.62 85.7891 43.0692C85.7891 33.9677 89.3768 29.4169 96.5523 29.4169C100.024 29.4169 102.612 30.4034 104.317 32.3447C106.021 34.2859 106.874 37.3728 106.874 41.5417L106.653 44.5013H89.6714C89.6714 47.3654 90.1764 49.4975 91.218 50.866C92.2596 52.2344 94.0272 52.9345 96.5838 52.9345C99.1957 52.9917 101.809 52.9067 104.412 52.6799ZM103.023 41.4462C103.023 38.2638 102.518 36.0044 101.508 34.6996C100.498 33.3948 98.8564 32.7266 96.5838 32.7266C94.3112 32.7266 92.5753 33.4267 91.439 34.7951C90.3027 36.1635 89.703 38.3911 89.6714 41.4462H103.023ZM112.239 55.9259V18.6924H116.09V55.9259H112.239ZM140.426 37.8183V50.5795C140.426 51.8843 143.614 52.1389 143.614 52.1389L143.424 55.5758C140.71 55.5758 138.469 55.7986 137.112 54.4938C134.199 55.7898 131.047 56.4513 127.863 56.4351C125.496 56.4351 123.697 55.7668 122.466 54.3984C121.235 53.03 120.604 51.1205 120.604 48.5747C120.604 46.0288 121.235 44.183 122.498 43.0056C123.76 41.8281 125.749 41.0643 128.463 40.8097L136.543 40.046V37.8183C136.543 36.068 136.165 34.7951 135.407 34.0313C134.65 33.2676 133.608 32.8857 132.314 32.8857H122.182V29.4487H132.061C134.965 29.4487 137.08 30.117 138.406 31.4854C139.731 32.8538 140.426 34.9542 140.426 37.8183ZM124.581 48.3837C124.581 51.5661 125.875 53.1572 128.495 53.1572C130.838 53.1622 133.165 52.764 135.376 51.9798L136.543 51.5661V43.0056L128.937 43.7375C127.39 43.8648 126.285 44.3103 125.591 45.0741C124.896 45.8378 124.581 46.9517 124.581 48.3837ZM155.482 32.9175C151.757 32.9175 149.863 34.2223 149.863 36.8636C149.863 38.0729 150.305 38.9321 151.157 39.4413C152.01 39.9505 153.967 40.4597 157.028 41.0007C160.09 41.5417 162.236 42.2736 163.499 43.2601C164.761 44.2467 165.393 46.0288 165.393 48.702C165.393 51.3751 164.54 53.3164 162.836 54.5575C161.131 55.7986 158.67 56.4351 155.387 56.4351C153.272 56.4351 146.17 55.6395 146.17 55.6395L146.391 52.2662C150.463 52.6481 153.43 52.9663 155.418 52.9663C157.407 52.9663 158.922 52.6481 159.964 52.0116C161.005 51.3751 161.542 50.2931 161.542 48.7974C161.542 47.3017 161.1 46.2834 160.216 45.7424C159.332 45.2014 157.375 44.6922 154.345 44.2148C151.315 43.7375 149.169 43.0374 147.906 42.0827C146.644 41.128 146.012 39.4095 146.012 36.8954C146.012 34.3814 146.896 32.5038 148.664 31.2945C150.431 30.0852 152.641 29.4806 155.261 29.4806C157.344 29.4806 164.603 30.0216 164.603 30.0216V33.4267C160.784 33.2039 157.659 32.9175 155.482 32.9175ZM184.015 33.363H175.84V45.7742C175.84 48.7338 176.061 50.7068 176.471 51.6297C176.882 52.5526 177.923 53.03 179.533 53.03L184.11 52.7117L184.362 55.9259C182.633 56.2491 180.881 56.4406 179.123 56.4987C176.44 56.4987 174.609 55.8304 173.568 54.5257C172.526 53.2209 172.021 50.7068 172.021 47.0153V33.363H168.36V29.9897H172.021V22.0339H175.84V29.9579H184.015V33.363ZM189.381 24.1024V19.6153H193.232V24.1342L189.381 24.1024ZM189.381 55.9259V29.9897H193.232V55.9259H189.381ZM209.96 29.4487C211.097 29.4487 213.022 29.6715 215.737 30.0852L216.968 30.2443L216.81 33.3948C214.799 33.1311 212.776 32.9717 210.75 32.9175C207.846 32.9175 205.857 33.6176 204.816 35.0178C203.774 36.4181 203.237 39.0276 203.237 42.8146C203.237 46.6016 203.711 49.243 204.689 50.7387C205.668 52.2344 207.688 52.9663 210.781 52.9663L216.841 52.489L216.999 55.7031C213.811 56.1805 211.412 56.4351 209.834 56.4351C205.826 56.4351 203.048 55.3849 201.533 53.3164C200.018 51.2478 199.229 47.7473 199.229 42.8146C199.229 37.882 200.049 34.4132 201.691 32.4401C203.332 30.4671 206.11 29.4487 209.96 29.4487Z" fill="white"/>
</g>
<defs>
<clipPath id="clip0">
<rect width="217" height="75" fill="white"/>
</clipPath>
</defs>
</svg>
