<svg width="316" height="109" viewBox="0 0 316 109" fill="none" xmlns="http://www.w3.org/2000/svg">
<g clip-path="url(#clip0)">
<path d="M108.75 57.1372C108.76 52.6969 107.404 48.3623 104.87 44.7274C102.336 41.0924 98.7459 38.3352 94.5931 36.8334C95.4445 32.3595 95.3051 27.7516 94.1849 23.338C93.0647 18.9244 90.9913 14.8136 88.1122 11.2983C85.2331 7.783 81.6191 4.94963 77.5277 2.99995C73.4363 1.05027 68.968 0.0322363 64.441 0.0183326C59.5763 0.0124818 54.7801 1.17121 50.4483 3.39883C46.1166 5.62645 42.3737 8.85903 39.5287 12.8296C37.1148 10.9536 34.2266 9.7959 31.1919 9.48793C28.1572 9.17995 25.0975 9.73402 22.3599 11.0873C19.6224 12.4405 17.3165 14.5387 15.7041 17.1439C14.0916 19.7491 13.2371 22.7568 13.2375 25.8259C13.2443 27.7819 13.5864 29.722 14.2487 31.5609C10.0815 33.061 6.47639 35.8192 3.92585 39.4587C1.37531 43.0982 0.00382246 47.4414 -0.00120682 51.8947C-0.0062361 56.3481 1.35544 60.6944 3.89775 64.3397C6.44006 67.985 10.039 70.7514 14.2027 72.261C12.865 79.1662 13.9145 86.3241 17.1771 92.5464C20.4396 98.7686 25.7189 103.681 32.1385 106.468C38.5581 109.255 45.7319 109.749 52.4689 107.868C59.2059 105.986 65.1009 101.843 69.1752 96.1261C72.0117 98.3946 75.5261 99.6331 79.1493 99.6411C83.4765 99.6399 87.6261 97.9097 90.6859 94.8308C93.7457 91.752 95.4652 87.5765 95.4664 83.2223C95.4596 81.2664 95.1176 79.3262 94.4552 77.4873C98.6211 75.9748 102.226 73.2125 104.782 69.5734C107.338 65.9343 108.723 61.5936 108.75 57.1372Z" fill="white"/>
<path d="M42.7461 46.9613L66.5553 57.8764L90.5483 36.6938C90.9029 34.9438 91.0724 33.1609 91.0539 31.375C91.0579 25.6096 89.2268 19.9944 85.829 15.3522C82.4311 10.71 77.6451 7.28471 72.1721 5.57828C66.6991 3.87185 60.8269 3.97396 55.4157 5.86963C50.0046 7.76531 45.339 11.3549 42.1026 16.1125L38.1038 36.9713L42.7461 46.9613Z" fill="#FED10A"/>
<path d="M18.1097 72.3063C17.7551 74.0875 17.5857 75.9011 17.6041 77.7176C17.6112 83.5069 19.4609 89.1417 22.8824 93.7962C26.3038 98.4506 31.1169 101.88 36.6163 103.581C42.1157 105.283 48.0121 105.167 53.4413 103.251C58.8705 101.335 63.5469 97.7191 66.7852 92.9339L70.7381 72.1676L65.4523 61.9925L41.5512 51.0312L18.1097 72.3063Z" fill="#24BBB1"/>
<path d="M17.9718 30.8662L34.2889 34.7513L37.874 16.1125C35.6606 14.4071 32.9567 13.4711 30.1691 13.4451C27.3815 13.4192 24.6609 14.3047 22.4164 15.9685C20.172 17.6323 18.5252 19.9845 17.7236 22.6711C16.9221 25.3578 17.0092 28.2337 17.9718 30.8662Z" fill="#EF5098"/>
<path d="M16.5469 34.7976C13.0167 35.9633 9.9322 38.2014 7.71812 41.2038C5.50404 44.2061 4.26917 47.8252 4.18349 51.5629C4.09781 55.3006 5.16552 58.9731 7.23967 62.075C9.31382 65.1769 12.2924 67.5557 15.7656 68.884L38.6555 48.0714L34.4728 39.0526L16.5469 34.7976Z" fill="#17A8E0"/>
<path d="M70.9219 92.9338C73.1368 94.6185 75.8338 95.5371 78.6102 95.5528C81.3866 95.5684 84.0937 94.6801 86.3272 93.0206C88.5607 91.361 90.201 89.0191 91.0032 86.3445C91.8053 83.6698 91.7264 80.8059 90.7781 78.1801L74.507 74.3413L70.9219 92.9338Z" fill="#93C83E"/>
<path d="M74.2313 70.0402L92.1571 74.2489C95.6874 73.0832 98.7719 70.8452 100.986 67.8428C103.2 64.8404 104.435 61.2213 104.521 57.4837C104.606 53.746 103.539 50.0734 101.464 46.9715C99.3903 43.8696 96.4116 41.4909 92.9385 40.1626L69.4971 60.8364L74.2313 70.0402Z" fill="#0779A1"/>
<path d="M152.048 76.5614L154.208 76.3302L154.346 80.7702C149.506 81.496 144.623 81.8977 139.729 81.9727C134.352 81.9727 130.537 80.4002 128.285 77.2552C126.032 74.1102 124.929 69.2077 124.929 62.5939C124.929 49.3663 130.154 42.7526 140.603 42.7526C145.659 42.7526 149.428 44.1863 151.91 47.0076C154.392 49.8288 155.633 54.3151 155.633 60.3739L155.311 64.6751H130.583C130.583 68.8377 131.318 71.9364 132.835 73.9252C134.352 75.9139 136.926 76.9314 140.649 76.9314C144.452 77.0146 148.257 76.8911 152.048 76.5614ZM150.025 60.2351C150.025 55.6101 149.29 52.3263 147.819 50.4301C146.348 48.5338 143.958 47.5626 140.649 47.5626C137.339 47.5626 134.811 48.5801 133.157 50.5688C131.502 52.5576 130.629 55.7951 130.583 60.2351H150.025ZM163.447 81.2789V27.1663H169.054V81.2789H163.447ZM204.492 54.9626V73.5089C204.492 75.4052 209.135 75.7752 209.135 75.7752L208.859 80.7702C204.906 80.7702 201.643 81.0939 199.666 79.1977C195.424 81.0811 190.835 82.0425 186.199 82.019C182.751 82.019 180.132 81.0477 178.339 79.0589C176.546 77.0702 175.627 74.2952 175.627 70.5952C175.627 66.8951 176.546 64.2126 178.385 62.5014C180.223 60.7901 183.119 59.6801 187.072 59.3101L198.839 58.2001V54.9626C198.839 52.4188 198.287 50.5688 197.184 49.4588C196.081 48.3488 194.564 47.7938 192.68 47.7938H177.925V42.7988H192.312C196.541 42.7988 199.62 43.7701 201.551 45.7588C203.481 47.7476 204.492 50.8001 204.492 54.9626ZM181.419 70.3177C181.419 74.9427 183.303 77.2552 187.118 77.2552C190.53 77.2623 193.919 76.6836 197.138 75.5439L198.839 74.9427V62.5014L187.761 63.5651C185.509 63.7501 183.901 64.3976 182.889 65.5076C181.878 66.6176 181.419 68.2364 181.419 70.3177ZM226.417 47.8401C220.993 47.8401 218.235 49.7363 218.235 53.5751C218.235 55.3326 218.879 56.5814 220.12 57.3214C221.361 58.0614 224.211 58.8014 228.669 59.5876C233.128 60.3739 236.253 61.4376 238.092 62.8714C239.93 64.3051 240.849 66.8951 240.849 70.7802C240.849 74.6652 239.608 77.4864 237.126 79.2902C234.644 81.0939 231.059 82.019 226.279 82.019C223.199 82.019 212.858 80.8627 212.858 80.8627L213.179 75.9602C219.109 76.5152 223.429 76.9777 226.325 76.9777C229.221 76.9777 231.427 76.5152 232.944 75.5902C234.461 74.6652 235.242 73.0927 235.242 70.9189C235.242 68.7452 234.598 67.2651 233.311 66.4789C232.024 65.6926 229.175 64.9526 224.762 64.2589C220.35 63.5651 217.224 62.5476 215.386 61.1601C213.547 59.7726 212.628 57.2751 212.628 53.6214C212.628 49.9676 213.915 47.2388 216.489 45.4813C219.063 43.7238 222.28 42.8451 226.095 42.8451C229.129 42.8451 239.7 43.6313 239.7 43.6313V48.5801C234.139 48.2563 229.588 47.8401 226.417 47.8401ZM267.968 48.4876H256.063V66.5251C256.063 70.8264 256.385 73.6939 256.983 75.0352C257.58 76.3764 259.097 77.0702 261.441 77.0702L268.106 76.6077L268.474 81.2789C265.955 81.7486 263.404 82.0269 260.844 82.1115C256.937 82.1115 254.271 81.1402 252.754 79.2439C251.237 77.3477 250.502 73.6939 250.502 68.3289V48.4876H245.17V43.5851H250.502V32.0225H256.063V43.5388H267.968V48.4876ZM275.782 35.0288V28.5075H281.389V35.075L275.782 35.0288ZM275.782 81.2789V43.5851H281.389V81.2789H275.782ZM305.75 42.7988C307.405 42.7988 310.209 43.1226 314.161 43.7238L315.954 43.9551L315.724 48.5338C312.796 48.1505 309.851 47.9189 306.899 47.8401C302.671 47.8401 299.775 48.8576 298.258 50.8926C296.741 52.9276 295.96 56.7201 295.96 62.2239C295.96 67.7276 296.649 71.5664 298.074 73.7402C299.499 75.9139 302.441 76.9777 306.945 76.9777L315.77 76.2839L316 80.9552C311.358 81.6489 307.864 82.019 305.566 82.019C299.729 82.019 295.684 80.4927 293.478 77.4864C291.272 74.4802 290.123 69.3927 290.123 62.2239C290.123 55.0551 291.318 50.0138 293.708 47.1463C296.098 44.2788 300.143 42.7988 305.75 42.7988Z" fill="black"/>
</g>
<defs>
<clipPath id="clip0">
<rect width="316" height="109" fill="white"/>
</clipPath>
</defs>
</svg>
