<svg width="410" height="137" viewBox="0 0 410 137" fill="none" xmlns="http://www.w3.org/2000/svg">
<path d="M0 0H370C392.091 0 410 17.9086 410 40V137H40C17.9086 137 0 119.091 0 97V0Z" fill="white"/>
<g clip-path="url(#clip0)">
<path d="M162.309 67.8285C162.317 64.3447 161.254 60.9437 159.265 58.0918C157.277 55.2399 154.461 53.0766 151.204 51.8983C151.872 48.3881 151.762 44.7729 150.884 41.31C150.005 37.8472 148.378 34.6219 146.12 31.8638C143.861 29.1057 141.027 26.8827 137.817 25.353C134.608 23.8233 131.102 23.0246 127.551 23.0137C123.735 23.0091 119.973 23.9182 116.575 25.666C113.177 27.4137 110.241 29.95 108.009 33.0653C106.115 31.5933 103.85 30.685 101.469 30.4434C99.0887 30.2018 96.6885 30.6365 94.5411 31.6982C92.3936 32.76 90.5848 34.4062 89.3199 36.4502C88.055 38.4942 87.3847 40.854 87.385 43.262C87.3903 44.7966 87.6587 46.3188 88.1782 47.7616C84.9094 48.9385 82.0813 51.1026 80.0806 53.9581C78.0798 56.8136 77.004 60.2212 77 63.7152C76.9961 67.2093 78.0642 70.6193 80.0585 73.4794C82.0528 76.3394 84.876 78.51 88.1422 79.6944C87.0928 85.1121 87.9161 90.7281 90.4754 95.61C93.0347 100.492 97.176 104.346 102.212 106.533C107.248 108.719 112.875 109.107 118.16 107.631C123.445 106.155 128.069 102.904 131.265 98.4186C133.49 100.198 136.247 101.17 139.089 101.176C142.484 101.175 145.739 99.818 148.139 97.4023C150.539 94.9867 151.888 91.7107 151.889 88.2945C151.884 86.7598 151.615 85.2377 151.096 83.7949C154.364 82.6082 157.191 80.4409 159.196 77.5857C161.202 74.7305 162.288 71.3248 162.309 67.8285Z" fill="white"/>
<path d="M110.532 59.845L129.209 68.4088L148.03 51.7893C148.309 50.4162 148.441 49.0174 148.427 47.6162C148.43 43.0927 146.994 38.6871 144.328 35.0449C141.663 31.4027 137.909 28.7153 133.615 27.3764C129.322 26.0376 124.716 26.1177 120.471 27.605C116.226 29.0923 112.566 31.9087 110.027 35.6414L106.891 52.007L110.532 59.845Z" fill="#FED10A"/>
<path d="M91.2024 79.7307C90.9242 81.1282 90.7913 82.5511 90.8058 83.9763C90.8113 88.5185 92.2623 92.9395 94.9462 96.5914C97.6301 100.243 101.406 102.934 105.72 104.269C110.034 105.604 114.659 105.513 118.918 104.009C123.177 102.506 126.845 99.6692 129.386 95.9148L132.486 79.6218L128.34 71.6386L109.591 63.0386L91.2024 79.7307Z" fill="#24BBB1"/>
<path d="M91.0975 47.2167L103.897 50.2648L106.71 35.641C104.973 34.3031 102.852 33.5687 100.666 33.5483C98.4789 33.5279 96.3447 34.2227 94.5841 35.5281C92.8235 36.8335 91.5317 38.6789 90.9029 40.7869C90.2741 42.8948 90.3424 45.1512 91.0975 47.2167Z" fill="#EF5098"/>
<path d="M89.9795 50.3013C87.2102 51.2159 84.7906 52.9718 83.0538 55.3274C81.317 57.6831 80.3483 60.5226 80.2811 63.4551C80.2139 66.3876 81.0514 69.2691 82.6785 71.7028C84.3055 74.1365 86.6421 76.0029 89.3666 77.045L107.322 60.7157L104.041 53.6397L89.9795 50.3013Z" fill="#17A8E0"/>
<path d="M132.633 95.9146C134.37 97.2363 136.486 97.9571 138.664 97.9694C140.842 97.9816 142.965 97.2847 144.717 95.9826C146.469 94.6805 147.756 92.8431 148.385 90.7446C149.015 88.6462 148.953 86.3991 148.209 84.339L135.445 81.3271L132.633 95.9146Z" fill="#93C83E"/>
<path d="M135.229 77.9523L149.291 81.2545C152.06 80.3399 154.48 78.5839 156.217 76.2283C157.954 73.8727 158.922 71.0332 158.99 68.1006C159.057 65.1681 158.219 62.2867 156.592 59.853C154.965 57.4192 152.629 55.5529 149.904 54.5107L131.516 70.7312L135.229 77.9523Z" fill="#0779A1"/>
<path d="M196.273 83.0693L197.968 82.8878L198.076 86.3714C194.279 86.9409 190.448 87.256 186.61 87.3149C182.391 87.3149 179.399 86.0811 177.632 83.6136C175.865 81.146 175 77.2996 175 72.1105C175 61.7323 179.098 56.5433 187.295 56.5433C191.261 56.5433 194.218 57.6682 196.165 59.8817C198.112 62.0952 199.085 65.6151 199.085 70.3687L198.833 73.7434H179.435C179.435 77.0093 180.012 79.4405 181.202 81.0009C182.391 82.5612 184.411 83.3596 187.331 83.3596C190.315 83.4248 193.3 83.3279 196.273 83.0693ZM194.687 70.2599C194.687 66.6311 194.11 64.0547 192.956 62.567C191.802 61.0792 189.927 60.3171 187.331 60.3171C184.735 60.3171 182.752 61.1155 181.454 62.6758C180.156 64.2362 179.471 66.7763 179.435 70.2599H194.687ZM205.215 86.7706V44.3145H209.614V86.7706H205.215ZM237.413 66.1231V80.6743C237.413 82.1621 241.054 82.4524 241.054 82.4524L240.838 86.3714C237.737 86.3714 235.177 86.6254 233.627 85.1376C230.299 86.6154 226.699 87.3697 223.062 87.3512C220.358 87.3512 218.303 86.5891 216.897 85.0288C215.491 83.4684 214.77 81.2912 214.77 78.3882C214.77 75.4852 215.491 73.3806 216.933 72.0379C218.375 70.6953 220.647 69.8244 223.748 69.5341L232.978 68.6632V66.1231C232.978 64.1273 232.545 62.6758 231.68 61.8049C230.814 60.934 229.625 60.4986 228.146 60.4986H216.572V56.5796H227.858C231.175 56.5796 233.591 57.3416 235.105 58.9019C236.619 60.4623 237.413 62.8573 237.413 66.1231ZM219.313 78.1705C219.313 81.7992 220.791 83.6136 223.784 83.6136C226.46 83.6192 229.119 83.1651 231.644 82.2709L232.978 81.7992V72.0379L224.288 72.8725C222.522 73.0177 221.26 73.5257 220.466 74.3966C219.673 75.2675 219.313 76.5376 219.313 78.1705ZM254.611 60.5349C250.357 60.5349 248.193 62.0226 248.193 65.0345C248.193 66.4134 248.698 67.3932 249.672 67.9738C250.645 68.5544 252.881 69.135 256.378 69.7518C259.875 70.3687 262.327 71.2033 263.77 72.3282C265.212 73.4531 265.933 75.4852 265.933 78.5334C265.933 81.5815 264.959 83.795 263.012 85.2102C261.065 86.6254 258.253 87.3512 254.503 87.3512C252.087 87.3512 243.975 86.444 243.975 86.444L244.227 82.5975C248.878 83.033 252.268 83.3959 254.539 83.3959C256.811 83.3959 258.541 83.033 259.731 82.3072C260.921 81.5815 261.534 80.3477 261.534 78.6422C261.534 76.9367 261.029 75.7755 260.02 75.1586C259.01 74.5418 256.775 73.9612 253.313 73.4168C249.852 72.8725 247.4 72.0742 245.958 70.9856C244.516 69.897 243.795 67.9375 243.795 65.0708C243.795 62.2041 244.804 60.0631 246.823 58.6842C248.842 57.3053 251.366 56.6158 254.359 56.6158C256.739 56.6158 265.031 57.2327 265.031 57.2327V61.1155C260.669 60.8615 257.099 60.5349 254.611 60.5349ZM287.206 61.0429H277.867V75.1949C277.867 78.5696 278.12 80.8195 278.588 81.8718C279.057 82.9241 280.247 83.4684 282.086 83.4684L287.314 83.1056L287.602 86.7706C285.626 87.1391 283.626 87.3574 281.617 87.4237C278.552 87.4237 276.461 86.6617 275.271 85.1739C274.082 83.6862 273.505 80.8195 273.505 76.6101V61.0429H269.322V57.1964H273.505V48.1246H277.867V57.1601H287.206V61.0429ZM293.335 50.4833V45.3668H297.734V50.5196L293.335 50.4833ZM293.335 86.7706V57.1964H297.734V86.7706H293.335ZM316.844 56.5796C318.142 56.5796 320.341 56.8336 323.442 57.3053L324.848 57.4867L324.668 61.0792C322.371 60.7784 320.06 60.5967 317.745 60.5349C314.428 60.5349 312.156 61.3332 310.967 62.9298C309.777 64.5265 309.164 67.502 309.164 71.8202C309.164 76.1384 309.705 79.1502 310.822 80.8557C311.94 82.5612 314.248 83.3959 317.781 83.3959L324.704 82.8515L324.884 86.5166C321.243 87.0609 318.502 87.3512 316.7 87.3512C312.12 87.3512 308.948 86.1537 307.217 83.795C305.486 81.4363 304.585 77.4447 304.585 71.8202C304.585 66.1957 305.522 62.2404 307.397 59.9906C309.272 57.7407 312.445 56.5796 316.844 56.5796Z" fill="black"/>
</g>
<defs>
<clipPath id="clip0">
<rect width="247.884" height="85.52" fill="white" transform="translate(77 23)"/>
</clipPath>
</defs>
</svg>
