<svg width="280" height="94" viewBox="0 0 280 94" fill="none" xmlns="http://www.w3.org/2000/svg">
<path d="M0 0H239.01C261.101 0 279.009 17.9086 279.009 40V93.23H40C17.9086 93.23 0 75.3214 0 53.23V0Z" fill="white"/>
<g clip-path="url(#clip0)">
<path d="M92.579 59.277L91.1079 60.4049L91.343 62.2515L93.0455 62.972L94.5166 61.844L94.2815 59.9956L92.579 59.277ZM36.4718 47.0085L34.0273 48.8847L34.4167 51.9592L37.2505 53.1557L39.695 51.2795L39.3056 48.205L36.4718 47.0085ZM47.0119 42.2967L46.7401 40.1408L44.4591 39.1777L42.4921 40.6872L42.6996 42.3171L40.9494 43.6599L41.4746 47.8068L45.2984 49.4237L48.5968 46.89L48.0716 42.7431L47.0119 42.2967Z" fill="#1A1233"/>
<path d="M91.5111 41.2575L93.4137 36.1086L93.164 30.9023L92.9252 28.137L91.0207 28.0944L89.3274 30.6874L89.3127 29.0205L88.084 28.3093L86.6148 29.5317L85.7093 34.2935L86.6148 40.3499C86.6148 40.3499 85.3935 40.9056 85.2006 40.9889C85.1051 41.0315 84.8498 41.1501 84.5909 41.2797L84.4072 39.8406L77.4925 36.9198L77.0793 37.2365L76.9122 35.9086L68.7762 32.4729L66.4493 34.2583L64.2858 33.3434L61.8597 35.1955L59.6044 34.2435L62.3243 32.1562L61.6889 27.135L57.0589 25.1792L53.0644 28.2463L53.5804 32.321L50.6603 34.5621L51.0092 37.3236L50.0469 38.0644L51.0974 46.3564L58.743 49.5865L62.8386 46.4379L62.8698 46.675L65.1288 47.6306L65.6081 51.4201L72.2198 54.2131L73.239 53.4315L75.981 54.841L75.7313 57.7414L81.0096 63.6034V63.633L81.0463 63.6478L81.1767 63.7904L81.2832 63.7478L82.3852 64.2146L83.5752 63.3015L83.3916 61.8068L82.0527 61.2512L81.9646 61.1512L80.8737 58.0544L82.1593 54.4687L82.3154 54.4335L82.2933 54.4502L82.6606 57.4025L85.1676 58.46L85.3273 59.7306L87.6377 60.7066L89.6304 59.1768L89.3145 56.6709L87.6341 55.9615L87.3604 53.7964L86.5505 53.4556L87.511 53.2333H92.5616L95.1162 51.5053V44.9784L91.5111 41.2575Z" fill="#1A1233"/>
<path opacity="0.77" d="M84.4051 39.8353L77.4904 36.9146L71.5234 41.493L72.4729 48.9923L79.3895 51.9131L85.3546 47.3346L84.4051 39.8353Z" fill="#A1BEFF"/>
<path opacity="0.74" d="M76.9054 35.9029L68.7694 32.4653L61.75 37.8532L62.8666 46.6785L71.0026 50.1142L78.0238 44.7282L76.9054 35.9029Z" fill="#A1BEFF"/>
<path opacity="0.79" d="M64.2895 36.2272L56.6438 32.9971L50.0469 38.0608L51.0956 46.3546L58.743 49.5828L65.34 44.521L64.2895 36.2272Z" fill="#A1BEFF"/>
<path d="M57.483 33.6841L53.8209 32.1357L50.6602 34.562L51.1634 38.533L54.8255 40.0795L57.9862 37.6551L57.483 33.6841Z" fill="black"/>
<path opacity="0.37" d="M68.3984 35.0752L64.2845 33.3379L60.7344 36.0624L61.2982 40.526L65.414 42.2633L68.964 39.5388L68.3984 35.0752Z" fill="#A1BEFF"/>
<path d="M89.3119 56.6693L87.6314 55.9599L87.3578 53.7967L84.6341 52.6465L82.2852 54.4486L82.6598 57.4027L85.1649 58.4603L85.3265 59.729L87.6369 60.7051L89.6296 59.1752L89.3119 56.6693Z" fill="black"/>
<path d="M83.3815 61.8068L82.004 61.2252L80.8158 62.1364L81.0049 63.6311L82.3824 64.2127L83.5706 63.3014L83.3815 61.8068ZM94.2815 59.9954L92.579 59.2768L91.1079 60.4047L91.343 62.2513L93.0455 62.9718L94.5166 61.8438L94.2815 59.9954ZM39.3056 48.2048L36.4718 47.0083L34.0273 48.8845L34.4167 51.959L37.2505 53.1555L39.695 51.2793L39.3056 48.2048Z" fill="#A1BEFF"/>
<path opacity="0.29" d="M48.0714 42.743L44.2477 41.1279L40.9492 43.6598L41.4745 47.8067L45.2982 49.4236L48.5967 46.8899L48.0714 42.743Z" fill="#A1BEFF"/>
<path opacity="0.46" d="M83.2103 42.1206C83.3939 41.9354 84.9991 41.0704 85.1919 40.9834L86.6061 40.3444L85.7006 34.288L86.6061 29.5261L88.0753 28.3037L89.304 29.0335L89.3187 30.7004L91.012 28.1074L92.9165 28.15L93.1553 30.9152L93.405 36.1216L91.5024 41.2705L95.1039 44.9747V51.5109L92.5492 53.2389H87.4986L82.1561 54.4687L80.8705 58.0544L81.9504 61.1438L83.4912 62.8644L81.1662 63.7904L75.7281 57.7414L75.9889 54.8447L72.3672 52.9815L71.3203 44.9784L77.37 40.5222L83.2103 42.1206Z" fill="#A1BEFF"/>
<path d="M83.9559 41.6447C84.1396 41.4595 84.9991 41.0631 85.1919 40.9761L86.6061 40.3371L85.7006 34.2806L86.6061 29.5188L88.0753 28.2964L89.304 29.0262L89.3187 30.6931L91.012 28.1001L92.9165 28.1427L93.1553 30.9079L93.405 36.1142L91.5024 41.2631L95.1039 44.9674V51.5035L92.5492 53.2316H87.4986L82.1561 54.4688L80.8705 58.0545L81.9504 61.1438L83.4912 62.8645L81.1662 63.7905L75.7281 57.7415L75.9889 54.8448L72.3672 52.9815L71.3203 44.9785L78.0201 39.0962L83.9559 41.6447Z" fill="#A1BEFF"/>
<path d="M46.7402 40.1408L44.4592 39.1777L42.4922 40.6872L42.8062 43.1598L45.0854 44.1229L47.0524 42.6134L46.7402 40.1408Z" fill="black"/>
<path d="M77.0189 42.665L70.4054 39.8701L64.6992 44.2504L65.6083 51.4218L72.2218 54.2167L77.9262 49.8364L77.0189 42.665Z" fill="black"/>
<path d="M78.9867 41.9522L73.9674 39.8315L69.6367 43.1561L70.3273 48.5995L75.3466 50.7183L79.6754 47.3956L78.9867 41.9522Z" fill="black"/>
<path d="M61.6891 27.135L57.0591 25.1792L53.0664 28.2445L53.7019 33.2656L58.33 35.2214L62.3245 32.1562L61.6891 27.135Z" fill="#A1BEFF"/>
<g style="mix-blend-mode:color" opacity="0.3">
<g style="mix-blend-mode:color" opacity="0.3">
<path d="M92.579 59.277L91.1079 60.4049L91.343 62.2515L93.0455 62.972L94.5166 61.844L94.2815 59.9956L92.579 59.277ZM36.4718 47.0085L34.0273 48.8847L34.4167 51.9592L37.2505 53.1557L39.695 51.2795L39.3056 48.205L36.4718 47.0085ZM47.0119 42.2967L46.7401 40.1408L44.4591 39.1777L42.4921 40.6872L42.6996 42.3171L40.9494 43.6599L41.4746 47.8068L45.2984 49.4237L48.5968 46.89L48.0716 42.7431L47.0119 42.2967Z" fill="#1A1233"/>
</g>
<g style="mix-blend-mode:color" opacity="0.3">
<path d="M91.5111 41.2575L93.4137 36.1086L93.164 30.9023L92.9252 28.137L91.0207 28.0944L89.3274 30.6874L89.3127 29.0205L88.084 28.3093L86.6148 29.5317L85.7093 34.2935L86.6148 40.3499C86.6148 40.3499 85.3935 40.9056 85.2006 40.9889C85.1051 41.0315 84.8498 41.1501 84.5909 41.2797L84.4072 39.8406L77.4925 36.9198L77.0793 37.2365L76.9122 35.9086L68.7762 32.4729L66.4493 34.2583L64.2858 33.3434L61.8597 35.1955L59.6044 34.2435L62.3243 32.1562L61.6889 27.135L57.0589 25.1792L53.0644 28.2463L53.5804 32.321L50.6603 34.5621L51.0092 37.3236L50.0469 38.0644L51.0974 46.3564L58.743 49.5865L62.8386 46.4379L62.8698 46.675L65.1288 47.6306L65.6081 51.4201L72.2198 54.2131L73.239 53.4315L75.981 54.841L75.7313 57.7414L81.0096 63.6034V63.633L81.0463 63.6478L81.1767 63.7904L81.2832 63.7478L82.3852 64.2146L83.5752 63.3015L83.3916 61.8068L82.0527 61.2512L81.9646 61.1512L80.8737 58.0544L82.1593 54.4687L82.3154 54.4335L82.2933 54.4502L82.6606 57.4025L85.1676 58.46L85.3273 59.7306L87.6377 60.7066L89.6304 59.1768L89.3145 56.6709L87.6341 55.9615L87.3604 53.7964L86.5505 53.4556L87.511 53.2333H92.5616L95.1162 51.5053V44.9784L91.5111 41.2575Z" fill="#1A1233"/>
</g>
<path style="mix-blend-mode:color" opacity="0.3" d="M92.5766 59.2769L91.1055 60.4048L91.3405 62.2514L93.0431 62.9718L94.5141 61.8439L94.2791 59.9955L92.5766 59.2769Z" fill="url(#paint0_linear)"/>
<path style="mix-blend-mode:color" opacity="0.3" d="M36.4718 47.0083L34.0273 48.8845L34.4167 51.959L37.2505 53.1555L39.695 51.2793L39.3056 48.2048L36.4718 47.0083Z" fill="url(#paint1_linear)"/>
<path style="mix-blend-mode:color" opacity="0.3" d="M47.0117 42.2967L46.7399 40.1408L44.4589 39.1777L42.4919 40.6872L42.6995 42.3171L40.9492 43.6599L41.4745 47.8068L45.2982 49.4237L48.5967 46.89L48.0714 42.7431L47.0117 42.2967Z" fill="url(#paint2_linear)"/>
<path style="mix-blend-mode:color" opacity="0.3" d="M91.5111 41.2575L93.4137 36.1086L93.164 30.9023L92.9252 28.137L91.0207 28.0944L89.3274 30.6874L89.3127 29.0205L88.084 28.3093L86.6148 29.5317L85.7093 34.2935L86.6148 40.3499C86.6148 40.3499 85.3935 40.9056 85.2006 40.9889C85.1051 41.0315 84.8498 41.1501 84.5909 41.2797L84.4072 39.8406L77.4925 36.9198L77.0793 37.2365L76.9122 35.9086L68.7762 32.4729L66.4493 34.2583L64.2858 33.3434L61.8597 35.1955L59.6044 34.2435L62.3243 32.1562L61.6889 27.135L57.0589 25.1792L53.0644 28.2463L53.5804 32.321L50.6603 34.5621L51.0092 37.3236L50.0469 38.0644L51.0974 46.3564L58.743 49.5865L62.8386 46.4379L62.8698 46.675L65.1288 47.6306L65.6081 51.4201L72.2198 54.2131L73.239 53.4315L75.981 54.841L75.7313 57.7414L81.0096 63.6034V63.633L81.0463 63.6478L81.1767 63.7904L81.2832 63.7478L82.3852 64.2146L83.5752 63.3015L83.3916 61.8068L82.0527 61.2512L81.9646 61.1512L80.8737 58.0544L82.1593 54.4687L82.3154 54.4335L82.2933 54.4502L82.6606 57.4025L85.1676 58.46L85.3273 59.7306L87.6377 60.7066L89.6304 59.1768L89.3145 56.6709L87.6341 55.9615L87.3604 53.7964L86.5505 53.4556L87.511 53.2333H92.5616L95.1162 51.5053V44.9784L91.5111 41.2575Z" fill="url(#paint3_linear)"/>
</g>
<path d="M94.2796 59.9973L94.5129 61.8494L93.0436 62.9773L91.3411 62.2532L91.1079 60.401L92.5771 59.2731L94.2796 59.9973ZM36.4718 47.0157L34.0273 48.8864L34.4075 51.9591L37.2413 53.1574L39.695 51.2756L39.3056 48.203L36.4718 47.0157ZM47.0119 42.3021L46.7382 40.1481L44.4591 39.185L42.4884 40.6889L42.6941 42.3169L40.9439 43.6615L41.4691 47.8085L45.2965 49.4235L48.6024 46.8917L48.0716 42.7447L47.0119 42.3021ZM91.5101 41.263L93.4128 36.1141L93.163 30.9023L92.9243 28.137L91.0197 28.0944L89.3264 30.6874L89.3117 29.0205L88.0831 28.3093L86.6138 29.5317L85.7084 34.2935L86.6138 40.3499C86.6138 40.3499 85.3925 40.9056 85.1996 40.9889C85.1041 41.0315 84.8489 41.1501 84.5899 41.2797L84.4062 39.8406L77.4916 36.9198L77.0783 37.2365L76.9112 35.9086L68.7752 32.4729L66.4483 34.2583L64.2848 33.3434L61.8587 35.1955L59.6034 34.2435L62.3234 32.1562L61.6879 27.135L57.0579 25.1792L53.0634 28.2463L53.5795 32.321L50.6593 34.5621L51.0083 37.3236L50.0459 38.0644L51.0964 46.3564L58.742 49.5865L62.8376 46.4379L62.8688 46.675L65.1278 47.6306L65.6071 51.4201L72.2188 54.2131L73.2381 53.4315L75.9801 54.841L75.7303 57.7414L81.0086 63.6034V63.633L81.0453 63.6478L81.1757 63.7904L81.2823 63.7478L82.3842 64.2146L83.5743 63.3015L83.3906 61.8068L82.0518 61.2512L81.9636 61.1512L80.8727 58.0544L82.1583 54.4687L82.3144 54.4335L82.2924 54.4502L82.6597 57.4025L85.1666 58.46L85.3264 59.7306L87.6368 60.7066L89.6295 59.1768L89.3136 56.6709L87.6331 55.9615L87.3595 53.7964L86.5495 53.4556L87.5101 53.2333H92.5606L95.1153 51.5053V44.9784L91.5101 41.263Z" fill="url(#paint4_linear)"/>
<path d="M105.91 51.533V51.244C105.91 44.4764 108.759 41.0926 114.458 41.0926C115.563 41.077 116.661 41.2698 117.695 41.6612C118.538 41.9647 119.32 42.4183 120.004 43.0002C120.619 43.5748 121.128 44.2561 121.504 45.0116C121.868 45.6881 122.175 46.3937 122.423 47.1212C122.629 47.8066 122.772 48.5097 122.851 49.2215C122.951 50.0179 123.002 50.5186 123.003 50.7236V51.57L122.928 52.9573H108.737C108.915 54.9329 109.515 56.3683 110.535 57.2634C111.555 58.1586 113.066 58.6044 115.069 58.6007C117.9 58.6007 120.127 58.113 121.751 57.1375V60.0657C119.871 60.977 117.593 61.4326 114.917 61.4326H114.801C113.74 61.4432 112.683 61.3036 111.66 61.0177C110.648 60.7109 109.697 60.2255 108.852 59.5842C107.933 58.9026 107.212 57.8784 106.691 56.5115C106.169 55.1446 105.909 53.4851 105.91 51.533ZM108.737 50.4347H120.177C120.17 49.9298 120.116 49.4268 120.013 48.9326C119.853 48.207 119.635 47.4954 119.363 46.8045C119.018 45.9127 118.401 45.1541 117.602 44.6375C116.754 44.0597 115.706 43.7707 114.456 43.7707C112.516 43.7707 111.108 44.2776 110.232 45.2913C109.355 46.3051 108.857 48.0195 108.737 50.4347ZM127.646 68.4243V47.3101C127.649 46.7625 127.729 46.218 127.885 45.6932C128.116 44.9889 128.437 44.3182 128.842 43.6985C129.319 42.9218 130.147 42.2927 131.326 41.8112C132.506 41.3296 133.956 41.0889 135.677 41.0889C136.392 41.0856 137.106 41.1476 137.81 41.2741C138.602 41.4391 139.364 41.7311 140.065 42.139C140.871 42.5846 141.582 43.1856 142.159 43.9078C142.744 44.6375 143.238 45.6531 143.641 46.9545C144.065 48.4351 144.266 49.9717 144.236 51.5126C144.236 53.4684 143.974 55.1317 143.451 56.5022C142.929 57.8728 142.211 58.8989 141.297 59.5805C140.449 60.2242 139.493 60.7109 138.476 61.0177C137.449 61.3035 136.388 61.4432 135.323 61.4326C133.68 61.4241 132.047 61.1676 130.48 60.6714V68.4243H127.646ZM130.472 57.7746C132.002 58.4373 133.651 58.7716 135.315 58.7563C137.45 58.7563 139 58.1858 139.967 57.0449C140.935 55.904 141.418 54.0469 141.417 51.4737C141.417 49.8216 141.241 48.4449 140.891 47.3435C140.541 46.2421 140.051 45.4395 139.422 44.9357C138.89 44.4905 138.278 44.1517 137.62 43.9374C136.987 43.7627 136.332 43.6786 135.675 43.6874C132.218 43.6874 130.483 44.853 130.471 47.1842L130.472 57.7746ZM147.968 46.7823C147.957 46.0278 148.104 45.2796 148.399 44.586C148.693 43.8923 149.129 43.2688 149.677 42.7558C150.816 41.6445 152.557 41.0889 154.901 41.0889C156.637 41.1047 158.347 41.5136 159.905 42.2853V45.1191C158.492 44.2398 156.866 43.7719 155.205 43.767C152.267 43.767 150.798 44.7709 150.798 46.7786C150.798 47.4614 151.155 48.0121 151.868 48.4307C152.691 48.8929 153.57 49.2435 154.484 49.4734C155.516 49.75 156.547 50.0815 157.578 50.468C158.618 50.8605 159.528 51.5394 160.205 52.4276C160.923 53.3474 161.283 54.5205 161.283 55.9466C161.283 57.6567 160.65 58.997 159.384 59.9676C158.118 60.9381 156.364 61.4233 154.122 61.4233C152.061 61.4501 150.027 60.9398 148.219 59.9416V56.9412C150.094 58.1031 152.021 58.684 154.003 58.684C156.97 58.684 158.454 57.7765 158.453 55.9614C158.453 54.9835 158.096 54.2173 157.384 53.6629C156.602 53.0761 155.713 52.6529 154.767 52.4183C153.736 52.1405 152.704 51.838 151.672 51.5108C150.667 51.1966 149.762 50.6218 149.047 49.8438C148.328 49.0697 147.968 48.0491 147.968 46.7823ZM164.833 55.0761C164.819 54.2569 164.985 53.4448 165.319 52.698C165.602 52.0552 166.008 51.475 166.513 50.9903C167.045 50.5196 167.652 50.1438 168.309 49.879C168.935 49.6045 169.579 49.3767 170.238 49.1975C170.894 49.0361 171.561 48.9259 172.234 48.8678C173.003 48.7912 173.55 48.7468 173.876 48.7344C174.201 48.7215 174.585 48.714 175.031 48.714L178.164 48.8993C178.164 47.1126 177.684 45.8377 176.725 45.0746C175.765 44.3115 174.344 43.93 172.464 43.93C170.521 43.9017 168.588 44.2209 166.756 44.8727V42.1131C168.637 41.4386 170.619 41.0923 172.616 41.0889C175.351 41.0889 177.437 41.7852 178.873 43.178C180.31 44.5708 181.028 46.6082 181.029 49.2901V55.2039C181.029 56.4633 180.74 57.5388 180.161 58.4303C179.625 59.2856 178.848 59.9597 177.929 60.3658C177.11 60.7347 176.252 61.0123 175.373 61.1937C174.596 61.3458 173.807 61.4233 173.017 61.4252C172.4 61.424 171.783 61.3851 171.171 61.3085C170.441 61.2102 169.723 61.0352 169.029 60.7862C168.289 60.5376 167.59 60.1793 166.954 59.7231C166.318 59.2311 165.805 58.5971 165.454 57.8709C165.025 57.0038 164.812 56.0447 164.833 55.0761ZM167.659 55.0761C167.659 57.5295 169.426 58.7563 172.96 58.7563H173.017C176.473 58.7563 178.202 57.5678 178.203 55.1909V51.4163C177.054 51.2419 175.893 51.1644 174.732 51.1848C170.018 51.1848 167.66 52.4819 167.659 55.0761ZM185.307 51.1959C185.307 49.1388 185.581 47.3941 186.13 45.9618C186.678 44.5295 187.413 43.4849 188.334 42.828C189.849 41.6715 191.704 41.0594 193.604 41.0889C195.271 41.0889 196.67 41.3235 197.803 41.7927C198.935 42.2619 199.731 42.865 200.19 43.6022C200.577 44.1985 200.886 44.8428 201.109 45.5191C201.264 46.0376 201.345 46.5759 201.347 47.1175V61.9493C201.358 62.7669 201.233 63.5804 200.98 64.3571C200.702 65.1418 200.285 65.8691 199.75 66.5037C199.179 67.2038 198.305 67.7496 197.127 68.141C195.949 68.5324 194.528 68.7287 192.864 68.7299C190.99 68.7225 189.125 68.483 187.309 68.0169V65.3517C189.018 65.833 190.785 66.073 192.559 66.0647C193.614 66.084 194.667 65.9689 195.693 65.7221C196.537 65.4974 197.15 65.1776 197.529 64.7627C197.872 64.4083 198.138 63.9857 198.31 63.5218C198.461 63.043 198.532 62.5423 198.521 62.0401V60.0787C197.043 60.5607 195.498 60.8033 193.944 60.7973C193.13 60.8021 192.317 60.7276 191.516 60.575C190.708 60.4068 189.931 60.1112 189.213 59.699C188.437 59.27 187.751 58.6932 187.193 58.0006C186.631 57.3079 186.175 56.3818 185.825 55.2224C185.457 53.9133 185.282 52.5565 185.307 51.1959ZM188.133 51.1848C188.133 52.6665 188.289 53.8833 188.602 54.8353C188.914 55.7873 189.369 56.4967 189.966 56.9634C190.505 57.3929 191.124 57.7079 191.786 57.8895C192.495 58.0572 193.22 58.1374 193.948 58.1284C195.517 58.1279 197.071 57.8209 198.525 57.2246V47.0156C198.525 44.8067 196.885 43.7022 193.604 43.7022C192.973 43.6931 192.344 43.7773 191.737 43.9522C191.111 44.1633 190.529 44.4899 190.021 44.9153C189.425 45.3907 188.961 46.1612 188.629 47.2268C188.297 48.2924 188.131 49.6117 188.13 51.1848H188.133ZM206.279 56.3763C205.731 54.9699 205.458 53.2653 205.458 51.2626C205.458 49.2598 205.731 47.5552 206.279 46.1489C206.826 44.7437 207.571 43.6942 208.514 43.0002C209.379 42.3418 210.352 41.8405 211.388 41.5185C212.437 41.2192 213.524 41.0732 214.615 41.0851C215.712 41.0742 216.805 41.2201 217.862 41.5185C218.905 41.8377 219.885 42.3393 220.756 43.0002C221.698 43.6929 222.443 44.7425 222.991 46.1489C223.54 47.5552 223.814 49.2598 223.812 51.2626C223.812 53.2666 223.539 54.9711 222.991 56.3763C222.444 57.7814 221.699 58.831 220.756 59.5249C219.884 60.182 218.904 60.6803 217.862 60.9973C216.805 61.2958 215.712 61.4417 214.615 61.4307C213.524 61.4426 212.437 61.2967 211.388 60.9973C210.353 60.6781 209.382 60.1805 208.516 59.5267C207.57 58.8328 206.825 57.7827 206.279 56.3763ZM209.801 45.5043C208.796 46.7094 208.293 48.6288 208.293 51.2626C208.293 53.8963 208.796 55.8145 209.801 57.0171C210.808 58.2235 212.418 58.8266 214.633 58.8266C216.848 58.8266 218.462 58.2296 219.476 57.0356C220.488 55.8416 220.994 53.9154 220.995 51.257C220.996 48.5986 220.49 46.6724 219.476 45.4784C218.464 44.2844 216.849 43.6874 214.633 43.6874C212.417 43.6874 210.806 44.293 209.801 45.5043ZM228.301 61.1251V43.0188C230.868 41.7332 233.699 41.0734 236.565 41.0926C239.02 41.0926 240.925 41.7217 242.279 42.9799C243.633 44.2381 244.31 46.0106 244.31 48.2973V61.1251H241.484V48.2973C241.491 47.798 241.434 47.2999 241.313 46.8156C241.167 46.3226 240.942 45.857 240.646 45.4376C240.316 44.9499 239.782 44.5745 239.045 44.3115C238.145 44.0243 237.204 43.891 236.261 43.917C234.523 43.9319 232.796 44.1976 231.133 44.706V61.1177L228.301 61.1251Z" fill="black"/>
</g>
<defs>
<linearGradient id="paint0_linear" x1="41.7642" y1="42.8207" x2="91.4448" y2="60.3366" gradientUnits="userSpaceOnUse">
<stop stop-color="#5CCD53"/>
<stop offset="0.99" stop-color="#0000F3"/>
</linearGradient>
<linearGradient id="paint1_linear" x1="185.75" y1="898.333" x2="1742.21" y2="1408.57" gradientUnits="userSpaceOnUse">
<stop stop-color="#5CCD53"/>
<stop offset="0.99" stop-color="#0000F3"/>
</linearGradient>
<linearGradient id="paint2_linear" x1="358.472" y1="1032.93" x2="2531.3" y2="1609.56" gradientUnits="userSpaceOnUse">
<stop stop-color="#5CCD53"/>
<stop offset="0.99" stop-color="#0000F3"/>
</linearGradient>
<linearGradient id="paint3_linear" x1="3762.86" y1="4615.74" x2="15493.1" y2="9431.21" gradientUnits="userSpaceOnUse">
<stop stop-color="#5CCD53"/>
<stop offset="0.99" stop-color="#0000F3"/>
</linearGradient>
<linearGradient id="paint4_linear" x1="34.0273" y1="44.6969" x2="95.1116" y2="44.6969" gradientUnits="userSpaceOnUse">
<stop offset="0.49" stop-color="white" stop-opacity="0"/>
<stop offset="0.99" stop-color="white" stop-opacity="0.8"/>
</linearGradient>
<clipPath id="clip0">
<rect width="210.278" height="43.5527" fill="white" transform="translate(34.0273 25.1792)"/>
</clipPath>
</defs>
</svg>
