<svg width="289" height="59" viewBox="0 0 289 59" fill="none" xmlns="http://www.w3.org/2000/svg">
<g clip-path="url(#clip0)">
<path d="M80.4717 46.1912L78.4499 47.7192L78.773 50.2207L81.1129 51.1967L83.1347 49.6687L82.8116 47.1647L80.4717 46.1912ZM3.35961 29.5713L0 32.113L0.535115 36.278L4.42984 37.8988L7.78946 35.3572L7.25434 31.1922L3.35961 29.5713ZM17.8456 23.1884L17.472 20.2678L14.337 18.9631L11.6337 21.008L11.9189 23.216L9.51344 25.035L10.2353 30.6527L15.4906 32.8431L20.0239 29.4108L19.302 23.793L17.8456 23.1884Z" fill="white"/>
<path d="M79.0029 21.781L81.6179 14.8058L81.2746 7.75292L80.9464 4.00693L78.3289 3.94922L76.0017 7.46188L75.9815 5.20374L74.2928 4.24027L72.2735 5.89624L71.0291 12.347L72.2735 20.5515C72.2735 20.5515 70.595 21.3042 70.33 21.4171C70.1987 21.4748 69.8479 21.6354 69.4919 21.8111L69.2395 19.8615L59.7362 15.9048L59.1683 16.3338L58.9386 14.5349L47.7567 9.88059L44.5586 12.2993L41.5852 11.0598L38.2508 13.5689L35.1512 12.2792L38.8894 9.45154L38.0161 2.64954L31.6527 0L26.1628 4.15497L26.872 9.67485L22.8587 12.7108L23.3383 16.4518L22.0156 17.4554L23.4594 28.6883L33.9674 33.0641L39.5962 28.7987L39.6391 29.1199L42.7438 30.4145L43.4026 35.548L52.4894 39.3317L53.8903 38.2729L57.6588 40.1822L57.3156 44.1114L64.5699 52.0525V52.0926L64.6204 52.1127L64.7996 52.3059L64.946 52.2482L66.4605 52.8805L68.0961 51.6435L67.8437 49.6187L66.0036 48.866L65.8824 48.7305L64.3831 44.5354L66.15 39.6779L66.3646 39.6302L66.3343 39.6528L66.8391 43.6522L70.2845 45.0849L70.5041 46.8061L73.6795 48.1283L76.4182 46.0559L75.984 42.6612L73.6744 41.7002L73.2983 38.7671L72.1852 38.3055L73.5053 38.0044H80.4467L83.9577 35.6635V26.8216L79.0029 21.781Z" fill="white"/>
<path opacity="0.77" d="M69.2374 19.854L59.7341 15.8972L51.5332 22.0996L52.8382 32.2587L62.344 36.2154L70.5424 30.0131L69.2374 19.854Z" fill="white"/>
<path opacity="0.74" d="M58.9326 14.5274L47.7507 9.87061L38.1035 17.1694L39.6382 29.125L50.8201 33.7792L60.4698 26.4829L58.9326 14.5274Z" fill="white"/>
<path opacity="0.79" d="M41.5922 14.9663L31.0842 10.5906L22.0176 17.4503L23.4589 28.6858L33.9693 33.059L43.036 26.2018L41.5922 14.9663Z" fill="white"/>
<path d="M32.2346 11.5214L27.2014 9.42383L22.8574 12.7107L23.549 18.09L28.5821 20.1851L32.9262 16.9008L32.2346 11.5214Z" fill="white"/>
<path opacity="0.37" d="M47.2363 13.4057L41.5823 11.0522L36.7031 14.743L37.478 20.7898L43.1346 23.1433L48.0137 19.4525L47.2363 13.4057Z" fill="white"/>
<path d="M75.9796 42.6586L73.67 41.6977L73.2939 38.7671L69.5506 37.209L66.3223 39.6503L66.8372 43.6522L70.2801 45.0849L70.5022 46.8035L73.6776 48.1258L76.4163 46.0533L75.9796 42.6586Z" fill="white"/>
<path d="M67.8309 49.6187L65.9378 48.8309L64.3047 50.0653L64.5647 52.0901L66.4578 52.878L68.0909 51.6435L67.8309 49.6187ZM82.8116 47.1649L80.4717 46.1914L78.4499 47.7194L78.773 50.2209L81.1129 51.1969L83.1347 49.6689L82.8116 47.1649ZM7.25434 31.1924L3.35961 29.5715L0 32.1132L0.535115 36.2782L4.42984 37.899L7.78946 35.3574L7.25434 31.1924Z" fill="white"/>
<path opacity="0.29" d="M19.3022 23.7931L14.047 21.6052L9.51367 25.0351L10.2356 30.6528L15.4908 32.8432L20.0241 29.4108L19.3022 23.7931Z" fill="white"/>
<path opacity="0.46" d="M67.599 22.9502C67.8514 22.6993 70.0575 21.5275 70.3225 21.4096L72.2661 20.544L71.0217 12.3395L72.2661 5.88872L74.2854 4.23275L75.9741 5.22132L75.9943 7.47945L78.3215 3.9668L80.939 4.0245L81.2672 7.7705L81.6104 14.8234L78.9955 21.7985L83.9453 26.8166V35.671L80.4342 38.0119H73.4928L66.1502 39.6779L64.3833 44.5354L65.8675 48.7205L67.9852 51.0514L64.7897 52.3059L57.3157 44.1114L57.6741 40.1873L52.6966 37.6632L51.2578 26.8216L59.5723 20.7849L67.599 22.9502Z" fill="white"/>
<path d="M68.6238 22.3054C68.8762 22.0545 70.0575 21.5175 70.3225 21.3996L72.2661 20.534L71.0217 12.3294L72.2661 5.87871L74.2854 4.22274L75.9741 5.21131L75.9943 7.46944L78.3215 3.95679L80.939 4.01449L81.2672 7.76049L81.6104 14.8134L78.9955 21.7885L83.9453 26.8066V35.661L80.4342 38.0019H73.4928L66.1502 39.6779L64.3833 44.5354L65.8675 48.7205L67.9852 51.0514L64.7897 52.3059L57.3157 44.1114L57.6741 40.1873L52.6966 37.6632L51.2578 26.8216L60.4658 18.8529L68.6238 22.3054Z" fill="white"/>
<path d="M17.4711 20.2678L14.3362 18.9631L11.6328 21.008L12.0644 24.3576L15.1969 25.6623L17.9002 23.6174L17.4711 20.2678Z" fill="white"/>
<path d="M59.0881 23.6878L49.9987 19.9016L42.1562 25.8355L43.4057 35.5505L52.4951 39.3366L60.335 33.4027L59.0881 23.6878Z" fill="white"/>
<path d="M61.7878 22.7217L54.8894 19.8489L48.9375 24.3526L49.8866 31.7267L56.785 34.597L62.7344 30.0958L61.7878 22.7217Z" fill="white"/>
<path d="M38.0148 2.64954L31.6515 0L26.1641 4.15246L27.0374 10.9545L33.3982 13.604L38.8882 9.45154L38.0148 2.64954Z" fill="white"/>
<g style="mix-blend-mode:color" opacity="0.3">
<g style="mix-blend-mode:color" opacity="0.3">
<path d="M80.4717 46.1912L78.4499 47.7192L78.773 50.2207L81.1129 51.1967L83.1347 49.6687L82.8116 47.1647L80.4717 46.1912ZM3.35961 29.5713L0 32.113L0.535115 36.278L4.42984 37.8988L7.78946 35.3572L7.25434 31.1922L3.35961 29.5713ZM17.8456 23.1884L17.472 20.2678L14.337 18.9631L11.6337 21.008L11.9189 23.216L9.51344 25.035L10.2353 30.6527L15.4906 32.8431L20.0239 29.4108L19.302 23.793L17.8456 23.1884Z" fill="white"/>
</g>
<g style="mix-blend-mode:color" opacity="0.3">
<path d="M79.0029 21.781L81.6179 14.8058L81.2746 7.75292L80.9464 4.00693L78.3289 3.94922L76.0017 7.46188L75.9815 5.20374L74.2928 4.24027L72.2735 5.89624L71.0291 12.347L72.2735 20.5515C72.2735 20.5515 70.595 21.3042 70.33 21.4171C70.1987 21.4748 69.8479 21.6354 69.4919 21.8111L69.2395 19.8615L59.7362 15.9048L59.1683 16.3338L58.9386 14.5349L47.7567 9.88059L44.5586 12.2993L41.5852 11.0598L38.2508 13.5689L35.1512 12.2792L38.8894 9.45154L38.0161 2.64954L31.6527 0L26.1628 4.15497L26.872 9.67485L22.8587 12.7108L23.3383 16.4518L22.0156 17.4554L23.4594 28.6883L33.9674 33.0641L39.5962 28.7987L39.6391 29.1199L42.7438 30.4145L43.4026 35.548L52.4894 39.3317L53.8903 38.2729L57.6588 40.1822L57.3156 44.1114L64.5699 52.0525V52.0926L64.6204 52.1127L64.7996 52.3059L64.946 52.2482L66.4605 52.8805L68.0961 51.6435L67.8437 49.6187L66.0036 48.866L65.8824 48.7305L64.3831 44.5354L66.15 39.6779L66.3646 39.6302L66.3343 39.6528L66.8391 43.6522L70.2845 45.0849L70.5041 46.8061L73.6795 48.1283L76.4182 46.0559L75.984 42.6612L73.6744 41.7002L73.2983 38.7671L72.1852 38.3055L73.5053 38.0044H80.4467L83.9577 35.6635V26.8216L79.0029 21.781Z" fill="white"/>
</g>
<path style="mix-blend-mode:color" opacity="0.3" d="M80.4711 46.1914L78.4492 47.7194L78.7723 50.2209L81.1122 51.1969L83.134 49.6689L82.8109 47.1649L80.4711 46.1914Z" fill="white"/>
<path style="mix-blend-mode:color" opacity="0.3" d="M3.35961 29.5715L0 32.1132L0.535115 36.2782L4.42984 37.899L7.78946 35.3574L7.25434 31.1924L3.35961 29.5715Z" fill="white"/>
<path style="mix-blend-mode:color" opacity="0.3" d="M17.8458 23.1884L17.4722 20.2678L14.3373 18.9631L11.6339 21.008L11.9192 23.216L9.51367 25.035L10.2356 30.6527L15.4908 32.8431L20.0241 29.4108L19.3022 23.793L17.8458 23.1884Z" fill="white"/>
<path style="mix-blend-mode:color" opacity="0.3" d="M79.0029 21.781L81.6179 14.8058L81.2746 7.75292L80.9464 4.00693L78.3289 3.94922L76.0017 7.46188L75.9815 5.20374L74.2928 4.24027L72.2735 5.89624L71.0291 12.347L72.2735 20.5515C72.2735 20.5515 70.595 21.3042 70.33 21.4171C70.1987 21.4748 69.8479 21.6354 69.4919 21.8111L69.2395 19.8615L59.7362 15.9048L59.1683 16.3338L58.9386 14.5349L47.7567 9.88059L44.5586 12.2993L41.5852 11.0598L38.2508 13.5689L35.1512 12.2792L38.8894 9.45154L38.0161 2.64954L31.6527 0L26.1628 4.15497L26.872 9.67485L22.8587 12.7108L23.3383 16.4518L22.0156 17.4554L23.4594 28.6883L33.9674 33.0641L39.5962 28.7987L39.6391 29.1199L42.7438 30.4145L43.4026 35.548L52.4894 39.3317L53.8903 38.2729L57.6588 40.1822L57.3156 44.1114L64.5699 52.0525V52.0926L64.6204 52.1127L64.7996 52.3059L64.946 52.2482L66.4605 52.8805L68.0961 51.6435L67.8437 49.6187L66.0036 48.866L65.8824 48.7305L64.3831 44.5354L66.15 39.6779L66.3646 39.6302L66.3343 39.6528L66.8391 43.6522L70.2845 45.0849L70.5041 46.8061L73.6795 48.1283L76.4182 46.0559L75.984 42.6612L73.6744 41.7002L73.2983 38.7671L72.1852 38.3055L73.5053 38.0044H80.4467L83.9577 35.6635V26.8216L79.0029 21.781Z" fill="white"/>
</g>
<path d="M82.8091 47.1674L83.1296 49.6764L81.1103 51.2044L78.7705 50.2234L78.4499 47.7144L80.4692 46.1863L82.8091 47.1674ZM3.35961 29.5815L0 32.1157L0.522494 36.2782L4.41722 37.9015L7.78946 35.3523L7.25434 31.1898L3.35961 29.5815ZM17.8456 23.196L17.4695 20.278L14.337 18.9733L11.6287 21.0107L11.9114 23.2161L9.50587 25.0377L10.2278 30.6554L15.488 32.8433L20.0315 29.4134L19.302 23.7957L17.8456 23.196ZM79.0027 21.7885L81.6177 14.8134L81.2744 7.75292L80.9463 4.00693L78.3287 3.94922L76.0015 7.46188L75.9813 5.20374L74.2927 4.24027L72.2734 5.89624L71.029 12.347L72.2734 20.5515C72.2734 20.5515 70.5948 21.3042 70.3298 21.4171C70.1985 21.4748 69.8477 21.6354 69.4918 21.8111L69.2393 19.8615L59.736 15.9048L59.1681 16.3338L58.9384 14.5349L47.7565 9.88059L44.5584 12.2993L41.585 11.0598L38.2506 13.5689L35.151 12.2792L38.8892 9.45154L38.0159 2.64954L31.6526 0L26.1626 4.15497L26.8719 9.67485L22.8585 12.7108L23.3381 16.4518L22.0154 17.4554L23.4592 28.6883L33.9672 33.0641L39.596 28.7987L39.6389 29.1199L42.7436 30.4145L43.4024 35.548L52.4892 39.3317L53.8901 38.2729L57.6586 40.1822L57.3154 44.1114L64.5697 52.0525V52.0926L64.6202 52.1127L64.7994 52.3059L64.9458 52.2482L66.4603 52.8805L68.0959 51.6435L67.8435 49.6187L66.0034 48.866L65.8823 48.7305L64.3829 44.5354L66.1498 39.6779L66.3644 39.6302L66.3341 39.6528L66.8389 43.6522L70.2843 45.0849L70.5039 46.8061L73.6793 48.1283L76.418 46.0559L75.9838 42.6612L73.6742 41.7002L73.2981 38.7671L72.185 38.3055L73.5051 38.0044H80.4465L83.9575 35.6635V26.8216L79.0027 21.7885Z" fill="white"/>
<path d="M98.791 35.701V35.3096C98.791 26.1416 102.707 21.5576 110.538 21.5576C112.057 21.5365 113.566 21.7977 114.988 22.3279C116.147 22.7391 117.221 23.3535 118.161 24.1419C119.007 24.9203 119.705 25.8432 120.223 26.8667C120.723 27.783 121.145 28.7389 121.485 29.7245C121.769 30.653 121.966 31.6054 122.074 32.5697C122.212 33.6486 122.281 34.3269 122.283 34.6046V35.7512L122.18 37.6305H102.676C102.921 40.3068 103.745 42.2513 105.147 43.464C106.549 44.6767 108.626 45.2805 111.379 45.2755C115.269 45.2755 118.33 44.6148 120.562 43.2934V47.2602C117.979 48.4946 114.848 49.1118 111.169 49.1118H111.01C109.552 49.1262 108.099 48.937 106.694 48.5498C105.302 48.1341 103.996 47.4766 102.835 46.6078C101.571 45.6845 100.581 44.297 99.8638 42.4453C99.1469 40.5936 98.7893 38.3455 98.791 35.701ZM102.676 34.2132H118.398C118.39 33.5293 118.315 32.8478 118.174 32.1783C117.953 31.1954 117.654 30.2314 117.28 29.2954C116.806 28.0873 115.958 27.0597 114.86 26.3599C113.695 25.5771 112.254 25.1856 110.536 25.1856C107.87 25.1856 105.935 25.8723 104.73 27.2456C103.525 28.6188 102.841 30.9414 102.676 34.2132ZM128.664 58.5834V29.9804C128.668 29.2385 128.778 28.5009 128.992 27.79C129.309 26.8359 129.752 25.9273 130.307 25.0878C130.964 24.0357 132.102 23.1834 133.722 22.5311C135.343 21.8787 137.336 21.5526 139.702 21.5526C140.685 21.5482 141.665 21.6322 142.633 21.8035C143.722 22.027 144.769 22.4226 145.732 22.9752C146.84 23.5788 147.818 24.3929 148.61 25.3713C149.414 26.3599 150.093 27.7357 150.647 29.4987C151.23 31.5043 151.506 33.586 151.465 35.6734C151.465 38.323 151.105 40.5761 150.387 42.4328C149.668 44.2895 148.681 45.6795 147.426 46.6028C146.26 47.4749 144.947 48.1342 143.549 48.5498C142.138 48.937 140.679 49.1262 139.215 49.1118C136.957 49.1004 134.713 48.7528 132.559 48.0806V58.5834H128.664ZM132.549 44.1565C134.65 45.0542 136.917 45.5071 139.205 45.4863C142.138 45.4863 144.269 44.7135 145.598 43.1679C146.928 41.6223 147.592 39.1066 147.59 35.6207C147.59 33.3827 147.349 31.5176 146.868 30.0256C146.387 28.5335 145.714 27.4463 144.849 26.7638C144.117 26.1607 143.277 25.7017 142.373 25.4115C141.502 25.1748 140.602 25.0608 139.7 25.0727C134.947 25.0727 132.563 26.6518 132.546 29.8098L132.549 44.1565ZM156.594 29.2653C156.579 28.2433 156.781 27.2296 157.186 26.29C157.591 25.3504 158.19 24.5057 158.944 23.8107C160.508 22.3053 162.901 21.5526 166.122 21.5526C168.508 21.574 170.859 22.1279 173 23.1734V27.0122C171.058 25.8211 168.823 25.1872 166.541 25.1806C162.503 25.1806 160.483 26.5405 160.483 29.2603C160.483 30.1853 160.974 30.9313 161.955 31.4984C163.085 32.1245 164.294 32.5995 165.549 32.911C166.968 33.2857 168.385 33.7348 169.802 34.2583C171.232 34.79 172.482 35.7098 173.412 36.9129C174.4 38.159 174.893 39.7481 174.893 41.6801C174.893 43.9967 174.023 45.8124 172.284 47.1272C170.544 48.4419 168.133 49.0993 165.052 49.0993C162.219 49.1356 159.425 48.4442 156.939 47.092V43.0274C159.516 44.6014 162.165 45.3884 164.888 45.3884C168.967 45.3884 171.005 44.159 171.004 41.7001C171.004 40.3754 170.514 39.3375 169.535 38.5864C168.461 37.7914 167.238 37.2181 165.938 36.9003C164.521 36.524 163.103 36.1142 161.685 35.6709C160.304 35.2453 159.06 34.4666 158.078 33.4128C157.088 32.364 156.594 30.9815 156.594 29.2653ZM179.773 40.5008C179.754 39.3911 179.982 38.2909 180.441 37.2792C180.83 36.4085 181.388 35.6225 182.082 34.9659C182.813 34.3282 183.648 33.8191 184.551 33.4605C185.41 33.0885 186.296 32.7799 187.201 32.5371C188.103 32.3186 189.02 32.1693 189.945 32.0905C191.002 31.9868 191.754 31.9266 192.201 31.9099C192.648 31.8923 193.176 31.8823 193.789 31.8823L198.095 32.1332C198.095 29.7128 197.436 27.9857 196.116 26.952C194.797 25.9183 192.845 25.4014 190.26 25.4014C187.59 25.3631 184.934 25.7954 182.415 26.6785V22.9401C185.001 22.0264 187.725 21.5572 190.47 21.5526C194.229 21.5526 197.096 22.496 199.07 24.3828C201.043 26.2696 202.031 29.0295 202.033 32.6626V40.6739C202.033 42.3801 201.635 43.837 200.839 45.0447C200.103 46.2033 199.035 47.1165 197.772 47.6666C196.646 48.1664 195.467 48.5425 194.259 48.7882C193.191 48.9943 192.107 49.0993 191.02 49.1018C190.172 49.1002 189.325 49.0474 188.483 48.9437C187.48 48.8106 186.494 48.5735 185.54 48.2362C184.523 47.8995 183.562 47.4141 182.688 46.796C181.814 46.1296 181.109 45.2707 180.626 44.2869C180.037 43.1122 179.744 41.8129 179.773 40.5008ZM183.657 40.5008C183.657 43.8244 186.085 45.4863 190.942 45.4863H191.02C195.771 45.4863 198.147 43.8763 198.148 40.6564V35.5429C196.57 35.3066 194.974 35.2017 193.378 35.2293C186.899 35.2293 183.659 36.9865 183.657 40.5008ZM207.912 35.2444C207.912 32.4577 208.289 30.0942 209.042 28.1538C209.796 26.2135 210.806 24.7984 212.071 23.9085C214.154 22.3419 216.704 21.5126 219.316 21.5526C221.606 21.5526 223.529 21.8704 225.086 22.506C226.642 23.1416 227.736 23.9587 228.367 24.9573C228.899 25.7652 229.323 26.638 229.629 27.5542C229.843 28.2565 229.953 28.9858 229.957 29.7195V49.8118C229.971 50.9193 229.801 52.0215 229.452 53.0736C229.07 54.1366 228.497 55.1219 227.761 55.9816C226.977 56.93 225.776 57.6693 224.157 58.1996C222.538 58.7298 220.585 58.9958 218.298 58.9974C215.723 58.9873 213.159 58.6629 210.663 58.0314V54.4209C213.012 55.073 215.44 55.3981 217.879 55.3869C219.329 55.413 220.775 55.257 222.186 54.9227C223.347 54.6183 224.188 54.1851 224.71 53.6231C225.181 53.143 225.546 52.5704 225.782 51.942C225.99 51.2934 226.088 50.6152 226.073 49.9348V47.2777C224.041 47.9308 221.918 48.2593 219.783 48.2512C218.663 48.2577 217.546 48.1569 216.446 47.9501C215.334 47.7222 214.266 47.3217 213.28 46.7634C212.214 46.1822 211.271 45.4008 210.504 44.4626C209.731 43.5242 209.105 42.2697 208.623 40.699C208.117 38.9255 207.877 37.0875 207.912 35.2444ZM211.796 35.2293C211.796 37.2366 212.011 38.885 212.44 40.1746C212.869 41.4643 213.494 42.4252 214.315 43.0575C215.055 43.6393 215.906 44.066 216.817 44.312C217.79 44.5393 218.788 44.648 219.788 44.6357C221.944 44.635 224.08 44.2192 226.078 43.4113V29.5815C226.078 26.589 223.824 25.0928 219.316 25.0928C218.448 25.0804 217.583 25.1945 216.749 25.4315C215.888 25.7175 215.089 26.1599 214.391 26.7362C213.572 27.3802 212.934 28.424 212.478 29.8675C212.022 31.311 211.793 33.0983 211.791 35.2293H211.796ZM236.735 42.2621C235.982 40.357 235.606 38.0478 235.606 35.3347C235.606 32.6216 235.982 30.3124 236.735 28.4073C237.487 26.5037 238.511 25.0819 239.806 24.1419C240.996 23.25 242.333 22.5707 243.757 22.1347C245.199 21.7291 246.693 21.5314 248.192 21.5475C249.7 21.5327 251.202 21.7304 252.654 22.1347C254.088 22.5671 255.435 23.2465 256.632 24.1419C257.926 25.0803 258.95 26.5021 259.704 28.4073C260.458 30.3124 260.834 32.6216 260.832 35.3347C260.832 38.0495 260.456 40.3586 259.704 42.2621C258.952 44.1657 257.928 45.5875 256.632 46.5275C255.433 47.4177 254.087 48.0927 252.654 48.5222C251.202 48.9265 249.7 49.1241 248.192 49.1093C246.693 49.1254 245.199 48.9277 243.757 48.5222C242.335 48.0897 240.999 47.4157 239.809 46.53C238.51 45.59 237.485 44.1673 236.735 42.2621ZM241.576 27.5341C240.194 29.1667 239.504 31.7668 239.504 35.3347C239.504 38.9025 240.194 41.5011 241.576 43.1303C242.959 44.7645 245.173 45.5816 248.217 45.5816C251.261 45.5816 253.48 44.7729 254.873 43.1554C256.263 41.5379 256.959 38.9285 256.96 35.3272C256.962 31.7259 256.266 29.1165 254.873 27.499C253.481 25.8815 251.263 25.0727 248.217 25.0727C245.171 25.0727 242.957 25.8932 241.576 27.5341ZM267.001 48.6953V24.167C270.53 22.4254 274.42 21.5316 278.36 21.5576C281.734 21.5576 284.351 22.4098 286.213 24.1143C288.074 25.8188 289.004 28.2199 289.004 31.3177V48.6953H285.12V31.3177C285.129 30.6414 285.051 29.9666 284.885 29.3105C284.684 28.6426 284.375 28.0119 283.969 27.4438C283.514 26.7831 282.781 26.2746 281.768 25.9183C280.531 25.5292 279.238 25.3485 277.941 25.3839C275.553 25.404 273.179 25.764 270.894 26.4527V48.6853L267.001 48.6953Z" fill="white"/>
</g>
<defs>
<clipPath id="clip0">
<rect width="289" height="59" fill="white"/>
</clipPath>
</defs>
</svg>
