<svg width="410" height="137" viewBox="0 0 410 137" fill="none" xmlns="http://www.w3.org/2000/svg">
<path d="M0 0H370C392.091 0 410 17.9086 410 40V137H40C17.9086 137 0 119.091 0 97V0Z" fill="white"/>
<g clip-path="url(#clip0)">
<path d="M136.041 87.1058L133.879 88.7633L134.224 91.4768L136.726 92.5356L138.888 90.8781L138.542 88.1618L136.041 87.1058ZM53.5921 69.0775L50 71.8346L50.5721 76.3525L54.7364 78.1107L58.3285 75.3537L57.7564 70.8357L53.5921 69.0775ZM69.0806 62.1536L68.6811 58.9856L65.3292 57.5703L62.4388 59.7885L62.7438 62.1835L60.1718 64.1567L60.9437 70.2506L66.5626 72.6266L71.4096 68.9033L70.6378 62.8095L69.0806 62.1536Z" fill="#1A1233"/>
<path d="M134.47 60.6268L137.266 53.0606L136.899 45.41L136.548 41.3465L133.749 41.2839L131.261 45.0942L131.24 42.6447L129.434 41.5996L127.275 43.3959L125.944 50.3933L127.275 59.2932C127.275 59.2932 125.48 60.1097 125.197 60.2322C125.057 60.2948 124.681 60.4689 124.301 60.6595L124.031 58.5447L113.87 54.2526L113.263 54.7181L113.017 52.7666L101.061 47.7179L97.6421 50.3416L94.4629 48.9971L90.8978 51.7188L87.5837 50.3198L91.5806 47.2525L90.6468 39.8741L83.8431 37L77.9732 41.5071L78.7316 47.4947L74.4405 50.788L74.9532 54.846L73.5391 55.9346L75.0828 68.1195L86.3179 72.8661L92.3363 68.2393L92.3821 68.5877L95.7017 69.9921L96.4061 75.5606L106.122 79.6649L107.62 78.5163L111.649 80.5875L111.282 84.8496L119.038 93.4637V93.5072L119.092 93.529L119.284 93.7386L119.44 93.676L121.06 94.3618L122.808 93.0201L122.539 90.8237L120.571 90.0072L120.442 89.8602L118.839 85.3096L120.728 80.0404L120.957 79.9887L120.925 80.0132L121.464 84.3516L125.148 85.9056L125.383 87.7727L128.778 89.207L131.706 86.9589L131.242 83.2765L128.773 82.2341L128.371 79.0525L127.181 78.5517L128.592 78.2251H136.014L139.768 75.6858V66.0946L134.47 60.6268Z" fill="#1A1233"/>
<path opacity="0.77" d="M124.027 58.5367L113.866 54.2446L105.098 60.9726L106.493 71.9926L116.657 76.2847L125.422 69.5567L124.027 58.5367Z" fill="#A1BEFF"/>
<path opacity="0.74" d="M113.013 52.7584L101.057 47.707L90.7422 55.6244L92.3831 68.5931L104.339 73.6418L114.656 65.7272L113.013 52.7584Z" fill="#A1BEFF"/>
<path opacity="0.79" d="M94.4722 53.2349L83.2371 48.4883L73.543 55.9293L75.084 68.1169L86.3218 72.8608L96.0159 65.4225L94.4722 53.2349Z" fill="#A1BEFF"/>
<path d="M84.4675 49.498L79.0861 47.2227L74.4414 50.788L75.1809 56.6233L80.5623 58.8959L85.207 55.3332L84.4675 49.498Z" fill="black"/>
<path opacity="0.37" d="M100.504 51.5422L94.459 48.9893L89.2422 52.9928L90.0707 59.552L96.1187 62.105L101.336 58.1014L100.504 51.5422Z" fill="#A1BEFF"/>
<path d="M131.236 83.2738L128.766 82.2314L128.364 79.0525L124.362 77.3623L120.91 80.0105L121.461 84.3515L125.142 85.9056L125.379 87.77L128.774 89.2043L131.703 86.9562L131.236 83.2738Z" fill="black"/>
<path d="M122.525 90.8237L120.501 89.9691L118.755 91.3082L119.033 93.5046L121.057 94.3592L122.803 93.0201L122.525 90.8237ZM138.542 88.162L136.041 87.106L133.879 88.7634L134.224 91.4769L136.726 92.5357L138.888 90.8782L138.542 88.162ZM57.7564 70.8358L53.5921 69.0776L50 71.8347L50.5721 76.3526L54.7364 78.1108L58.3285 75.3538L57.7564 70.8358Z" fill="#A1BEFF"/>
<path opacity="0.29" d="M70.6378 62.8098L65.0189 60.4365L60.1719 64.157L60.9437 70.2509L66.5627 72.6269L71.4097 68.9036L70.6378 62.8098Z" fill="#A1BEFF"/>
<path opacity="0.46" d="M122.277 61.8949C122.547 61.6227 124.905 60.3517 125.189 60.2238L127.267 59.2848L125.936 50.3849L127.267 43.3875L129.426 41.5912L131.231 42.6636L131.253 45.1131L133.741 41.3027L136.54 41.3653L136.891 45.4288L137.258 53.0794L134.462 60.6456L139.754 66.089V75.6937L136 78.233H128.578L120.728 80.0402L118.838 85.3094L120.425 89.8491L122.69 92.3775L119.273 93.7384L111.282 84.8494L111.665 80.5927L106.343 77.8547L104.805 66.0944L113.695 59.5461L122.277 61.8949Z" fill="#A1BEFF"/>
<path d="M123.372 61.1955C123.642 60.9234 124.905 60.3409 125.189 60.213L127.267 59.274L125.936 50.3742L127.267 43.3768L129.426 41.5805L131.231 42.6528L131.253 45.1023L133.741 41.292L136.54 41.3546L136.891 45.418L137.258 53.0686L134.462 60.6349L139.754 66.0782V75.683L136 78.2223H128.578L120.728 80.0404L118.838 85.3095L120.425 89.8493L122.69 92.3777L119.273 93.7385L111.282 84.8496L111.665 80.5929L106.343 77.8549L104.805 66.0945L114.65 57.4505L123.372 61.1955Z" fill="#A1BEFF"/>
<path d="M68.6798 58.9856L65.3279 57.5703L62.4375 59.7885L62.899 63.4219L66.2482 64.8372L69.1386 62.619L68.6798 58.9856Z" fill="black"/>
<path d="M113.174 62.6954L103.456 58.5884L95.0703 65.0251L96.4062 75.5634L106.125 79.6704L114.507 73.2337L113.174 62.6954Z" fill="black"/>
<path d="M116.064 61.6476L108.688 58.5312L102.324 63.4166L103.339 71.4156L110.715 74.5292L117.076 69.6465L116.064 61.6476Z" fill="black"/>
<path d="M90.6475 39.8741L83.8438 37L77.9766 41.5044L78.9103 48.8828L85.7113 51.7569L91.5812 47.2525L90.6475 39.8741Z" fill="#A1BEFF"/>
<g style="mix-blend-mode:color" opacity="0.3">
<g style="mix-blend-mode:color" opacity="0.3">
<path d="M136.041 87.1058L133.879 88.7633L134.224 91.4768L136.726 92.5356L138.888 90.8781L138.542 88.1618L136.041 87.1058ZM53.5921 69.0775L50 71.8346L50.5721 76.3525L54.7364 78.1107L58.3285 75.3537L57.7564 70.8357L53.5921 69.0775ZM69.0806 62.1536L68.6811 58.9856L65.3292 57.5703L62.4388 59.7885L62.7438 62.1835L60.1718 64.1567L60.9437 70.2506L66.5626 72.6266L71.4096 68.9033L70.6378 62.8095L69.0806 62.1536Z" fill="#1A1233"/>
</g>
<g style="mix-blend-mode:color" opacity="0.3">
<path d="M134.47 60.6268L137.266 53.0606L136.899 45.41L136.548 41.3465L133.749 41.2839L131.261 45.0942L131.24 42.6447L129.434 41.5996L127.275 43.3959L125.944 50.3933L127.275 59.2932C127.275 59.2932 125.48 60.1097 125.197 60.2322C125.057 60.2948 124.681 60.4689 124.301 60.6595L124.031 58.5447L113.87 54.2526L113.263 54.7181L113.017 52.7666L101.061 47.7179L97.6421 50.3416L94.4629 48.9971L90.8978 51.7188L87.5837 50.3198L91.5806 47.2525L90.6468 39.8741L83.8431 37L77.9732 41.5071L78.7316 47.4947L74.4405 50.788L74.9532 54.846L73.5391 55.9346L75.0828 68.1195L86.3179 72.8661L92.3363 68.2393L92.3821 68.5877L95.7017 69.9921L96.4061 75.5606L106.122 79.6649L107.62 78.5163L111.649 80.5875L111.282 84.8496L119.038 93.4637V93.5072L119.092 93.529L119.284 93.7386L119.44 93.676L121.06 94.3618L122.808 93.0201L122.539 90.8237L120.571 90.0072L120.442 89.8602L118.839 85.3096L120.728 80.0404L120.957 79.9887L120.925 80.0132L121.464 84.3516L125.148 85.9056L125.383 87.7727L128.778 89.207L131.706 86.9589L131.242 83.2765L128.773 82.2341L128.371 79.0525L127.181 78.5517L128.592 78.2251H136.014L139.768 75.6858V66.0946L134.47 60.6268Z" fill="#1A1233"/>
</g>
<path style="mix-blend-mode:color" opacity="0.3" d="M136.041 87.106L133.879 88.7635L134.224 91.477L136.726 92.5357L138.888 90.8782L138.542 88.162L136.041 87.106Z" fill="url(#paint0_linear)"/>
<path style="mix-blend-mode:color" opacity="0.3" d="M53.5921 69.0776L50 71.8347L50.5721 76.3526L54.7364 78.1108L58.3285 75.3538L57.7564 70.8358L53.5921 69.0776Z" fill="url(#paint1_linear)"/>
<path style="mix-blend-mode:color" opacity="0.3" d="M69.0806 62.1536L68.6812 58.9856L65.3293 57.5703L62.4389 59.7885L62.7438 62.1835L60.1719 64.1567L60.9437 70.2506L66.5627 72.6266L71.4097 68.9033L70.6378 62.8095L69.0806 62.1536Z" fill="url(#paint2_linear)"/>
<path style="mix-blend-mode:color" opacity="0.3" d="M134.47 60.6268L137.266 53.0606L136.899 45.41L136.548 41.3465L133.749 41.2839L131.261 45.0942L131.24 42.6447L129.434 41.5996L127.275 43.3959L125.944 50.3933L127.275 59.2932C127.275 59.2932 125.48 60.1097 125.197 60.2322C125.057 60.2948 124.681 60.4689 124.301 60.6595L124.031 58.5447L113.87 54.2526L113.263 54.7181L113.017 52.7666L101.061 47.7179L97.6421 50.3416L94.4629 48.9971L90.8978 51.7188L87.5837 50.3198L91.5806 47.2525L90.6468 39.8741L83.8431 37L77.9732 41.5071L78.7316 47.4947L74.4405 50.788L74.9532 54.846L73.5391 55.9346L75.0828 68.1195L86.3179 72.8661L92.3363 68.2393L92.3821 68.5877L95.7017 69.9921L96.4061 75.5606L106.122 79.6649L107.62 78.5163L111.649 80.5875L111.282 84.8496L119.038 93.4637V93.5072L119.092 93.529L119.284 93.7386L119.44 93.676L121.06 94.3618L122.808 93.0201L122.539 90.8237L120.571 90.0072L120.442 89.8602L118.839 85.3096L120.728 80.0404L120.957 79.9887L120.925 80.0132L121.464 84.3516L125.148 85.9056L125.383 87.7727L128.778 89.207L131.706 86.9589L131.242 83.2765L128.773 82.2341L128.371 79.0525L127.181 78.5517L128.592 78.2251H136.014L139.768 75.6858V66.0946L134.47 60.6268Z" fill="url(#paint3_linear)"/>
</g>
<path d="M138.54 88.1646L138.883 90.8863L136.723 92.5438L134.222 91.4796L133.879 88.7579L136.038 87.1004L138.54 88.1646ZM53.5921 69.0885L50 71.8373L50.5587 76.3526L54.7229 78.1135L58.3285 75.3483L57.7564 70.833L53.5921 69.0885ZM69.0806 62.1618L68.6784 58.9965L65.3292 57.5812L62.4334 59.7912L62.7357 62.1836L60.1637 64.1595L60.9356 70.2533L66.5599 72.6266L71.4177 68.9061L70.6378 62.8123L69.0806 62.1618ZM134.47 60.635L137.266 53.0687L136.899 45.41L136.548 41.3465L133.749 41.2839L131.261 45.0942L131.24 42.6447L129.434 41.5996L127.275 43.3959L125.944 50.3933L127.275 59.2932C127.275 59.2932 125.48 60.1097 125.197 60.2322C125.057 60.2948 124.681 60.4689 124.301 60.6595L124.031 58.5447L113.87 54.2526L113.263 54.7181L113.017 52.7666L101.061 47.7179L97.6421 50.3416L94.4629 48.9971L90.8977 51.7188L87.5836 50.3198L91.5805 47.2525L90.6467 39.8741L83.8431 37L77.9731 41.5071L78.7315 47.4947L74.4404 50.788L74.9532 54.846L73.539 55.9346L75.0827 68.1195L86.3179 72.8661L92.3362 68.2393L92.3821 68.5877L95.7016 69.9921L96.406 75.5606L106.122 79.6649L107.62 78.5163L111.649 80.5875L111.282 84.8496L119.038 93.4637V93.5072L119.092 93.529L119.284 93.7386L119.44 93.676L121.06 94.3618L122.808 93.0201L122.539 90.8237L120.571 90.0072L120.442 89.8602L118.839 85.3096L120.728 80.0404L120.957 79.9887L120.925 80.0132L121.464 84.3516L125.148 85.9056L125.383 87.7727L128.778 89.207L131.706 86.9589L131.242 83.2765L128.773 82.2341L128.371 79.0525L127.181 78.5517L128.592 78.2251H136.014L139.768 75.6858V66.0946L134.47 60.635Z" fill="url(#paint4_linear)"/>
<path d="M155.629 75.7265V75.3019C155.629 65.3569 159.816 60.3844 168.189 60.3844C169.813 60.3616 171.427 60.645 172.947 61.22C174.186 61.6661 175.335 62.3326 176.34 63.1878C177.244 64.0321 177.991 65.0332 178.544 66.1435C179.078 67.1375 179.53 68.1744 179.894 69.2435C180.197 70.2506 180.407 71.2838 180.523 72.3298C180.67 73.5001 180.745 74.2359 180.747 74.5371V75.7809L180.636 77.8194H159.782C160.045 80.7225 160.926 82.8318 162.425 84.1473C163.923 85.4628 166.144 86.1178 169.088 86.1123C173.248 86.1123 176.52 85.3956 178.906 83.9622V88.2652C176.144 89.6042 172.797 90.2738 168.864 90.2738H168.694C167.135 90.2894 165.581 90.0842 164.079 89.6641C162.591 89.2132 161.194 88.5 159.952 87.5576C158.601 86.556 157.542 85.0509 156.776 83.0423C156.009 81.0337 155.627 78.5951 155.629 75.7265ZM159.782 74.1125H176.593C176.584 73.3707 176.504 72.6314 176.353 71.9053C176.117 70.839 175.798 69.7933 175.398 68.7781C174.89 67.4676 173.984 66.3528 172.81 65.5937C171.564 64.7445 170.023 64.32 168.186 64.32C165.337 64.32 163.267 65.0648 161.979 66.5545C160.691 68.0441 159.959 70.5635 159.782 74.1125ZM187.569 100.548V69.5211C187.573 68.7163 187.692 67.9162 187.92 67.1451C188.259 66.11 188.732 65.1245 189.326 64.2138C190.028 63.0725 191.245 62.1481 192.978 61.4404C194.71 60.7328 196.842 60.379 199.371 60.379C200.422 60.3742 201.47 60.4653 202.505 60.6512C203.669 60.8936 204.788 61.3228 205.819 61.9222C207.003 62.5769 208.048 63.4601 208.895 64.5214C209.755 65.5937 210.481 67.0861 211.073 68.9985C211.697 71.1741 211.992 73.4322 211.948 75.6965C211.948 78.5706 211.563 81.0147 210.795 83.0287C210.027 85.0427 208.972 86.5505 207.63 87.5521C206.383 88.4982 204.979 89.2133 203.484 89.6641C201.975 90.0842 200.416 90.2894 198.85 90.2738C196.436 90.2614 194.037 89.8843 191.734 89.1552V100.548H187.569ZM191.723 84.8985C193.97 85.8723 196.394 86.3636 198.84 86.341C201.976 86.341 204.254 85.5027 205.676 83.8262C207.097 82.1496 207.807 79.4207 207.805 75.6394C207.805 73.2117 207.548 71.1885 207.033 69.5701C206.519 67.9516 205.799 66.7722 204.874 66.0319C204.092 65.3777 203.193 64.8798 202.227 64.5649C201.296 64.3082 200.334 64.1845 199.368 64.1975C194.288 64.1975 191.738 65.9103 191.72 69.336L191.723 84.8985ZM217.432 68.7454C217.416 67.6367 217.632 66.5372 218.065 65.5179C218.498 64.4987 219.138 63.5824 219.944 62.8285C221.617 61.1955 224.176 60.379 227.62 60.379C230.171 60.4022 232.684 61.0031 234.974 62.1372V66.3013C232.898 65.0093 230.507 64.3216 228.068 64.3145C223.75 64.3145 221.59 65.7897 221.59 68.74C221.59 69.7433 222.115 70.5526 223.164 71.1677C224.372 71.8469 225.665 72.3621 227.007 72.7C228.524 73.1064 230.04 73.5936 231.554 74.1615C233.083 74.7383 234.42 75.7359 235.414 77.041C236.47 78.3928 236.998 80.1165 236.998 82.2122C236.998 84.7252 236.068 86.6948 234.207 88.1209C232.347 89.5471 229.77 90.2602 226.475 90.2602C223.446 90.2996 220.459 89.5496 217.801 88.0828V83.6737C220.556 85.3811 223.389 86.2348 226.3 86.2348C230.661 86.2348 232.841 84.9012 232.839 82.234C232.839 80.7969 232.316 79.6711 231.268 78.8564C230.12 77.994 228.813 77.3721 227.423 77.0274C225.908 76.6192 224.392 76.1746 222.875 75.6938C221.399 75.2322 220.069 74.3875 219.019 73.2443C217.961 72.1067 217.432 70.607 217.432 68.7454ZM242.215 80.933C242.195 79.7292 242.439 78.5358 242.93 77.4384C243.346 76.4939 243.942 75.6412 244.684 74.929C245.466 74.2373 246.358 73.6851 247.324 73.296C248.243 72.8926 249.19 72.5578 250.157 72.2944C251.121 72.0574 252.102 71.8954 253.091 71.81C254.221 71.6975 255.025 71.6322 255.504 71.614C255.981 71.595 256.545 71.5841 257.201 71.5841L261.805 71.8563C261.805 69.2308 261.1 67.3573 259.69 66.236C258.279 65.1147 256.192 64.554 253.428 64.554C250.573 64.5124 247.733 64.9814 245.04 65.9394V61.8841C247.805 60.893 250.718 60.384 253.652 60.379C257.672 60.379 260.737 61.4023 262.847 63.449C264.958 65.4957 266.014 68.4896 266.016 72.4305V81.1208C266.016 82.9715 265.59 84.5519 264.739 85.862C263.952 87.1188 262.81 88.1094 261.46 88.7061C260.255 89.2483 258.996 89.6562 257.703 89.9227C256.562 90.1463 255.403 90.2602 254.241 90.2629C253.334 90.2612 252.428 90.2039 251.528 90.0914C250.456 89.9471 249.401 89.6898 248.382 89.3239C247.294 88.9587 246.266 88.4322 245.332 87.7617C244.398 87.0388 243.643 86.1071 243.127 85.04C242.497 83.7658 242.184 82.3563 242.215 80.933ZM246.368 80.933C246.368 84.5383 248.964 86.341 254.157 86.341H254.241C259.32 86.341 261.86 84.5946 261.862 81.1018V75.555C260.174 75.2987 258.468 75.1849 256.761 75.2148C249.834 75.2148 246.37 77.1209 246.368 80.933ZM272.301 75.2311C272.301 72.2083 272.704 69.6445 273.51 67.5397C274.316 65.4349 275.396 63.8999 276.749 62.9346C278.976 61.2353 281.702 60.3357 284.494 60.379C286.943 60.379 288.999 60.7237 290.664 61.4132C292.328 62.1027 293.497 62.9891 294.172 64.0723C294.741 64.9486 295.194 65.8954 295.522 66.8892C295.75 67.651 295.868 68.4421 295.872 69.238V91.0331C295.887 92.2345 295.705 93.43 295.333 94.5713C294.924 95.7244 294.312 96.7932 293.524 97.7257C292.686 98.7545 291.401 99.5565 289.671 100.132C287.94 100.707 285.852 100.995 283.407 100.997C280.653 100.986 277.911 100.634 275.243 99.9493V96.0328C277.754 96.7402 280.351 97.0928 282.959 97.0807C284.508 97.1089 286.055 96.9398 287.563 96.5772C288.804 96.2469 289.704 95.777 290.262 95.1673C290.766 94.6466 291.156 94.0255 291.409 93.3438C291.63 92.6402 291.735 91.9045 291.719 91.1665V88.2842C289.547 88.9926 287.277 89.3491 284.994 89.3403C283.797 89.3473 282.602 89.2379 281.426 89.0136C280.238 88.7664 279.095 88.332 278.041 87.7263C276.901 87.0959 275.893 86.2483 275.073 85.2305C274.247 84.2126 273.577 82.8518 273.062 81.148C272.521 79.2243 272.265 77.2305 272.301 75.2311ZM276.455 75.2148C276.455 77.3921 276.684 79.1803 277.143 80.5792C277.602 81.9781 278.27 83.0205 279.148 83.7064C279.939 84.3375 280.849 84.8004 281.822 85.0672C282.863 85.3137 283.93 85.4316 284.999 85.4183C287.305 85.4176 289.589 84.9665 291.724 84.0902V69.0883C291.724 65.8423 289.314 64.2193 284.494 64.2193C283.566 64.2058 282.642 64.3296 281.75 64.5867C280.83 64.8968 279.975 65.3768 279.229 66.002C278.353 66.7005 277.671 67.8327 277.183 69.3986C276.696 70.9645 276.451 72.9032 276.449 75.2148H276.455ZM303.119 82.8436C302.314 80.777 301.912 78.2721 301.912 75.3291C301.912 72.3861 302.314 69.8812 303.119 67.8146C303.923 65.7498 305.018 64.2075 306.403 63.1878C307.675 62.2202 309.104 61.4835 310.627 61.0104C312.169 60.5705 313.766 60.3561 315.369 60.3735C316.981 60.3575 318.587 60.5719 320.14 61.0104C321.673 61.4795 323.113 62.2164 324.393 63.1878C325.777 64.2057 326.872 65.7479 327.678 67.8146C328.484 69.8812 328.886 72.3861 328.884 75.3291C328.884 78.274 328.482 80.7788 327.678 82.8436C326.874 84.9085 325.779 86.4507 324.393 87.4705C323.111 88.4361 321.672 89.1683 320.14 89.6342C318.587 90.0727 316.981 90.2871 315.369 90.2711C313.766 90.2886 312.169 90.0741 310.627 89.6342C309.107 89.1651 307.679 88.4339 306.406 87.4732C305.017 86.4535 303.921 84.9103 303.119 82.8436ZM308.295 66.8674C306.818 68.6383 306.079 71.4589 306.079 75.3291C306.079 79.1993 306.818 82.0181 308.295 83.7853C309.774 85.558 312.141 86.4444 315.396 86.4444C318.65 86.4444 321.023 85.5671 322.512 83.8125C323.999 82.058 324.742 79.2274 324.744 75.3209C324.746 71.4144 324.002 68.5839 322.512 66.8293C321.024 65.0748 318.652 64.1975 315.396 64.1975C312.139 64.1975 309.772 65.0875 308.295 66.8674ZM335.48 89.822V63.215C339.253 61.3258 343.413 60.3563 347.625 60.3844C351.232 60.3844 354.031 61.3089 356.021 63.1578C358.011 65.0067 359.006 67.6114 359.006 70.9717V89.822H354.852V70.9717C354.863 70.238 354.778 69.5061 354.601 68.7944C354.387 68.0699 354.056 67.3858 353.622 66.7695C353.136 66.0528 352.351 65.5012 351.268 65.1147C349.946 64.6926 348.563 64.4967 347.177 64.535C344.623 64.5569 342.086 64.9473 339.642 65.6944V89.8111L335.48 89.822Z" fill="black"/>
</g>
<defs>
<linearGradient id="paint0_linear" x1="61.3728" y1="62.9239" x2="134.378" y2="88.6631" gradientUnits="userSpaceOnUse">
<stop stop-color="#5CCD53"/>
<stop offset="0.99" stop-color="#0000F3"/>
</linearGradient>
<linearGradient id="paint1_linear" x1="272.954" y1="1320.09" x2="2560.14" y2="2069.87" gradientUnits="userSpaceOnUse">
<stop stop-color="#5CCD53"/>
<stop offset="0.99" stop-color="#0000F3"/>
</linearGradient>
<linearGradient id="paint2_linear" x1="526.767" y1="1517.88" x2="3719.69" y2="2365.23" gradientUnits="userSpaceOnUse">
<stop stop-color="#5CCD53"/>
<stop offset="0.99" stop-color="#0000F3"/>
</linearGradient>
<linearGradient id="paint3_linear" x1="5529.46" y1="6782.75" x2="22766.9" y2="13859" gradientUnits="userSpaceOnUse">
<stop stop-color="#5CCD53"/>
<stop offset="0.99" stop-color="#0000F3"/>
</linearGradient>
<linearGradient id="paint4_linear" x1="50" y1="65.6809" x2="139.762" y2="65.6809" gradientUnits="userSpaceOnUse">
<stop offset="0.49" stop-color="white" stop-opacity="0"/>
<stop offset="0.99" stop-color="white" stop-opacity="0.8"/>
</linearGradient>
<clipPath id="clip0">
<rect width="309" height="64" fill="white" transform="translate(50 37)"/>
</clipPath>
</defs>
</svg>
