<svg width="1146" height="236" xmlns="http://www.w3.org/2000/svg"><defs><linearGradient x1="-1235.537%" y1="-444.12%" x2="13.187%" y2="35.87%" id="a"><stop stop-color="#5CCD53" offset="0%"/><stop stop-color="#0000F3" offset="99.04%"/></linearGradient><linearGradient x1="81.64%" y1="62.085%" x2="836.089%" y2="351.236%" id="b"><stop stop-color="#5CCD53" offset="0%"/><stop stop-color="#0000F3" offset="99.04%"/></linearGradient><linearGradient x1="26.854%" y1="38.735%" x2="395.018%" y2="212.329%" id="c"><stop stop-color="#5CCD53" offset="0%"/><stop stop-color="#0000F3" offset="99.04%"/></linearGradient><linearGradient x1="-9.258%" y1="24.396%" x2="100.899%" y2="58.098%" id="d"><stop stop-color="#5CCD53" offset="0%"/><stop stop-color="#0000F3" offset="99.04%"/></linearGradient></defs><g fill="none"><path d="M319 184.8l-8 6.1 1.2 10 9.3 3.9 8-6.1-1.3-10zM13.5 118.6L.2 128.7l2.1 16.6 15.4 6.5L31 141.6 28.9 125zm57.4-25.5l-1.5-11.6L57 76.3l-10.8 8.2 1.2 8.8-9.6 7.2 2.9 22.4 20.8 8.7 18-13.7-2.9-22.3zm242.2-5.6l10.4-27.8-1.4-28.1-1.3-14.9-10.4-.2-9.2 14-.1-9-6.7-3.9-8 6.6-4.9 25.7 4.9 32.7-7.7 3.5c-.5.2-1.9.9-3.3 1.6l-1-7.8-37.7-15.8-2.2 1.7-.9-7.2L189.3 40l-12.7 9.6-11.8-4.9-13.2 10.1-12.3-5.1 14.8-11.3-3.5-27.1L125.4.7l-21.7 16.6 2.8 22-15.9 12.1 1.9 14.9-5.2 4 5.7 44.8 41.6 17.4 22.3-17 .2 1.3 12.3 5.2 2.6 20.5 36 15.1 5.5-4.2 14.9 7.6-1.4 15.6 28.7 31.6v.2l.2.1.7.8.6-.2 6 2.5 6.5-4.9-1-8.1-7.3-3-.5-.5-5.9-16.7 6.9-19.4.8-.2-.1.1 2 15.9 13.6 5.7.9 6.9 12.6 5.3 10.9-8.3-1.7-13.5-9.2-3.8-1.5-11.7-4.4-1.8 5.2-1.2h27.5l13.9-9.3v-35.3l-19.3-20.3z" fill="#FFF"/><g fill="#A1BEFF"><path opacity=".77" d="M274.4 79.9l-37.6-15.8-32.5 24.7 5.2 40.5 37.6 15.8 32.5-24.8z"/><path opacity=".74" d="M233.6 58.6l-44.3-18.5-38.2 29.1 6.1 47.6 44.3 18.6 38.2-29.1z"/><path opacity=".79" d="M164.9 60.4l-41.6-17.5-35.9 27.4 5.7 44.8 41.6 17.4 35.9-27.3z"/><path opacity=".7" d="M127.9 46.6l-20-8.3-17.2 13.1 2.8 21.4 19.9 8.4 17.2-13.1z"/><path opacity=".37" d="M187.3 54.2l-22.4-9.4-19.3 14.7 3 24.1L171 93l19.4-14.7z"/><path opacity=".7" d="M301.2 170.7l-9.2-3.8-1.5-11.7-14.8-6.2-12.8 9.8 2 15.9 13.7 5.7.9 6.9 12.5 5.2 10.9-8.2z"/><path d="M268.9 198.5l-7.5-3.2-6.5 5 1 8 7.5 3.2 6.5-4.9zm59.3-9.8l-9.2-3.9-8 6.1 1.2 10 9.3 3.9 8-6.1zM28.9 125l-15.4-6.4L.2 128.7l2.1 16.6 15.4 6.5L31 141.6z"/><path opacity=".29" d="M76.6 95.6l-20.8-8.8-18 13.7 2.9 22.4 20.8 8.7 18-13.7z"/><path d="M268 92.2c1-1 9.7-5.7 10.8-6.1 1.1-.4 7.7-3.5 7.7-3.5l-4.9-32.7 4.9-25.7 8-6.6 6.7 3.9.1 9 9.2-14 10.4.2 1.3 14.9 1.4 28.1-10.4 27.8 19.6 20v35.3l-13.9 9.3h-27.5l-29.2 6.7-6.9 19.4 5.9 16.7 8.4 9.3-12.7 5-29.7-32.7 1.4-15.6-19.7-10.1-5.7-43.3 32.9-24.1 31.9 8.8z" opacity=".46"/><path d="M272 89.7c1-1 5.7-3.1 6.7-3.6s7.7-3.5 7.7-3.5l-4.9-32.7 4.9-25.7 8-6.6 6.7 3.9.1 9 9.2-14 10.4.2 1.3 14.9 1.4 28.1-10.4 27.8 19.6 20v35.3l-13.9 9.3h-27.5l-29.2 6.7-6.9 19.4 5.9 16.7 8.4 9.3-12.7 5-29.7-32.7 1.4-15.6-19.7-10.1-5.7-43.3 36.5-31.8 32.4 14z"/><path opacity=".7" d="M69.4 81.5L57 76.3l-10.8 8.2L48 97.8l12.4 5.2 10.7-8.1z"/><path opacity=".22" d="M234.2 95.1l-36-15-31 23.6 4.9 38.7 36 15.1 31.1-23.6z"/><path opacity=".22" d="M244.9 91.3l-27.3-11.5-23.6 18 3.8 29.4 27.3 11.4 23.6-17.9z"/><path d="M150.8 11.3L125.6.7l-21.8 16.6 3.5 27.1 25.2 10.5 21.7-16.5z"/></g><g opacity=".28"><path fill="url(#a)" d="M319 184.8l-8 6.1 1.2 10 9.3 3.9 8-6.1-1.3-10z"/><path fill="url(#b)" d="M13.5 118.6L.2 128.7l2.1 16.6 15.4 6.5L31 141.6 28.9 125z"/><path fill="url(#c)" d="M70.9 93.1l-1.5-11.6L57 76.3l-10.8 8.2 1.2 8.8-9.6 7.2 2.9 22.4 20.8 8.7 18-13.7-2.9-22.3z"/><path d="M313.1 87.5l10.4-27.8-1.4-28.1-1.3-14.9-10.4-.2-9.2 14-.1-9-6.7-3.9-8 6.6-4.9 25.7 4.9 32.7-7.7 3.5c-.5.2-1.9.9-3.3 1.6l-1-7.8-37.7-15.8-2.2 1.7-.9-7.2L189.3 40l-12.7 9.6-11.8-4.9-13.2 10.1-12.3-5.1 14.8-11.3-3.5-27.1L125.4.7l-21.7 16.6 2.8 22-15.9 12.1 1.9 14.9-5.2 4 5.7 44.8 41.6 17.4 22.3-17 .2 1.3 12.3 5.2 2.6 20.5 36 15.1 5.5-4.2 14.9 7.6-1.4 15.6 28.7 31.6v.2l.2.1.7.8.6-.2 6 2.5 6.5-4.9-1-8.1-7.3-3-.5-.5-5.9-16.7 6.9-19.4.8-.2-.1.1 2 15.9 13.6 5.7.9 6.9 12.6 5.3 10.9-8.3-1.7-13.5-9.2-3.8-1.5-11.7-4.4-1.8 5.2-1.2h27.5l13.9-9.3v-35.3l-19.3-20.3z" fill="url(#d)"/></g><path d="M391.5 142.9v-1.5c0-36.5 15.5-54.8 46.5-54.8 6.5 0 12.4 1 17.6 3.1 5.3 2 9.5 4.5 12.6 7.2 3.1 2.8 5.8 6.4 8.2 10.9 2.3 4.5 4 8.3 5 11.4 1 3.1 1.8 6.9 2.3 11.3.6 4.3.8 7 .8 8.1v4.6l-.4 7.5h-77.3c1 10.7 4.2 18.4 9.8 23.2 5.6 4.8 13.8 7.2 24.7 7.2 15.4 0 27.5-2.6 36.4-7.9V189c-10.2 4.9-22.6 7.4-37.2 7.4h-.6c-6.2 0-11.9-.7-17.1-2.2-5.2-1.5-10.3-4.1-15.3-7.7-5-3.7-8.9-9.2-11.8-16.6-2.7-7.5-4.2-16.5-4.2-27zm15.4-5.9h62.3c0-2.4-.3-5.1-.9-8.1-.6-3-1.8-6.8-3.5-11.5-1.8-4.7-5-8.6-9.6-11.7-4.6-3.1-10.3-4.7-17.1-4.7-10.6 0-18.2 2.7-23 8.2-4.7 5.5-7.5 14.7-8.2 27.8zm103 97.1v-114c0-2.8.4-5.8 1.3-8.7.9-3 2.6-6.6 5.2-10.8 2.6-4.2 7.1-7.6 13.5-10.2 6.4-2.6 14.3-3.9 23.7-3.9 4 0 7.8.3 11.6 1s7.9 2.2 12.3 4.7c4.4 2.4 8.2 5.6 11.4 9.5 3.2 3.9 5.9 9.4 8.1 16.5 2.2 7 3.3 15.2 3.3 24.5 0 10.6-1.4 19.5-4.3 26.9-2.8 7.4-6.8 12.9-11.8 16.6-5 3.7-10.1 6.3-15.4 7.8-5.2 1.5-10.9 2.2-17.2 2.2-8.7 0-17.4-1.4-26.4-4.1V234h-15.3v.1zm15.4-57.5c8.1 3.5 16.9 5.3 26.4 5.3 11.6 0 20.1-3.1 25.3-9.2 5.3-6.2 7.9-16.2 7.9-30.1 0-8.9-1-16.4-2.9-22.3-1.9-5.9-4.6-10.3-8-13-3.4-2.7-6.7-4.5-9.8-5.4-3.1-.9-6.6-1.3-10.6-1.3-18.8 0-28.3 6.3-28.3 18.9v57.1zm95.2-59.4c0-8.5 3.1-15.7 9.3-21.7 6.2-6 15.7-9 28.4-9 9.1 0 18.2 2.2 27.2 6.5v15.3c-8.1-4.9-16.6-7.3-25.6-7.3-16 0-24 5.4-24 16.3 0 3.7 1.9 6.7 5.8 8.9 3.9 2.3 8.6 4.1 14.2 5.6s11.2 3.3 16.8 5.4c5.6 2.1 10.4 5.6 14.3 10.6 3.9 5 5.9 11.3 5.9 19 0 9.2-3.5 16.5-10.3 21.7-6.9 5.2-16.4 7.9-28.7 7.9-11.8 0-22.5-2.7-32.1-8v-16.2c10.2 6.3 20.7 9.4 31.5 9.4 16.2 0 24.2-4.9 24.2-14.7 0-5.3-1.9-9.4-5.8-12.4s-8.6-5.2-14.2-6.7-11.2-3.1-16.8-4.9c-5.6-1.8-10.4-4.8-14.3-9-3.8-4.3-5.8-9.9-5.8-16.7zm91.9 44.8c0-4.8.9-9.1 2.7-12.8 1.8-3.8 3.9-6.9 6.5-9.2 2.6-2.4 5.8-4.4 9.8-6 4-1.6 7.5-2.9 10.5-3.7 3-.8 6.7-1.4 10.9-1.8 4.2-.4 7.2-.6 8.9-.7 1.8-.1 3.9-.1 6.3-.1l17.1 1c0-9.6-2.6-16.5-7.8-20.7-5.2-4.1-13-6.2-23.2-6.2-11.5 0-21.9 1.7-31.1 5.1V92c10.5-3.7 21.1-5.5 31.9-5.5 14.9 0 26.2 3.8 34.1 11.3 7.8 7.5 11.7 18.5 11.7 33v31.9c0 6.8-1.6 12.6-4.7 17.4-3.2 4.8-7.2 8.3-12.2 10.5-5 2.1-9.6 3.6-13.9 4.5-4.3.8-8.6 1.2-12.8 1.2-3.3 0-6.6-.2-10-.6-3.4-.4-7.3-1.4-11.7-2.9-4.3-1.5-8.1-3.4-11.3-5.7-3.2-2.3-5.9-5.7-8.2-10-2.4-4.4-3.5-9.4-3.5-15.1zm15.4 0c0 13.2 9.6 19.9 28.9 19.9h.3c18.8 0 28.2-6.4 28.2-19.2v-20.4c-4.7-.8-11-1.2-18.9-1.2-25.7-.1-38.5 6.9-38.5 20.9zm96.1-20.9c0-11.1 1.5-20.5 4.5-28.3 3-7.7 7-13.4 12-16.9 5-3.5 9.8-6 14.4-7.3 4.5-1.4 9.3-2 14.3-2 9.1 0 16.7 1.3 22.9 3.8 6.2 2.5 10.5 5.8 13 9.8 2.5 4 4.2 7.4 5 10.3.9 2.9 1.3 5.8 1.3 8.6v80.1c0 4.7-.7 9-2 13-1.4 4-3.6 7.8-6.7 11.6s-7.9 6.7-14.3 8.8c-6.4 2.1-14.1 3.2-23.2 3.2-9.9 0-20-1.3-30.2-3.8v-14.5c9.1 2.6 18.6 3.8 28.6 3.8 6.8 0 12.5-.6 17.1-1.8 4.6-1.2 7.9-2.9 10-5.2 2.1-2.2 3.5-4.5 4.3-6.7.8-2.2 1.1-4.9 1.1-8V189c-8 2.6-16.3 3.9-24.9 3.9-4.7 0-9.1-.4-13.2-1.2-4.1-.8-8.3-2.4-12.5-4.7-4.3-2.4-7.9-5.4-11-9.2-3.1-3.7-5.5-8.7-7.4-15-2.2-6.2-3.1-13.5-3.1-21.7zm15.4-.1c0 8 .8 14.5 2.5 19.7 1.7 5.2 4.2 9 7.5 11.5s6.6 4.2 9.9 5c3.3.8 7.2 1.2 11.7 1.2 8.5 0 16.8-1.6 24.9-4.9v-55.1c0-11.9-8.9-17.9-26.8-17.9-3.8 0-7.2.5-10.2 1.4-3 .9-6.1 2.6-9.3 5.2-3.3 2.6-5.8 6.7-7.6 12.5-1.8 5.7-2.6 12.9-2.6 21.4zm98.7 28c-3-7.6-4.5-16.8-4.5-27.6s1.5-20 4.5-27.6c3-7.6 7-13.3 12.2-17 5.1-3.7 10.3-6.4 15.7-8 5.3-1.6 11.2-2.3 17.6-2.3 6.4 0 12.3.8 17.7 2.3 5.4 1.6 10.6 4.2 15.8 8 5.1 3.7 9.2 9.4 12.2 17s4.5 16.8 4.5 27.6-1.5 20-4.5 27.6c-3 7.6-7 13.3-12.2 17-5.1 3.7-10.4 6.4-15.8 8-5.4 1.6-11.3 2.3-17.7 2.3-6.4 0-12.3-.8-17.6-2.3-5.3-1.6-10.5-4.2-15.7-8-5.1-3.7-9.2-9.4-12.2-17zm19.2-58.7c-5.5 6.5-8.2 16.9-8.2 31.1 0 14.2 2.7 24.6 8.2 31.1 5.5 6.5 14.2 9.8 26.3 9.8 12.1 0 20.9-3.2 26.4-9.7 5.5-6.4 8.3-16.8 8.3-31.2 0-14.4-2.8-24.8-8.3-31.2-5.5-6.4-14.3-9.7-26.4-9.7-12.1 0-20.8 3.3-26.3 9.8zm100.8 84.4V96.9c13.9-6.9 28.9-10.4 45-10.4 13.4 0 23.7 3.4 31.1 10.2 7.4 6.8 11.1 16.4 11.1 28.7v69.3h-15.4v-69.3c0-3-.3-5.6-.9-8-.6-2.3-1.8-4.8-3.6-7.4-1.8-2.6-4.7-4.7-8.7-6.1-4-1.4-9.1-2.1-15.2-2.1-8.9 0-18.2 1.4-27.9 4.3v88.6H1058z" fill="#000"/></g></svg>