<svg width="25" height="27" viewBox="0 0 25 27" fill="none" xmlns="http://www.w3.org/2000/svg">
<path d="M16.8568 25.5887V21.235C16.899 20.6985 16.8266 20.1593 16.6445 19.653C16.4623 19.1467 16.1747 18.6851 15.8005 18.2987C19.3291 17.905 23.0374 16.5662 23.0374 10.4237C23.0371 8.85304 22.4336 7.34258 21.3518 6.20499C21.8641 4.83081 21.8278 3.31188 21.2507 1.96374C21.2507 1.96374 19.9246 1.56999 16.8568 3.62874C14.2812 2.92991 11.5663 2.92991 8.99067 3.62874C5.92287 1.56999 4.59686 1.96374 4.59686 1.96374C4.01968 3.31188 3.98346 4.83081 4.49572 6.20499C3.40584 7.35102 2.80172 8.87513 2.81012 10.4575C2.81012 16.555 6.51845 17.8937 10.047 18.3325C9.67728 18.715 9.39215 19.1711 9.21015 19.6711C9.02816 20.1712 8.95338 20.7041 8.99067 21.235V25.5887M8.99067 22.2137C3.37199 23.9012 3.37199 19.4012 1.12451 18.8387L8.99067 22.2137Z" stroke="black" stroke-width="2" stroke-linecap="round" stroke-linejoin="round"/>
</svg>
