<svg width="410" height="137" viewBox="0 0 410 137" fill="none" xmlns="http://www.w3.org/2000/svg">
<path d="M0 0H370C392.091 0 410 17.9086 410 40V137H40C17.9086 137 0 119.091 0 97V0Z" fill="white"/>
<g clip-path="url(#clip0)">
<path fill-rule="evenodd" clip-rule="evenodd" d="M112.311 75.0818V65.95H139.218V69.1658C139.218 83.12 128.858 94 114.357 94C99.0801 94 88 82.7998 88 68.5C88 54.1463 99.1484 43 113.95 43C124.049 43 132.494 47.845 137.035 55.7217L137.297 56.175L128.041 61.6632L127.757 61.1673C124.769 55.75 120.225 53.0612 114.019 53.0612C111.98 53.0533 109.959 53.4472 108.073 54.22C106.188 54.9929 104.474 56.1296 103.032 57.5645C101.589 58.9995 100.445 60.7045 99.6672 62.5812C98.8889 64.458 98.4912 66.4695 98.4968 68.5C98.4968 77.2522 105.258 83.9388 114.357 83.9388C120.922 83.9388 125.799 80.774 127.714 75.0818H112.311Z" fill="#222222"/>
<path fill-rule="evenodd" clip-rule="evenodd" d="M163.85 59.0251C162.95 58.7925 162.023 58.6792 161.093 58.688C158.336 58.688 153.993 59.7703 152.204 63.5585V59.0251H142.062V92.6596H152.539V77.9745C152.539 71.2736 156.33 68.837 160.532 68.837C161.645 68.8221 162.755 68.9362 163.842 69.177V59.0251H163.85Z" fill="#222222"/>
<path fill-rule="evenodd" clip-rule="evenodd" d="M199.027 75.2657C199.027 64.4396 192.482 58.0107 181.866 58.0107C172.974 58.0107 164.773 64.9127 164.773 75.7417C164.773 87.0411 173.182 93.6739 182.623 93.6739C191.307 93.6739 196.753 88.8006 198.407 82.9809L189.654 80.5442C188.689 83.1849 186.552 84.9331 182.754 84.9331C178.688 84.9331 175.171 82.2272 174.966 78.4362H198.811C198.962 77.3863 199.034 76.3265 199.027 75.2657ZM175.219 71.8147C175.427 69.3129 177.632 66.1311 182.048 66.1311C187.011 66.1311 188.803 69.2477 188.94 71.8147H175.219Z" fill="#222222"/>
<path fill-rule="evenodd" clip-rule="evenodd" d="M212.184 92.6596V73.3164C212.184 70.2706 214.176 67.4967 217.835 67.4967C221.625 67.4967 223.347 69.9986 223.347 73.1804V92.6709H233.684V73.2371C233.684 70.2592 235.676 67.4854 239.406 67.4854C243.137 67.4854 244.85 69.9872 244.85 73.1691V92.6596H254.982V70.8684C254.982 61.7337 248.779 58.0107 242.3 58.0107C237.682 58.0107 234.376 59.4982 231.687 63.2892C229.962 59.9742 226.448 58.0164 221.557 58.0164C217.835 58.0164 213.422 59.9119 211.7 62.8897V59.0251H201.707V92.6596H212.184Z" fill="#222222"/>
<path fill-rule="evenodd" clip-rule="evenodd" d="M268.997 92.671V43.6543H258.469V92.671H268.997Z" fill="#222222"/>
<path fill-rule="evenodd" clip-rule="evenodd" d="M282.829 92.6541V59.0225H272.406V92.6541H282.829Z" fill="#222222"/>
<path fill-rule="evenodd" clip-rule="evenodd" d="M271.563 49.1397C271.563 50.3362 271.92 51.5056 272.589 52.4993C273.259 53.493 274.21 54.266 275.322 54.7201C276.433 55.1741 277.656 55.2887 278.833 55.0492C280.01 54.8097 281.09 54.227 281.933 53.3751C282.777 52.5233 283.348 51.4408 283.572 50.2653C283.796 49.0898 283.664 47.8744 283.193 46.7737C282.722 45.673 281.933 44.7367 280.926 44.0839C279.919 43.4311 278.739 43.0912 277.538 43.1075C275.945 43.1284 274.425 43.7732 273.307 44.9023C272.188 46.0313 271.562 47.5537 271.563 49.1397Z" fill="#222222"/>
<path fill-rule="evenodd" clip-rule="evenodd" d="M296.771 73.3733C296.771 69.9733 298.979 67.4856 302.425 67.4856C306.215 67.4856 308.005 69.9875 308.005 73.3053V92.6598H318.482V71.5458C318.482 64.1791 314.623 58.147 306.007 58.147C302.493 58.147 298.288 59.7025 296.427 62.8843V59.0253H286.297V92.6598H296.771V73.3733Z" fill="#222222"/>
</g>
<defs>
<clipPath id="clip0">
<rect width="230.481" height="51" fill="white" transform="translate(88 43)"/>
</clipPath>
</defs>
</svg>
