<svg xmlns="http://www.w3.org/2000/svg" viewBox="0 0 810 180"><defs><style>.cls-1{fill:#fff;fill-rule:evenodd;}</style></defs><title>Asset 15</title><g id="Layer_2" data-name="Layer 2"><g id="Artwork"><g id="logo_light" data-name="logo light"><path class="cls-1" d="M85.44,113.23V81H180V92.35C180,141.6,143.59,180,92.63,180,38.94,180,0,140.47,0,90,0,39.34,39.18,0,91.2,0c35.49,0,65.17,17.1,81.13,44.9l.92,1.6L140.72,65.87l-1-1.75C129.22,45,113.25,35.51,91.44,35.51A54.34,54.34,0,0,0,36.89,90c0,30.89,23.76,54.49,55.74,54.49,23.07,0,40.21-11.17,46.94-31.26Z"/><path class="cls-1" d="M266.57,56.56a37.17,37.17,0,0,0-9.69-1.19c-9.69,0-24.95,3.82-31.24,17.19v-16H190V175.27h36.82V123.44c0-23.65,13.32-32.25,28.09-32.25a50.41,50.41,0,0,1,11.63,1.2V56.56Z"/><path class="cls-1" d="M390.19,113.88c0-38.21-23-60.9-60.31-60.9-31.25,0-60.07,24.36-60.07,62.58,0,39.88,29.55,63.29,62.73,63.29,30.52,0,49.66-17.2,55.47-37.74l-30.76-8.6C353.86,141.83,346.35,148,333,148c-14.29,0-26.65-9.55-27.37-22.93h83.8A74.93,74.93,0,0,0,390.19,113.88ZM306.52,101.7c.73-8.83,8.48-20.06,24-20.06,17.44,0,23.74,11,24.22,20.06Z"/><path class="cls-1" d="M436.44,175.27V107c0-10.75,7-20.54,19.86-20.54,13.32,0,19.37,8.83,19.37,20.06v68.79H512V106.72c0-10.51,7-20.3,20.11-20.3s19.13,8.83,19.13,20.06v68.79h35.61V98.36c0-32.24-21.8-45.38-44.57-45.38-16.23,0-27.85,5.25-37.3,18.63C498.92,59.91,486.57,53,469.38,53c-13.08,0-28.59,6.69-34.64,17.2V56.56H399.62V175.27Z"/><polygon class="cls-1" points="636.1 175.31 636.1 2.31 599.1 2.31 599.1 175.31 636.1 175.31 636.1 175.31"/><polygon class="cls-1" points="684.71 175.25 684.71 56.55 648.08 56.55 648.08 175.25 684.71 175.25 684.71 175.25"/><path class="cls-1" d="M645.11,21.67a21.29,21.29,0,1,0,21-21.29,21.28,21.28,0,0,0-21,21.29Z"/><path class="cls-1" d="M733.7,107.2c0-12,7.76-20.78,19.87-20.78,13.32,0,19.61,8.83,19.61,20.54v68.31H810V100.75c0-26-13.56-47.29-43.84-47.29-12.35,0-27.13,5.49-33.67,16.72V56.56h-35.6V175.27H733.7V107.2Z"/></g></g></g></svg>