<svg width="28" height="27" viewBox="0 0 28 27" fill="none" xmlns="http://www.w3.org/2000/svg">
<path d="M19.2758 9.36914C21.2708 9.36914 23.184 10.1625 24.5947 11.5747C26.0053 12.987 26.7978 14.9023 26.7978 16.8995V25.685H21.7832V16.8995C21.7832 16.2338 21.519 15.5953 21.0488 15.1246C20.5786 14.6539 19.9408 14.3894 19.2758 14.3894C18.6109 14.3894 17.9731 14.6539 17.5029 15.1246C17.0327 15.5953 16.7685 16.2338 16.7685 16.8995V25.685H11.7539V16.8995C11.7539 14.9023 12.5464 12.987 13.957 11.5747C15.3677 10.1625 17.2809 9.36914 19.2758 9.36914V9.36914Z" stroke="black" stroke-width="2" stroke-linecap="round" stroke-linejoin="round"/>
<path d="M6.73875 10.624H1.72412V25.6848H6.73875V10.624Z" stroke="black" stroke-width="2" stroke-linecap="round" stroke-linejoin="round"/>
<path d="M4.23143 6.85888C5.61618 6.85888 6.73875 5.73506 6.73875 4.34875C6.73875 2.96245 5.61618 1.83862 4.23143 1.83862C2.84668 1.83862 1.72412 2.96245 1.72412 4.34875C1.72412 5.73506 2.84668 6.85888 4.23143 6.85888Z" stroke="black" stroke-width="2" stroke-linecap="round" stroke-linejoin="round"/>
</svg>
