<svg width="301" height="70" viewBox="0 0 301 70" fill="none" xmlns="http://www.w3.org/2000/svg">
<path d="M223.964 21.9151C222.372 20.3919 220.461 19.2544 218.283 18.5328C216.112 17.8136 212.79 17.4639 208.127 17.4639H200.543V51.1743H211.565C215.919 51.1743 219.304 50.4481 221.626 49.0166C223.951 47.5828 225.767 45.5669 227.025 43.0281C228.271 40.5161 228.903 37.8054 228.903 34.9738C228.903 32.169 228.477 29.6523 227.638 27.4923C226.792 25.3149 225.555 23.4384 223.964 21.9151ZM223.448 34.6241C223.448 36.5308 223.146 38.226 222.55 39.6644C221.962 41.0843 221.095 42.3008 219.972 43.2814C218.857 44.2563 217.525 44.9244 216.013 45.2683C214.426 45.6297 211.816 45.8132 208.256 45.8132H205.869V22.912H206.88C210.335 22.912 213.013 23.0898 214.839 23.4419C216.584 23.7777 218.122 24.4539 219.41 25.4543C220.689 26.4466 221.69 27.7537 222.386 29.3385C223.091 30.9455 223.448 32.7243 223.448 34.6241Z" fill="#001959"/>
<path d="M269.993 17.4156H264.885V25.9364H261.01V30.716H264.885V46.3011C264.885 47.9494 265.285 49.1988 266.073 50.0168C266.867 50.8404 268.054 51.2572 269.603 51.2572C270.343 51.2572 271.373 51.1436 272.75 50.9117L273.455 50.7925V46.2398H270.633C270.324 46.2398 270.124 46.2242 270.01 46.2153C270 46.1294 269.993 46.0091 269.993 45.8408V30.716H274.444V25.9364H269.993V17.4156Z" fill="#001959"/>
<path d="M107.213 17.4478L95.4332 41.7352L83.5712 17.4478H81.3536L76.6211 51.2553H81.9842L84.6321 31.4145L94.329 51.2553H96.5443L106.114 31.594L108.759 51.2553H114.21L109.431 17.4478H107.213Z" fill="#001959"/>
<path d="M136.476 28.633C134.414 26.8029 131.973 25.877 129.197 25.877C125.76 25.877 122.806 27.1287 120.419 29.5962C118.035 32.0593 116.825 35.0602 116.825 38.5149C116.825 41.9673 118.026 44.9792 120.393 47.4685C122.769 49.9677 125.669 51.2347 129.015 51.2347C131.758 51.2347 134.261 50.2683 136.476 48.3573V51.2572L141.406 51.2347V25.9364H136.476V28.633ZM134.488 33.0683C135.935 34.5748 136.638 36.3961 136.638 38.6373C136.638 40.8752 135.924 42.6878 134.454 44.1789C132.985 45.6712 131.285 46.396 129.257 46.396C127.209 46.396 125.5 45.6417 124.032 44.0882C122.554 42.5271 121.836 40.7374 121.836 38.6176C121.836 36.4945 122.543 34.7027 123.996 33.1405C125.437 31.5924 127.151 30.8392 129.237 30.8392C131.329 30.8392 133.046 31.5684 134.488 33.0683Z" fill="#001959"/>
<path d="M191.135 28.633C189.073 26.8029 186.632 25.877 183.856 25.877C180.419 25.877 177.465 27.1287 175.078 29.5962C172.694 32.0593 171.484 35.0602 171.484 38.5149C171.484 41.9673 172.685 44.9792 175.052 47.4685C177.428 49.9677 180.328 51.2347 183.674 51.2347C186.417 51.2347 188.92 50.2683 191.135 48.3573V51.2572L196.065 51.2347V25.9364H191.135V28.633ZM189.147 33.0683C190.594 34.5748 191.297 36.3961 191.297 38.6373C191.297 40.8752 190.583 42.6878 189.113 44.1789C187.644 45.6712 185.944 46.396 183.916 46.396C181.868 46.396 180.159 45.6417 178.691 44.0882C177.213 42.5271 176.495 40.7374 176.495 38.6176C176.495 36.4945 177.202 34.7027 178.655 33.1405C180.096 31.5924 181.81 30.8392 183.896 30.8392C185.988 30.8392 187.705 31.5684 189.147 33.0683Z" fill="#001959"/>
<path d="M251.839 28.633C249.776 26.8029 247.335 25.877 244.559 25.877C241.122 25.877 238.169 27.1287 235.781 29.5962C233.397 32.0593 232.188 35.0602 232.188 38.5149C232.188 41.9673 233.388 44.9792 235.756 47.4685C238.131 49.9677 241.032 51.2347 244.377 51.2347C247.121 51.2347 249.623 50.2683 251.839 48.3573V51.2572L256.769 51.2347V25.9364H251.839V28.633ZM249.85 33.0683C251.297 34.5748 252.001 36.3961 252.001 38.6373C252.001 40.8752 251.287 42.6878 249.817 44.1789C248.348 45.6712 246.648 46.396 244.62 46.396C242.572 46.396 240.862 45.6417 239.394 44.0882C237.917 42.5271 237.199 40.7374 237.199 38.6176C237.199 36.4945 237.905 34.7027 239.359 33.1405C240.799 31.5924 242.513 30.8392 244.6 30.8392C246.691 30.8392 248.409 31.5684 249.85 33.0683Z" fill="#001959"/>
<path d="M295.95 28.633C293.887 26.8029 291.446 25.877 288.67 25.877C285.233 25.877 282.28 27.1287 279.892 29.5962C277.508 32.0593 276.299 35.0602 276.299 38.5149C276.299 41.9673 277.5 44.9792 279.867 47.4685C282.242 49.9677 285.143 51.2347 288.489 51.2347C291.232 51.2347 293.734 50.2683 295.95 48.3573V51.2572L300.88 51.2347V25.9364H295.95V28.633ZM293.961 33.0683C295.408 34.5748 296.112 36.3961 296.112 38.6373C296.112 40.8752 295.398 42.6878 293.928 44.1789C292.459 45.6712 290.759 46.396 288.731 46.396C286.683 46.396 284.973 45.6417 283.505 44.0882C282.028 42.5271 281.31 40.7374 281.31 38.6176C281.31 36.4945 282.016 34.7027 283.47 33.1405C284.91 31.5924 286.625 30.8392 288.711 30.8392C290.802 30.8392 292.52 31.5684 293.961 33.0683Z" fill="#001959"/>
<path d="M158.049 41.9061L150.991 25.9361H145.495L155.272 48.2977L150.481 59.4129H155.976L170.412 25.9361H164.872L158.049 41.9061Z" fill="#001959"/>
<path d="M12.4182 25.4167V57.7347C12.4182 58.558 12.8517 59.1922 13.555 59.6026L29.1032 68.8611C29.8028 69.2693 30.6634 69.3469 31.363 68.9387L46.9082 59.6307C47.6133 59.2193 48.048 58.5602 48.048 57.7347V25.3882L30.2331 36.1511L12.4182 25.4167Z" fill="#001959"/>
<path d="M7.15198 54.354V23.1568C7.15198 22.68 7.27056 22.0775 8.1892 21.6161L29.5856 8.69145C29.9868 8.45944 30.4789 8.45944 30.8801 8.69145L52.6761 21.8553C53.0843 22.0913 53.3215 22.2459 53.3134 22.7888L53.3134 54.354C53.3134 55.0088 54.0255 55.3172 54.5897 54.9998L58.9709 52.359C59.3866 52.1251 59.5855 51.7728 59.5855 51.2904V18.9987C59.5855 18.4297 59.3981 18.2349 58.9952 17.9974L30.8876 1.02912C30.4826 0.790386 29.9827 0.789732 29.5771 1.02741L1.5229 17.9805C1.11837 18.2175 0.879883 18.6219 0.879883 19.096V51.2904C0.879883 51.7556 1.07311 52.1028 1.46575 52.3429L5.88994 55.0087C6.4545 55.3539 7.15198 55.023 7.15198 54.354Z" fill="#001959"/>
<path d="M42.9291 22.3876L30.2327 14.7375L17.5364 22.3876L30.2327 30.0376L42.9291 22.3876Z" fill="#0063FF"/>
</svg>
