<svg width="46" height="46" viewBox="0 0 46 46" fill="none" xmlns="http://www.w3.org/2000/svg">
<path d="M33.9634 40.6458H10.9634C10.6245 40.6458 10.2995 40.7775 10.0599 41.012C9.82025 41.2464 9.68562 41.5643 9.68562 41.8958C9.68562 42.2274 9.82025 42.5453 10.0599 42.7797C10.2995 43.0141 10.6245 43.1458 10.9634 43.1458H33.9634C34.3023 43.1458 34.6273 43.0141 34.8669 42.7797C35.1066 42.5453 35.2412 42.2274 35.2412 41.8958C35.2412 41.5643 35.1066 41.2464 34.8669 41.012C34.6273 40.7775 34.3023 40.6458 33.9634 40.6458Z" fill="url(#paint0_linear)"/>
<path d="M22.6806 3.14585C17.9361 3.14585 13.386 4.98959 10.0312 8.27148C6.67639 11.5534 4.79167 16.0046 4.79167 20.6458C4.79167 21.2083 4.79167 21.7583 4.88112 22.3083C5.21039 25.6837 6.5349 28.8927 8.69364 31.5454C10.8524 34.1981 13.7524 36.1802 17.0411 37.2507C20.3298 38.3212 23.8656 38.4341 27.2187 37.5756C30.5717 36.717 33.5976 34.9241 35.9285 32.4147C38.2594 29.9053 39.795 26.7875 40.3484 23.4403C40.9019 20.0932 40.4495 16.6608 39.0462 13.5605C37.6429 10.4602 35.3491 7.82544 32.4438 5.97654C29.5384 4.12764 26.1466 3.14423 22.6806 3.14585ZM22.6806 5.64585C26.7208 5.64928 30.5964 7.21254 33.465 9.99585V11.2458C28.4147 9.54562 22.9248 9.56765 17.8889 11.3083C17.4866 10.9248 16.9816 10.6605 16.4322 10.5458H16.1128C15.9595 10.0208 15.8189 9.49585 15.7039 8.95835C15.5889 8.42085 15.525 7.94585 15.4611 7.43335C17.6793 6.2623 20.16 5.64811 22.6806 5.64585ZM18.8472 12.9833C23.4877 11.4632 28.517 11.5204 33.12 13.1458C32.4974 16.3216 31.1379 19.3152 29.1461 21.8958C28.589 21.665 27.9723 21.6096 27.3815 21.7373C26.7908 21.865 26.2553 22.1694 25.8495 22.6083C25.4022 22.3583 24.955 22.1083 24.5717 21.8208C21.9922 20.1372 19.8381 17.9017 18.2722 15.2833C18.5253 14.9764 18.7096 14.6207 18.813 14.2396C18.9165 13.8584 18.9368 13.4602 18.8728 13.0708L18.8472 12.9833ZM13.7361 8.48335C13.7361 8.74585 13.8128 9.02084 13.8639 9.28335C13.9789 9.83334 14.1322 10.3708 14.2856 10.9083C13.7963 11.1918 13.4024 11.6091 13.1527 12.1089C12.9029 12.6087 12.8081 13.169 12.88 13.7208C10.863 15.0093 9.06145 16.5947 7.53889 18.4208C7.84441 16.443 8.55119 14.545 9.61767 12.8384C10.6841 11.1318 12.0888 9.65104 13.7489 8.48335H13.7361ZM13.7361 28.1208C13.2373 28.2846 12.7915 28.5743 12.4438 28.9606C12.096 29.3469 11.8586 29.8161 11.7556 30.3208H10.9378C8.87426 27.9132 7.6401 24.9298 7.41112 21.7958L7.55167 21.5583C9.15173 19.1313 11.2435 17.0509 13.6978 15.4458C14.0658 15.8218 14.5308 16.0934 15.0436 16.2321C15.5564 16.3707 16.098 16.3711 16.6111 16.2333C18.3202 19.0588 20.6565 21.4724 23.4472 23.2958C23.9711 23.6333 24.5078 23.9458 25.0445 24.2458C25.0015 24.7239 25.0805 25.205 25.2745 25.6458C22.9361 27.4624 20.2388 28.7859 17.3522 29.5333C17.0175 28.9215 16.4713 28.446 15.8112 28.1919C15.1511 27.9377 14.4201 27.9214 13.7489 28.1458L13.7361 28.1208ZM22.6806 35.6208C20.0819 35.6215 17.5262 34.9718 15.2567 33.7333L15.6145 33.6583C16.1229 33.4951 16.5773 33.2014 16.9302 32.8079C17.283 32.4143 17.5215 31.9353 17.6206 31.4208C20.8878 30.6057 23.9381 29.1138 26.565 27.0458C27.189 27.4026 27.9259 27.5208 28.6336 27.3777C29.3414 27.2346 29.97 26.8403 30.3983 26.2708C32.2011 26.7293 34.0556 26.9645 35.9183 26.9708H36.5956C35.3628 29.5641 33.398 31.7585 30.9326 33.2955C28.4672 34.8325 25.604 35.648 22.6806 35.6458V35.6208ZM30.9989 24.4958C30.9977 23.9719 30.852 23.4581 30.5772 23.0083C32.7037 20.291 34.1836 17.1437 34.9089 13.7958C35.5478 14.0875 36.1782 14.4125 36.8 14.7708C38.2054 18.0195 38.3954 21.6487 37.3367 25.0208C35.2153 25.1813 33.0812 25.0168 31.0117 24.5333L30.9989 24.4958Z" fill="url(#paint1_linear)"/>
<defs>
<linearGradient id="paint0_linear" x1="34.3101" y1="43.0344" x2="9.67141" y2="39.165" gradientUnits="userSpaceOnUse">
<stop stop-color="#FFDC7E"/>
<stop offset="1" stop-color="#FF7C71"/>
</linearGradient>
<linearGradient id="paint1_linear" x1="39.2742" y1="36.5852" x2="3.92956" y2="36.03" gradientUnits="userSpaceOnUse">
<stop stop-color="#FFDC7E"/>
<stop offset="1" stop-color="#FF7C71"/>
</linearGradient>
</defs>
</svg>
