<svg width="80" height="80" viewBox="0 0 80 80" fill="none" xmlns="http://www.w3.org/2000/svg">
<path d="M39.9904 4.55751e-06C29.3843 4.55751e-06 19.2126 4.21428 11.7129 11.7157C4.21327 19.2172 0 29.3913 0 40C0 41.2857 -1.91541e-07 42.5429 0.199952 43.8C0.936034 51.515 3.89697 58.85 8.72282 64.9133C13.5487 70.9766 20.0316 75.5071 27.3835 77.954C34.7354 80.4009 42.6396 80.6589 50.1354 78.6965C57.6311 76.7341 64.3955 72.636 69.6062 66.9002C74.8169 61.1644 78.2495 54.0381 79.4868 46.3874C80.7241 38.7368 79.7127 30.8914 76.5757 23.805C73.4386 16.7185 68.3109 10.6962 61.816 6.47017C55.3211 2.24411 47.7387 -0.00369426 39.9904 4.55751e-06V4.55751e-06ZM39.9904 5.71429C49.0224 5.72214 57.6863 9.2953 64.099 15.6571V18.5143C52.809 14.6281 40.5364 14.6784 29.2787 18.6571C28.3794 17.7806 27.2505 17.1763 26.0224 16.9143H25.3082C24.9655 15.7143 24.6513 14.5143 24.3942 13.2857C24.1371 12.0571 23.9943 10.9714 23.8514 9.8C28.8102 7.12334 34.3557 5.71947 39.9904 5.71429V5.71429ZM31.4211 22.4857C41.7948 19.011 53.0376 19.1419 63.3277 22.8571C61.9359 30.116 58.8967 36.9584 54.4441 42.8571C53.1987 42.3296 51.82 42.203 50.4994 42.4948C49.1788 42.7866 47.9817 43.4825 47.0745 44.4857C46.0747 43.9143 45.0749 43.3429 44.218 42.6857C38.4517 38.8374 33.6361 33.7276 30.1357 27.7429C30.7014 27.0412 31.1133 26.2283 31.3446 25.3571C31.5759 24.4859 31.6214 23.5757 31.4782 22.6857L31.4211 22.4857ZM19.9952 12.2C19.9952 12.8 20.1666 13.4286 20.2809 14.0286C20.538 15.2857 20.8807 16.5143 21.2235 17.7429C20.1297 18.3907 19.2493 19.3447 18.691 20.487C18.1326 21.6293 17.9207 22.9101 18.0814 24.1714C13.5725 27.1166 9.54506 30.7402 6.14139 34.9143C6.82436 30.3936 8.40437 26.0552 10.7885 22.1544C13.1726 18.2535 16.3126 14.869 20.0238 12.2H19.9952ZM19.9952 57.0857C18.8801 57.4601 17.8836 58.1222 17.1062 59.0052C16.3288 59.8881 15.7981 60.9606 15.5677 62.1143H13.7396C9.1266 56.611 6.36763 49.7919 5.85574 42.6286L6.16995 42.0857C9.74686 36.5381 14.423 31.7831 19.9095 28.1143C20.7321 28.9736 21.7716 29.5945 22.9181 29.9114C24.0645 30.2282 25.2753 30.2292 26.4223 29.9143C30.2429 36.3724 35.4656 41.8892 41.7043 46.0572C42.8755 46.8286 44.0752 47.5429 45.2749 48.2286C45.1789 49.3214 45.3556 50.4209 45.7891 51.4286C40.5616 55.5806 34.5319 58.6059 28.079 60.3143C27.3307 58.9158 26.1096 57.829 24.634 57.248C23.1584 56.6671 21.5244 56.6298 20.0238 57.1429L19.9952 57.0857ZM39.9904 74.2286C34.1811 74.2302 28.4679 72.745 23.3944 69.9143L24.1942 69.7429C25.3309 69.3698 26.3466 68.6985 27.1355 67.7989C27.9243 66.8993 28.4573 65.8045 28.6789 64.6286C35.9828 62.7655 42.8016 59.3553 48.6741 54.6286C50.069 55.444 51.7163 55.7142 53.2985 55.3871C54.8807 55.06 56.286 54.1588 57.2435 52.8571C61.2736 53.9051 65.4193 54.4427 69.5834 54.4571H71.0973C68.3415 60.3845 63.9491 65.4004 58.4378 68.9135C52.9264 72.4267 46.5258 74.2906 39.9904 74.2857V74.2286ZM58.586 48.8C58.5832 47.6025 58.2576 46.4279 57.6434 45.4C62.3972 39.1889 65.7054 31.9951 67.3268 24.3429C68.755 25.0095 70.1642 25.7524 71.5543 26.5714C74.696 33.9969 75.1208 42.2923 72.754 50C68.0116 50.3668 63.241 49.9908 58.6146 48.8857L58.586 48.8Z" fill="url(#paint0_linear)"/>
<defs>
<linearGradient id="paint0_linear" x1="77.0855" y1="76.4327" x2="-1.92809" y2="75.2188" gradientUnits="userSpaceOnUse">
<stop stop-color="#FFDC7E"/>
<stop offset="1" stop-color="#FF7C71"/>
</linearGradient>
</defs>
</svg>
