<svg width="80" height="77" viewBox="0 0 80 77" fill="none" xmlns="http://www.w3.org/2000/svg">
<path d="M40 0C62.092 0 80 17.6359 80 39.3922C80 56.7248 68.636 71.4418 52.844 76.7085L51.94 77L40.324 47.2589C42.3817 47.1613 44.3234 46.2919 45.7508 44.8291C47.1782 43.3663 47.983 41.4209 48 39.3922C48.0002 37.8479 47.5396 36.3376 46.6753 35.049C45.811 33.7604 44.5812 32.7503 43.1388 32.1444C41.6964 31.5385 40.1049 31.3634 38.5623 31.641C37.0197 31.9185 35.5939 32.6364 34.4622 33.7054C33.3305 34.7745 32.5427 36.1475 32.1969 37.6538C31.8511 39.1601 31.9625 40.7333 32.5171 42.1778C33.0718 43.6223 34.0453 44.8744 35.3167 45.7785C36.5881 46.6825 38.1012 47.1987 39.668 47.2628L28.056 77L27.156 76.7085C19.2372 74.0638 12.359 69.0418 7.48809 62.3485C2.61719 55.6552 -0.00152952 47.627 6.70217e-07 39.3922C6.70217e-07 17.6359 17.908 0 40 0ZM40 7.87845C32.9926 7.87569 26.1781 10.1382 20.6027 14.3185C15.0274 18.4988 10.9995 24.3659 9.13753 31.0187C7.27559 37.6715 7.68257 44.7423 10.296 51.1453C12.9094 57.5483 17.5847 62.9295 23.604 66.4626L29.524 51.3005C27.0568 49.198 25.3014 46.4027 24.4933 43.2896C23.6853 40.1766 23.8632 36.8946 25.0033 33.884C26.1433 30.8734 28.1909 28.2781 30.8715 26.4462C33.552 24.6144 36.7373 23.6335 40 23.6353C43.2631 23.6327 46.4489 24.613 49.1301 26.4445C51.8112 28.2761 53.8595 30.8714 55 33.8822C56.1406 36.893 56.3188 40.1753 55.5109 43.2887C54.703 46.4021 52.9475 49.1977 50.48 51.3005C52.74 57.1069 54.716 62.1609 56.396 66.4665C62.4173 62.9342 67.0945 57.5529 69.7092 51.1491C72.3239 44.7453 72.7315 37.6732 70.8693 31.0192C69.0072 24.3652 64.9783 18.4972 59.4016 14.3167C53.8248 10.1361 47.0086 7.87424 40 7.87845V7.87845Z" fill="url(#paint0_linear)"/>
<defs>
<linearGradient id="paint0_linear" x1="77.0855" y1="73.5665" x2="-1.92661" y2="72.3053" gradientUnits="userSpaceOnUse">
<stop stop-color="#FFDC7E"/>
<stop offset="1" stop-color="#FF7C71"/>
</linearGradient>
</defs>
</svg>
