<svg width="41" height="41" viewBox="0 0 41 41" fill="none" xmlns="http://www.w3.org/2000/svg">
<path d="M20.5 4.14584C29.9351 4.14584 37.5833 11.6075 37.5833 20.8125C37.5833 28.1458 32.73 34.3725 25.9855 36.6008L25.5994 36.7242L20.6384 24.1408C21.5172 24.0996 22.3465 23.7317 22.9561 23.1128C23.5657 22.4939 23.9094 21.6708 23.9167 20.8125C23.9168 20.1591 23.72 19.5201 23.3509 18.9749C22.9818 18.4297 22.4566 18.0023 21.8405 17.746C21.2245 17.4896 20.5448 17.4156 19.886 17.533C19.2272 17.6504 18.6182 17.9542 18.1349 18.4065C17.6516 18.8588 17.3151 19.4397 17.1674 20.077C17.0198 20.7143 17.0673 21.3799 17.3042 21.9911C17.5411 22.6022 17.9569 23.132 18.4998 23.5145C19.0428 23.897 19.6891 24.1154 20.3582 24.1425L15.3989 36.7242L15.0145 36.6008C11.6326 35.4819 8.69499 33.3571 6.61471 30.5252C4.53443 27.6933 3.41602 24.2966 3.41667 20.8125C3.41667 11.6075 11.0649 4.14584 20.5 4.14584ZM20.5 7.47918C17.5073 7.47801 14.5969 8.43526 12.2157 10.2039C9.83461 11.9726 8.11436 14.4549 7.31916 17.2697C6.52396 20.0845 6.69777 23.0761 7.81391 25.7852C8.93004 28.4943 10.9268 30.771 13.4975 32.2658L16.0259 25.8508C14.9722 24.9613 14.2225 23.7786 13.8774 22.4615C13.5323 21.1444 13.6083 19.7558 14.0952 18.482C14.582 17.2082 15.4565 16.1102 16.6014 15.3351C17.7462 14.5601 19.1065 14.1451 20.5 14.1458C21.8936 14.1447 23.2542 14.5595 24.3993 15.3344C25.5444 16.1093 26.4192 17.2074 26.9063 18.4812C27.3934 19.7551 27.4695 21.1438 27.1245 22.4611C26.7794 23.7784 26.0297 24.9612 24.9758 25.8508C25.941 28.3075 26.785 30.4458 27.5025 32.2675C30.074 30.773 32.0716 28.4962 33.1883 25.7868C34.305 23.0774 34.4791 20.0852 33.6838 17.2699C32.8885 14.4546 31.1678 11.9719 28.7861 10.2032C26.4043 8.43439 23.4933 7.4774 20.5 7.47918Z" fill="url(#paint0_linear)"/>
<defs>
<linearGradient id="paint0_linear" x1="36.3386" y1="35.2715" x2="2.59401" y2="34.7278" gradientUnits="userSpaceOnUse">
<stop stop-color="#FFDC7E"/>
<stop offset="1" stop-color="#FF7C71"/>
</linearGradient>
</defs>
</svg>
