<svg width="270" height="90" viewBox="0 0 270 90" fill="none" xmlns="http://www.w3.org/2000/svg">
<path d="M0 0H229.343C251.434 0 269.343 17.9086 269.343 40V90H40C17.9086 90 0 72.0914 0 50V0Z" fill="white"/>
<g clip-path="url(#clip0)">
<path d="M62.5393 66.3504C70.158 66.3504 76.8469 62.4263 80.6386 56.5168C82.6171 53.2999 83.758 49.514 83.758 45.4621C83.758 33.7783 74.2719 24.3066 62.5703 24.3066C50.8688 24.3066 41.3828 33.7783 41.3828 45.4621C41.3828 50.4064 43.0816 54.9547 45.9281 58.5566C47.2617 60.1728 48.8332 61.5907 50.59 62.7584V45.2701C50.5899 45.2571 50.589 45.2442 50.5881 45.2314C50.5871 45.218 50.5861 45.2046 50.5861 45.1911C50.5861 45.1775 50.5871 45.164 50.5881 45.1507C50.589 45.1378 50.5899 45.125 50.59 45.112V44.9636H50.5972C50.7144 38.1741 56.0031 32.7057 62.5213 32.7057C69.1128 32.7057 74.456 38.2955 74.456 45.1911C74.456 52.0865 69.1128 57.6765 62.5213 57.6765C59.9539 57.6765 57.5821 56.8204 55.6354 55.3778V65.2218C57.8619 65.9704 60.1931 66.3514 62.5393 66.3504Z" fill="#AB3328"/>
<path d="M62.8972 52.2538C66.7796 52.2538 69.9269 49.0977 69.9269 45.2046C69.9269 41.3113 66.7796 38.1553 62.8972 38.1553C59.0147 38.1553 55.8672 41.3113 55.8672 45.2046C55.8672 49.0977 59.0147 52.2538 62.8972 52.2538Z" fill="#DFC942"/>
<path d="M97.1172 52.5397V38.3828H103.048C106.283 38.3828 108.36 40.2772 108.36 43.2082C108.36 46.0994 106.163 48.1133 103.048 48.1133H100.272V52.5397H97.1172ZM102.868 45.4414C104.346 45.4414 105.205 44.6238 105.205 43.2082C105.205 41.8125 104.366 41.0547 102.868 41.0547H100.272V45.4613H102.868V45.4414Z" fill="#3D3A3A"/>
<path d="M115.211 52.5397V38.3828H125.255V41.0747H118.366V44.0257H124.656V46.7375H118.366V49.8679H125.275V52.5397H115.211Z" fill="#3D3A3A"/>
<path d="M140.591 52.5397L138.075 48.1531H135.499V52.5397H132.344V38.3828H138.774C141.929 38.3828 143.946 40.2971 143.946 43.268C143.946 45.202 142.967 46.7972 141.31 47.5948L144.246 52.5397H140.591ZM138.434 45.5212C139.912 45.5212 140.791 44.6637 140.791 43.248C140.791 41.8324 139.932 41.0348 138.434 41.0348H135.499V45.5411H138.434V45.5212Z" fill="#3D3A3A"/>
<path d="M176.178 52.8186C172.324 52.8186 169.828 50.3261 169.828 46.4579V44.4441C169.828 40.5759 172.324 38.0835 176.178 38.0835C180.092 38.0835 182.529 40.516 182.529 44.4441V46.4579C182.529 50.386 180.092 52.8186 176.178 52.8186ZM176.178 40.7952C174.161 40.7952 172.983 42.0913 172.983 44.3245V46.5975C172.983 48.8507 174.141 50.1268 176.178 50.1268C178.195 50.1268 179.373 48.8308 179.373 46.5975V44.3245C179.373 42.0714 178.215 40.7952 176.178 40.7952Z" fill="#3D3A3A"/>
<path d="M198.482 52.5397L192.792 43.8463V52.5397H189.695V38.3828H192.611L198.323 47.0764V38.3828H201.418V52.5397H198.482Z" fill="#3D3A3A"/>
<path d="M218.369 52.5397L217.451 49.6486H212.379L211.461 52.5397H208.305L213.396 38.3828H216.472L221.565 52.5397H218.369ZM216.612 47.0764L214.915 41.7127L213.197 47.0764H216.612Z" fill="#3D3A3A"/>
<path d="M160.241 47.5553C160.001 49.1903 158.903 50.1674 157.246 50.1674C154.55 50.1674 154.15 47.9341 154.15 46.5981V44.365C154.15 43.029 154.55 40.7959 157.246 40.7959C158.883 40.7959 160.001 41.7729 160.241 43.3879L163.177 42.9493C162.777 40.0781 160.421 38.124 157.266 38.124C153.371 38.124 151.035 40.4967 151.035 44.5046V46.4786C151.035 50.4664 153.371 52.8591 157.266 52.8591C160.441 52.8591 162.797 50.9051 163.177 48.0338L160.241 47.5553Z" fill="#3D3A3A"/>
</g>
<defs>
<clipPath id="clip0">
<rect width="180.263" height="42.0438" fill="white" transform="translate(41.3828 24.3066)"/>
</clipPath>
</defs>
</svg>
