<svg width="130" height="30" viewBox="0 0 130 30" fill="none" xmlns="http://www.w3.org/2000/svg">
<path d="M15.2574 30C20.7518 30 25.5756 27.2 28.3101 22.9833C29.7369 20.6879 30.5597 17.9865 30.5597 15.0953C30.5597 6.75841 23.7186 0 15.2798 0C6.84101 0 0 6.75841 0 15.0953C0 18.6233 1.22509 21.8687 3.27793 24.4388C4.23964 25.592 5.37296 26.6037 6.63993 27.4369V14.9583C6.63987 14.949 6.6392 14.9398 6.63854 14.9307C6.63784 14.9211 6.63715 14.9116 6.63715 14.9019C6.63715 14.8922 6.63785 14.8826 6.63854 14.8731C6.6392 14.8639 6.63987 14.8548 6.63993 14.8455V14.7396H6.64511C6.72963 9.89498 10.5437 5.99307 15.2444 5.99307C19.998 5.99307 23.8514 9.98163 23.8514 14.9019C23.8514 19.8221 19.998 23.8108 15.2444 23.8108C13.3929 23.8108 11.6824 23.1999 10.2785 22.1706V29.1947C11.8842 29.7288 13.5654 30.0007 15.2574 30Z" fill="#AB3328"/>
<path d="M15.5163 19.9417C18.3162 19.9417 20.5859 17.6897 20.5859 14.9118C20.5859 12.1338 18.3162 9.88184 15.5163 9.88184C12.7164 9.88184 10.4465 12.1338 10.4465 14.9118C10.4465 17.6897 12.7164 19.9417 15.5163 19.9417Z" fill="#DFC942"/>
<path d="M40.1947 20.1454V10.0439H44.4719C46.8049 10.0439 48.3027 11.3956 48.3027 13.487C48.3027 15.55 46.7185 16.987 44.4719 16.987H42.4701V20.1454H40.1947ZM44.3423 15.0805C45.408 15.0805 46.0272 14.4971 46.0272 13.487C46.0272 12.4911 45.4224 11.9504 44.3423 11.9504H42.4701V15.0947H44.3423V15.0805Z" fill="black"/>
<path d="M53.2421 20.1454V10.0439H60.4859V11.9647H55.5175V14.0703H60.0539V16.0053H55.5175V18.239H60.5003V20.1454H53.2421Z" fill="black"/>
<path d="M71.5466 20.1454L69.7321 17.0154H67.8743V20.1454H65.5989V10.0439H70.2361C72.5115 10.0439 73.9661 11.4098 73.9661 13.5297C73.9661 14.9097 73.2604 16.0479 72.0651 16.617L74.1821 20.1454H71.5466ZM69.9913 15.1374C71.057 15.1374 71.6907 14.5256 71.6907 13.5154C71.6907 12.5053 71.0714 11.9362 69.9913 11.9362H67.8743V15.1516H69.9913V15.1374Z" fill="black"/>
<path d="M97.2094 20.3442C94.4299 20.3442 92.6298 18.5657 92.6298 15.8056V14.3686C92.6298 11.6085 94.4299 9.83008 97.2094 9.83008C100.032 9.83008 101.789 11.5658 101.789 14.3686V15.8056C101.789 18.6084 100.032 20.3442 97.2094 20.3442ZM97.2094 11.765C95.7549 11.765 94.9052 12.6898 94.9052 14.2833V15.9052C94.9052 17.5129 95.7404 18.4235 97.2094 18.4235C98.6639 18.4235 99.5136 17.4987 99.5136 15.9052V14.2833C99.5136 12.6756 98.6783 11.765 97.2094 11.765Z" fill="black"/>
<path d="M113.296 20.1454L109.192 13.9423V20.1454H106.959V10.0439H109.062L113.181 16.2471V10.0439H115.413V20.1454H113.296Z" fill="black"/>
<path d="M127.639 20.1454L126.977 18.0825H123.319L122.657 20.1454H120.381L124.053 10.0439H126.271L129.944 20.1454H127.639ZM126.372 16.2471L125.148 12.4199L123.909 16.2471H126.372Z" fill="black"/>
<path d="M85.7174 16.589C85.5446 17.7556 84.7525 18.4528 83.5572 18.4528C81.613 18.4528 81.325 16.8593 81.325 15.906V14.3126C81.325 13.3593 81.613 11.7659 83.5572 11.7659C84.7381 11.7659 85.5446 12.463 85.7174 13.6154L87.8344 13.3024C87.5464 11.2537 85.847 9.85938 83.5716 9.85938C80.7633 9.85938 79.0784 11.5524 79.0784 14.4122V15.8207C79.0784 18.6662 80.7633 20.3735 83.5716 20.3735C85.8614 20.3735 87.5608 18.9792 87.8344 16.9304L85.7174 16.589Z" fill="black"/>
</svg>
