<svg width="410" height="137" viewBox="0 0 410 137" fill="none" xmlns="http://www.w3.org/2000/svg">
<path d="M0 0H370C392.091 0 410 17.9086 410 40V137H40C17.9086 137 0 119.091 0 97V0Z" fill="white"/>
<g clip-path="url(#clip0)">
<path d="M95.2048 101C106.802 101 116.984 95.0267 122.756 86.031C125.768 81.1342 127.504 75.3712 127.504 69.2033C127.504 51.4179 113.064 37 95.2521 37C77.4398 37 63 51.4179 63 69.2033C63 76.7297 65.5859 83.6532 69.919 89.1361C71.9489 91.5963 74.3411 93.7546 77.0154 95.532V68.911C77.0152 68.8912 77.0138 68.8716 77.0124 68.8522C77.0109 68.8317 77.0095 68.8114 77.0095 68.7907C77.0095 68.77 77.011 68.7495 77.0124 68.7293C77.0138 68.7097 77.0152 68.6902 77.0154 68.6704V68.4445H77.0263C77.2047 58.1093 85.2553 49.7852 95.1774 49.7852C105.211 49.7852 113.345 58.2941 113.345 68.7907C113.345 79.2871 105.211 87.7964 95.1774 87.7964C91.2693 87.7964 87.6588 86.4931 84.6955 84.2973V99.282C88.0848 100.421 91.6334 101.001 95.2048 101Z" fill="#AB3328"/>
<path d="M95.752 79.5421C101.662 79.5421 106.453 74.7378 106.453 68.8116C106.453 62.8852 101.662 58.0811 95.752 58.0811C89.842 58.0811 85.0508 62.8852 85.0508 68.8116C85.0508 74.7378 89.842 79.5421 95.752 79.5421Z" fill="#DFC942"/>
<path d="M147.844 79.9771V58.4272H156.872C161.796 58.4272 164.958 61.3109 164.958 65.7725C164.958 70.1736 161.614 73.2392 156.872 73.2392H152.647V79.9771H147.844ZM156.598 69.172C158.848 69.172 160.155 67.9274 160.155 65.7725C160.155 63.6479 158.878 62.4944 156.598 62.4944H152.647V69.2023H156.598V69.172Z" fill="#3D3A3A"/>
<path d="M175.383 79.9771V58.4272H190.673V62.525H180.186V67.0169H189.761V71.1449H180.186V75.9101H190.703V79.9771H175.383Z" fill="#3D3A3A"/>
<path d="M214.019 79.9771L210.189 73.2998H206.268V79.9771H201.465V58.4272H211.253C216.056 58.4272 219.126 61.3412 219.126 65.8636C219.126 68.8076 217.637 71.2358 215.114 72.4499L219.582 79.9771H214.019ZM210.736 69.2934C212.986 69.2934 214.323 67.9882 214.323 65.8331C214.323 63.6782 213.016 62.4642 210.736 62.4642H206.268V69.3237H210.736V69.2934Z" fill="#3D3A3A"/>
<path d="M268.186 80.4013C262.319 80.4013 258.52 76.6072 258.52 70.719V67.6534C258.52 61.7652 262.319 57.9712 268.186 57.9712C274.144 57.9712 277.852 61.6741 277.852 67.6534V70.719C277.852 76.6983 274.144 80.4013 268.186 80.4013ZM268.186 62.099C265.116 62.099 263.322 64.0719 263.322 67.4714V70.9314C263.322 74.3612 265.085 76.3038 268.186 76.3038C271.256 76.3038 273.05 74.3309 273.05 70.9314V67.4714C273.05 64.0416 271.286 62.099 268.186 62.099Z" fill="#3D3A3A"/>
<path d="M302.142 79.9771L293.479 66.7438V79.9771H288.766V58.4272H293.205L301.899 71.6607V58.4272H306.61V79.9771H302.142Z" fill="#3D3A3A"/>
<path d="M332.418 79.9771L331.02 75.5763H323.299L321.902 79.9771H317.098L324.848 58.4272H329.53L337.283 79.9771H332.418ZM329.743 71.6607L327.16 63.496L324.544 71.6607H329.743Z" fill="#3D3A3A"/>
<path d="M243.931 72.3902C243.567 74.879 241.895 76.3663 239.372 76.3663C235.268 76.3663 234.66 72.9669 234.66 70.9331V67.5339C234.66 65.5002 235.268 62.1009 239.372 62.1009C241.864 62.1009 243.567 63.5881 243.931 66.0465L248.4 65.3788C247.792 61.0082 244.205 58.0337 239.402 58.0337C233.474 58.0337 229.918 61.6455 229.918 67.7464V70.7512C229.918 76.8216 233.474 80.4638 239.402 80.4638C244.235 80.4638 247.822 77.4893 248.4 73.1185L243.931 72.3902Z" fill="#3D3A3A"/>
</g>
<defs>
<clipPath id="clip0">
<rect width="274.4" height="64" fill="white" transform="translate(63 37)"/>
</clipPath>
</defs>
</svg>
