<svg width="277" height="63" viewBox="0 0 277 63" fill="none" xmlns="http://www.w3.org/2000/svg">
<path d="M32.51 63C44.2173 63 54.4957 57.12 60.3223 48.2649C63.3625 43.4446 65.1157 37.7716 65.1157 31.7001C65.1157 14.1927 50.5389 0 32.5577 0C14.5766 0 0 14.1927 0 31.7001C0 39.1089 2.61038 45.9243 6.98451 51.3215C9.03369 53.7432 11.4485 55.8678 14.1482 57.6175V31.4124C14.148 31.3929 14.1466 31.3736 14.1452 31.3545C14.1437 31.3343 14.1422 31.3144 14.1422 31.294C14.1422 31.2736 14.1437 31.2535 14.1452 31.2335C14.1466 31.2142 14.148 31.1951 14.1482 31.1755V30.9532H14.1592C14.3393 20.7795 22.4662 12.5854 32.4823 12.5854C42.6111 12.5854 50.8218 20.9614 50.8218 31.294C50.8218 41.6264 42.6111 50.0027 32.4823 50.0027C28.5372 50.0027 24.8925 48.7198 21.9011 46.5583V61.3089C25.3225 62.4305 28.9047 63.0015 32.51 63Z" fill="white"/>
<path d="M33.0623 41.8774C39.0283 41.8774 43.8645 37.1482 43.8645 31.3146C43.8645 25.4808 39.0283 20.7517 33.0623 20.7517C27.0964 20.7517 22.2598 25.4808 22.2598 31.3146C22.2598 37.1482 27.0964 41.8774 33.0623 41.8774Z" fill="white"/>
<path d="M85.6445 42.3054V21.0923H94.7583C99.7293 21.0923 102.921 23.9309 102.921 28.3228C102.921 32.6551 99.5452 35.6728 94.7583 35.6728H90.4929V42.3054H85.6445ZM94.4821 31.6691C96.7529 31.6691 98.0722 30.444 98.0722 28.3228C98.0722 26.2314 96.7836 25.0959 94.4821 25.0959H90.4929V31.699H94.4821V31.6691Z" fill="white"/>
<path d="M113.447 42.3054V21.0923H128.882V25.126H118.296V29.5477H127.962V33.6112H118.296V38.302H128.913V42.3054H113.447Z" fill="white"/>
<path d="M152.449 42.3054L148.582 35.7324H144.624V42.3054H139.775V21.0923H149.656C154.505 21.0923 157.604 23.9607 157.604 28.4125C157.604 31.3105 156.1 33.7007 153.553 34.8958L158.064 42.3054H152.449ZM149.135 31.7886C151.405 31.7886 152.756 30.5039 152.756 28.3824C152.756 26.2612 151.436 25.0661 149.135 25.0661H144.624V31.8185H149.135V31.7886Z" fill="white"/>
<path d="M207.131 42.723C201.209 42.723 197.373 38.9881 197.373 33.1919V30.1742C197.373 24.378 201.209 20.6433 207.131 20.6433C213.145 20.6433 216.889 24.2883 216.889 30.1742V33.1919C216.889 39.0778 213.145 42.723 207.131 42.723ZM207.131 24.7066C204.032 24.7066 202.221 26.6487 202.221 29.9951V33.4011C202.221 36.7772 204.001 38.6895 207.131 38.6895C210.23 38.6895 212.041 36.7474 212.041 33.4011V29.9951C212.041 26.6189 210.261 24.7066 207.131 24.7066Z" fill="white"/>
<path d="M241.409 42.3054L232.664 29.2789V42.3054H227.906V21.0923H232.387L241.164 34.119V21.0923H245.92V42.3054H241.409Z" fill="white"/>
<path d="M271.969 42.3054L270.558 37.9733H262.764L261.354 42.3054H256.504L264.328 21.0923H269.054L276.88 42.3054H271.969ZM269.269 34.119L266.661 26.0819L264.021 34.119H269.269Z" fill="white"/>
<path d="M182.644 34.837C182.276 37.2869 180.588 38.751 178.041 38.751C173.899 38.751 173.285 35.4047 173.285 33.4027V30.0566C173.285 28.0547 173.899 24.7085 178.041 24.7085C180.558 24.7085 182.276 26.1724 182.644 28.5925L187.155 27.9352C186.541 23.6329 182.92 20.7048 178.072 20.7048C172.088 20.7048 168.498 24.2602 168.498 30.2658V33.2236C168.498 39.1992 172.088 42.7845 178.072 42.7845C182.951 42.7845 186.572 39.8565 187.155 35.554L182.644 34.837Z" fill="white"/>
</svg>
