<svg width="30" height="30" viewBox="0 0 30 30" fill="none" xmlns="http://www.w3.org/2000/svg">
<path fill-rule="evenodd" clip-rule="evenodd" d="M6.3099 18.905C6.31023 19.3178 6.22913 19.7267 6.07125 20.1082C5.91336 20.4897 5.68178 20.8363 5.38978 21.1282C5.09777 21.4201 4.75107 21.6515 4.36951 21.8093C3.98795 21.967 3.57903 22.0479 3.16615 22.0475C2.75349 22.0476 2.34484 21.9664 1.96357 21.8086C1.5823 21.6507 1.23589 21.4192 0.944145 21.1273C0.652404 20.8355 0.421054 20.489 0.263323 20.1076C0.105592 19.7263 0.0245748 19.3176 0.0249033 18.905C0.0245746 18.4922 0.105633 18.0834 0.263442 17.702C0.421251 17.3206 0.652713 16.974 0.944587 16.6821C1.23646 16.3903 1.58302 16.1588 1.96443 16.001C2.34585 15.8432 2.75463 15.7621 3.1674 15.7625H6.31115V18.905H6.3099ZM7.88115 18.905C7.88082 18.4922 7.96188 18.0834 8.11969 17.702C8.2775 17.3206 8.50896 16.974 8.80084 16.6821C9.09271 16.3903 9.43927 16.1588 9.82068 16.001C10.2021 15.8432 10.6109 15.7621 11.0237 15.7625C11.4364 15.7621 11.8452 15.8432 12.2266 16.001C12.608 16.1588 12.9546 16.3903 13.2465 16.6821C13.5383 16.974 13.7698 17.3206 13.9276 17.702C14.0854 18.0834 14.1665 18.4922 14.1662 18.905V26.7625C14.1665 27.1752 14.0854 27.584 13.9276 27.9654C13.7698 28.3468 13.5383 28.6934 13.2465 28.9853C12.9546 29.2771 12.608 29.5086 12.2266 29.6664C11.8452 29.8242 11.4364 29.9053 11.0237 29.905C10.6109 29.9053 10.2021 29.8242 9.82068 29.6664C9.43927 29.5086 9.09271 29.2771 8.80084 28.9853C8.50896 28.6934 8.2775 28.3468 8.11969 27.9654C7.96188 27.584 7.88082 27.1752 7.88115 26.7625V18.905Z" fill="#E01E5A"/>
<path fill-rule="evenodd" clip-rule="evenodd" d="M11.0238 6.28625C10.6109 6.28658 10.202 6.20548 9.82049 6.04759C9.43899 5.88971 9.09238 5.65813 8.80049 5.36613C8.5086 5.07412 8.27717 4.72741 8.11943 4.34586C7.9617 3.9643 7.88076 3.55538 7.88125 3.1425C7.88092 2.72973 7.96198 2.32094 8.11979 1.93953C8.2776 1.55812 8.50906 1.21156 8.80093 0.919685C9.09281 0.627811 9.43937 0.396349 9.82078 0.23854C10.2022 0.080731 10.611 -0.000327775 11.0238 9.96107e-07C11.4365 -0.000327775 11.8453 0.080731 12.2267 0.23854C12.6081 0.396349 12.9547 0.627811 13.2466 0.919685C13.5384 1.21156 13.7699 1.55812 13.9277 1.93953C14.0855 2.32094 14.1666 2.72973 14.1663 3.1425V6.2875H11.025L11.0238 6.28625ZM11.0238 7.88125C11.4365 7.88092 11.8453 7.96198 12.2267 8.11979C12.6081 8.2776 12.9547 8.50906 13.2466 8.80093C13.5384 9.09281 13.7699 9.43937 13.9277 9.82078C14.0855 10.2022 14.1666 10.611 14.1663 11.0238C14.1666 11.4365 14.0855 11.8453 13.9277 12.2267C13.7699 12.6081 13.5384 12.9547 13.2466 13.2466C12.9547 13.5384 12.6081 13.7699 12.2267 13.9277C11.8453 14.0855 11.4365 14.1666 11.0238 14.1663H3.1425C2.72983 14.1666 2.32115 14.0856 1.93982 13.9278C1.55849 13.7701 1.21198 13.5388 0.920127 13.247C0.62827 12.9553 0.396782 12.6089 0.238899 12.2276C0.0810166 11.8463 -0.000163413 11.4377 9.96107e-07 11.025C-0.000327775 10.6122 0.080731 10.2034 0.23854 9.82203C0.396349 9.44062 0.627811 9.09406 0.919685 8.80219C1.21156 8.51031 1.55812 8.27885 1.93953 8.12104C2.32094 7.96323 2.72973 7.88217 3.1425 7.8825H11.025L11.0238 7.88125Z" fill="#36C5F0"/>
<path fill-rule="evenodd" clip-rule="evenodd" d="M23.6187 11.0238C23.6184 10.6109 23.6995 10.202 23.8574 9.82049C24.0153 9.439 24.2468 9.09238 24.5389 8.80049C24.8309 8.5086 25.1776 8.27717 25.5591 8.11943C25.9407 7.9617 26.3496 7.88076 26.7625 7.88125C27.1753 7.88092 27.584 7.96198 27.9655 8.11979C28.3469 8.2776 28.6934 8.50906 28.9853 8.80094C29.2772 9.09281 29.5086 9.43937 29.6664 9.82078C29.8242 10.2022 29.9053 10.611 29.905 11.0238C29.9053 11.4365 29.8242 11.8453 29.6664 12.2267C29.5086 12.6081 29.2772 12.9547 28.9853 13.2466C28.6934 13.5384 28.3469 13.7699 27.9655 13.9277C27.584 14.0855 27.1753 14.1666 26.7625 14.1663H23.6187V11.025V11.0238ZM22.0475 11.0238C22.0478 11.4365 21.9667 11.8453 21.8089 12.2267C21.6511 12.6081 21.4197 12.9547 21.1278 13.2466C20.8359 13.5384 20.4894 13.7699 20.108 13.9277C19.7265 14.0855 19.3178 14.1666 18.905 14.1663C18.4921 14.1667 18.0832 14.0858 17.7016 13.9281C17.3201 13.7703 16.9734 13.5389 16.6814 13.247C16.3894 12.9551 16.1578 12.6085 15.9999 12.227C15.842 11.8455 15.7609 11.4366 15.7612 11.0238V3.1425C15.7609 2.72963 15.842 2.32074 15.9999 1.93924C16.1578 1.55775 16.3894 1.21113 16.6814 0.919243C16.9734 0.627353 17.3201 0.395917 17.7016 0.238182C18.0832 0.0804465 18.4921 -0.000490976 18.905 2.24065e-06C19.3178 -0.00032653 19.7265 0.0807322 20.108 0.238541C20.4894 0.39635 20.8359 0.627812 21.1278 0.919686C21.4197 1.21156 21.6511 1.55812 21.8089 1.93953C21.9667 2.32094 22.0478 2.72973 22.0475 3.1425V11.025V11.0238Z" fill="#2EB67D"/>
<path fill-rule="evenodd" clip-rule="evenodd" d="M18.9047 23.6187C19.3175 23.6184 19.7263 23.6994 20.1077 23.8572C20.4891 24.0151 20.8357 24.2465 21.1275 24.5384C21.4194 24.8303 21.6509 25.1768 21.8087 25.5582C21.9665 25.9396 22.0475 26.3484 22.0472 26.7612C22.0477 27.1741 21.9668 27.583 21.809 27.9646C21.6513 28.3461 21.4199 28.6928 21.128 28.9848C20.8361 29.2768 20.4895 29.5084 20.108 29.6663C19.7265 29.8242 19.3176 29.9053 18.9047 29.905C18.4918 29.9053 18.0829 29.8242 17.7014 29.6663C17.32 29.5084 16.9733 29.2768 16.6815 28.9848C16.3896 28.6928 16.1581 28.3461 16.0004 27.9646C15.8427 27.583 15.7617 27.1741 15.7622 26.7612V23.6187H18.9047ZM18.9047 22.0475C18.4919 22.0478 18.0832 21.9667 17.7017 21.8089C17.3203 21.6511 16.9738 21.4196 16.6819 21.1278C16.39 20.8359 16.1586 20.4893 16.0007 20.1079C15.8429 19.7265 15.7619 19.3177 15.7622 18.905C15.7619 18.4922 15.8429 18.0834 16.0007 17.702C16.1586 17.3206 16.39 16.974 16.6819 16.6821C16.9738 16.3903 17.3203 16.1588 17.7017 16.001C18.0832 15.8432 18.4919 15.7621 18.9047 15.7625H26.786C27.1987 15.7621 27.6075 15.8432 27.9889 16.001C28.3703 16.1588 28.7169 16.3903 29.0088 16.6821C29.3007 16.974 29.5321 17.3206 29.6899 17.702C29.8477 18.0834 29.9288 18.4922 29.9285 18.905C29.9288 19.3177 29.8477 19.7265 29.6899 20.1079C29.5321 20.4893 29.3007 20.8359 29.0088 21.1278C28.7169 21.4196 28.3703 21.6511 27.9889 21.8089C27.6075 21.9667 27.1987 22.0478 26.786 22.0475H18.9047Z" fill="#ECB22E"/>
</svg>
