<svg width="31" height="31" viewBox="0 0 31 31" fill="none" xmlns="http://www.w3.org/2000/svg">
<path d="M6.51867 19.5346C6.51867 21.3307 5.06711 22.7823 3.27105 22.7823C1.47499 22.7823 0.0234375 21.3307 0.0234375 19.5346C0.0234375 17.7387 1.47499 16.2871 3.27117 16.2871H6.51855V19.5347L6.51867 19.5346ZM8.14253 19.5346C8.14253 17.7387 9.59408 16.2871 11.3901 16.2871C13.1862 16.2871 14.6378 17.7387 14.6378 19.5347V27.6537C14.6378 29.4498 13.1862 30.9014 11.39 30.9014C9.59421 30.9014 8.14253 29.4498 8.14253 27.6537V19.5347V19.5346Z" fill="#E01E5A"/>
<path d="M11.3913 6.49523C9.59523 6.49523 8.14356 5.04368 8.14356 3.24761C8.14356 1.45155 9.59535 0 11.3913 0C13.1872 0 14.6389 1.45155 14.6389 3.24761V6.49535H11.3912L11.3913 6.49523ZM11.3913 8.14368C13.1874 8.14368 14.6389 9.59523 14.6389 11.3913C14.6389 13.1874 13.1874 14.6389 11.3912 14.6389H3.24774C1.45155 14.6389 0 13.1874 0 11.3912C0 9.59535 1.45155 8.14368 3.24761 8.14368H11.3912H11.3913Z" fill="#36C5F0"/>
<path d="M24.4052 11.3913C24.4052 9.59523 25.8568 8.14356 27.6527 8.14356C29.4488 8.14356 30.9005 9.59523 30.9005 11.3913C30.9005 13.1874 29.4488 14.6389 27.6527 14.6389H24.4052V11.3912V11.3913ZM22.7814 11.3913C22.7814 13.1874 21.3297 14.6389 19.5336 14.6389C17.7377 14.6389 16.2861 13.1874 16.2861 11.3912V3.24774C16.2861 1.45155 17.7377 0 19.5336 0C21.3296 0 22.7812 1.45155 22.7812 3.24761V11.3912L22.7814 11.3913Z" fill="#2EB67D"/>
<path d="M19.5336 24.4062C21.3297 24.4062 22.7814 25.8578 22.7814 27.6537C22.7814 29.4498 21.3297 30.9014 19.5336 30.9014C17.7377 30.9014 16.2861 29.4498 16.2861 27.6537V24.4062H19.5337H19.5336ZM19.5336 22.7823C17.7377 22.7823 16.2861 21.3307 16.2861 19.5346C16.2861 17.7387 17.7377 16.2871 19.5337 16.2871H27.6773C29.4734 16.2871 30.925 17.7387 30.925 19.5347C30.925 21.3307 29.4734 22.7823 27.6773 22.7823H19.5337H19.5336Z" fill="#ECB22E"/>
</svg>
