<svg width="26" height="20" viewBox="0 0 26 20" fill="none" xmlns="http://www.w3.org/2000/svg">
<path d="M25.1865 2.44972C24.29 2.83644 23.3145 3.11476 22.3096 3.22316C23.3529 2.60334 24.1341 1.62413 24.5068 0.46925C23.5278 1.05164 22.4553 1.46002 21.3369 1.67628C20.8695 1.17655 20.3041 0.778449 19.6761 0.506772C19.048 0.235095 18.3708 0.0956686 17.6865 0.0971801C14.918 0.0971801 12.6914 2.34132 12.6914 5.09523C12.6914 5.48195 12.7383 5.86867 12.8145 6.24074C8.66895 6.02394 4.97168 4.04347 2.51367 1.01124C2.0658 1.77623 1.83109 2.64726 1.83398 3.5337C1.83398 5.26808 2.71582 6.79738 4.06055 7.69679C3.26808 7.66558 2.49417 7.44776 1.80176 7.06105V7.12257C1.80176 9.55128 3.51855 11.564 5.80664 12.0269C5.37703 12.1385 4.93508 12.1956 4.49121 12.1968C4.16602 12.1968 3.8584 12.1646 3.54785 12.1206C4.18066 14.1011 6.02344 15.5396 8.21777 15.5864C6.50098 16.9312 4.35059 17.7222 2.01562 17.7222C1.59668 17.7222 1.20996 17.7075 0.808594 17.6607C3.02344 19.0816 5.65137 19.9019 8.48144 19.9019C17.6689 19.9019 22.6963 12.2905 22.6963 5.68409C22.6963 5.4673 22.6963 5.2505 22.6816 5.0337C23.6543 4.32179 24.5068 3.43995 25.1865 2.44972Z" fill="white" fill-opacity="0.5"/>
</svg>
