<svg width="26" height="26" viewBox="0 0 26 26" fill="none" xmlns="http://www.w3.org/2000/svg">
<g clip-path="url(#clip0)">
<path d="M22.1532 22.1531H18.3009V16.12C18.3009 14.6813 18.2752 12.8294 16.2972 12.8294C14.2908 12.8294 13.9837 14.3969 13.9837 16.0153V22.1527H10.1315V9.74622H13.8297V11.4417H13.8815C14.2516 10.8089 14.7864 10.2883 15.429 9.93535C16.0715 9.58242 16.7978 9.41039 17.5304 9.43758C21.435 9.43758 22.1548 12.0059 22.1548 15.3471L22.1532 22.1531ZM5.78459 8.05044C4.5499 8.05064 3.5488 7.04984 3.54859 5.81515C3.54839 4.58045 4.54909 3.57935 5.78378 3.57915C7.01848 3.57884 8.01958 4.57964 8.01978 5.81433C8.01989 6.40726 7.78446 6.97594 7.36528 7.39529C6.94611 7.81464 6.37752 8.0503 5.78459 8.05044ZM7.71083 22.1532H3.8544V9.74622H7.71073V22.1531L7.71083 22.1532ZM24.0738 0.00140402H1.91862C0.871508 -0.0103772 0.0127969 0.828427 0 1.87554V24.1231C0.0123906 25.1707 0.871 26.0103 1.91852 25.9994H24.0738C25.1235 26.0124 25.9855 25.1728 26 24.1231V1.87381C25.9851 0.82467 25.123 -0.0140335 24.0738 -0.000322542" fill="white" fill-opacity="0.5"/>
</g>
<defs>
<clipPath id="clip0">
<rect width="26" height="26" fill="white"/>
</clipPath>
</defs>
</svg>
