<svg width="80" height="69" viewBox="0 0 80 69" fill="none" xmlns="http://www.w3.org/2000/svg">
<path d="M40 51.6891C36.8174 51.6891 33.7652 50.4324 31.5147 48.1954C29.2643 45.9584 28 42.9244 28 39.7608C28 35.3076 30.44 31.4111 34 29.3833L72.84 7.03767L50.72 45.1285C48.72 49.0251 44.68 51.6891 40 51.6891ZM40 0C47.24 0 54 1.98804 59.88 5.24843L51.48 10.0595C48 8.70762 44 7.95217 40 7.95217C31.5131 7.95217 23.3738 11.3034 17.3726 17.2687C11.3714 23.234 8.00002 31.3246 8.00002 39.7608C8.00002 48.548 11.56 56.5001 17.36 62.2257H17.4C18.96 63.7764 18.96 66.2813 17.4 67.832C15.84 69.3826 13.28 69.3826 11.72 67.8717C7.99992 64.1845 5.04946 59.8029 3.03816 54.9787C1.02686 50.1546 -0.00562295 44.9829 2.30308e-05 39.7608C2.30308e-05 29.2156 4.2143 19.1023 11.7157 11.6457C19.2172 4.18908 29.3914 0 40 0ZM80 39.7608C80 50.7348 75.52 60.675 68.28 67.8717C66.72 69.3826 64.2 69.3826 62.64 67.832C62.2692 67.4641 61.975 67.0272 61.7743 66.5462C61.5736 66.0652 61.4702 65.5496 61.4702 65.0288C61.4702 64.5081 61.5736 63.9925 61.7743 63.5115C61.975 63.0305 62.2692 62.5935 62.64 62.2257C65.6148 59.2808 67.9735 55.7794 69.58 51.9237C71.1865 48.0679 72.009 43.9342 72 39.7608C72 35.7847 71.24 31.8087 69.84 28.2302L74.68 19.8804C78 25.8445 80 32.5244 80 39.7608Z" fill="url(#paint0_linear)"/>
<defs>
<linearGradient id="paint0_linear" x1="77.0855" y1="65.9232" x2="-1.92167" y2="64.5159" gradientUnits="userSpaceOnUse">
<stop stop-color="#FFDC7E"/>
<stop offset="1" stop-color="#FF7C71"/>
</linearGradient>
</defs>
</svg>
