<svg width="40" height="40" viewBox="0 0 40 40" fill="none" xmlns="http://www.w3.org/2000/svg">
<path d="M19.9992 26.6667C18.6731 26.6667 17.4013 26.1399 16.4637 25.2022C15.526 24.2645 14.9992 22.9927 14.9992 21.6667C14.9992 19.8 16.0159 18.1667 17.4992 17.3167L33.6825 7.95L24.4659 23.9167C23.6325 25.55 21.9492 26.6667 19.9992 26.6667ZM19.9992 5C23.0159 5 25.8325 5.83333 28.2825 7.2L24.7825 9.21667C23.3325 8.65 21.6659 8.33333 19.9992 8.33333C16.463 8.33333 13.0716 9.73809 10.5711 12.2386C8.07062 14.7391 6.66586 18.1304 6.66586 21.6667C6.66586 25.35 8.14919 28.6833 10.5659 31.0833H10.5825C11.2325 31.7333 11.2325 32.7833 10.5825 33.4333C9.93253 34.0833 8.86586 34.0833 8.21586 33.45C6.66582 31.9044 5.43646 30.0678 4.59842 28.0456C3.76038 26.0234 3.33018 23.8556 3.33253 21.6667C3.33253 17.2464 5.08848 13.0072 8.21408 9.88155C11.3397 6.75595 15.5789 5 19.9992 5ZM36.6659 21.6667C36.6659 26.2667 34.7992 30.4333 31.7825 33.45C31.1325 34.0833 30.0825 34.0833 29.4325 33.4333C29.278 33.2791 29.1554 33.096 29.0718 32.8944C28.9882 32.6928 28.9451 32.4766 28.9451 32.2583C28.9451 32.0401 28.9882 31.8239 29.0718 31.6223C29.1554 31.4207 29.278 31.2375 29.4325 31.0833C30.672 29.8489 31.6548 28.3812 32.3242 26.765C32.9936 25.1488 33.3363 23.416 33.3325 21.6667C33.3325 20 33.0159 18.3333 32.4325 16.8333L34.4492 13.3333C35.8325 15.8333 36.6659 18.6333 36.6659 21.6667Z" fill="url(#paint0_linear)"/>
<defs>
<linearGradient id="paint0_linear" x1="35.4515" y1="32.6332" x2="2.5317" y2="32.0504" gradientUnits="userSpaceOnUse">
<stop stop-color="#FFDC7E"/>
<stop offset="1" stop-color="#FF7C71"/>
</linearGradient>
</defs>
</svg>
