<svg width="33" height="34" viewBox="0 0 33 34" fill="none" xmlns="http://www.w3.org/2000/svg">
<g clip-path="url(#clip0)">
<path fill-rule="evenodd" clip-rule="evenodd" d="M0 16.5835C0 12.2074 1.73839 8.01058 4.83274 4.91623C7.92709 1.82188 12.1239 0.0834961 16.5 0.0834961C20.8761 0.0834961 25.0729 1.82188 28.1673 4.91623C31.2616 8.01058 33 12.2074 33 16.5835C33 20.9596 31.2616 25.1564 28.1673 28.2508C25.0729 31.3451 20.8761 33.0835 16.5 33.0835C12.1239 33.0835 7.92709 31.3451 4.83274 28.2508C1.73839 25.1564 0 20.9596 0 16.5835ZM15.5584 23.6455L25.058 11.7699L22 9.0835L15 18.0835L10.5 14.5835L8.096 17.4283L15.5584 23.6477V23.6455Z" fill="#00E324"/>
</g>
<defs>
<clipPath id="clip0">
<rect width="33" height="33" fill="white" transform="translate(0 0.0834961)"/>
</clipPath>
</defs>
</svg>
