<svg width="30" height="30" viewBox="0 0 30 30" fill="none" xmlns="http://www.w3.org/2000/svg">
<path d="M27.1865 7.44972C26.29 7.83644 25.3145 8.11476 24.3096 8.22316C25.3529 7.60334 26.1341 6.62413 26.5068 5.46925C25.5278 6.05164 24.4553 6.46002 23.3369 6.67628C22.8695 6.17655 22.3041 5.77845 21.6761 5.50677C21.048 5.2351 20.3708 5.09567 19.6865 5.09718C16.918 5.09718 14.6914 7.34132 14.6914 10.0952C14.6914 10.4819 14.7383 10.8687 14.8145 11.2407C10.6689 11.0239 6.97168 9.04347 4.51367 6.01124C4.0658 6.77623 3.83109 7.64726 3.83398 8.5337C3.83398 10.2681 4.71582 11.7974 6.06055 12.6968C5.26808 12.6656 4.49417 12.4478 3.80176 12.061V12.1226C3.80176 14.5513 5.51855 16.564 7.80664 17.0269C7.37703 17.1385 6.93508 17.1956 6.49121 17.1968C6.16602 17.1968 5.8584 17.1646 5.54785 17.1206C6.18066 19.1011 8.02344 20.5396 10.2178 20.5864C8.50098 21.9312 6.35059 22.7222 4.01562 22.7222C3.59668 22.7222 3.20996 22.7075 2.80859 22.6607C5.02344 24.0816 7.65137 24.9019 10.4814 24.9019C19.6689 24.9019 24.6963 17.2905 24.6963 10.6841C24.6963 10.4673 24.6963 10.2505 24.6816 10.0337C25.6543 9.32179 26.5068 8.43995 27.1865 7.44972Z" fill="#488FDF"/>
</svg>
