<svg width="279" height="94" viewBox="0 0 279 94" fill="none" xmlns="http://www.w3.org/2000/svg">
<path d="M0 0H251.78C266.813 0 279 12.1866 279 27.2195V93.2268H27.2195C12.1866 93.2268 0 81.0402 0 66.0073V0Z" fill="white"/>
<g clip-path="url(#clip0)">
<path d="M153.488 15.1676C153.137 16.4978 151.78 17.2884 150.459 16.935C149.139 16.5815 148.354 15.2141 148.705 13.884C149.065 12.5445 150.422 11.7632 151.743 12.1166C153.063 12.4701 153.848 13.8375 153.488 15.1676Z" fill="#5291CA"/>
<path d="M150.268 24.0781C150.028 24.9618 149.132 25.492 148.246 25.2502C147.369 25.0176 146.851 24.106 147.082 23.2224C147.322 22.3387 148.227 21.8085 149.104 22.041C149.982 22.2829 150.508 23.1945 150.268 24.0781Z" fill="#5291CA"/>
<path d="M147.865 31.0729C147.708 31.6869 147.089 32.0403 146.48 31.8822C145.88 31.7148 145.529 31.0915 145.686 30.4869C145.852 29.8823 146.471 29.5195 147.071 29.6777C147.671 29.8451 148.031 30.4683 147.865 31.0729Z" fill="#5291CA"/>
<path d="M146.021 36.5238C145.911 36.9238 145.504 37.1656 145.107 37.054C144.71 36.9517 144.479 36.5424 144.59 36.1424C144.692 35.7424 145.098 35.5006 145.495 35.6122C145.892 35.7145 146.132 36.1238 146.021 36.5238Z" fill="#5291CA"/>
<path d="M161.292 19.1298C160.609 20.3204 159.094 20.7297 157.912 20.0414C156.731 19.353 156.324 17.8275 157.008 16.6369C157.691 15.4463 159.205 15.037 160.387 15.7253C161.569 16.4137 161.984 17.9392 161.292 19.1298Z" fill="#5291CA"/>
<path d="M155.89 26.897C155.437 27.6876 154.431 27.9574 153.637 27.5016C152.852 27.0458 152.584 26.0319 153.036 25.2319C153.489 24.4413 154.495 24.1715 155.289 24.6273C156.074 25.0831 156.342 26.097 155.89 26.897Z" fill="#5291CA"/>
<path d="M151.783 33.0263C151.469 33.5751 150.776 33.7611 150.231 33.4448C149.696 33.1286 149.511 32.4309 149.825 31.8914C150.13 31.3426 150.822 31.1566 151.367 31.4729C151.903 31.7891 152.087 32.4775 151.783 33.0263Z" fill="#5291CA"/>
<path d="M148.586 37.8075C148.382 38.1703 147.93 38.2912 147.57 38.0866C147.219 37.8726 147.09 37.4168 147.302 37.0634C147.505 36.7006 147.958 36.5797 148.318 36.7843C148.669 36.9982 148.798 37.454 148.586 37.8075Z" fill="#5291CA"/>
<path d="M168.174 25.3526C167.011 26.5246 165.118 26.5246 163.955 25.3526C162.791 24.1806 162.791 22.2737 163.955 21.1017C165.118 19.9296 167.011 19.9296 168.174 21.1017C169.347 22.2737 169.347 24.1806 168.174 25.3526Z" fill="#0B3B77"/>
<path d="M160.809 31.2967C160.043 32.0594 158.815 32.0594 158.048 31.2967C157.291 30.5246 157.291 29.2875 158.048 28.5154C158.815 27.7527 160.043 27.7527 160.809 28.5154C161.566 29.2875 161.566 30.5246 160.809 31.2967Z" fill="#0B3B77"/>
<path d="M155.051 35.9288C154.608 36.3753 153.897 36.3753 153.454 35.9288C153.01 35.4823 153.01 34.7661 153.454 34.3196C153.897 33.8824 154.608 33.8824 155.051 34.3196C155.494 34.7661 155.494 35.4823 155.051 35.9288Z" fill="#0B3B77"/>
<path d="M150.738 39.7241C150.451 40.0124 149.981 40.0124 149.694 39.7241C149.399 39.4264 149.399 38.952 149.694 38.6637C149.981 38.366 150.451 38.366 150.738 38.6637C151.033 38.952 151.033 39.4264 150.738 39.7241Z" fill="#0B3B77"/>
<path d="M173.054 33.1383C171.438 34.0778 169.37 33.5197 168.437 31.8919C167.496 30.2641 168.059 28.1805 169.675 27.2317C171.291 26.2922 173.359 26.8596 174.292 28.4874C175.233 30.1152 174.679 32.1988 173.054 33.1383Z" fill="#0B3B77"/>
<path d="M164.293 36.7474C163.296 37.3334 162.003 36.98 161.422 35.9661C160.849 34.9615 161.191 33.6685 162.197 33.0825C163.194 32.4965 164.487 32.8407 165.069 33.8545C165.641 34.8684 165.3 36.1614 164.293 36.7474Z" fill="#0B3B77"/>
<path d="M157.751 40.1052C156.93 40.5889 155.877 40.3005 155.397 39.4727C154.926 38.6448 155.203 37.5751 156.034 37.1007C156.856 36.617 157.908 36.9054 158.388 37.7332C158.869 38.5611 158.582 39.6308 157.751 40.1052Z" fill="#0B3B77"/>
<path d="M152.325 42.124C151.974 42.3379 151.513 42.2077 151.309 41.8542C151.106 41.4914 151.226 41.0357 151.586 40.831C151.937 40.6264 152.39 40.7473 152.602 41.1008C152.805 41.4635 152.685 41.9193 152.325 42.124Z" fill="#0B3B77"/>
<path d="M175.631 41.7983C173.71 42.3192 171.734 41.1658 171.226 39.231C170.709 37.3056 171.845 35.315 173.766 34.7941C175.686 34.2732 177.662 35.4266 178.179 37.3614C178.687 39.2962 177.551 41.2774 175.631 41.7983Z" fill="#0B3B77"/>
<path d="M166.23 42.9513C165.011 43.2768 163.774 42.5513 163.441 41.3328C163.127 40.1142 163.838 38.8585 165.057 38.5329C166.267 38.2074 167.504 38.9329 167.836 40.1514C168.16 41.37 167.439 42.6257 166.23 42.9513Z" fill="#0B3B77"/>
<path d="M159.028 44.4121C158.068 44.6726 157.071 44.0959 156.812 43.1285C156.554 42.1518 157.126 41.1565 158.096 40.8961C159.056 40.6356 160.053 41.2123 160.312 42.1797C160.561 43.1564 159.988 44.1517 159.028 44.4121Z" fill="#0B3B77"/>
<path d="M153.343 45.2304C152.743 45.3885 152.133 45.0351 151.967 44.4305C151.81 43.8258 152.161 43.2119 152.761 43.0538C153.361 42.8957 153.971 43.2491 154.137 43.8537C154.294 44.4491 153.934 45.0723 153.343 45.2304Z" fill="#0B3B77"/>
<path d="M175.835 50.8395C173.73 50.8395 172.031 49.1187 172.031 46.9979C172.031 44.8771 173.73 43.1562 175.835 43.1562C177.941 43.1562 179.649 44.8771 179.649 46.9979C179.649 49.1187 177.941 50.8395 175.835 50.8395Z" fill="#6873AB"/>
<path d="M166.461 49.6487C165.002 49.6487 163.82 48.4581 163.82 46.9977C163.82 45.528 165.002 44.3467 166.461 44.3467C167.911 44.3467 169.093 45.528 169.093 46.9977C169.093 48.4581 167.911 49.6487 166.461 49.6487Z" fill="#6873AB"/>
<path d="M159.13 48.9139C158.077 48.9139 157.219 48.0581 157.219 46.9977C157.219 45.9373 158.077 45.0815 159.13 45.0815C160.183 45.0815 161.041 45.9373 161.041 46.9977C161.041 48.0581 160.183 48.9139 159.13 48.9139Z" fill="#6873AB"/>
<path d="M153.426 48.2532C152.734 48.2532 152.18 47.6951 152.18 46.9975C152.18 46.2998 152.734 45.7324 153.426 45.7324C154.119 45.7324 154.673 46.2998 154.673 46.9975C154.673 47.6951 154.119 48.2532 153.426 48.2532Z" fill="#6873AB"/>
<path d="M169.761 66.6154C168.219 65.7224 167.692 63.7318 168.579 62.1877C169.474 60.6343 171.441 60.1041 172.974 61.0064C174.516 61.8993 175.042 63.8806 174.156 65.4247C173.26 66.9781 171.293 67.5083 169.761 66.6154Z" fill="#6873AB"/>
<path d="M162.047 61.1738C160.902 60.5041 160.514 59.0344 161.17 57.881C161.835 56.7275 163.294 56.3276 164.439 56.9973C165.584 57.6577 165.981 59.1367 165.316 60.2901C164.651 61.4436 163.192 61.8342 162.047 61.1738Z" fill="#6873AB"/>
<path d="M156.064 56.8392C155.269 56.3834 154.992 55.3509 155.454 54.551C155.916 53.751 156.932 53.4813 157.726 53.937C158.529 54.4021 158.797 55.4253 158.335 56.2253C157.883 57.0345 156.858 57.3043 156.064 56.8392Z" fill="#6873AB"/>
<path d="M151.586 53.1652C151.226 52.9606 151.106 52.5048 151.309 52.142C151.522 51.7885 151.974 51.6583 152.325 51.8723C152.685 52.0769 152.805 52.5327 152.602 52.8955C152.399 53.2489 151.937 53.3791 151.586 53.1652Z" fill="#6873AB"/>
<path d="M163.914 72.9313C162.732 71.7407 162.732 69.8059 163.914 68.6153C165.105 67.4153 167.025 67.4153 168.207 68.6153C169.389 69.8059 169.389 71.7407 168.207 72.9313C167.025 74.122 165.105 74.122 163.914 72.9313Z" fill="#B71670"/>
<path d="M157.903 65.6294C157.053 64.783 157.053 63.397 157.903 62.5505C158.743 61.6947 160.119 61.6947 160.959 62.5505C161.809 63.397 161.809 64.783 160.959 65.6294C160.119 66.4852 158.743 66.4852 157.903 65.6294Z" fill="#B71670"/>
<path d="M153.174 59.9551C152.583 59.3505 152.583 58.3831 153.174 57.7878C153.765 57.1925 154.725 57.1925 155.325 57.7878C155.916 58.3831 155.916 59.3505 155.325 59.9551C154.725 60.5504 153.765 60.5504 153.174 59.9551Z" fill="#B71670"/>
<path d="M149.694 55.332C149.399 55.0436 149.399 54.5692 149.694 54.2809C149.981 53.9832 150.451 53.9832 150.738 54.2809C151.033 54.5692 151.033 55.0436 150.738 55.332C150.451 55.6296 149.981 55.6296 149.694 55.332Z" fill="#B71670"/>
<path d="M156.685 77.545C155.909 76.1776 156.371 74.4196 157.728 73.6289C159.094 72.8383 160.83 73.3127 161.615 74.68C162.4 76.0474 161.929 77.7961 160.572 78.5961C159.215 79.3868 157.469 78.9124 156.685 77.545Z" fill="#B71670"/>
<path d="M152.705 68.9501C152.151 67.9734 152.484 66.727 153.453 66.1689C154.423 65.6015 155.651 65.9364 156.214 66.913C156.777 67.8897 156.445 69.1362 155.475 69.6943C154.506 70.2617 153.269 69.9268 152.705 68.9501Z" fill="#B71670"/>
<path d="M149.825 62.1039C149.511 61.5644 149.696 60.8668 150.231 60.5505C150.776 60.2342 151.469 60.4203 151.783 60.9691C152.087 61.5086 151.903 62.2062 151.367 62.5225C150.822 62.8387 150.13 62.6527 149.825 62.1039Z" fill="#B71670"/>
<path d="M147.302 56.932C147.09 56.5785 147.219 56.1135 147.57 55.9088C147.93 55.7042 148.382 55.8251 148.586 56.1879C148.798 56.5413 148.669 56.9971 148.318 57.2111C147.958 57.4157 147.505 57.2948 147.302 56.932Z" fill="#B71670"/>
<path d="M148.705 80.112C148.354 78.7818 149.139 77.4144 150.459 77.061C151.78 76.7075 153.137 77.4888 153.488 78.8283C153.848 80.1585 153.063 81.5258 151.743 81.8793C150.422 82.2421 149.065 81.4514 148.705 80.112Z" fill="#D4585A"/>
<path d="M147.082 70.7733C146.851 69.8897 147.369 68.9781 148.246 68.7456C149.123 68.5037 150.028 69.0339 150.268 69.9176C150.499 70.8012 149.982 71.7128 149.104 71.9454C148.218 72.1872 147.322 71.657 147.082 70.7733Z" fill="#D4585A"/>
<path d="M145.686 63.5081C145.529 62.9035 145.88 62.2803 146.48 62.1128C147.089 61.9547 147.708 62.3082 147.865 62.9221C148.031 63.5267 147.671 64.1499 147.071 64.3174C146.471 64.4755 145.843 64.1127 145.686 63.5081Z" fill="#D4585A"/>
<path d="M144.578 57.8529C144.476 57.4529 144.716 57.0436 145.114 56.9413C145.501 56.8297 145.908 57.0715 146.018 57.4715C146.12 57.8715 145.889 58.2808 145.492 58.3831C145.095 58.4947 144.689 58.2529 144.578 57.8529Z" fill="#D4585A"/>
<path d="M139.992 80.615C139.992 79.2383 141.1 78.1221 142.467 78.1221C143.833 78.1221 144.941 79.2383 144.941 80.615C144.941 81.9916 143.833 83.1171 142.467 83.1171C141.1 83.1171 139.992 81.9916 139.992 80.615Z" fill="#D4585A"/>
<path d="M140.82 71.164C140.82 70.2524 141.55 69.5083 142.464 69.5083C143.378 69.5083 144.117 70.2524 144.117 71.164C144.117 72.0849 143.378 72.829 142.464 72.829C141.55 72.829 140.82 72.0849 140.82 71.164Z" fill="#D4585A"/>
<path d="M141.336 63.7877C141.336 63.1552 141.844 62.6436 142.462 62.6436C143.081 62.6436 143.589 63.1552 143.589 63.7877C143.589 64.4202 143.081 64.9225 142.462 64.9225C141.844 64.9225 141.336 64.4202 141.336 63.7877Z" fill="#D4585A"/>
<path d="M141.727 58.0391C141.727 57.6205 142.059 57.2949 142.465 57.2949C142.872 57.2949 143.213 57.6205 143.213 58.0391C143.213 58.4576 142.872 58.7832 142.465 58.7832C142.059 58.7832 141.727 58.4576 141.727 58.0391Z" fill="#D4585A"/>
<path d="M131.431 78.8283C131.791 77.4888 133.149 76.7075 134.469 77.061C135.79 77.4144 136.574 78.7818 136.224 80.112C135.863 81.4514 134.506 82.2421 133.186 81.8793C131.865 81.5258 131.08 80.1585 131.431 78.8283Z" fill="#F89C2C"/>
<path d="M134.66 69.9176C134.9 69.0339 135.805 68.5037 136.682 68.7456C137.559 68.9781 138.076 69.8897 137.845 70.7733C137.605 71.657 136.71 72.1872 135.823 71.9547C134.946 71.7128 134.42 70.8012 134.66 69.9176Z" fill="#F89C2C"/>
<path d="M137.064 62.9221C137.221 62.3082 137.84 61.9547 138.449 62.1128C139.049 62.2803 139.4 62.9035 139.243 63.5081C139.077 64.1127 138.468 64.4755 137.858 64.3081C137.258 64.1499 136.898 63.5267 137.064 62.9221Z" fill="#F89C2C"/>
<path d="M139.027 57.4992C139.11 57.1644 139.452 56.9597 139.784 57.0528C140.116 57.1458 140.32 57.4899 140.227 57.8248C140.144 58.1597 139.793 58.355 139.461 58.2713C139.128 58.1783 138.935 57.8341 139.027 57.4992Z" fill="#F89C2C"/>
<path d="M123.898 75.0147C124.498 73.9729 125.828 73.6102 126.871 74.2148C127.906 74.8194 128.266 76.1588 127.666 77.2099C127.065 78.2518 125.736 78.6145 124.692 78.0099C123.649 77.4053 123.298 76.0658 123.898 75.0147Z" fill="#F89C2C"/>
<path d="M129.296 67.2481C129.666 66.597 130.497 66.3737 131.143 66.7458C131.789 67.1272 132.011 67.9643 131.642 68.6155C131.263 69.2666 130.432 69.4898 129.786 69.1084C129.149 68.7364 128.918 67.8992 129.296 67.2481Z" fill="#F89C2C"/>
<path d="M133.271 61.0343C133.548 60.5599 134.157 60.3925 134.628 60.6715C135.108 60.9506 135.265 61.5645 134.997 62.0389C134.72 62.5133 134.111 62.6807 133.64 62.4017C133.16 62.1226 133.003 61.518 133.271 61.0343Z" fill="#F89C2C"/>
<path d="M136.471 56.2622C136.628 55.9738 136.997 55.8808 137.284 56.0389C137.561 56.2063 137.662 56.5691 137.496 56.8575C137.339 57.1458 136.97 57.2388 136.683 57.0807C136.406 56.9133 136.305 56.5412 136.471 56.2622Z" fill="#F89C2C"/>
<path d="M117.457 69.3502C118.232 68.5688 119.497 68.5688 120.273 69.3502C121.049 70.1315 121.049 71.4059 120.273 72.1872C119.497 72.9686 118.232 72.9686 117.457 72.1872C116.681 71.4059 116.681 70.1315 117.457 69.3502Z" fill="#FDC51B"/>
<path d="M124.667 63.2574C125.12 62.8016 125.859 62.8016 126.32 63.2574C126.773 63.7132 126.773 64.4666 126.32 64.9224C125.859 65.3782 125.12 65.3782 124.667 64.9224C124.215 64.4666 124.215 63.7132 124.667 63.2574Z" fill="#FDC51B"/>
<path d="M130.118 58.2992C130.423 57.9829 130.931 57.9829 131.245 58.2992C131.559 58.6155 131.559 59.1271 131.245 59.4433C130.931 59.7503 130.423 59.7503 130.118 59.4433C129.804 59.1271 129.804 58.6155 130.118 58.2992Z" fill="#FDC51B"/>
<path d="M112.603 62.1229C113.526 61.5927 114.699 61.909 115.234 62.8392C115.76 63.7601 115.446 64.9507 114.523 65.4902C113.6 66.0297 112.427 65.7041 111.892 64.7739C111.365 63.8531 111.679 62.6624 112.603 62.1229Z" fill="#FDC51B"/>
<path d="M121.207 58.2529C121.659 57.9924 122.241 58.1506 122.509 58.6064C122.767 59.0622 122.611 59.6482 122.158 59.9086C121.706 60.1784 121.124 60.0202 120.865 59.5645C120.598 59.0994 120.755 58.5226 121.207 58.2529Z" fill="#FDC51B"/>
<path d="M127.624 54.6904C128.012 54.4672 128.501 54.5974 128.732 54.9881C128.954 55.3694 128.815 55.8717 128.437 56.095C128.049 56.3182 127.55 56.188 127.329 55.7973C127.107 55.4067 127.246 54.9137 127.624 54.6904Z" fill="#FDC51B"/>
<path d="M110.681 36.6077C111.604 36.8588 112.149 37.8169 111.909 38.7471C111.66 39.6773 110.709 40.2354 109.776 39.9843C108.853 39.7331 108.299 38.775 108.548 37.8448C108.797 36.9054 109.748 36.3566 110.681 36.6077Z" fill="#83C562"/>
<path d="M114.43 28.6731C115.261 29.1568 115.547 30.2265 115.067 31.0637C114.587 31.9009 113.525 32.1892 112.694 31.7055C111.863 31.2218 111.577 30.1521 112.057 29.315C112.537 28.4778 113.599 28.1894 114.43 28.6731Z" fill="#83C562"/>
<path d="M122.188 34.0406C122.659 34.3197 122.825 34.9336 122.548 35.4173C122.271 35.8917 121.662 36.0591 121.191 35.78C120.711 35.501 120.545 34.8871 120.822 34.4127C121.099 33.929 121.708 33.7709 122.188 34.0406Z" fill="#83C562"/>
<path d="M128.431 37.9099C128.81 38.1331 128.93 38.6168 128.717 38.9982C128.496 39.3795 128.015 39.5098 127.637 39.2958C127.258 39.0726 127.129 38.5889 127.351 38.2075C127.563 37.8261 128.052 37.6959 128.431 37.9099Z" fill="#83C562"/>
<path d="M120.164 21.9206C120.885 22.6369 120.885 23.8089 120.164 24.5344C119.444 25.26 118.281 25.26 117.561 24.5344C116.85 23.8089 116.85 22.6369 117.561 21.9206C118.281 21.1951 119.444 21.1951 120.164 21.9206Z" fill="#10B180"/>
<path d="M126.335 29.064C126.797 29.5291 126.797 30.2825 126.335 30.7476C125.873 31.2127 125.125 31.2127 124.664 30.7476C124.211 30.2825 124.211 29.5291 124.664 29.064C125.125 28.6082 125.873 28.6082 126.335 29.064Z" fill="#10B180"/>
<path d="M131.309 34.4871C131.66 34.8406 131.66 35.408 131.309 35.7615C130.959 36.1149 130.395 36.1149 130.044 35.7615C129.694 35.408 129.694 34.8406 130.044 34.4871C130.395 34.143 130.959 34.143 131.309 34.4871Z" fill="#10B180"/>
<path d="M127.666 16.7863C128.266 17.8374 127.915 19.1769 126.871 19.7815C125.828 20.3861 124.498 20.0326 123.898 18.9815C123.298 17.9304 123.649 16.5909 124.692 15.9863C125.736 15.3817 127.065 15.7352 127.666 16.7863Z" fill="#10B180"/>
<path d="M131.654 25.3807C132.023 26.0319 131.802 26.8783 131.155 27.2504C130.5 27.6318 129.669 27.4085 129.29 26.7481C128.912 26.097 129.133 25.2505 129.789 24.8784C130.435 24.4971 131.275 24.7203 131.654 25.3807Z" fill="#10B180"/>
<path d="M134.987 31.966C135.255 32.4403 135.098 33.045 134.627 33.3147C134.156 33.5938 133.556 33.4263 133.279 32.9519C133.011 32.4776 133.168 31.8729 133.639 31.6032C134.11 31.3241 134.71 31.4916 134.987 31.966Z" fill="#10B180"/>
<path d="M137.451 37.1659C137.598 37.4264 137.515 37.7612 137.257 37.9101C136.998 38.0589 136.666 37.9659 136.518 37.7054C136.37 37.445 136.454 37.1101 136.712 36.9706C136.971 36.8125 137.303 36.9055 137.451 37.1659Z" fill="#10B180"/>
<path d="M136.076 13.921C136.408 15.1675 135.669 16.4511 134.432 16.786C133.195 17.1208 131.921 16.3767 131.588 15.1303C131.256 13.8838 131.985 12.6002 133.222 12.2653C134.469 11.9304 135.734 12.6746 136.076 13.921Z" fill="#10B180"/>
<path d="M137.627 23.2783C137.821 24.0411 137.378 24.8224 136.62 25.0271C135.863 25.2317 135.088 24.7852 134.885 24.0225C134.681 23.2597 135.134 22.4784 135.891 22.2737C136.639 22.0691 137.424 22.5156 137.627 23.2783Z" fill="#10B180"/>
<path d="M139.243 30.4869C139.4 31.0915 139.049 31.7148 138.449 31.8822C137.84 32.0403 137.221 31.6869 137.064 31.0729C136.898 30.4683 137.258 29.8451 137.858 29.6777C138.468 29.5195 139.086 29.8823 139.243 30.4869Z" fill="#10B180"/>
<path d="M140.221 36.1703C140.304 36.5052 140.11 36.8401 139.787 36.9238C139.464 37.0168 139.122 36.8215 139.039 36.4959C138.956 36.161 139.141 35.8262 139.473 35.7425C139.797 35.6494 140.129 35.8448 140.221 36.1703Z" fill="#10B180"/>
<path d="M144.937 13.3811C144.937 14.7578 143.829 15.874 142.463 15.874C141.096 15.874 139.988 14.7578 139.988 13.3811C139.988 12.0044 141.096 10.8789 142.463 10.8789C143.829 10.8789 144.937 12.0044 144.937 13.3811Z" fill="#5291CA"/>
<path d="M144.114 22.8222C144.114 23.7431 143.376 24.4872 142.461 24.4872C141.557 24.4872 140.809 23.7431 140.809 22.8222C140.809 21.9106 141.557 21.1665 142.461 21.1665C143.376 21.1665 144.114 21.9106 144.114 22.8222Z" fill="#5291CA"/>
<path d="M143.589 30.2086C143.589 30.8411 143.081 31.3434 142.462 31.3434C141.844 31.3434 141.336 30.8411 141.336 30.2086C141.336 29.5853 141.844 29.0737 142.462 29.0737C143.081 29.0737 143.589 29.5853 143.589 30.2086Z" fill="#5291CA"/>
<path d="M143.213 35.9565C143.213 36.3751 142.872 36.7007 142.465 36.7007C142.059 36.7007 141.727 36.3751 141.727 35.9565C141.727 35.5473 142.059 35.2124 142.465 35.2124C142.872 35.2124 143.213 35.5473 143.213 35.9565Z" fill="#5291CA"/>
<path d="M173.767 59.2018C171.847 58.6809 170.711 56.6903 171.219 54.7648C171.736 52.8208 173.712 51.6766 175.632 52.1975C177.553 52.7091 178.689 54.6997 178.181 56.6345C177.664 58.5693 175.688 59.7227 173.767 59.2018Z" fill="#6873AB"/>
<path d="M165.014 55.6299C163.712 55.2764 162.937 53.9277 163.288 52.6161C163.638 51.3045 164.968 50.5325 166.27 50.886C167.581 51.2301 168.348 52.5789 167.997 53.8904C167.646 55.202 166.316 55.974 165.014 55.6299Z" fill="#6873AB"/>
<path d="M158.104 53.0626C157.153 52.8114 156.589 51.8348 156.848 50.8767C157.107 49.9279 158.076 49.3605 159.018 49.6209C159.96 49.8721 160.523 50.8488 160.274 51.8069C160.015 52.7556 159.046 53.323 158.104 53.0626Z" fill="#6873AB"/>
<path d="M152.758 50.9512C152.158 50.793 151.798 50.1698 151.955 49.5559C152.121 48.9513 152.74 48.5978 153.34 48.7559C153.949 48.9234 154.3 49.5373 154.143 50.1512C153.977 50.7558 153.358 51.1186 152.758 50.9512Z" fill="#6873AB"/>
<path d="M117.275 47.3889C117.275 50.1794 117.802 50.8026 119.805 50.6166C121.061 50.4957 121.91 49.7887 122.326 48.5888C122.778 47.2958 122.529 46.1331 121.597 45.1657C120.784 44.3193 119.796 44.1053 118.688 44.5146C117.127 45.0913 117.192 46.3843 117.275 47.3889ZM117.275 52.9792C117.275 54.6908 117.248 56.3 117.294 57.9185C117.321 58.7743 117.081 59.1277 116.149 59.1091C114.154 59.0719 114.154 59.1277 114.154 57.1278C114.154 52.6072 114.136 48.0865 114.182 43.5658C114.182 42.9798 113.72 42.1054 114.708 41.8357C115.659 41.5659 116.232 42.0496 116.453 43.0914C117.737 42.0217 119.067 41.3427 120.673 41.5008C121.883 41.6217 122.945 42.1147 123.831 42.9705C125.835 44.8867 126.269 48.1051 124.865 50.6166C123.452 53.1653 121.043 53.9466 117.275 52.9792Z" fill="#1E0D36"/>
<path d="M94.4403 47.556C95.4006 45.7049 96.2593 44.0492 97.118 42.4028C97.3304 41.9935 97.4782 41.4633 98.0414 41.4819C98.6046 41.5005 98.7432 42.0214 98.9555 42.44C99.8143 44.0771 100.673 45.7235 101.624 47.556C102.178 45.8445 102.667 44.3562 103.157 42.8679C103.452 41.9656 105.281 41.361 106.065 41.8819C106.416 42.1144 106.269 42.3935 106.176 42.6632C105.105 45.9933 104.043 49.314 102.972 52.6348C102.852 52.9975 102.76 53.4068 102.28 53.4533C101.763 53.4998 101.559 53.1092 101.365 52.7185C100.294 50.6535 99.2141 48.5792 98.0322 46.3096C96.9149 48.449 95.8992 50.4302 94.8558 52.3929C94.6157 52.8673 94.4865 53.537 93.757 53.444C93.1107 53.351 93.1291 52.7092 92.9814 52.2534C91.9657 49.128 91.0054 45.9933 89.9528 42.8958C89.6388 41.9656 89.8974 41.854 90.7561 41.7703C92.1134 41.6587 92.8521 42.04 93.1384 43.4818C93.4061 44.7934 93.9417 46.0398 94.4403 47.556Z" fill="#1E0D36"/>
<path d="M145.096 47.435C145.068 45.7328 143.646 44.2631 142.058 44.3003C140.452 44.3468 139.085 45.8723 139.14 47.5559C139.205 49.2209 140.562 50.6255 142.114 50.6255C143.711 50.6255 145.124 49.1186 145.096 47.435ZM142.178 53.4533C138.993 53.4812 136.324 50.7464 136.324 47.4629C136.333 44.2259 138.928 41.519 142.058 41.4725C145.216 41.4353 147.912 44.198 147.912 47.4722C147.903 50.6999 145.299 53.4161 142.178 53.4533Z" fill="#1E0D36"/>
<path d="M130.236 43.2027C131.566 41.8354 132.932 41.1936 134.613 41.5842C135.167 41.7145 136.035 41.8447 135.656 42.6353C135.315 43.333 135.536 44.691 134.05 44.4771C131.88 44.1701 131.169 44.784 131.169 46.9142C131.169 48.6164 131.132 50.3186 131.178 52.0301C131.206 52.8766 130.883 53.1278 130.07 53.1371C128.02 53.165 128.02 53.1929 128.02 51.0721C128.02 48.5606 127.992 46.0398 128.039 43.5283C128.048 42.933 127.605 42.0586 128.611 41.8168C129.544 41.5935 130.153 42.0028 130.236 43.2027Z" fill="#1E0D36"/>
<path d="M111.388 47.4068C111.388 48.9323 111.36 50.4764 111.406 52.0019C111.425 52.8112 111.185 53.2112 110.326 53.1274C109.948 53.0902 109.569 53.1088 109.19 53.1274C108.563 53.1553 108.258 52.9228 108.258 52.2438C108.276 49.0532 108.276 45.8534 108.267 42.6629C108.258 42.0769 108.479 41.7885 109.08 41.7978C109.541 41.8164 110.003 41.8257 110.465 41.7978C111.203 41.7513 111.416 42.1234 111.397 42.8024C111.37 44.3372 111.388 45.872 111.388 47.4068Z" fill="#1E0D36"/>
</g>
<defs>
<clipPath id="clip0">
<rect width="89.8244" height="72.2237" fill="white" transform="translate(89.8242 10.8877)"/>
</clipPath>
</defs>
</svg>
