<svg width="132" height="106" viewBox="0 0 132 106" fill="none" xmlns="http://www.w3.org/2000/svg">
<path d="M93.0229 6.68147C92.5102 8.6257 90.527 9.78136 88.5977 9.26471C86.6684 8.74806 85.5217 6.74945 86.0343 4.80522C86.5605 2.8474 88.5437 1.70534 90.473 2.22198C92.4023 2.73863 93.549 4.73724 93.0229 6.68147Z" fill="white"/>
<path d="M88.3149 19.7064C87.9641 20.998 86.6555 21.773 85.3603 21.4195C84.0786 21.0796 83.3231 19.7472 83.6604 18.4556C84.0111 17.164 85.3333 16.389 86.615 16.7289C87.8967 17.0824 88.6657 18.4148 88.3149 19.7064Z" fill="white"/>
<path d="M84.805 29.9302C84.5757 30.8276 83.6718 31.3442 82.7813 31.1131C81.9044 30.8683 81.3917 29.9574 81.6211 29.0737C81.8639 28.1899 82.7678 27.6597 83.6448 27.8908C84.5217 28.1355 85.0479 29.0465 84.805 29.9302Z" fill="white"/>
<path d="M82.1083 37.8979C81.9464 38.4825 81.3528 38.836 80.7726 38.6729C80.1925 38.5233 79.8552 37.9251 80.0171 37.3404C80.1655 36.7558 80.7591 36.4023 81.3393 36.5655C81.9194 36.715 82.2702 37.3133 82.1083 37.8979Z" fill="white"/>
<path d="M104.423 12.4732C103.424 14.2135 101.212 14.8117 99.4847 13.8056C97.7578 12.7995 97.1641 10.5698 98.1625 8.82948C99.1609 7.08919 101.373 6.49097 103.1 7.49707C104.827 8.50317 105.434 10.7329 104.423 12.4732Z" fill="white"/>
<path d="M96.5312 23.8258C95.8701 24.9815 94.3995 25.3758 93.2393 24.7096C92.0925 24.0434 91.7013 22.5614 92.3624 21.3921C93.0234 20.2365 94.494 19.8422 95.6542 20.5084C96.801 21.1746 97.1923 22.6566 96.5312 23.8258Z" fill="white"/>
<path d="M90.5254 32.7857C90.0667 33.5878 89.0549 33.8598 88.2589 33.3975C87.4764 32.9352 87.2066 31.9155 87.6653 31.127C88.1105 30.3248 89.1223 30.0529 89.9183 30.5152C90.7008 30.9774 90.9707 31.9835 90.5254 32.7857Z" fill="white"/>
<path d="M85.8577 39.7742C85.5609 40.3044 84.8999 40.4812 84.3737 40.182C83.861 39.8693 83.6722 39.2031 83.9824 38.6865C84.2793 38.1562 84.9403 37.9795 85.4665 38.2786C85.9792 38.5913 86.168 39.2575 85.8577 39.7742Z" fill="white"/>
<path d="M114.474 21.569C112.774 23.2821 110.008 23.2821 108.308 21.569C106.608 19.8559 106.608 17.0687 108.308 15.3556C110.008 13.6425 112.774 13.6425 114.474 15.3556C116.187 17.0687 116.187 19.8559 114.474 21.569Z" fill="white"/>
<path d="M103.721 30.2571C102.601 31.3719 100.807 31.3719 99.6871 30.2571C98.5808 29.1286 98.5808 27.3203 99.6871 26.1919C100.807 25.077 102.601 25.077 103.721 26.1919C104.827 27.3203 104.827 29.1286 103.721 30.2571Z" fill="white"/>
<path d="M95.3002 37.0277C94.6526 37.6803 93.6137 37.6803 92.9662 37.0277C92.3186 36.3751 92.3186 35.3282 92.9662 34.6755C93.6137 34.0365 94.6526 34.0365 95.3002 34.6755C95.9477 35.3282 95.9477 36.3751 95.3002 37.0277Z" fill="white"/>
<path d="M89.0026 42.575C88.5844 42.9965 87.8963 42.9965 87.4781 42.575C87.0464 42.1399 87.0464 41.4465 87.4781 41.025C87.8963 40.59 88.5844 40.59 89.0026 41.025C89.4343 41.4465 89.4343 42.1399 89.0026 42.575Z" fill="white"/>
<path d="M121.613 32.9487C119.252 34.3219 116.23 33.5061 114.867 31.1268C113.491 28.7475 114.314 25.702 116.675 24.3152C119.036 22.942 122.058 23.7714 123.42 26.1507C124.797 28.53 123.987 31.5755 121.613 32.9487Z" fill="white"/>
<path d="M108.808 38.2243C107.351 39.0808 105.462 38.5642 104.612 37.0822C103.775 35.6138 104.275 33.724 105.745 32.8674C107.202 32.0109 109.091 32.5139 109.941 33.9959C110.777 35.4779 110.278 37.3677 108.808 38.2243Z" fill="white"/>
<path d="M99.2532 43.1324C98.0524 43.8394 96.5144 43.418 95.8129 42.2079C95.1248 40.9979 95.5295 39.4343 96.7438 38.7409C97.9445 38.0339 99.4825 38.4554 100.184 39.6655C100.886 40.8755 100.467 42.439 99.2532 43.1324Z" fill="white"/>
<path d="M91.3233 46.0825C90.8106 46.3952 90.1361 46.2049 89.8393 45.6882C89.5424 45.158 89.7178 44.4918 90.244 44.1927C90.7567 43.8935 91.4177 44.0703 91.728 44.5869C92.0249 45.1172 91.8495 45.7834 91.3233 46.0825Z" fill="white"/>
<path d="M125.372 45.6067C122.566 46.3681 119.678 44.6822 118.936 41.8542C118.181 39.0399 119.84 36.1303 122.646 35.3689C125.453 34.6076 128.34 36.2935 129.095 39.1214C129.837 41.9494 128.178 44.8453 125.372 45.6067Z" fill="white"/>
<path d="M111.64 47.2926C109.859 47.7684 108.051 46.708 107.565 44.9269C107.107 43.1458 108.145 41.3103 109.926 40.8345C111.694 40.3586 113.501 41.4191 113.987 43.2002C114.459 44.9813 113.407 46.8167 111.64 47.2926Z" fill="white"/>
<path d="M101.116 49.427C99.7126 49.8077 98.2556 48.9648 97.8778 47.5508C97.5 46.1232 98.3365 44.6684 99.7531 44.2877C101.156 43.9071 102.613 44.75 102.991 46.164C103.355 47.5916 102.519 49.0463 101.116 49.427Z" fill="white"/>
<path d="M92.8071 50.6235C91.9301 50.8546 91.0397 50.338 90.7968 49.4542C90.5675 48.5705 91.0802 47.6732 91.9571 47.442C92.834 47.2109 93.7245 47.7276 93.9673 48.6113C94.1967 49.4814 93.6705 50.3924 92.8071 50.6235Z" fill="white"/>
<path d="M125.67 58.8221C122.594 58.8221 120.111 56.3068 120.111 53.2069C120.111 50.1071 122.594 47.5918 125.67 47.5918C128.746 47.5918 131.242 50.1071 131.242 53.2069C131.242 56.3068 128.746 58.8221 125.67 58.8221Z" fill="white"/>
<path d="M111.974 57.0815C109.842 57.0815 108.115 55.3412 108.115 53.2066C108.115 51.0585 109.842 49.3318 111.974 49.3318C114.092 49.3318 115.819 51.0585 115.819 53.2066C115.819 55.3412 114.092 57.0815 111.974 57.0815Z" fill="white"/>
<path d="M101.265 56.0076C99.7274 56.0076 98.4727 54.7567 98.4727 53.2068C98.4727 51.6568 99.7274 50.406 101.265 50.406C102.803 50.406 104.058 51.6568 104.058 53.2068C104.058 54.7567 102.803 56.0076 101.265 56.0076Z" fill="white"/>
<path d="M92.9268 55.0422C91.915 55.0422 91.1055 54.2264 91.1055 53.2067C91.1055 52.187 91.915 51.3577 92.9268 51.3577C93.9387 51.3577 94.7481 52.187 94.7481 53.2067C94.7481 54.2264 93.9387 55.0422 92.9268 55.0422Z" fill="white"/>
<path d="M116.791 81.8805C114.538 80.5753 113.769 77.6658 115.064 75.4088C116.373 73.1383 119.247 72.3633 121.486 73.6821C123.739 74.9874 124.508 77.8833 123.213 80.1402C121.904 82.4108 119.031 83.1857 116.791 81.8805Z" fill="white"/>
<path d="M105.526 73.9269C103.853 72.948 103.287 70.7999 104.245 69.114C105.216 67.4281 107.348 66.8434 109.021 67.8223C110.693 68.7877 111.274 70.9494 110.302 72.6353C109.331 74.3212 107.199 74.8923 105.526 73.9269Z" fill="white"/>
<path d="M96.7856 67.5912C95.6254 66.925 95.2206 65.4158 95.8952 64.2466C96.5698 63.0773 98.0538 62.683 99.2141 63.3492C100.388 64.029 100.779 65.5246 100.105 66.6938C99.4434 67.8767 97.9459 68.271 96.7856 67.5912Z" fill="white"/>
<path d="M90.244 62.2214C89.7178 61.9222 89.5424 61.256 89.8393 60.7258C90.1496 60.2092 90.8106 60.0188 91.3233 60.3315C91.8495 60.6306 92.0249 61.2968 91.728 61.8271C91.4312 62.3437 90.7567 62.5341 90.244 62.2214Z" fill="white"/>
<path d="M108.254 91.1122C106.527 89.372 106.527 86.544 108.254 84.8037C109.995 83.0498 112.801 83.0498 114.528 84.8037C116.255 86.544 116.255 89.372 114.528 91.1122C112.801 92.8525 109.995 92.8525 108.254 91.1122Z" fill="white"/>
<path d="M99.47 80.4396C98.2288 79.2024 98.2288 77.1766 99.47 75.9393C100.698 74.6885 102.708 74.6885 103.936 75.9393C105.177 77.1766 105.177 79.2024 103.936 80.4396C102.708 81.6905 100.698 81.6905 99.47 80.4396Z" fill="white"/>
<path d="M92.5656 72.1462C91.7021 71.2624 91.7021 69.8484 92.5656 68.9783C93.429 68.1081 94.8321 68.1081 95.709 68.9783C96.5725 69.8484 96.5725 71.2624 95.709 72.1462C94.8321 73.0163 93.429 73.0163 92.5656 72.1462Z" fill="white"/>
<path d="M87.4781 65.3888C87.0464 64.9673 87.0464 64.2739 87.4781 63.8524C87.8963 63.4174 88.5844 63.4174 89.0026 63.8524C89.4343 64.2739 89.4343 64.9673 89.0026 65.3888C88.5844 65.8238 87.8963 65.8238 87.4781 65.3888Z" fill="white"/>
<path d="M97.6899 97.8558C96.5566 95.8571 97.2312 93.2875 99.2144 92.1318C101.211 90.9762 103.748 91.6696 104.894 93.6682C106.041 95.6668 105.353 98.2229 103.37 99.3921C101.387 100.548 98.8367 99.8544 97.6899 97.8558Z" fill="white"/>
<path d="M91.8757 85.2938C91.0663 83.8662 91.5519 82.0444 92.9685 81.2286C94.3851 80.3992 96.1795 80.8887 97.0025 82.3163C97.8254 83.7439 97.3397 85.5657 95.9232 86.3815C94.5066 87.2108 92.6987 86.7214 91.8757 85.2938Z" fill="white"/>
<path d="M87.6653 75.2867C87.2066 74.4981 87.4764 73.4784 88.2589 73.0161C89.0549 72.5539 90.0667 72.8258 90.5254 73.6279C90.9707 74.4165 90.7008 75.4362 89.9183 75.8985C89.1223 76.3607 88.1105 76.0888 87.6653 75.2867Z" fill="white"/>
<path d="M83.9824 67.7273C83.6722 67.2106 83.861 66.5308 84.3737 66.2317C84.8999 65.9326 85.5609 66.1094 85.8577 66.6396C86.168 67.1563 85.9792 67.8225 85.4665 68.1352C84.9403 68.4343 84.2793 68.2575 83.9824 67.7273Z" fill="white"/>
<path d="M86.0343 101.609C85.5217 99.6645 86.6684 97.6659 88.5977 97.1492C90.527 96.6326 92.5102 97.7746 93.0229 99.7325C93.549 101.677 92.4023 103.675 90.473 104.192C88.5437 104.722 86.5605 103.567 86.0343 101.609Z" fill="white"/>
<path d="M83.6604 87.9579C83.3231 86.6663 84.0786 85.3339 85.3603 84.994C86.642 84.6405 87.9641 85.4155 88.3149 86.7071C88.6522 87.9987 87.8967 89.3311 86.615 89.671C85.3198 90.0245 84.0111 89.2495 83.6604 87.9579Z" fill="white"/>
<path d="M81.6211 77.3395C81.3917 76.4558 81.9044 75.5449 82.7813 75.3001C83.6718 75.069 84.5757 75.5857 84.805 76.483C85.0479 77.3667 84.5217 78.2777 83.6448 78.5224C82.7678 78.7535 81.8504 78.2233 81.6211 77.3395Z" fill="white"/>
<path d="M80.0028 69.0732C79.8544 68.4886 80.2052 67.8903 80.7853 67.7408C81.3519 67.5776 81.9455 67.9311 82.1074 68.5157C82.2558 69.1004 81.9186 69.6986 81.3384 69.8482C80.7583 70.0113 80.1647 69.6578 80.0028 69.0732Z" fill="white"/>
<path d="M73.2969 102.343C73.2969 100.33 74.9158 98.699 76.9126 98.699C78.9093 98.699 80.5283 100.33 80.5283 102.343C80.5283 104.355 78.9093 106 76.9126 106C74.9158 106 73.2969 104.355 73.2969 102.343Z" fill="white"/>
<path d="M74.5117 88.5292C74.5117 87.1968 75.5775 86.1091 76.9132 86.1091C78.2488 86.1091 79.3281 87.1968 79.3281 88.5292C79.3281 89.8752 78.2488 90.9629 76.9132 90.9629C75.5775 90.9629 74.5117 89.8752 74.5117 88.5292Z" fill="white"/>
<path d="M75.2676 77.7475C75.2676 76.823 76.0096 76.0752 76.9135 76.0752C77.8174 76.0752 78.5595 76.823 78.5595 77.7475C78.5595 78.672 77.8174 79.4062 76.9135 79.4062C76.0096 79.4062 75.2676 78.672 75.2676 77.7475Z" fill="white"/>
<path d="M75.8359 69.3455C75.8359 68.7337 76.3216 68.2578 76.9152 68.2578C77.5089 68.2578 78.008 68.7337 78.008 69.3455C78.008 69.9573 77.5089 70.4332 76.9152 70.4332C76.3216 70.4332 75.8359 69.9573 75.8359 69.3455Z" fill="white"/>
<path d="M60.7902 99.7325C61.3164 97.7746 63.2996 96.6326 65.2289 97.1492C67.1581 97.6659 68.3049 99.6645 67.7922 101.609C67.2661 103.567 65.2828 104.722 63.3536 104.192C61.4243 103.675 60.2775 101.677 60.7902 99.7325Z" fill="white"/>
<path d="M65.5146 86.7071C65.8654 85.4155 67.1875 84.6405 68.4692 84.994C69.7509 85.3339 70.5064 86.6663 70.1691 87.9579C69.8183 89.2496 68.5097 90.0245 67.2145 89.6846C65.9328 89.3311 65.1638 87.9987 65.5146 86.7071Z" fill="white"/>
<path d="M69.0222 76.483C69.2515 75.5857 70.1554 75.069 71.0459 75.3001C71.9228 75.5449 72.4355 76.4558 72.2061 77.3395C71.9633 78.2233 71.0729 78.7535 70.1824 78.5088C69.3055 78.2777 68.7793 77.3667 69.0222 76.483Z" fill="white"/>
<path d="M71.8969 68.5563C72.0183 68.0669 72.5175 67.7678 73.0032 67.9037C73.4889 68.0397 73.7857 68.5427 73.6508 69.0322C73.5293 69.5216 73.0167 69.8072 72.531 69.6848C72.0453 69.5488 71.762 69.0458 71.8969 68.5563Z" fill="white"/>
<path d="M49.7813 94.1582C50.6582 92.6354 52.601 92.1052 54.1255 92.9889C55.6365 93.8726 56.1627 95.8305 55.2858 97.3668C54.4088 98.8896 52.4661 99.4198 50.9415 98.5361C49.417 97.6523 48.9043 95.6945 49.7813 94.1582Z" fill="white"/>
<path d="M57.6775 82.806C58.2172 81.8542 59.4314 81.5279 60.3758 82.0718C61.3202 82.6292 61.644 83.8528 61.1043 84.8046C60.5512 85.7563 59.337 86.0826 58.3926 85.5251C57.4617 84.9813 57.1244 83.7577 57.6775 82.806Z" fill="white"/>
<path d="M63.4751 73.723C63.8798 73.0296 64.7703 72.7849 65.4583 73.1928C66.1599 73.6007 66.3892 74.498 65.998 75.1914C65.5932 75.8848 64.7028 76.1295 64.0147 75.7216C63.3132 75.3138 63.0838 74.43 63.4751 73.723Z" fill="white"/>
<path d="M68.1565 66.7484C68.3859 66.327 68.9255 66.191 69.3438 66.4221C69.7485 66.6669 69.8969 67.1971 69.6541 67.6186C69.4247 68.0401 68.885 68.176 68.4668 67.9449C68.0621 67.7002 67.9137 67.1563 68.1565 66.7484Z" fill="white"/>
<path d="M40.3793 85.878C41.5125 84.736 43.3608 84.736 44.4941 85.878C45.6274 87.0201 45.6274 88.8828 44.4941 90.0248C43.3608 91.1669 41.5125 91.1669 40.3793 90.0248C39.246 88.8828 39.246 87.0201 40.3793 85.878Z" fill="white"/>
<path d="M50.9157 76.9728C51.5768 76.3066 52.6561 76.3066 53.3307 76.9728C53.9918 77.639 53.9918 78.7403 53.3307 79.4065C52.6561 80.0727 51.5768 80.0727 50.9157 79.4065C50.2547 78.7403 50.2547 77.639 50.9157 76.9728Z" fill="white"/>
<path d="M58.8772 69.7261C59.3224 69.2638 60.0645 69.2638 60.5232 69.7261C60.9819 70.1884 60.9819 70.9361 60.5232 71.3984C60.0645 71.8471 59.3224 71.8471 58.8772 71.3984C58.4185 70.9361 58.4185 70.1884 58.8772 69.7261Z" fill="white"/>
<path d="M33.2823 75.3137C34.6314 74.5388 36.3448 75.001 37.1273 76.3606C37.8963 77.7066 37.4376 79.4469 36.0885 80.2355C34.7394 81.024 33.026 80.5482 32.2435 79.1886C31.4744 77.8426 31.9331 76.1023 33.2823 75.3137Z" fill="white"/>
<path d="M45.8566 69.658C46.5177 69.2773 47.3676 69.5084 47.7589 70.1746C48.1366 70.8408 47.9073 71.6974 47.2462 72.0781C46.5851 72.4723 45.7352 72.2412 45.3574 71.575C44.9661 70.8952 45.1955 70.0523 45.8566 69.658Z" fill="white"/>
<path d="M55.2332 64.4509C55.7998 64.1246 56.5149 64.3149 56.8522 64.886C57.176 65.4434 56.9736 66.1776 56.4204 66.5039C55.8538 66.8302 55.1253 66.6398 54.8015 66.0688C54.4777 65.4978 54.6801 64.7772 55.2332 64.4509Z" fill="white"/>
<path d="M30.4753 38.0201C31.8244 38.3871 32.6204 39.7875 32.2697 41.1471C31.9054 42.5067 30.5158 43.3225 29.1532 42.9554C27.804 42.5883 26.9945 41.1879 27.3588 39.8283C27.7231 38.4551 29.1127 37.653 30.4753 38.0201Z" fill="white"/>
<path d="M35.9561 26.4223C37.1703 27.1293 37.5885 28.6929 36.887 29.9165C36.1854 31.1401 34.6339 31.5616 33.4197 30.8546C32.2055 30.1476 31.7872 28.5841 32.4888 27.3604C33.1903 26.1368 34.7418 25.7153 35.9561 26.4223Z" fill="white"/>
<path d="M47.2864 34.2678C47.9745 34.6757 48.2173 35.573 47.8126 36.28C47.4078 36.9734 46.5174 37.2181 45.8293 36.8103C45.1278 36.4024 44.8849 35.505 45.2897 34.8117C45.6944 34.1047 46.5848 33.8735 47.2864 34.2678Z" fill="white"/>
<path d="M56.4049 39.9233C56.958 40.2496 57.1334 40.9566 56.8231 41.5141C56.4993 42.0715 55.7977 42.2619 55.2446 41.9492C54.6915 41.6229 54.5026 40.9159 54.8264 40.3584C55.1367 39.801 55.8517 39.6106 56.4049 39.9233Z" fill="white"/>
<path d="M44.3337 16.5522C45.386 17.5991 45.386 19.3122 44.3337 20.3727C43.2814 21.4332 41.5815 21.4332 40.5291 20.3727C39.4903 19.3122 39.4903 17.5991 40.5291 16.5522C41.5815 15.4917 43.2814 15.4917 44.3337 16.5522Z" fill="white"/>
<path d="M53.344 26.9938C54.0186 27.6736 54.0186 28.7749 53.344 29.4547C52.6694 30.1345 51.5766 30.1345 50.9021 29.4547C50.241 28.7749 50.241 27.6736 50.9021 26.9938C51.5766 26.3276 52.6694 26.3276 53.344 26.9938Z" fill="white"/>
<path d="M60.6156 34.9203C61.1283 35.4369 61.1283 36.2663 60.6156 36.7829C60.103 37.2996 59.28 37.2996 58.7673 36.7829C58.2546 36.2663 58.2546 35.4369 58.7673 34.9203C59.28 34.4172 60.103 34.4172 60.6156 34.9203Z" fill="white"/>
<path d="M55.2858 9.04711C56.1627 10.5835 55.65 12.5413 54.1255 13.425C52.601 14.3088 50.6582 13.7921 49.7813 12.2558C48.9043 10.7194 49.417 8.76159 50.9415 7.87785C52.4661 6.99412 54.4088 7.51076 55.2858 9.04711Z" fill="white"/>
<path d="M61.1143 21.6099C61.6539 22.5616 61.3301 23.7988 60.3857 24.3427C59.4278 24.9001 58.2136 24.5738 57.6605 23.6085C57.1073 22.6568 57.4311 21.4195 58.389 20.8757C59.3334 20.3183 60.5611 20.6446 61.1143 21.6099Z" fill="white"/>
<path d="M65.9832 31.2357C66.3744 31.9291 66.1451 32.8129 65.457 33.2072C64.769 33.615 63.892 33.3703 63.4873 32.6769C63.096 31.9835 63.3254 31.0998 64.0134 30.7055C64.7015 30.2976 65.5784 30.5423 65.9832 31.2357Z" fill="white"/>
<path d="M69.5882 38.8361C69.8041 39.2168 69.6826 39.7062 69.3049 39.9237C68.9271 40.1413 68.4414 40.0053 68.2256 39.6246C68.0097 39.2439 68.1311 38.7545 68.5089 38.5506C68.8867 38.3194 69.3723 38.4554 69.5882 38.8361Z" fill="white"/>
<path d="M67.5765 4.8594C68.0622 6.68126 66.9829 8.55751 65.175 9.04697C63.3672 9.53642 61.5054 8.44874 61.0197 6.62688C60.534 4.80502 61.5998 2.92877 63.4077 2.43931C65.229 1.94985 67.0773 3.03753 67.5765 4.8594Z" fill="white"/>
<path d="M69.8455 18.5375C70.1288 19.6524 69.4813 20.7944 68.375 21.0935C67.2687 21.3926 66.1354 20.74 65.8386 19.6252C65.5418 18.5103 66.2029 17.3682 67.3091 17.0691C68.402 16.77 69.5487 17.4226 69.8455 18.5375Z" fill="white"/>
<path d="M72.2061 29.0737C72.4355 29.9574 71.9228 30.8683 71.0459 31.1131C70.1554 31.3442 69.2515 30.8276 69.0222 29.9302C68.7793 29.0465 69.3055 28.1355 70.1824 27.8908C71.0729 27.6597 71.9768 28.1899 72.2061 29.0737Z" fill="white"/>
<path d="M73.6348 37.381C73.7562 37.8705 73.4729 38.3599 73.0007 38.4823C72.5285 38.6183 72.0293 38.3328 71.9079 37.8569C71.7864 37.3674 72.0563 36.878 72.542 36.7556C73.0142 36.6197 73.4998 36.9052 73.6348 37.381Z" fill="white"/>
<path d="M80.5283 4.0709C80.5283 6.08311 78.9093 7.71463 76.9126 7.71463C74.9158 7.71463 73.2969 6.08311 73.2969 4.0709C73.2969 2.05869 74.9158 0.413574 76.9126 0.413574C78.9093 0.413574 80.5283 2.05869 80.5283 4.0709Z" fill="white"/>
<path d="M79.328 17.8708C79.328 19.2168 78.2486 20.3045 76.913 20.3045C75.5908 20.3045 74.498 19.2168 74.498 17.8708C74.498 16.5384 75.5908 15.4507 76.913 15.4507C78.2486 15.4507 79.328 16.5384 79.328 17.8708Z" fill="white"/>
<path d="M78.5595 28.666C78.5595 29.5906 77.8174 30.3247 76.9135 30.3247C76.0096 30.3247 75.2676 29.5906 75.2676 28.666C75.2676 27.7551 76.0096 27.0073 76.9135 27.0073C77.8174 27.0073 78.5595 27.7551 78.5595 28.666Z" fill="white"/>
<path d="M78.008 37.0681C78.008 37.68 77.5089 38.1558 76.9152 38.1558C76.3216 38.1558 75.8359 37.68 75.8359 37.0681C75.8359 36.4699 76.3216 35.9805 76.9152 35.9805C77.5089 35.9805 78.008 36.4699 78.008 37.0681Z" fill="white"/>
<path d="M122.649 71.0449C119.842 70.2835 118.183 67.374 118.925 64.5596C119.68 61.718 122.568 60.0457 125.374 60.8071C128.18 61.5549 129.839 64.4644 129.097 67.2924C128.342 70.1203 125.455 71.8063 122.649 71.0449Z" fill="white"/>
<path d="M109.859 65.8243C107.957 65.3077 106.824 63.3362 107.336 61.4192C107.849 59.5022 109.792 58.3737 111.694 58.8904C113.61 59.3934 114.729 61.3648 114.217 63.2819C113.704 65.1989 111.761 66.3274 109.859 65.8243Z" fill="white"/>
<path d="M99.7664 62.0713C98.3768 61.7042 97.5539 60.2766 97.9316 58.8762C98.3094 57.4895 99.726 56.6601 101.102 57.0408C102.478 57.4079 103.301 58.8355 102.937 60.2358C102.559 61.6226 101.143 62.452 99.7664 62.0713Z" fill="white"/>
<path d="M91.954 58.9849C91.0771 58.7538 90.5509 57.8429 90.7803 56.9455C91.0231 56.0618 91.9271 55.5451 92.804 55.7763C93.6944 56.021 94.2071 56.9183 93.9777 57.8157C93.7349 58.6994 92.831 59.2297 91.954 58.9849Z" fill="white"/>
<path d="M40.1087 53.778C40.1087 57.8568 40.8777 58.7677 43.8053 58.4958C45.6401 58.3191 46.8813 57.2858 47.4885 55.5319C48.1495 53.642 47.7853 51.9425 46.4226 50.5286C45.2354 49.2913 43.7918 48.9786 42.1729 49.5768C39.8928 50.4198 39.9873 52.3096 40.1087 53.778ZM40.1087 61.9492C40.1087 64.4509 40.0682 66.803 40.1357 69.1687C40.1761 70.4195 39.8254 70.9362 38.4627 70.909C35.5486 70.8546 35.5486 70.9362 35.5486 68.013C35.5486 61.4054 35.5216 54.7977 35.5891 48.1901C35.5891 47.3335 34.9145 46.0555 36.3581 45.6612C37.7477 45.2669 38.5842 45.9739 38.9079 47.4967C40.7832 45.9331 42.726 44.9406 45.0735 45.1717C46.8409 45.3485 48.3924 46.0691 49.6876 47.3199C52.6152 50.1207 53.2493 54.8249 51.1986 58.4958C49.1344 62.2211 45.6132 63.3632 40.1087 61.9492Z" fill="white"/>
<path d="M6.74464 54.0224C8.14774 51.3168 9.40244 48.8967 10.6571 46.4903C10.9674 45.892 11.1833 45.1171 12.0063 45.1443C12.8292 45.1714 13.0316 45.9328 13.3419 46.5446C14.5966 48.9375 15.8513 51.344 17.2409 54.0224C18.0504 51.5208 18.7655 49.3454 19.4805 47.1701C19.9122 45.8512 22.5835 44.9675 23.7303 45.7289C24.2429 46.0688 24.0271 46.4767 23.8922 46.8709C22.3272 51.7383 20.7757 56.5921 19.2107 61.4458C19.0353 61.9761 18.9004 62.5743 18.1988 62.6423C17.4433 62.7103 17.1465 62.1392 16.8632 61.5682C15.2982 58.5499 13.7197 55.518 11.9928 52.2006C10.3603 55.3277 8.87628 58.2236 7.35175 61.0924C7.00098 61.7857 6.8121 62.7647 5.74628 62.6287C4.80188 62.4927 4.82887 61.5546 4.61301 60.8884C3.12895 56.3202 1.72585 51.7383 0.187835 47.2108C-0.270871 45.8512 0.106887 45.6881 1.36158 45.5657C3.34482 45.4026 4.42413 45.96 4.84236 48.0674C5.23361 49.9844 6.01611 51.8063 6.74464 54.0224Z" fill="white"/>
<path d="M80.7602 53.8457C80.7197 51.3576 78.642 49.2095 76.3215 49.2639C73.974 49.3318 71.9773 51.5616 72.0582 54.0225C72.1527 56.4561 74.1359 58.5091 76.4024 58.5091C78.7365 58.5091 80.8006 56.3066 80.7602 53.8457ZM76.4969 62.6423C71.8424 62.6831 67.9434 58.6859 67.9434 53.8865C67.9568 49.1551 71.7479 45.1986 76.3215 45.1307C80.9355 45.0763 84.875 49.1143 84.875 53.9001C84.8615 58.6179 81.057 62.5879 76.4969 62.6423Z" fill="white"/>
<path d="M59.0505 47.6603C60.9933 45.6617 62.99 44.7236 65.4454 45.2946C66.2549 45.485 67.5231 45.6753 66.9699 46.831C66.4708 47.8507 66.7945 49.8357 64.6224 49.523C61.452 49.0743 60.4131 49.9716 60.4131 53.0851C60.4131 55.5732 60.3592 58.0613 60.4266 60.5629C60.4671 61.8002 59.9949 62.1672 58.8077 62.1808C55.8126 62.2216 55.8126 62.2624 55.8126 59.1625C55.8126 55.4916 55.7721 51.8071 55.8396 48.1362C55.853 47.266 55.2055 45.988 56.676 45.6345C58.0386 45.3082 58.9291 45.9064 59.0505 47.6603Z" fill="white"/>
<path d="M31.5033 53.8049C31.5033 56.0347 31.4628 58.2916 31.5302 60.5213C31.5572 61.7042 31.2065 62.2888 29.9518 62.1665C29.3986 62.1121 28.8455 62.1393 28.2923 62.1665C27.3749 62.2072 26.9297 61.8673 26.9297 60.8748C26.9567 56.2114 26.9567 51.5344 26.9432 46.871C26.9297 46.0144 27.2535 45.5929 28.1304 45.6065C28.805 45.6337 29.4796 45.6473 30.1541 45.6065C31.2334 45.5385 31.5437 46.0824 31.5168 47.0749C31.4763 49.3182 31.5033 51.5616 31.5033 53.8049Z" fill="white"/>
</svg>
