<svg width="410" height="137" viewBox="0 0 410 137" fill="none" xmlns="http://www.w3.org/2000/svg">
<path d="M0 0H370C392.091 0 410 17.9086 410 40V137H40C17.9086 137 0 119.091 0 97V0Z" fill="white"/>
<g clip-path="url(#clip0)">
<path d="M225.558 22.2885C225.042 24.2432 223.048 25.4051 221.107 24.8856C219.167 24.3662 218.014 22.3568 218.529 20.4021C219.058 18.4337 221.053 17.2855 222.993 17.8049C224.934 18.3244 226.087 20.3337 225.558 22.2885Z" fill="#5291CA"/>
<path d="M220.825 35.3831C220.472 36.6817 219.156 37.4608 217.853 37.1054C216.564 36.7637 215.804 35.4241 216.143 34.1255C216.496 32.8269 217.826 32.0478 219.115 32.3895C220.404 32.7449 221.177 34.0845 220.825 35.3831Z" fill="#5291CA"/>
<path d="M217.292 45.6625C217.062 46.5646 216.153 47.0841 215.257 46.8517C214.375 46.6056 213.859 45.6898 214.09 44.8013C214.334 43.9128 215.244 43.3797 216.125 43.6121C217.007 43.8581 217.537 44.7739 217.292 45.6625Z" fill="#5291CA"/>
<path d="M214.581 53.6726C214.419 54.2604 213.822 54.6158 213.238 54.4518C212.655 54.3014 212.315 53.7 212.478 53.1122C212.628 52.5244 213.225 52.169 213.808 52.333C214.392 52.4834 214.744 53.0848 214.581 53.6726Z" fill="#5291CA"/>
<path d="M237.026 28.1113C236.022 29.861 233.796 30.4624 232.06 29.4509C230.323 28.4394 229.726 26.1976 230.73 24.4479C231.734 22.6983 233.959 22.0968 235.696 23.1083C237.433 24.1199 238.044 26.3616 237.026 28.1113Z" fill="#5291CA"/>
<path d="M229.086 39.5252C228.421 40.687 226.942 41.0835 225.775 40.4137C224.622 39.7439 224.229 38.2539 224.894 37.0783C225.558 35.9164 227.037 35.52 228.204 36.1898C229.358 36.8596 229.751 38.3496 229.086 39.5252Z" fill="#5291CA"/>
<path d="M223.047 48.5325C222.586 49.339 221.568 49.6124 220.768 49.1477C219.981 48.6829 219.709 47.6577 220.17 46.8649C220.618 46.0584 221.636 45.785 222.437 46.2498C223.224 46.7145 223.495 47.726 223.047 48.5325Z" fill="#5291CA"/>
<path d="M218.354 55.5586C218.055 56.0918 217.39 56.2695 216.861 55.9687C216.346 55.6543 216.156 54.9845 216.468 54.4651C216.766 53.932 217.431 53.7543 217.96 54.055C218.476 54.3694 218.666 55.0392 218.354 55.5586Z" fill="#5291CA"/>
<path d="M247.136 37.2559C245.426 38.9782 242.644 38.9782 240.935 37.2559C239.225 35.5336 239.225 32.7314 240.935 31.009C242.644 29.2867 245.426 29.2867 247.136 31.009C248.859 32.7314 248.859 35.5336 247.136 37.2559Z" fill="#0B3B77"/>
<path d="M236.317 45.9908C235.191 47.1117 233.387 47.1117 232.26 45.9908C231.148 44.8562 231.148 43.0382 232.26 41.9037C233.387 40.7828 235.191 40.7828 236.317 41.9037C237.43 43.0382 237.43 44.8562 236.317 45.9908Z" fill="#0B3B77"/>
<path d="M227.852 52.7978C227.2 53.4539 226.155 53.4539 225.504 52.7978C224.853 52.1417 224.853 51.0891 225.504 50.433C226.155 49.7906 227.2 49.7906 227.852 50.433C228.503 51.0891 228.503 52.1417 227.852 52.7978Z" fill="#0B3B77"/>
<path d="M221.515 58.3756C221.095 58.7994 220.403 58.7994 219.982 58.3756C219.548 57.9382 219.548 57.2411 219.982 56.8173C220.403 56.3799 221.095 56.3799 221.515 56.8173C221.949 57.2411 221.949 57.9382 221.515 58.3756Z" fill="#0B3B77"/>
<path d="M254.312 48.6971C251.937 50.0777 248.897 49.2575 247.527 46.8654C246.143 44.4732 246.971 41.4113 249.345 40.0171C251.72 38.6365 254.759 39.4703 256.13 41.8624C257.514 44.2545 256.7 47.3165 254.312 48.6971Z" fill="#0B3B77"/>
<path d="M241.436 54.0008C239.97 54.8619 238.071 54.3425 237.216 52.8525C236.374 51.3762 236.877 49.4762 238.356 48.615C239.821 47.7539 241.721 48.2596 242.576 49.7496C243.417 51.2396 242.915 53.1396 241.436 54.0008Z" fill="#0B3B77"/>
<path d="M231.824 58.9353C230.616 59.6461 229.069 59.2224 228.364 58.0058C227.672 56.7892 228.079 55.2173 229.3 54.5201C230.508 53.8093 232.054 54.2331 232.76 55.4496C233.466 56.6662 233.045 58.2382 231.824 58.9353Z" fill="#0B3B77"/>
<path d="M223.848 61.9023C223.333 62.2167 222.654 62.0253 222.356 61.5059C222.057 60.9728 222.234 60.303 222.763 60.0023C223.278 59.7016 223.943 59.8793 224.255 60.3987C224.554 60.9318 224.377 61.6016 223.848 61.9023Z" fill="#0B3B77"/>
<path d="M258.097 61.4232C255.275 62.1886 252.371 60.4937 251.625 57.6504C250.865 54.8209 252.534 51.8957 255.356 51.1302C258.179 50.3647 261.083 52.0597 261.842 54.9029C262.589 57.7461 260.92 60.6577 258.097 61.4232Z" fill="#0B3B77"/>
<path d="M244.281 63.1181C242.49 63.5965 240.672 62.5303 240.183 60.7396C239.722 58.9489 240.767 57.1036 242.558 56.6251C244.335 56.1467 246.153 57.2129 246.642 59.0036C247.117 60.7943 246.059 62.6396 244.281 63.1181Z" fill="#0B3B77"/>
<path d="M233.699 65.2643C232.288 65.6471 230.823 64.7996 230.443 63.378C230.063 61.9427 230.904 60.4801 232.329 60.0973C233.74 59.7146 235.206 60.5621 235.585 61.9837C235.952 63.419 235.111 64.8816 233.699 65.2643Z" fill="#0B3B77"/>
<path d="M225.342 66.4674C224.46 66.6997 223.565 66.1803 223.321 65.2918C223.09 64.4033 223.606 63.5011 224.488 63.2688C225.37 63.0364 226.265 63.5558 226.509 64.4443C226.74 65.3191 226.211 66.235 225.342 66.4674Z" fill="#0B3B77"/>
<path d="M258.395 74.7098C255.301 74.7098 252.805 72.181 252.805 69.0644C252.805 65.9478 255.301 63.4189 258.395 63.4189C261.489 63.4189 263.999 65.9478 263.999 69.0644C263.999 72.181 261.489 74.7098 258.395 74.7098Z" fill="#6873AB"/>
<path d="M244.623 72.96C242.479 72.96 240.742 71.2103 240.742 69.0642C240.742 66.9045 242.479 65.1685 244.623 65.1685C246.753 65.1685 248.49 66.9045 248.49 69.0642C248.49 71.2103 246.753 72.96 244.623 72.96Z" fill="#6873AB"/>
<path d="M233.848 71.8803C232.301 71.8803 231.039 70.6227 231.039 69.0644C231.039 67.5061 232.301 66.2485 233.848 66.2485C235.395 66.2485 236.657 67.5061 236.657 69.0644C236.657 70.6227 235.395 71.8803 233.848 71.8803Z" fill="#6873AB"/>
<path d="M225.465 70.9095C224.447 70.9095 223.633 70.0893 223.633 69.0641C223.633 68.0389 224.447 67.2051 225.465 67.2051C226.482 67.2051 227.296 68.0389 227.296 69.0641C227.296 70.0893 226.482 70.9095 225.465 70.9095Z" fill="#6873AB"/>
<path d="M249.467 97.893C247.201 96.5808 246.427 93.6556 247.73 91.3865C249.046 89.1037 251.936 88.3245 254.189 89.6505C256.455 90.9627 257.228 93.8743 255.926 96.1434C254.61 98.4262 251.719 99.2053 249.467 97.893Z" fill="#6873AB"/>
<path d="M238.136 89.8963C236.453 88.9121 235.883 86.7523 236.847 85.0573C237.824 83.3623 239.968 82.7746 241.65 83.7587C243.333 84.7293 243.916 86.9027 242.939 88.5977C241.962 90.2927 239.819 90.8668 238.136 89.8963Z" fill="#6873AB"/>
<path d="M229.341 83.5264C228.175 82.8566 227.767 81.3393 228.446 80.1638C229.124 78.9882 230.617 78.5918 231.784 79.2616C232.964 79.9451 233.358 81.4487 232.679 82.6243C232.015 83.8135 230.508 84.2099 229.341 83.5264Z" fill="#6873AB"/>
<path d="M222.763 78.1271C222.234 77.8264 222.057 77.1566 222.356 76.6235C222.668 76.1041 223.333 75.9127 223.848 76.2271C224.377 76.5278 224.554 77.1976 224.255 77.7307C223.957 78.2502 223.278 78.4415 222.763 78.1271Z" fill="#6873AB"/>
<path d="M240.877 107.174C239.14 105.425 239.14 102.581 240.877 100.832C242.627 99.0684 245.45 99.0684 247.186 100.832C248.923 102.581 248.923 105.425 247.186 107.174C245.45 108.924 242.627 108.924 240.877 107.174Z" fill="#B71670"/>
<path d="M232.046 96.4438C230.797 95.1999 230.797 93.1632 232.046 91.9193C233.28 90.6617 235.302 90.6617 236.537 91.9193C237.785 93.1632 237.785 95.1999 236.537 96.4438C235.302 97.7014 233.28 97.7014 232.046 96.4438Z" fill="#B71670"/>
<path d="M225.097 88.1057C224.228 87.2172 224.228 85.7956 225.097 84.9208C225.965 84.0459 227.376 84.0459 228.258 84.9208C229.127 85.7956 229.127 87.2172 228.258 88.1057C227.376 88.9806 225.965 88.9806 225.097 88.1057Z" fill="#B71670"/>
<path d="M219.982 81.3117C219.548 80.8879 219.548 80.1908 219.982 79.767C220.403 79.3296 221.095 79.3296 221.515 79.767C221.949 80.1908 221.949 80.8879 221.515 81.3117C221.095 81.7491 220.403 81.7491 219.982 81.3117Z" fill="#B71670"/>
<path d="M230.252 113.954C229.112 111.945 229.79 109.361 231.785 108.199C233.793 107.037 236.344 107.735 237.498 109.744C238.651 111.753 237.959 114.323 235.964 115.499C233.97 116.661 231.405 115.964 230.252 113.954Z" fill="#B71670"/>
<path d="M224.405 101.324C223.591 99.889 224.08 98.0573 225.504 97.2371C226.929 96.4033 228.734 96.8954 229.562 98.3307C230.389 99.7659 229.901 101.598 228.476 102.418C227.051 103.252 225.233 102.76 224.405 101.324Z" fill="#B71670"/>
<path d="M220.17 91.263C219.709 90.4702 219.981 89.445 220.768 88.9802C221.568 88.5155 222.586 88.7889 223.047 89.5954C223.495 90.3882 223.224 91.4134 222.437 91.8781C221.636 92.3429 220.618 92.0695 220.17 91.263Z" fill="#B71670"/>
<path d="M216.468 83.6627C216.156 83.1432 216.346 82.4598 216.861 82.159C217.39 81.8583 218.055 82.036 218.354 82.5691C218.666 83.0885 218.476 83.7583 217.96 84.0727C217.431 84.3735 216.766 84.1958 216.468 83.6627Z" fill="#B71670"/>
<path d="M218.529 117.727C218.014 115.772 219.167 113.763 221.107 113.243C223.048 112.724 225.042 113.872 225.558 115.841C226.087 117.795 224.934 119.805 222.993 120.324C221.053 120.857 219.058 119.695 218.529 117.727Z" fill="#D4585A"/>
<path d="M216.143 104.003C215.804 102.704 216.564 101.365 217.853 101.023C219.142 100.668 220.472 101.447 220.825 102.745C221.164 104.044 220.404 105.384 219.115 105.725C217.812 106.081 216.496 105.302 216.143 104.003Z" fill="#D4585A"/>
<path d="M214.09 93.3269C213.859 92.4384 214.375 91.5226 215.257 91.2765C216.153 91.0441 217.062 91.5636 217.292 92.4657C217.537 93.3543 217.007 94.2701 216.125 94.5162C215.244 94.7485 214.321 94.2154 214.09 93.3269Z" fill="#D4585A"/>
<path d="M212.464 85.0159C212.315 84.4281 212.667 83.8267 213.251 83.6763C213.821 83.5123 214.418 83.8677 214.581 84.4554C214.73 85.0432 214.391 85.6447 213.807 85.795C213.224 85.9591 212.627 85.6037 212.464 85.0159Z" fill="#D4585A"/>
<path d="M205.723 118.466C205.723 116.443 207.351 114.802 209.359 114.802C211.367 114.802 212.996 116.443 212.996 118.466C212.996 120.489 211.367 122.143 209.359 122.143C207.351 122.143 205.723 120.489 205.723 118.466Z" fill="#D4585A"/>
<path d="M206.941 104.577C206.941 103.238 208.013 102.144 209.357 102.144C210.7 102.144 211.786 103.238 211.786 104.577C211.786 105.93 210.7 107.024 209.357 107.024C208.013 107.024 206.941 105.93 206.941 104.577Z" fill="#D4585A"/>
<path d="M207.699 93.7375C207.699 92.808 208.446 92.0562 209.355 92.0562C210.264 92.0562 211.01 92.808 211.01 93.7375C211.01 94.667 210.264 95.4051 209.355 95.4051C208.446 95.4051 207.699 94.667 207.699 93.7375Z" fill="#D4585A"/>
<path d="M208.27 85.2898C208.27 84.6747 208.758 84.1963 209.355 84.1963C209.952 84.1963 210.454 84.6747 210.454 85.2898C210.454 85.905 209.952 86.3834 209.355 86.3834C208.758 86.3834 208.27 85.905 208.27 85.2898Z" fill="#D4585A"/>
<path d="M193.142 115.841C193.672 113.872 195.666 112.724 197.607 113.243C199.547 113.763 200.7 115.772 200.185 117.727C199.656 119.695 197.661 120.857 195.721 120.324C193.78 119.805 192.627 117.795 193.142 115.841Z" fill="#F89C2C"/>
<path d="M197.89 102.745C198.243 101.447 199.573 100.668 200.862 101.023C202.151 101.365 202.911 102.704 202.571 104.003C202.219 105.302 200.902 106.081 199.6 105.739C198.311 105.384 197.537 104.044 197.89 102.745Z" fill="#F89C2C"/>
<path d="M201.419 92.4657C201.65 91.5636 202.559 91.0441 203.454 91.2765C204.336 91.5226 204.852 92.4384 204.621 93.3269C204.377 94.2154 203.481 94.7485 202.586 94.5025C201.704 94.2701 201.175 93.3542 201.419 92.4657Z" fill="#F89C2C"/>
<path d="M204.307 84.4968C204.429 84.0047 204.931 83.704 205.42 83.8407C205.908 83.9774 206.207 84.4831 206.071 84.9752C205.949 85.4673 205.433 85.7544 204.945 85.6313C204.456 85.4946 204.172 84.9889 204.307 84.4968Z" fill="#F89C2C"/>
<path d="M182.071 110.236C182.953 108.705 184.907 108.172 186.44 109.06C187.96 109.949 188.489 111.917 187.607 113.462C186.725 114.993 184.771 115.526 183.238 114.637C181.704 113.749 181.189 111.78 182.071 110.236Z" fill="#F89C2C"/>
<path d="M190.007 98.8228C190.55 97.866 191.771 97.5379 192.721 98.0847C193.671 98.6451 193.997 99.8753 193.454 100.832C192.897 101.789 191.676 102.117 190.726 101.557C189.79 101.01 189.451 99.7796 190.007 98.8228Z" fill="#F89C2C"/>
<path d="M195.843 89.6916C196.25 88.9944 197.146 88.7484 197.838 89.1585C198.544 89.5685 198.774 90.4707 198.381 91.1679C197.974 91.865 197.078 92.111 196.386 91.701C195.681 91.2909 195.45 90.4024 195.843 89.6916Z" fill="#F89C2C"/>
<path d="M200.552 82.6788C200.782 82.255 201.325 82.1183 201.746 82.3507C202.153 82.5968 202.302 83.1299 202.058 83.5536C201.827 83.9774 201.284 84.1141 200.864 83.8817C200.457 83.6356 200.307 83.0889 200.552 82.6788Z" fill="#F89C2C"/>
<path d="M172.609 101.912C173.749 100.764 175.608 100.764 176.747 101.912C177.887 103.06 177.887 104.933 176.747 106.081C175.608 107.229 173.749 107.229 172.609 106.081C171.469 104.933 171.469 103.06 172.609 101.912Z" fill="#FDC51B"/>
<path d="M183.206 92.9584C183.871 92.2886 184.956 92.2886 185.635 92.9584C186.299 93.6282 186.299 94.7354 185.635 95.4052C184.956 96.075 183.871 96.075 183.206 95.4052C182.541 94.7354 182.541 93.6282 183.206 92.9584Z" fill="#FDC51B"/>
<path d="M191.213 85.6723C191.661 85.2075 192.407 85.2075 192.869 85.6723C193.33 86.1371 193.33 86.8889 192.869 87.3536C192.407 87.8047 191.661 87.8047 191.213 87.3536C190.752 86.8889 190.752 86.1371 191.213 85.6723Z" fill="#FDC51B"/>
<path d="M165.474 91.2908C166.831 90.5117 168.554 90.9764 169.341 92.3434C170.115 93.6966 169.653 95.4463 168.296 96.2391C166.939 97.0319 165.216 96.5535 164.429 95.1866C163.656 93.8333 164.117 92.0837 165.474 91.2908Z" fill="#FDC51B"/>
<path d="M178.12 85.6038C178.785 85.2211 179.64 85.4534 180.034 86.1232C180.413 86.793 180.183 87.6542 179.518 88.0369C178.853 88.4333 177.998 88.201 177.618 87.5312C177.225 86.8477 177.455 86.0002 178.12 85.6038Z" fill="#FDC51B"/>
<path d="M187.551 80.369C188.121 80.0409 188.84 80.2323 189.179 80.8064C189.505 81.3668 189.301 82.105 188.745 82.433C188.175 82.7611 187.442 82.5697 187.117 81.9956C186.791 81.4215 186.995 80.697 187.551 80.369Z" fill="#FDC51B"/>
<path d="M162.652 53.7954C164.009 54.1645 164.809 55.5724 164.457 56.9394C164.09 58.3063 162.693 59.1265 161.322 58.7574C159.965 58.3883 159.151 56.9804 159.518 55.6135C159.884 54.2329 161.281 53.4264 162.652 53.7954Z" fill="#83C562"/>
<path d="M168.162 42.1358C169.383 42.8467 169.803 44.4186 169.098 45.6489C168.392 46.8791 166.832 47.3029 165.611 46.592C164.389 45.8812 163.969 44.3093 164.674 43.079C165.38 41.8488 166.94 41.425 168.162 42.1358Z" fill="#83C562"/>
<path d="M179.561 50.023C180.253 50.4331 180.497 51.3352 180.09 52.0461C179.683 52.7432 178.787 52.9892 178.095 52.5792C177.39 52.1691 177.145 51.2669 177.553 50.5698C177.96 49.859 178.855 49.6266 179.561 50.023Z" fill="#83C562"/>
<path d="M188.731 55.7096C189.288 56.0376 189.464 56.7484 189.152 57.3089C188.826 57.8693 188.121 58.0607 187.564 57.7463C187.008 57.4182 186.818 56.7074 187.144 56.147C187.456 55.5865 188.175 55.3952 188.731 55.7096Z" fill="#83C562"/>
<path d="M176.587 32.2123C177.645 33.2648 177.645 34.9871 176.587 36.0533C175.528 37.1195 173.819 37.1195 172.76 36.0533C171.715 34.9871 171.715 33.2648 172.76 32.2123C173.819 31.146 175.528 31.146 176.587 32.2123Z" fill="#10B180"/>
<path d="M185.654 42.7099C186.332 43.3933 186.332 44.5005 185.654 45.184C184.975 45.8675 183.876 45.8675 183.198 45.184C182.533 44.5005 182.533 43.3933 183.198 42.7099C183.876 42.0401 184.975 42.0401 185.654 42.7099Z" fill="#10B180"/>
<path d="M192.964 50.6791C193.48 51.1986 193.48 52.0324 192.964 52.5518C192.449 53.0713 191.621 53.0713 191.105 52.5518C190.59 52.0324 190.59 51.1986 191.105 50.6791C191.621 50.1734 192.449 50.1734 192.964 50.6791Z" fill="#10B180"/>
<path d="M187.607 24.6671C188.489 26.2117 187.973 28.1801 186.44 29.0686C184.907 29.9571 182.953 29.4377 182.071 27.893C181.189 26.3484 181.704 24.38 183.238 23.4915C184.771 22.603 186.725 23.1224 187.607 24.6671Z" fill="#10B180"/>
<path d="M193.468 37.2972C194.01 38.254 193.685 39.498 192.735 40.0447C191.772 40.6052 190.55 40.2771 189.994 39.3066C189.438 38.3497 189.763 37.1058 190.727 36.559C191.677 35.9986 192.911 36.3267 193.468 37.2972Z" fill="#10B180"/>
<path d="M198.366 46.9748C198.759 47.6719 198.529 48.5604 197.837 48.9568C197.145 49.3669 196.263 49.1209 195.856 48.4237C195.462 47.7266 195.693 46.8381 196.385 46.4417C197.077 46.0316 197.959 46.2776 198.366 46.9748Z" fill="#10B180"/>
<path d="M201.989 54.6163C202.206 54.999 202.084 55.4911 201.704 55.7098C201.324 55.9285 200.836 55.7918 200.619 55.4091C200.402 55.0264 200.524 54.5343 200.904 54.3292C201.284 54.0969 201.772 54.2336 201.989 54.6163Z" fill="#10B180"/>
<path d="M199.966 20.4568C200.455 22.2885 199.369 24.1749 197.551 24.667C195.733 25.1591 193.86 24.0655 193.372 22.2338C192.883 20.4021 193.955 18.5158 195.774 18.0237C197.605 17.5316 199.464 18.6251 199.966 20.4568Z" fill="#10B180"/>
<path d="M202.246 34.2079C202.531 35.3288 201.88 36.477 200.767 36.7777C199.654 37.0785 198.514 36.4223 198.216 35.3014C197.917 34.1806 198.582 33.0323 199.695 32.7316C200.794 32.4309 201.947 33.087 202.246 34.2079Z" fill="#10B180"/>
<path d="M204.621 44.8013C204.852 45.6898 204.336 46.6056 203.454 46.8517C202.559 47.0841 201.65 46.5646 201.419 45.6625C201.175 44.7739 201.704 43.8581 202.586 43.6121C203.481 43.3797 204.391 43.9128 204.621 44.8013Z" fill="#10B180"/>
<path d="M206.059 53.1531C206.181 53.6452 205.896 54.1373 205.421 54.2603C204.946 54.397 204.444 54.11 204.322 53.6316C204.2 53.1395 204.471 52.6474 204.96 52.5244C205.435 52.3877 205.923 52.6747 206.059 53.1531Z" fill="#10B180"/>
<path d="M212.992 19.6634C212.992 21.6864 211.363 23.3268 209.355 23.3268C207.347 23.3268 205.719 21.6864 205.719 19.6634C205.719 17.6403 207.347 15.9863 209.355 15.9863C211.363 15.9863 212.992 17.6403 212.992 19.6634Z" fill="#5291CA"/>
<path d="M211.784 33.5376C211.784 34.8909 210.698 35.9844 209.355 35.9844C208.025 35.9844 206.926 34.8909 206.926 33.5376C206.926 32.198 208.025 31.1045 209.355 31.1045C210.698 31.1045 211.784 32.198 211.784 33.5376Z" fill="#5291CA"/>
<path d="M211.01 44.3918C211.01 45.3213 210.264 46.0594 209.355 46.0594C208.446 46.0594 207.699 45.3213 207.699 44.3918C207.699 43.4759 208.446 42.7241 209.355 42.7241C210.264 42.7241 211.01 43.4759 211.01 44.3918Z" fill="#5291CA"/>
<path d="M210.454 52.8387C210.454 53.4538 209.952 53.9322 209.355 53.9322C208.758 53.9322 208.27 53.4538 208.27 52.8387C208.27 52.2372 208.758 51.7451 209.355 51.7451C209.952 51.7451 210.454 52.2372 210.454 52.8387Z" fill="#5291CA"/>
<path d="M255.357 86.9988C252.534 86.2333 250.865 83.3081 251.612 80.4785C252.371 77.6216 255.275 75.9403 258.098 76.7058C260.92 77.4576 262.589 80.3828 261.843 83.2261C261.083 86.0693 258.179 87.7643 255.357 86.9988Z" fill="#6873AB"/>
<path d="M242.493 81.7496C240.58 81.2302 239.44 79.2481 239.956 77.3207C240.472 75.3934 242.426 74.2588 244.339 74.7782C246.266 75.284 247.392 77.2661 246.876 79.1934C246.361 81.1208 244.407 82.2554 242.493 81.7496Z" fill="#6873AB"/>
<path d="M232.34 77.9769C230.942 77.6078 230.115 76.1725 230.495 74.7646C230.875 73.3703 232.299 72.5365 233.683 72.9192C235.067 73.2883 235.895 74.7236 235.529 76.1315C235.149 77.5258 233.724 78.3596 232.34 77.9769Z" fill="#6873AB"/>
<path d="M224.485 74.8736C223.603 74.6412 223.073 73.7254 223.304 72.8232C223.548 71.9347 224.457 71.4153 225.339 71.6477C226.235 71.8937 226.751 72.7959 226.52 73.6981C226.276 74.5866 225.367 75.1197 224.485 74.8736Z" fill="#6873AB"/>
<path d="M172.341 69.6388C172.341 73.7396 173.114 74.6554 176.059 74.3821C177.904 74.2044 179.152 73.1655 179.763 71.4021C180.428 69.5021 180.062 67.7934 178.691 66.3718C177.497 65.1279 176.045 64.8135 174.417 65.415C172.124 66.2625 172.219 68.1625 172.341 69.6388ZM172.341 77.8541C172.341 80.3692 172.3 82.734 172.368 85.1125C172.409 86.37 172.056 86.8895 170.685 86.8621C167.754 86.8075 167.754 86.8895 167.754 83.9506C167.754 77.3073 167.727 70.664 167.795 64.0207C167.795 63.1596 167.117 61.8746 168.568 61.4782C169.966 61.0818 170.807 61.7926 171.133 63.3236C173.019 61.7516 174.973 60.7538 177.334 60.9861C179.112 61.1638 180.672 61.8883 181.975 63.1459C184.919 65.9618 185.557 70.6913 183.494 74.3821C181.418 78.1274 177.877 79.2757 172.341 77.8541Z" fill="#1E0D36"/>
<path d="M138.783 69.8843C140.195 67.1641 141.457 64.7309 142.719 62.3115C143.031 61.71 143.248 60.9309 144.075 60.9582C144.903 60.9856 145.107 61.751 145.419 62.3662C146.681 64.772 147.943 67.1914 149.34 69.8843C150.154 67.3691 150.874 65.182 151.593 62.9949C152.027 61.669 154.714 60.7805 155.867 61.546C156.383 61.8877 156.165 62.2978 156.03 62.6942C154.456 67.5878 152.895 72.4678 151.321 77.3477C151.145 77.8808 151.009 78.4823 150.304 78.5506C149.544 78.619 149.245 78.0449 148.96 77.4707C147.386 74.4362 145.799 71.3879 144.062 68.0526C142.42 71.1965 140.927 74.1081 139.394 76.9923C139.041 77.6894 138.851 78.6736 137.779 78.5369C136.83 78.4003 136.857 77.4571 136.64 76.7873C135.147 72.1944 133.736 67.5878 132.189 63.036C131.728 61.669 132.108 61.505 133.369 61.382C135.364 61.2179 136.45 61.7784 136.87 63.8971C137.264 65.8245 138.051 67.6562 138.783 69.8843Z" fill="#1E0D36"/>
<path d="M213.223 69.7069C213.182 67.2054 211.092 65.0457 208.758 65.1004C206.397 65.1687 204.389 67.4105 204.471 69.8846C204.566 72.3314 206.56 74.3955 208.84 74.3955C211.187 74.3955 213.263 72.1811 213.223 69.7069ZM208.935 78.551C204.253 78.592 200.332 74.5732 200.332 69.7479C200.346 64.991 204.159 61.0132 208.758 60.9449C213.399 60.8902 217.361 64.95 217.361 69.7616C217.348 74.5048 213.521 78.4963 208.935 78.551Z" fill="#1E0D36"/>
<path d="M191.388 63.4874C193.342 61.4781 195.35 60.5349 197.82 61.109C198.634 61.3004 199.909 61.4917 199.353 62.6536C198.851 63.6788 199.177 65.6745 196.992 65.3601C193.803 64.9091 192.759 65.8112 192.759 68.9415C192.759 71.443 192.704 73.9445 192.772 76.4596C192.813 77.7035 192.338 78.0726 191.144 78.0863C188.132 78.1273 188.132 78.1683 188.132 75.0517C188.132 71.361 188.091 67.6566 188.159 63.9659C188.172 63.091 187.521 61.8061 189 61.4507C190.37 61.1227 191.266 61.7241 191.388 63.4874Z" fill="#1E0D36"/>
<path d="M163.686 69.6653C163.686 71.9071 163.645 74.1762 163.713 76.418C163.74 77.6072 163.387 78.195 162.125 78.072C161.569 78.0173 161.013 78.0446 160.456 78.072C159.534 78.113 159.086 77.7712 159.086 76.7734C159.113 72.0848 159.113 67.3825 159.1 62.694C159.086 61.8328 159.412 61.409 160.294 61.4227C160.972 61.4501 161.65 61.4637 162.329 61.4227C163.414 61.3544 163.727 61.9011 163.699 62.899C163.659 65.1544 163.686 67.4099 163.686 69.6653Z" fill="#1E0D36"/>
</g>
<defs>
<clipPath id="clip0">
<rect width="132" height="106.135" fill="white" transform="translate(132 16)"/>
</clipPath>
</defs>
</svg>
