<svg width="114" height="26" viewBox="0 0 114 26" fill="none" xmlns="http://www.w3.org/2000/svg">
<path d="M13.3796 26C18.1977 26 22.4278 23.5733 24.8258 19.9189C26.077 17.9295 26.7985 15.5883 26.7985 13.0826C26.7985 5.85729 20.7994 0 13.3992 0C5.99904 0 0 5.85729 0 13.0826C0 16.1402 1.07431 18.9529 2.87449 21.1803C3.71784 22.1797 4.71167 23.0565 5.82271 23.7786V12.9639C5.82265 12.9558 5.82207 12.9478 5.82149 12.9399C5.82087 12.9316 5.82027 12.9234 5.82027 12.915C5.82027 12.9066 5.82088 12.8983 5.82149 12.89C5.82207 12.882 5.82265 12.8742 5.82271 12.8661V12.7743H5.82725C5.90137 8.57565 9.24601 5.19399 13.3682 5.19399C17.5367 5.19399 20.9158 8.65075 20.9158 12.915C20.9158 17.1792 17.5367 20.636 13.3682 20.636C11.7445 20.636 10.2446 20.1066 9.01345 19.2145V25.3021C10.4215 25.765 11.8958 26.0006 13.3796 26Z" fill="#AB3328"/>
<path d="M13.607 17.283C16.0622 17.283 18.0526 15.3313 18.0526 12.9238C18.0526 10.5162 16.0622 8.56445 13.607 8.56445C11.1517 8.56445 9.16113 10.5162 9.16113 12.9238C9.16113 15.3313 11.1517 17.283 13.607 17.283Z" fill="#DFC942"/>
<path d="M35.2461 17.4597V8.70508H38.9969C41.0427 8.70508 42.3562 9.87655 42.3562 11.6891C42.3562 13.477 40.967 14.7224 38.9969 14.7224H37.2414V17.4597H35.2461ZM38.8832 13.0701C39.8178 13.0701 40.3608 12.5645 40.3608 11.6891C40.3608 10.826 39.8304 10.3574 38.8832 10.3574H37.2414V13.0824H38.8832V13.0701Z" fill="white"/>
<path d="M46.6904 17.4597V8.70508H53.0427V10.3698H48.6858V12.1946H52.6638V13.8716H48.6858V15.8075H53.0553V17.4597H46.6904Z" fill="white"/>
<path d="M62.7411 17.4597L61.1499 14.747H59.5207V17.4597H57.5254V8.70508H61.5919C63.5872 8.70508 64.8628 9.88886 64.8628 11.7261C64.8628 12.9221 64.2439 13.9085 63.1958 14.4018L65.0522 17.4597H62.7411ZM61.3772 13.1194C62.3117 13.1194 62.8674 12.5892 62.8674 11.7137C62.8674 10.8383 62.3244 10.3451 61.3772 10.3451H59.5207V13.1318H61.3772V13.1194Z" fill="white"/>
<path d="M85.2454 17.6318C82.808 17.6318 81.2295 16.0904 81.2295 13.6983V12.4529C81.2295 10.0608 82.808 8.51953 85.2454 8.51953C87.7206 8.51953 89.2614 10.0238 89.2614 12.4529V13.6983C89.2614 16.1274 87.7206 17.6318 85.2454 17.6318ZM85.2454 10.1965C83.97 10.1965 83.2248 10.998 83.2248 12.379V13.7846C83.2248 15.178 83.9572 15.9672 85.2454 15.9672C86.5209 15.9672 87.266 15.1657 87.266 13.7846V12.379C87.266 10.9856 86.5335 10.1965 85.2454 10.1965Z" fill="white"/>
<path d="M99.351 17.4597L95.7521 12.0837V17.4597H93.7939V8.70508H95.6381L99.2502 14.0812V8.70508H101.207V17.4597H99.351Z" fill="white"/>
<path d="M111.931 17.4597L111.351 15.6719H108.143L107.562 17.4597H105.566L108.786 8.70508H110.731L113.952 17.4597H111.931ZM110.82 14.0812L109.747 10.7643L108.66 14.0812H110.82Z" fill="white"/>
<path d="M75.1666 14.3773C75.0151 15.3883 74.3205 15.9926 73.2723 15.9926C71.5674 15.9926 71.3148 14.6115 71.3148 13.7853V12.4044C71.3148 11.5782 71.5674 10.1972 73.2723 10.1972C74.3079 10.1972 75.0151 10.8014 75.1666 11.8001L77.0231 11.5289C76.7705 9.75333 75.2803 8.54492 73.2849 8.54492C70.8223 8.54492 69.3447 10.0122 69.3447 12.4907V13.7114C69.3447 16.1775 70.8223 17.6572 73.2849 17.6572C75.2929 17.6572 76.7831 16.4488 77.0231 14.6731L75.1666 14.3773Z" fill="white"/>
</svg>
