<svg width="24" height="24" viewBox="0 0 24 24" fill="none" xmlns="http://www.w3.org/2000/svg">
<path d="M22.7812 0.28125H1.21875C0.700195 0.28125 0.28125 0.700195 0.28125 1.21875V22.7812C0.28125 23.2998 0.700195 23.7188 1.21875 23.7188H22.7812C23.2998 23.7188 23.7188 23.2998 23.7188 22.7812V1.21875C23.7188 0.700195 23.2998 0.28125 22.7812 0.28125ZM7.2334 20.2529H3.75586V9.06738H7.2334V20.2529ZM5.49609 7.53809C5.09744 7.53809 4.70774 7.41987 4.37627 7.19839C4.0448 6.97691 3.78646 6.66211 3.6339 6.29381C3.48134 5.9255 3.44143 5.52023 3.5192 5.12923C3.59697 4.73824 3.78894 4.37909 4.07083 4.0972C4.35272 3.81531 4.71187 3.62334 5.10286 3.54557C5.49386 3.46779 5.89913 3.50771 6.26744 3.66027C6.63575 3.81282 6.95054 4.07117 7.17202 4.40264C7.3935 4.73411 7.51172 5.12381 7.51172 5.52246C7.50879 6.63574 6.60645 7.53809 5.49609 7.53809ZM20.2529 20.2529H16.7783V14.8125C16.7783 13.5146 16.7549 11.8477 14.9707 11.8477C13.1631 11.8477 12.8848 13.2598 12.8848 14.7188V20.2529H9.41309V9.06738H12.7471V10.5967H12.7939C13.2568 9.71777 14.3906 8.78906 16.084 8.78906C19.6055 8.78906 20.2529 11.1064 20.2529 14.1182V20.2529Z" fill="white"/>
</svg>
