<svg width="24" height="24" viewBox="0 0 24 24" fill="none" xmlns="http://www.w3.org/2000/svg">
<path d="M23.04 0H0.96C0.429 0 0 0.429 0 0.96V23.04C0 23.571 0.429 24 0.96 24H23.04C23.571 24 24 23.571 24 23.04V0.96C24 0.429 23.571 0 23.04 0ZM19.68 6.171L18.456 7.344C18.348 7.425 18.297 7.557 18.318 7.686V16.317C18.297 16.449 18.348 16.581 18.456 16.659L19.656 17.832V18.093H13.632V17.844L14.871 16.641C14.994 16.518 14.994 16.482 14.994 16.299V9.315L11.544 18.063H11.079L7.065 9.315V15.18C7.029 15.426 7.116 15.675 7.29 15.852L8.904 17.805V18.066H4.32V17.805L5.934 15.852C6.01904 15.7642 6.08232 15.6576 6.11879 15.5409C6.15526 15.4242 6.16389 15.3006 6.144 15.18V8.4C6.165 8.211 6.093 8.028 5.949 7.899L4.515 6.171V5.91H8.97L12.408 13.455L15.435 5.916H19.68V6.171Z" fill="white"/>
</svg>
