<svg width="26" height="20" viewBox="0 0 26 20" fill="none" xmlns="http://www.w3.org/2000/svg">
<path d="M25.187 2.44972C24.2905 2.83644 23.3149 3.11476 22.3101 3.22316C23.3534 2.60334 24.1346 1.62413 24.5073 0.46925C23.5283 1.05164 22.4558 1.46002 21.3374 1.67628C20.87 1.17655 20.3046 0.778449 19.6766 0.506772C19.0485 0.235095 18.3713 0.0956686 17.687 0.0971801C14.9185 0.0971801 12.6919 2.34132 12.6919 5.09523C12.6919 5.48195 12.7388 5.86867 12.8149 6.24074C8.66943 6.02394 4.97217 4.04347 2.51416 1.01124C2.06629 1.77623 1.83158 2.64726 1.83447 3.5337C1.83447 5.26808 2.71631 6.79738 4.06103 7.69679C3.26857 7.66558 2.49466 7.44776 1.80225 7.06105V7.12257C1.80225 9.55128 3.51904 11.564 5.80713 12.0269C5.37752 12.1385 4.93557 12.1956 4.4917 12.1968C4.1665 12.1968 3.85889 12.1646 3.54834 12.1206C4.18115 14.1011 6.02393 15.5396 8.21826 15.5864C6.50146 16.9312 4.35107 17.7222 2.01611 17.7222C1.59717 17.7222 1.21045 17.7075 0.809082 17.6607C3.02393 19.0816 5.65185 19.9019 8.48193 19.9019C17.6694 19.9019 22.6968 12.2905 22.6968 5.68409C22.6968 5.4673 22.6968 5.2505 22.6821 5.0337C23.6548 4.32179 24.5073 3.43995 25.187 2.44972Z" fill="white"/>
</svg>
