<svg width="28" height="20" viewBox="0 0 28 20" fill="none" xmlns="http://www.w3.org/2000/svg">
<path d="M26.5771 3.6748C26.4277 3.11828 26.1347 2.61076 25.7275 2.20303C25.3203 1.79531 24.8132 1.5017 24.2568 1.35156C22.209 0.800781 14 0.800781 14 0.800781C14 0.800781 5.79102 0.800781 3.74316 1.34863C3.18658 1.49828 2.67917 1.79173 2.27189 2.19953C1.86461 2.60733 1.57179 3.11511 1.42285 3.67188C0.875 5.72266 0.875 10 0.875 10C0.875 10 0.875 14.2773 1.42285 16.3252C1.72461 17.4561 2.61523 18.3467 3.74316 18.6484C5.79102 19.1992 14 19.1992 14 19.1992C14 19.1992 22.209 19.1992 24.2568 18.6484C25.3877 18.3467 26.2754 17.4561 26.5771 16.3252C27.125 14.2773 27.125 10 27.125 10C27.125 10 27.125 5.72266 26.5771 3.6748ZM11.3926 13.9258V6.07422L18.1895 9.9707L11.3926 13.9258Z" fill="white"/>
</svg>
